<svg width="1763" height="1094" viewBox="0 0 1763 1094" fill="none" xmlns="http://www.w3.org/2000/svg">
<g clip-path="url(#clip0_112_4)">
<path d="M1763 -13H0V1094H1763V-13Z" fill="white"/>
<path d="M1763 798.47C1763 798.47 1551.18 840.646 1551.18 1094H1762.77L1763 798.47Z" fill="url(#paint0_linear_112_4)"/>
<g opacity="0.95">
<path d="M1415.57 1121.32C1415.57 1121.32 1392.75 1092.54 1414.16 1074.26C1414.16 1074.26 1429.8 1064.02 1442.55 1064.85C1442.55 1064.85 1424.48 1097.61 1430.33 1100.87C1436.17 1104.13 1448.02 1062.8 1448.02 1062.8C1448.02 1062.8 1483.61 1059.07 1495.06 1065.02C1495.06 1065.02 1464.64 1091.94 1471.04 1093.54C1477.45 1095.15 1510.31 1068.72 1510.31 1068.72C1510.31 1068.72 1543.43 1074.81 1541.67 1096.66C1539.9 1118.51 1528.49 1125.26 1523.48 1124.68C1518.46 1124.1 1489.12 1111.98 1488.48 1116.43C1487.84 1120.87 1505.5 1135.4 1517.87 1136.08C1517.87 1136.08 1494.52 1163.93 1479 1155.89C1463.48 1147.85 1462.15 1135.11 1452.48 1130.34C1442.81 1125.56 1434.55 1125.57 1438.54 1130.44C1442.54 1135.32 1460.05 1140.05 1465.58 1150.63C1471.11 1161.22 1476.07 1168.36 1460.02 1165.74C1443.96 1163.13 1417.86 1150.42 1416.72 1135.87C1415.57 1121.32 1415.57 1121.32 1415.57 1121.32Z" fill="#1B2251"/>
<path d="M1525.4 1097.25C1525.4 1097.25 1435.44 1093.5 1415.57 1121.32C1415.57 1121.32 1411.18 1135.56 1397.66 1148.51L1395.55 1154.73C1395.55 1154.73 1411.14 1136.95 1416.72 1135.88C1416.72 1135.87 1408 1101.4 1525.4 1097.25Z" fill="#1B2251"/>
<path d="M1180.49 886.186C1180.49 886.186 1215.39 865.049 1199.11 836.365C1199.11 836.365 1186.08 818.754 1172.12 814.223C1172.12 814.223 1179.56 856.998 1172.12 858.004C1164.67 859.01 1167 809.692 1167 809.692C1167 809.692 1130.24 790.567 1115.81 792.081C1115.81 792.081 1138.61 833.85 1131.16 832.844C1123.72 831.839 1098.12 789.566 1098.12 789.566C1098.12 789.566 1060.43 782.018 1054.38 806.172C1048.33 830.325 1058.11 842.404 1063.69 843.913C1069.27 845.422 1105.1 844.919 1104.17 849.953C1103.24 854.987 1079.04 863.038 1065.55 858.507C1065.55 858.507 1080.44 898.26 1099.98 896.249C1119.53 894.237 1125.58 881.152 1137.68 880.146C1149.78 879.14 1158.62 882.661 1152.57 886.186C1146.52 889.706 1126.04 887.341 1116.27 896.323C1106.5 905.306 1098.59 910.842 1116.74 914.87C1134.89 918.894 1167.46 916.379 1173.97 901.282C1180.49 886.186 1180.49 886.186 1180.49 886.186Z" fill="#242E6C"/>
<path d="M1071.6 813.72C1071.6 813.72 1169.32 847.941 1180.49 886.186C1180.49 886.186 1180.03 903.294 1189.8 922.922V930.47C1189.8 930.47 1179.56 904.803 1173.98 901.282C1173.98 901.282 1195.85 868.067 1071.6 813.72Z" fill="#1B2251"/>
<path d="M1189.8 922.922C1189.8 922.922 1204.87 947.671 1196.28 977.795L1192.4 976.668C1192.4 976.668 1196.17 943.485 1188.28 926.796C1180.39 910.111 1189.8 922.922 1189.8 922.922Z" fill="#6615B2"/>
<path d="M1393.54 1054.81C1393.54 1054.81 1345.7 1025.84 1368.02 986.517C1368.02 986.517 1385.88 962.372 1405.02 956.165C1405.02 956.165 1394.81 1014.8 1405.02 1016.18C1415.23 1017.57 1412.04 949.958 1412.04 949.958C1412.04 949.958 1462.43 923.746 1482.21 925.813C1482.21 925.813 1450.95 983.071 1461.16 981.692C1471.36 980.314 1506.45 922.367 1506.45 922.367C1506.45 922.367 1558.12 912.02 1566.41 945.133C1574.71 978.246 1561.31 994.801 1553.65 996.873C1546 998.94 1496.88 998.251 1498.15 1005.15C1499.43 1012.05 1532.6 1023.09 1551.1 1016.88C1551.1 1016.88 1530.68 1071.37 1503.89 1068.62C1477.1 1065.86 1468.81 1047.92 1452.22 1046.54C1435.63 1045.16 1423.51 1049.99 1431.8 1054.82C1440.1 1059.65 1468.16 1056.4 1481.56 1068.72C1494.96 1081.04 1505.8 1088.62 1480.92 1094.14C1456.04 1099.66 1411.39 1096.21 1402.46 1075.52C1393.54 1054.81 1393.54 1054.81 1393.54 1054.81Z" fill="#242E6C"/>
<path d="M1542.81 955.471C1542.81 955.471 1408.85 1002.38 1393.54 1054.81C1393.54 1054.81 1394.18 1078.27 1380.78 1105.17V1115.51C1380.78 1115.51 1394.81 1080.33 1402.47 1075.5C1402.47 1075.5 1372.49 1029.98 1542.81 955.471Z" fill="#1B2251"/>
<path d="M1380.78 1105.17C1380.78 1105.17 1360.12 1139.1 1371.9 1180.39L1377.21 1178.85C1377.21 1178.85 1372.05 1133.36 1382.86 1110.48C1393.67 1087.61 1380.78 1105.17 1380.78 1105.17Z" fill="#6615B2"/>
<path d="M943.707 912.766C943.707 912.766 935.371 920.259 944.556 929.777C944.556 929.777 936.676 932.752 934.118 930.731C934.118 930.731 934.652 931.76 935.121 932.207C935.121 932.207 927.051 932.999 923.576 930.47C920.101 927.942 919.985 883.085 942.678 886.759C942.678 886.759 961.621 884.082 961.048 907.984C960.479 931.886 967.658 931.462 967.658 931.462C967.658 931.462 965.716 932.645 964.751 932.701C964.751 932.701 963.313 932.203 962.99 931.379C962.99 931.379 963.334 932.687 963.718 933.083C963.718 933.083 956.005 934.335 951.975 931.397C947.944 928.459 942.85 917.739 943.707 912.766Z" fill="#9B53C9"/>
<path d="M942.488 924.984C942.488 924.984 936.012 918.311 933.329 911.834C931.413 907.21 922.172 888.486 939.439 886.558C939.439 886.558 951.768 885.93 957.085 888.02C961.318 889.683 967.859 893.976 965.646 911.21L965.353 916.91L942.488 924.984Z" fill="#1B2251"/>
<path d="M922.775 1057.99C922.035 1038.33 920.441 1021.23 918.534 1009.3C915.494 990.284 912.755 979.345 912.725 979.229C912.324 977.557 906.537 970.791 893.675 971.001C880.808 971.21 882.031 980.081 882.031 980.081C882.031 980.379 882.066 980.659 882.122 980.868C882.246 981.324 894.054 1027.63 893.541 1087.42C893.533 1088.25 893.447 1089.71 893.503 1090.67C893.503 1090.68 923.313 1091.5 923.322 1090.67C924.36 1085.45 923.856 1070.97 922.775 1057.99Z" fill="#F24B46"/>
<path d="M926.522 1087.12C926.513 1087.96 926.104 1088.62 925.609 1088.62H925.596C925.101 1088.61 924.704 1087.94 924.7 1087.12H899.152C899.144 1087.96 898.735 1088.62 898.239 1088.62H898.226C897.723 1088.61 897.322 1087.92 897.326 1087.08C897.473 1069.96 896.573 1053.98 895.208 1039.88C891.81 1004.7 885.532 981.194 885.442 980.868C885.386 980.659 885.351 980.379 885.351 980.077C885.351 980.077 884.133 971.206 896.995 970.996C909.861 970.787 915.649 977.553 916.049 979.224C916.075 979.313 917.621 985.506 919.683 996.64C920.368 1000.33 921.105 1004.56 921.858 1009.29C923.766 1021.22 925.359 1038.32 926.1 1057.98C927.18 1070.97 927.559 1081.9 926.522 1087.12Z" fill="#F9795A"/>
<path d="M895.44 1088.62H995.608C995.608 1088.62 993.274 1078.41 935.267 1079.93C894.213 1081.01 895.44 1088.62 895.44 1088.62Z" fill="#FD8857"/>
<path d="M887.289 1195.24C898.902 1131.66 895.918 1092.65 895.901 1092.16C895.871 1091.18 897.542 1090.29 898.437 1090.26C899.346 1090.24 903.355 1089.97 903.82 1090.81C904.427 1091.9 906.765 1139.97 889.459 1195.24H887.289V1195.24Z" fill="#F9795A"/>
<path d="M980.813 1195.24C969.199 1131.66 972.183 1092.65 972.201 1092.16C972.231 1091.18 970.56 1090.29 969.664 1090.26C968.756 1090.24 964.747 1089.97 964.282 1090.81C963.675 1091.9 961.336 1139.97 978.642 1195.24H980.813V1195.24Z" fill="#F9795A"/>
<path d="M999.346 1195.24C987.733 1131.66 990.717 1092.65 990.734 1092.16C990.764 1091.18 989.093 1090.29 988.198 1090.26C987.289 1090.24 983.28 1089.97 982.815 1090.81C982.208 1091.9 979.87 1139.97 997.176 1195.24H999.346V1195.24Z" fill="#F9795A"/>
<path d="M905.947 1195.24C917.561 1131.66 914.577 1092.65 914.559 1092.16C914.529 1091.18 916.2 1090.29 917.096 1090.26C918.004 1090.24 922.013 1089.97 922.478 1090.81C923.086 1091.9 925.424 1139.97 908.118 1195.24H905.947V1195.24Z" fill="#F9795A"/>
<path d="M995.539 1091.88H895.634C894.433 1091.88 893.451 1090.81 893.451 1089.52V1088.34C893.451 1087.04 894.433 1085.98 895.634 1085.98H995.539C996.741 1085.98 997.723 1087.04 997.723 1088.34V1089.52C997.718 1090.81 996.737 1091.88 995.539 1091.88Z" fill="#F24B46"/>
<path d="M950.937 1036.38C950.937 1036.38 1004.29 1054.25 1015.77 1064.57C1027.25 1074.89 1035.25 1177.26 1035.25 1177.26C1035.25 1177.26 1033.88 1178.16 1031.08 1178.09C1028.47 1178.02 1022.99 1175.58 1022.99 1175.58C1022.99 1175.58 999.544 1126.96 998.876 1115.46C998.205 1103.95 999.914 1094.01 995.32 1093.09C990.725 1092.16 932.081 1091.83 925.376 1073.96C918.667 1056.1 927.878 1040.67 927.878 1040.67L950.937 1036.38Z" fill="#1B2251"/>
<path d="M936.973 1041.79C936.973 1041.79 991.918 1054.26 1003.4 1064.57C1014.88 1074.89 1022.88 1177.26 1022.88 1177.26C1022.88 1177.26 1021.51 1178.16 1018.7 1178.09C1016.09 1178.02 1010.62 1175.58 1010.62 1175.58C1010.62 1175.58 987.173 1126.96 986.505 1115.46C985.834 1103.95 987.543 1094.01 982.949 1093.09C978.354 1092.16 919.71 1091.83 913.005 1073.96C906.296 1056.1 915.507 1040.67 915.507 1040.67L936.973 1041.79Z" fill="#242E6C"/>
<path d="M957.616 945.934C957.68 945.967 951.217 949.594 946.355 948.16C941.782 946.81 938.794 940.398 938.858 940.384C940.796 939.969 941.352 937.091 941.313 924.724L942.187 924.91L956.909 928.062C956.909 928.062 956.574 933.073 956.565 937.79C956.556 941.753 956.78 945.511 957.616 945.934Z" fill="#FF9792"/>
<path d="M956.909 928.058C956.909 928.058 956.573 933.068 956.565 937.785C948.327 937.534 943.974 929.408 942.187 924.905L956.909 928.058Z" fill="#FF938F"/>
<path d="M959.662 932.528C959.662 932.528 940.172 932.877 940.155 919.746C940.142 906.614 937.619 897.818 950.059 897.04C962.504 896.263 964.928 901.268 965.914 905.65C966.913 910.032 964.734 932.1 959.662 932.528Z" fill="#FF9792"/>
<path d="M914.214 1002.64C912.294 993.921 918.83 977.003 925.66 963.001C931.852 950.307 938.285 940.011 938.862 940.384C955.2 950.87 956.672 942.153 956.672 942.153C956.677 942.153 971.511 944.281 975.714 952.104C980.924 961.809 986.556 988.924 992.15 994.06C991.293 996.901 991.659 998.419 992.568 1001.94C992.761 1002.69 992.977 1003.41 993.214 1004.09C994.058 1006.57 995.113 1008.58 996.021 1010.33C993.179 1012.19 987.689 1015.75 983.645 1013.19C977.479 1009.29 972.669 997.404 969.961 992.673C969.952 992.654 969.939 992.635 969.931 992.621C964.044 1028.65 972.049 1036.85 967.997 1040.65C963.721 1044.66 957.607 1038.74 944.163 1045.04C935.344 1049.18 923.106 1055.16 914.869 1056.2C910.55 1056.75 907.325 1055.93 906.274 1052.78C903.212 1043.61 917.883 1019.26 914.214 1002.64Z" fill="#7F22BA"/>
<path d="M955.329 924.57C955.329 924.57 955.691 926.237 959.527 925.981C959.527 925.981 962.748 925.767 962.649 923.932C962.654 923.932 959.527 922.628 955.329 924.57Z" fill="white"/>
<path d="M903.484 1015.44C907.85 1008.81 912.402 1005.3 915.399 1003.53C914.71 1001.61 933.773 976.337 933.773 972.421C933.773 968.458 938.858 940.374 938.858 940.374C938.858 940.374 922.973 941.436 917.474 949.729C910.598 960.104 896.314 1000.03 903.484 1015.44Z" fill="#7F22BA"/>
<path d="M915.399 1003.54L947.144 1012.5L944.164 1018.28C944.164 1018.28 905.534 1017.99 903.489 1015.44C901.439 1012.9 915.399 1003.54 915.399 1003.54Z" fill="#FF9792"/>
<path d="M969.961 992.673C972.669 997.404 977.479 1009.28 983.646 1013.19C987.689 1015.75 993.179 1012.19 996.021 1010.33C995.113 1008.58 994.058 1006.57 993.214 1004.09C990.944 1004.65 988.176 1005.37 986.389 1005.95C982.918 1007.08 969.961 992.673 969.961 992.673Z" fill="#994EC8"/>
<path d="M966.723 987.96L949.731 1028.72L990.01 1032.83L1005.86 991.443L966.723 987.96Z" fill="#1B2251"/>
<path d="M1005.86 991.443L1024.65 978.554L1005.86 1023L990.01 1032.84C990.854 1030.62 1005.86 991.443 1005.86 991.443Z" fill="#242E6C"/>
<path d="M947.144 1012.49C947.144 1012.49 953.013 1009.7 954.498 1008.27C955.458 1007.35 955.385 1008.66 955.295 1009.02C955.114 1009.75 954.873 1011.2 953.159 1012.42C950.696 1014.17 947.144 1012.49 947.144 1012.49Z" fill="#FF9792"/>
<path d="M957.68 892.323C957.68 892.323 951.462 911.182 942.527 914.237C933.596 917.292 930.707 913.427 930.707 913.427C930.707 913.427 937.356 907.047 938.268 896.542C938.277 896.542 952.819 884.477 957.68 892.323Z" fill="#1B2251"/>
<path d="M956.289 893.795C956.289 893.795 960.888 897.338 962.15 900.975C963.411 904.612 964.281 912.193 966.318 911.816C966.318 911.816 970.181 899.974 964.85 893.715C959.2 887.08 956.289 893.795 956.289 893.795Z" fill="#1B2251"/>
<path d="M957.137 894.321C957.137 894.321 953.834 912.412 942.69 918.801C942.69 918.801 953.568 907.164 953.942 895.327C954.317 883.494 957.137 894.321 957.137 894.321Z" fill="#1B2251"/>
<path d="M923.576 930.466C927.051 932.999 935.12 932.207 935.12 932.207C934.651 931.76 934.117 930.731 934.117 930.731C938.88 933.283 948.237 928.319 948.237 928.319C939.952 928.352 939.952 915.416 942.527 914.238C942.161 904.571 942.863 892.254 943.237 886.708C942.876 886.731 942.673 886.759 942.673 886.759C919.989 883.08 920.105 927.942 923.576 930.466Z" fill="#1B2251"/>
<path d="M947.143 1012.49C947.143 1012.49 957.448 1010.36 959.726 1010.9C961.999 1011.44 967.089 1013.8 967.468 1014.31C967.847 1014.82 965.991 1015.11 964.656 1014.52C962.947 1013.76 960.105 1014.07 960.105 1014.07C960.105 1014.07 965.582 1016.02 966.921 1016.84C967.055 1016.92 967.059 1017.13 966.93 1017.22C966.568 1017.47 965.685 1017.56 964.467 1017.23C962.714 1016.77 959.584 1016.46 959.584 1016.46L965.81 1018.68C965.888 1018.7 965.939 1018.79 965.931 1018.87C965.888 1019.2 965.345 1019.49 963.851 1019.4C962.697 1019.32 958.873 1018.27 958.873 1018.27L962.146 1020.63C962.146 1020.63 961.246 1021.18 959.541 1020.36C958.369 1019.79 954.847 1018.4 953.994 1018.5C953.142 1018.6 948.78 1019.89 946.885 1019.22C944.99 1018.56 944.168 1018.27 944.168 1018.27L947.143 1012.49Z" fill="#FF9792"/>
<path d="M935.388 1195.24C936.297 1195.24 937.076 1194.55 937.231 1193.61L946.261 1138.26L959.252 1058.65L962.887 1036.38L953.633 1036.1L952.027 1049.02L940.758 1139.83L934.075 1193.66C933.967 1194.5 934.583 1195.24 935.388 1195.24Z" fill="#F9795A"/>
<path d="M952.021 1049.02C958.015 1051.88 959.247 1058.65 959.247 1058.65L962.881 1036.38L953.628 1036.1L952.021 1049.02Z" fill="#F24B46"/>
<path d="M1165.5 1195.24C1164.59 1195.24 1163.82 1194.55 1163.66 1193.61L1154.63 1138.26L1141.64 1058.65L1138 1036.38L1147.26 1036.1L1148.86 1049.02L1160.13 1139.83L1166.82 1193.66C1166.92 1194.5 1166.31 1195.24 1165.5 1195.24Z" fill="#F9795A"/>
<path d="M1148.87 1049.02C1142.88 1051.88 1141.64 1058.65 1141.64 1058.65L1138.01 1036.38L1147.26 1036.1L1148.87 1049.02Z" fill="#7B36BD"/>
<path d="M927.998 1045.12H1167.35C1169.79 1045.12 1171.78 1042.97 1171.78 1040.33V1038.83C1171.78 1036.19 1169.79 1034.04 1167.35 1034.04H927.998C925.561 1034.04 923.567 1036.19 923.567 1038.83V1040.33C923.572 1042.97 925.561 1045.12 927.998 1045.12Z" fill="#F24B46"/>
<path d="M1424.63 1056.44H1379.39C1378.14 1056.44 1377.12 1055.33 1377.12 1053.98C1377.12 1052.63 1378.14 1051.52 1379.39 1051.52H1424.63C1425.89 1051.52 1426.91 1052.63 1426.91 1053.98C1426.91 1055.33 1425.88 1056.44 1424.63 1056.44Z" fill="#FF7D78"/>
<path d="M1424.63 1066.07H1379.39C1378.14 1066.07 1377.12 1064.97 1377.12 1063.62C1377.12 1062.26 1378.14 1061.16 1379.39 1061.16H1424.63C1425.89 1061.16 1426.91 1062.27 1426.91 1063.62C1426.91 1064.97 1425.88 1066.07 1424.63 1066.07Z" fill="#FF7D78"/>
<path d="M1434.16 650.101V1179.84C1434.16 1188.02 1428.07 1194.73 1420.55 1194.94C1420.43 1194.94 1420.32 1194.94 1420.19 1194.94H1175.23C1167.55 1194.94 1161.27 1188.15 1161.27 1179.84V650.101C1161.27 641.794 1167.55 635 1175.23 635H1420.19C1427.88 635 1434.16 641.794 1434.16 650.101Z" fill="#F24B46"/>
<path d="M1448.59 650.101V1179.84C1448.59 1188.14 1442.3 1194.94 1434.62 1194.94H1189.66C1181.97 1194.94 1175.7 1188.15 1175.7 1179.84V650.101C1175.7 641.794 1181.97 635 1189.66 635H1434.62C1442.3 635 1448.59 641.794 1448.59 650.101Z" fill="#F9795A"/>
<path d="M1352.13 656.197H1281.19C1279.67 656.197 1278.43 654.856 1278.43 653.212C1278.43 651.568 1279.67 650.227 1281.19 650.227H1352.13C1353.65 650.227 1354.89 651.568 1354.89 653.212C1354.89 654.851 1353.64 656.197 1352.13 656.197Z" fill="#F24B46"/>
<path d="M1268.59 656.197C1267.08 656.197 1265.83 654.856 1265.83 653.212C1265.83 651.568 1267.07 650.227 1268.59 650.227C1270.11 650.227 1271.35 651.568 1271.35 653.212C1271.35 654.851 1270.11 656.197 1268.59 656.197Z" fill="#F24B46"/>
<path d="M1434.02 669.491H1192.03V1135.29H1434.02V669.491Z" fill="#242E6C"/>
<path d="M1434.16 707.214V890.456H1203.68C1201.1 890.456 1198.98 888.03 1198.98 885.063V712.616C1198.98 709.645 1201.1 707.214 1203.68 707.214H1434.16Z" fill="#B1C9F6"/>
<path d="M1368.42 927.303V1099.75C1368.42 1102.72 1366.51 1105.14 1364.18 1105.14H1192.03V921.902H1364.18C1366.51 921.902 1368.42 924.328 1368.42 927.303Z" fill="#B1C9F6"/>
<path d="M1540.05 697.38V869.827C1540.05 872.789 1537.81 875.219 1535.06 875.219H1212.12C1209.38 875.219 1207.13 872.793 1207.13 869.827V697.38C1207.13 694.404 1209.38 691.978 1212.12 691.978H1535.06C1537.81 691.978 1540.05 694.404 1540.05 697.38Z" fill="#EFECEA"/>
<path d="M1321.35 806.224C1341.08 806.224 1357.07 798.375 1357.07 788.692C1357.07 779.01 1341.08 771.161 1321.35 771.161C1301.63 771.161 1285.63 779.01 1285.63 788.692C1285.63 798.375 1301.63 806.224 1321.35 806.224Z" fill="#D8DEE8"/>
<path opacity="0.3" d="M1321.35 799.268C1337.1 799.268 1349.87 794.306 1349.87 788.185C1349.87 782.063 1337.1 777.101 1321.35 777.101C1305.6 777.101 1292.83 782.063 1292.83 788.185C1292.83 794.306 1305.6 799.268 1321.35 799.268Z" fill="#D8DEE8"/>
<path d="M1321.35 799.27C1337.61 799.27 1350.79 790.382 1350.79 779.419C1350.79 768.456 1337.61 759.568 1321.35 759.568C1305.09 759.568 1291.91 768.456 1291.91 779.419C1291.91 790.382 1305.09 799.27 1321.35 799.27Z" fill="#AABBCC"/>
<path d="M1321.35 794.633C1337.61 794.633 1350.79 786.784 1350.79 777.102C1350.79 767.419 1337.61 759.57 1321.35 759.57C1305.09 759.57 1291.91 767.419 1291.91 777.102C1291.91 786.784 1305.09 794.633 1321.35 794.633Z" fill="url(#paint1_linear_112_4)"/>
<path d="M1311.99 776.687C1312.38 776.222 1312.1 773.65 1311.33 771.763C1310.23 769.088 1308.08 767.673 1307.57 767.359C1307.02 767.018 1306.53 766.826 1306.11 765.993C1305.5 764.793 1305.48 763.155 1305.24 763.175C1305.06 763.189 1305.12 764.097 1304.76 764.456C1304.27 764.952 1303.61 763.756 1303.11 764.313C1302.89 764.553 1302.83 764.989 1302.82 765.033C1302.7 765.799 1303.13 766.341 1303.01 766.711C1302.87 767.119 1302.33 766.569 1301.87 766.994C1301.36 767.467 1301.08 769.041 1301.36 770.061C1301.7 771.296 1302.72 771.202 1302.78 772.103C1302.82 772.772 1302.28 773.035 1302.23 773.754C1302.17 774.841 1303.29 776.358 1304.52 776.863C1307.01 777.887 1308.51 774.173 1310.65 775.702C1311.34 776.202 1311.73 776.991 1311.99 776.687Z" fill="url(#paint2_linear_112_4)"/>
<path d="M1309.58 774.237C1308.47 773.983 1308.03 775.636 1306.31 775.935C1304.87 776.185 1303.35 775.355 1303.24 774.276C1303.17 773.576 1303.74 773.257 1303.7 772.338C1303.64 770.978 1302.35 770.542 1302.4 769.607C1302.45 768.776 1303.49 768.825 1303.75 767.556C1303.94 766.595 1303.49 765.84 1303.73 765.389C1304.03 764.838 1304.77 765.832 1305.36 765.332C1305.49 765.219 1305.6 765.044 1305.69 764.828C1305.79 765.217 1305.92 765.625 1306.11 765.992C1306.53 766.824 1307.02 767.017 1307.57 767.358C1308.08 767.671 1310.23 769.086 1311.33 771.761C1312.1 773.648 1312.38 776.221 1311.99 776.686C1311.83 776.864 1311.64 776.666 1311.36 776.372C1310.69 774.83 1310.07 774.348 1309.58 774.237Z" fill="url(#paint3_linear_112_4)"/>
<path d="M1312.07 778.251C1312.67 777.696 1314.23 776.08 1314.85 772.92C1315.87 767.765 1313.77 761.735 1312.29 761.579C1311.79 761.527 1311.37 762.146 1310.48 761.836C1309.87 761.624 1309.79 761.233 1309.18 761.136C1308.63 761.048 1307.79 761.226 1307.59 762.012C1307.45 762.557 1307.7 763.072 1307.53 763.341C1307.33 763.663 1306.92 763.015 1306.59 763.218C1306.1 763.513 1305.78 765.624 1306.12 767.196C1306.73 769.952 1308.97 769.17 1310.62 772.108C1311.65 773.941 1311.97 776.362 1312.07 778.251Z" fill="url(#paint4_linear_112_4)"/>
<path d="M1312.38 777.338C1312.38 777.338 1313.83 773.228 1313.13 769.003C1312.43 764.779 1311.73 765.351 1311.41 765.091C1311.08 764.831 1311.8 766.646 1312.15 768.041C1312.49 769.435 1313.3 770.68 1312.38 777.338Z" fill="url(#paint5_linear_112_4)"/>
<path opacity="0.3" d="M1306.59 763.218C1306.92 763.016 1307.33 763.663 1307.53 763.341C1307.7 763.072 1307.45 762.557 1307.59 762.012C1307.79 761.226 1308.63 761.048 1309.18 761.136C1309.79 761.233 1309.87 761.623 1310.48 761.836C1311.37 762.145 1311.79 761.527 1312.29 761.579C1313.74 761.731 1315.79 767.545 1314.9 772.635C1315.06 770.692 1315.02 768.36 1314.38 766.172C1314.26 765.737 1313.34 762.571 1312.27 762.688C1311.71 762.747 1311.56 763.63 1310.94 763.63C1310.04 763.63 1309.67 761.796 1309.1 762.053C1308.57 762.297 1308.69 764.045 1308.01 764.484C1307.53 764.796 1307.2 764.08 1306.8 764.292C1306.5 764.447 1306.21 765.082 1306.06 766.84C1305.83 765.323 1306.14 763.492 1306.59 763.218Z" fill="url(#paint6_linear_112_4)"/>
<path d="M1328.95 773.903C1328.95 773.903 1312.47 766.653 1308.18 771.159C1303.9 775.665 1303.79 785.581 1312.32 785.814C1320.86 786.048 1331.26 783.336 1331.26 783.336V779.418L1328.95 773.903Z" fill="url(#paint7_linear_112_4)"/>
<path d="M1328.95 769.985C1328.95 769.985 1312.47 766.653 1308.18 771.159C1303.9 775.665 1303.79 781.663 1312.32 781.897C1320.86 782.13 1331.26 779.418 1331.26 779.418L1328.95 769.985Z" fill="url(#paint8_linear_112_4)"/>
<g opacity="0.5">
<path opacity="0.5" d="M1314.33 771.298C1314.13 771.041 1313.85 771.115 1313.7 771.463L1311.01 777.762C1310.86 778.11 1310.9 778.6 1311.1 778.858C1311.3 779.116 1311.59 779.041 1311.74 778.694L1314.43 772.394C1314.57 772.046 1314.53 771.556 1314.33 771.298Z" fill="url(#paint9_linear_112_4)"/>
<path opacity="0.5" d="M1318.18 770.906C1317.97 770.649 1317.69 770.723 1317.54 771.071L1314.85 777.37C1314.7 777.718 1314.75 778.209 1314.95 778.466C1315.15 778.723 1315.43 778.649 1315.58 778.302L1318.27 772.002C1318.42 771.654 1318.38 771.164 1318.18 770.906Z" fill="url(#paint10_linear_112_4)"/>
<path opacity="0.5" d="M1322.02 770.515C1321.82 770.258 1321.54 770.332 1321.39 770.679L1318.7 776.979C1318.55 777.327 1318.59 777.818 1318.79 778.075C1318.99 778.332 1319.28 778.258 1319.43 777.911L1322.11 771.611C1322.26 771.263 1322.22 770.773 1322.02 770.515Z" fill="url(#paint11_linear_112_4)"/>
<path opacity="0.5" d="M1325.86 770.123C1325.66 769.865 1325.38 769.939 1325.23 770.287L1322.54 776.587C1322.39 776.934 1322.44 777.426 1322.64 777.682C1322.84 777.94 1323.12 777.866 1323.27 777.518L1325.96 771.219C1326.11 770.871 1326.07 770.381 1325.86 770.123Z" fill="url(#paint12_linear_112_4)"/>
</g>
<path d="M1540.05 697.38V869.827C1540.05 872.793 1537.44 875.219 1534.25 875.219H1373.59V691.978H1534.25C1537.44 691.978 1540.05 694.404 1540.05 697.38Z" fill="#FFD4D2"/>
<path d="M1468.83 715.829H1408.37C1407.38 715.829 1406.57 714.949 1406.57 713.873C1406.57 712.798 1407.38 711.917 1408.37 711.917H1468.83C1469.83 711.917 1470.64 712.798 1470.64 713.873C1470.65 714.944 1469.83 715.829 1468.83 715.829Z" fill="#FD8857"/>
<path d="M1468.83 723.368H1408.37C1407.38 723.368 1406.57 722.488 1406.57 721.412C1406.57 720.337 1407.38 719.456 1408.37 719.456H1468.83C1469.83 719.456 1470.64 720.337 1470.64 721.412C1470.65 722.488 1469.83 723.368 1468.83 723.368Z" fill="#FD8857"/>
<path d="M1397.66 716.248H1395.64C1394.6 716.248 1393.74 715.321 1393.74 714.19V713.543C1393.74 712.411 1394.6 711.484 1395.64 711.484H1397.66C1398.71 711.484 1399.56 712.411 1399.56 713.543V714.19C1399.56 715.321 1398.71 716.248 1397.66 716.248Z" fill="#FD8857"/>
<path d="M1468.83 743.592H1408.37C1407.38 743.592 1406.57 742.711 1406.57 741.636C1406.57 740.56 1407.38 739.68 1408.37 739.68H1468.83C1469.83 739.68 1470.64 740.56 1470.64 741.636C1470.65 742.711 1469.83 743.592 1468.83 743.592Z" fill="#FD8857"/>
<path d="M1468.83 751.135H1408.37C1407.38 751.135 1406.57 750.255 1406.57 749.18C1406.57 748.104 1407.38 747.224 1408.37 747.224H1468.83C1469.83 747.224 1470.64 748.104 1470.64 749.18C1470.65 750.255 1469.83 751.135 1468.83 751.135Z" fill="#FD8857"/>
<path d="M1397.66 744.015H1395.64C1394.6 744.015 1393.74 743.089 1393.74 741.957V741.31C1393.74 740.178 1394.6 739.252 1395.64 739.252H1397.66C1398.71 739.252 1399.56 740.178 1399.56 741.31V741.957C1399.56 743.089 1398.71 744.015 1397.66 744.015Z" fill="#FD8857"/>
<path d="M1468.83 771.052H1408.37C1407.38 771.052 1406.57 770.172 1406.57 769.096C1406.57 768.02 1407.38 767.14 1408.37 767.14H1468.83C1469.83 767.14 1470.64 768.02 1470.64 769.096C1470.65 770.172 1469.83 771.052 1468.83 771.052Z" fill="#FD8857"/>
<path d="M1468.83 778.591H1408.37C1407.38 778.591 1406.57 777.711 1406.57 776.635C1406.57 775.559 1407.38 774.679 1408.37 774.679H1468.83C1469.83 774.679 1470.64 775.559 1470.64 776.635C1470.65 777.711 1469.83 778.591 1468.83 778.591Z" fill="#FD8857"/>
<path d="M1397.66 771.471H1395.64C1394.6 771.471 1393.74 770.544 1393.74 769.413V768.765C1393.74 767.634 1394.6 766.707 1395.64 766.707H1397.66C1398.71 766.707 1399.56 767.634 1399.56 768.765V769.413C1399.56 770.549 1398.71 771.471 1397.66 771.471Z" fill="#FD8857"/>
<path d="M1380.59 909.171V1081.62C1380.59 1084.59 1378.35 1087.02 1375.6 1087.02H1052.67C1049.92 1087.02 1047.67 1084.59 1047.67 1081.62V909.171C1047.67 906.204 1049.92 903.778 1052.67 903.778H1375.6C1378.35 903.778 1380.59 906.209 1380.59 909.171Z" fill="#FD8857"/>
<path d="M1380.59 909.171V1081.62C1380.59 1084.59 1378.34 1087.02 1375.61 1087.02H1231.97V903.778H1375.61C1378.35 903.778 1380.59 906.204 1380.59 909.171Z" fill="#EFECEA"/>
<path d="M1091 933.692C1081.11 933.692 1073.1 942.363 1073.1 953.059C1073.1 963.755 1081.11 972.426 1091 972.426C1100.9 972.426 1108.91 963.755 1108.91 953.059C1108.91 942.358 1100.9 933.692 1091 933.692ZM1103.41 953.674H1091C1090.69 953.674 1090.43 953.399 1090.43 953.054V938.633C1090.43 938.293 1090.69 938.014 1091 938.014C1091.32 938.014 1091.58 938.288 1091.58 938.633V952.435H1103.41C1103.72 952.435 1103.98 952.71 1103.98 953.054C1103.98 953.394 1103.72 953.674 1103.41 953.674Z" fill="#EFECEA"/>
<path d="M1089.22 1008.64C1080.32 1008.64 1073.1 1016.44 1073.1 1026.07C1073.1 1035.69 1089.22 1057.1 1089.22 1057.1C1089.22 1057.1 1105.34 1035.7 1105.34 1026.07C1105.34 1016.44 1098.12 1008.64 1089.22 1008.64ZM1089.22 1034.04C1085.06 1034.04 1081.68 1030.4 1081.68 1025.89C1081.68 1021.39 1085.05 1017.74 1089.22 1017.74C1093.38 1017.74 1096.75 1021.39 1096.75 1025.89C1096.75 1030.4 1093.38 1034.04 1089.22 1034.04Z" fill="#EFECEA"/>
<path d="M1179.73 1019.37H1121.07C1119.58 1019.37 1118.36 1018.05 1118.36 1016.44C1118.36 1014.83 1119.58 1013.52 1121.07 1013.52H1179.73C1181.22 1013.52 1182.44 1014.84 1182.44 1016.44C1182.44 1018.06 1181.22 1019.37 1179.73 1019.37Z" fill="#242E6C"/>
<path d="M1164.5 1030.57H1120.7C1119.42 1030.57 1118.37 1029.44 1118.37 1028.04V1027.25C1118.37 1025.86 1119.42 1024.72 1120.7 1024.72H1164.5C1165.78 1024.72 1166.83 1025.86 1166.83 1027.25V1028.04C1166.83 1029.43 1165.78 1030.57 1164.5 1030.57Z" fill="#242E6C"/>
<path d="M1179.73 950.381H1121.07C1119.58 950.381 1118.36 949.064 1118.36 947.457C1118.36 945.846 1119.58 944.533 1121.07 944.533H1179.73C1181.22 944.533 1182.44 945.85 1182.44 947.457C1182.44 949.064 1181.22 950.381 1179.73 950.381Z" fill="#242E6C"/>
<path d="M1164.5 961.581H1120.7C1119.42 961.581 1118.37 960.444 1118.37 959.052V958.26C1118.37 956.868 1119.42 955.732 1120.7 955.732H1164.5C1165.78 955.732 1166.83 956.868 1166.83 958.26V959.052C1166.83 960.444 1165.78 961.581 1164.5 961.581Z" fill="#242E6C"/>
<path d="M1380.59 986.358V956.663L1322.07 930.582L1231.97 950.624V990.74L1283.09 1013.29L1283.15 1013.32L1380.59 986.372V986.358Z" fill="#C643DB"/>
<path d="M1283 1013.32V1031.01L1231.97 1007.05V990.777L1283 1013.32Z" fill="#6615B2"/>
<path d="M1380.59 986.358L1283.09 1013.29L1283 1013.32V1031.01L1380.59 1002.2V986.372V986.358Z" fill="#7F22BA"/>
<path d="M1504.89 759.075C1504.56 758.856 1504.09 758.572 1503.53 758.246L1494.79 750.53C1494.79 750.53 1493.68 751.215 1494.79 752.523C1494.94 752.691 1495.13 752.91 1495.36 753.161L1492.02 750.344C1492.02 750.344 1491.43 750.982 1491.81 751.992C1492.08 752.719 1495.22 755.606 1496.98 757.189C1495.92 756.639 1494.43 755.424 1492.2 753.003C1490.81 751.494 1491.26 753.766 1491.47 754.763C1491.84 756.523 1496.19 762.469 1497.71 765.142C1499.24 767.82 1500 770.46 1498.94 769.305C1497.87 768.15 1492.07 764.286 1491.46 765.142C1490.84 766.004 1494.36 769.305 1496.03 771.946C1497.71 774.586 1499.54 779.042 1505.5 780.034C1511.45 781.026 1512.47 777.771 1512.47 777.771C1512.47 777.771 1507.63 760.891 1504.89 759.075Z" fill="#FF9792"/>
<path d="M1688.88 919.927C1688.88 919.927 1687.43 935.178 1685.84 938.065C1684.24 940.947 1676.85 949.329 1674.58 951.979C1674.43 952.16 1672.96 950.754 1674.07 948.724C1678.56 940.533 1677.31 942.498 1675.76 937.115C1674.99 934.451 1674.51 942.116 1673.24 942.293C1671.97 942.475 1672.41 934.214 1672.37 931.704C1672.32 929.189 1678.75 928.011 1679.51 918.949C1679.99 913.119 1688.88 919.927 1688.88 919.927Z" fill="#FF9792"/>
<path d="M1644.65 763.452C1644.65 763.452 1632.93 825.692 1568.4 846.027C1548.25 852.374 1502.49 780.658 1502.49 780.658C1502.49 780.658 1504.1 774.046 1514.17 775.564C1514.17 775.564 1558.73 807.466 1564.35 810.931C1569.32 814.004 1602.06 771.401 1616.98 764.532C1631.9 757.659 1644.65 763.452 1644.65 763.452Z" fill="#1B2251"/>
<path d="M1585.51 921.166C1585.51 921.166 1587.88 952.682 1590.67 990.568C1594.46 1042.03 1599.02 1105.25 1599.47 1117.22C1600.25 1138.02 1603.37 1171.28 1603.37 1171.28C1603.37 1171.28 1610.79 1179.18 1625.63 1175.85C1625.63 1175.85 1638.86 1128.37 1642.63 1078.13C1642.69 1077.31 1642.75 1076.48 1642.81 1075.65C1646.32 1024.5 1651.79 916.803 1651.79 916.803L1585.51 921.166Z" fill="#F9795A"/>
<path d="M1585.51 921.166C1585.51 921.166 1587.88 952.682 1590.67 990.568L1642.64 1078.13C1642.7 1077.3 1642.75 1076.47 1642.81 1075.64C1646.33 1024.5 1651.79 916.798 1651.79 916.798L1585.51 921.166Z" fill="#F24B46"/>
<path d="M1596.34 924.91C1596.34 924.91 1639.1 1039.05 1667.22 1092.69C1695.34 1146.33 1704.12 1161.3 1704.12 1161.3C1704.12 1161.3 1720.23 1154.44 1721.7 1149.76C1721.7 1149.76 1710.95 1046.21 1692.11 1020.97C1681.47 1006.7 1668.98 963.895 1668.39 948.924C1667.81 933.953 1664.59 904.328 1664.59 904.328L1596.34 924.91Z" fill="#F9795A"/>
<path d="M1652.6 749.007C1652.6 749.007 1623.67 764.104 1606.99 758.502C1606.99 758.502 1611.09 752.9 1618.28 748.732C1617.7 745.11 1617.25 741.971 1617 739.308C1616.29 733.161 1616.29 729.678 1616.29 729.678L1627.45 720.183L1638.03 711.098C1637.2 736.644 1652.6 749.007 1652.6 749.007Z" fill="#FF9792"/>
<path d="M1667.85 910.172C1667.91 912.09 1664.13 914.274 1662.46 915.089C1650.08 920.966 1638.53 925.063 1625.44 926.428C1609.98 928.137 1591.7 924.379 1585.41 924.519C1584.77 924.519 1584.19 924.244 1583.68 923.764C1583.23 923.424 1582.91 903.271 1583.23 877.929C1583.23 876.91 1583.23 875.885 1583.3 874.861V874.521C1583.43 864.616 1583.74 854.232 1584.19 843.848C1585.09 821.035 1586.76 799.038 1589.58 786.879C1592.98 772.532 1600.68 763.042 1607.68 756.136L1613.45 750.674C1619.22 751.904 1625.31 751.559 1631.41 748.351C1638.08 744.868 1645.27 741.11 1646.42 742.064C1655.15 748.961 1661.05 764.467 1664.19 784.281C1664.21 784.379 1664.23 784.476 1664.24 784.574C1666 795.904 1666.89 808.579 1666.82 821.85C1666.82 826.772 1666.7 831.825 1666.44 836.812C1665.15 859.401 1666.02 879.513 1666.86 893.45C1667.02 896.202 1667.2 898.712 1667.34 900.956C1667.59 904.914 1667.79 907.988 1667.85 910.172Z" fill="#242E6C"/>
<path d="M1666.85 893.445C1618.9 833.566 1648.65 790.046 1648.65 790.046L1664.24 784.574C1666 795.904 1666.89 808.579 1666.82 821.85C1666.82 826.772 1666.7 831.825 1666.44 836.812C1665.15 859.396 1666.01 879.508 1666.85 893.445Z" fill="#1B2251"/>
<path d="M1638.23 720.867C1638.23 720.867 1630.92 735.28 1617 739.312C1616.29 733.166 1616.29 729.682 1616.29 729.682L1627.46 720.188L1638.23 720.867Z" fill="#FF9490"/>
<path d="M1611.2 729.259C1611.2 729.259 1638.81 734.139 1641.39 715.792C1643.99 697.445 1649.29 685.715 1631.78 681.822C1614.27 677.929 1609.84 684.383 1607.58 690.283C1605.32 696.183 1604.09 727.517 1611.2 729.259Z" fill="#FF9792"/>
<path d="M1651.43 679.629C1651.68 679.317 1652.25 679.065 1653.54 678.991C1653.54 678.991 1652.51 678.297 1651.14 678.26C1650.87 676.327 1649.92 672.905 1646.84 672.071C1646.84 672.071 1648.49 673.026 1648.71 675.079C1645.14 671.121 1637.51 668.239 1616.35 670.045C1588.48 672.425 1597.67 691.727 1601.27 694.027C1604.88 696.327 1613.97 690.018 1620.69 690.595C1627.42 691.172 1628.69 701.678 1630.97 703.121C1633.26 704.565 1632.36 702.013 1635.44 700.504C1638.53 698.995 1638.82 704.527 1637.93 708.122C1637.04 711.717 1641.28 716.462 1641.28 716.462C1641.28 716.462 1641.28 716.462 1645.57 711.47C1649.85 706.479 1653.89 685.338 1651.94 680.835C1651.77 680.434 1651.6 680.034 1651.43 679.629Z" fill="#1B2251"/>
<path d="M1646.41 741.911C1646.41 741.911 1663.88 750.851 1672.25 764.602C1685.23 785.929 1700.29 863.648 1700.57 870.842C1700.85 878.041 1689.58 928.849 1689.58 928.849C1689.58 928.849 1678.15 928.035 1675.2 921.799C1675.2 921.799 1677.49 869.594 1676.04 866.237C1674.59 862.88 1628.4 796.211 1633.6 781.981C1638.79 767.755 1646.41 741.911 1646.41 741.911Z" fill="#242E6C"/>
<path d="M1685.84 938.065L1677.57 953.017C1677.57 953.017 1676.58 952.565 1676.74 951.499C1676.89 950.433 1679.29 942.335 1679.29 942.335L1685.84 938.065Z" fill="#FF9792"/>
<path d="M1677.56 938.498C1677.56 938.498 1671.6 945.846 1672.92 947.508L1677.22 943.909L1677.56 938.498Z" fill="#FF9792"/>
<path d="M1251.55 810.142C1242.99 811.801 1235.21 813.161 1229.76 817.989C1224.74 822.437 1221.67 828.423 1221.67 835.002C1221.67 842.314 1225.01 850.144 1231.51 853.445C1236.98 856.216 1245.59 861.909 1251.55 859.858C1259.02 857.288 1265.66 857.639 1270.88 853.958L1268.46 851.584L1251.58 835.002L1278.77 837.019L1281.32 837.209C1281.4 836.483 1281.44 835.746 1281.44 835.002C1281.44 827.962 1277.92 821.601 1272.26 817.079C1266.89 812.786 1259.57 808.592 1251.55 810.142Z" fill="#EFECEA"/>
<path d="M1278.77 837.025L1251.58 835.008L1268.46 851.59C1266.78 852.61 1264.95 853.479 1262.99 854.177C1259.52 855.41 1255.5 854.568 1251.58 856.101C1245.08 858.648 1239.09 852.805 1234.28 851.33C1229.1 849.74 1223.67 841.392 1224.27 835.008C1224.88 828.377 1228.39 820.691 1234.67 818.432C1239.4 816.739 1245.63 812.815 1252.02 812.815C1257.19 812.815 1261.55 816.278 1265.73 816.957C1273.62 818.248 1278.89 827.357 1278.89 835.002C1278.89 835.682 1278.85 836.356 1278.77 837.025Z" fill="#F98B5D"/>
<path d="M1237.24 832.715C1237.24 833.441 1236.66 834.029 1235.96 834.029C1235.25 834.029 1234.68 833.441 1234.68 832.715C1234.68 831.989 1235.26 831.401 1235.96 831.401C1236.66 831.401 1237.24 831.989 1237.24 832.715Z" fill="white"/>
<path d="M1245 826.401C1245 827.127 1244.43 827.714 1243.73 827.714C1243.02 827.714 1242.45 827.127 1242.45 826.401C1242.45 825.675 1243.02 825.087 1243.73 825.087C1244.43 825.087 1245 825.675 1245 826.401Z" fill="white"/>
<path d="M1240.21 822.921C1240.21 823.52 1239.74 824.004 1239.16 824.004C1238.57 824.004 1238.1 823.52 1238.1 822.921C1238.1 822.321 1238.57 821.837 1239.16 821.837C1239.74 821.837 1240.21 822.321 1240.21 822.921Z" fill="white"/>
<path d="M1249.73 820.236C1249.73 820.904 1249.2 821.44 1248.55 821.44C1247.91 821.44 1247.38 820.898 1247.38 820.236C1247.38 819.567 1247.91 819.032 1248.55 819.032C1249.21 819.032 1249.73 819.567 1249.73 820.236Z" fill="white"/>
<path d="M1249.73 832.715C1249.73 833.764 1248.9 834.617 1247.88 834.617C1246.85 834.617 1246.03 833.764 1246.03 832.715C1246.03 831.667 1246.85 830.814 1247.88 830.814C1248.9 830.808 1249.73 831.661 1249.73 832.715Z" fill="white"/>
<path d="M1253.75 825.761C1253.75 826.487 1253.18 827.075 1252.47 827.075C1251.77 827.075 1251.2 826.487 1251.2 825.761C1251.2 825.035 1251.77 824.448 1252.47 824.448C1253.18 824.448 1253.75 825.041 1253.75 825.761Z" fill="white"/>
<path d="M1259.66 826.418C1259.66 826.781 1259.38 827.075 1259.02 827.075C1258.67 827.075 1258.39 826.781 1258.39 826.418C1258.39 826.055 1258.67 825.761 1259.02 825.761C1259.38 825.761 1259.66 826.055 1259.66 826.418Z" fill="white"/>
<path d="M1256.98 820.783C1256.98 821.146 1256.69 821.44 1256.34 821.44C1255.99 821.44 1255.7 821.146 1255.7 820.783C1255.7 820.42 1255.99 820.126 1256.34 820.126C1256.69 820.126 1256.98 820.42 1256.98 820.783Z" fill="white"/>
<path d="M1249.73 841.951C1249.73 842.314 1249.44 842.608 1249.09 842.608C1248.74 842.608 1248.45 842.314 1248.45 841.951C1248.45 841.588 1248.74 841.294 1249.09 841.294C1249.45 841.294 1249.73 841.588 1249.73 841.951Z" fill="white"/>
<path d="M1254.1 844.941C1254.1 845.304 1253.82 845.598 1253.46 845.598C1253.11 845.598 1252.83 845.304 1252.83 844.941C1252.83 844.578 1253.11 844.284 1253.46 844.284C1253.82 844.284 1254.1 844.578 1254.1 844.941Z" fill="white"/>
<path d="M1244.43 839.79C1244.43 840.608 1243.78 841.277 1242.99 841.277C1242.19 841.277 1241.54 840.614 1241.54 839.79C1241.54 838.972 1242.19 838.304 1242.99 838.304C1243.78 838.304 1244.43 838.966 1244.43 839.79Z" fill="white"/>
<path d="M1236.15 840.159C1236.15 840.159 1235.2 839.514 1234.28 840.81C1234.28 840.81 1235.48 842.1 1236.15 840.159Z" fill="#6615B2"/>
<path d="M1243.43 830.779C1243.43 830.779 1242.15 829.909 1240.9 831.661C1240.9 831.661 1242.52 833.418 1243.43 830.779Z" fill="#6615B2"/>
<path d="M1257.25 825.784C1257.25 825.784 1255.93 825.796 1254.88 828.319C1254.88 828.319 1256.62 828.941 1257.25 825.784Z" fill="#6615B2"/>
<path d="M1263.39 827.679C1263.39 827.679 1262.27 825.79 1260.89 826.435C1260.88 826.435 1262.23 829.442 1263.39 827.679Z" fill="#6615B2"/>
<path d="M1253.55 833.067C1253.55 833.067 1252.93 830.578 1251.78 829.794C1251.78 829.794 1252.43 833.349 1253.55 833.067Z" fill="#6615B2"/>
<path d="M1251.38 836.604C1251.38 836.604 1250.27 836.391 1249.33 838.344C1249.33 838.344 1250.77 839.156 1251.38 836.604Z" fill="#6615B2"/>
<path d="M1252.43 847.747C1252.43 847.747 1251.51 846.024 1250.34 846.41C1250.34 846.404 1251.42 849.095 1252.43 847.747Z" fill="#6615B2"/>
<path d="M1254.05 840.274C1254.05 840.274 1252.93 840.159 1252.02 842.187C1252.02 842.187 1253.48 842.878 1254.05 840.274Z" fill="#6615B2"/>
<path d="M1248.94 826.504C1248.94 826.504 1247.86 825.83 1246.82 827.368C1246.82 827.368 1248.19 828.774 1248.94 826.504Z" fill="#6615B2"/>
<path d="M1246.15 823.237C1246.15 823.237 1245.32 821.238 1244.13 821.238C1244.13 821.244 1245.09 824.257 1246.15 823.237Z" fill="#6615B2"/>
<path d="M1237.88 841.801C1236.62 842.659 1235.99 844.388 1236.47 845.65C1236.84 846.6 1237.65 846.399 1238.56 845.874L1239.02 847.078C1239.09 847.246 1239.28 847.286 1239.44 847.176L1240.33 846.571C1240.5 846.456 1240.58 846.232 1240.51 846.064L1240.05 844.866C1240.89 844.203 1241.41 843.518 1241.04 842.538C1240.56 841.277 1239.13 840.948 1237.88 841.801Z" fill="#DFDCF7"/>
<path d="M1261.72 819.763C1262.74 820.461 1263.26 821.872 1262.86 822.898C1262.56 823.67 1261.9 823.508 1261.16 823.082L1260.78 824.061C1260.73 824.2 1260.58 824.234 1260.44 824.142L1259.72 823.647C1259.58 823.554 1259.52 823.37 1259.57 823.232L1259.95 822.258C1259.26 821.722 1258.84 821.158 1259.14 820.363C1259.53 819.337 1260.7 819.066 1261.72 819.763Z" fill="#DFDCF7"/>
<path d="M1247.11 836.443C1248.14 837.14 1248.65 838.552 1248.25 839.577C1247.95 840.349 1247.3 840.188 1246.55 839.761L1246.17 840.741C1246.12 840.879 1245.97 840.914 1245.83 840.821L1245.11 840.326C1244.98 840.234 1244.91 840.049 1244.96 839.911L1245.34 838.938C1244.65 838.402 1244.23 837.837 1244.54 837.042C1244.93 836.016 1246.09 835.746 1247.11 836.443Z" fill="#DFDCF7"/>
<path d="M1238.45 825.778C1237.43 826.475 1236.92 827.887 1237.31 828.913C1237.61 829.685 1238.27 829.523 1239.01 829.097L1239.39 830.076C1239.44 830.215 1239.6 830.249 1239.73 830.157L1240.45 829.662C1240.59 829.569 1240.66 829.385 1240.6 829.247L1240.23 828.273C1240.91 827.737 1241.34 827.173 1241.03 826.378C1240.64 825.346 1239.48 825.081 1238.45 825.778Z" fill="#DFDCF7"/>
<path d="M1283.01 834.933L1259.55 833.193L1256.34 830.796V832.957L1274.66 850.95C1280.19 847.044 1283.89 841.409 1284.56 835.048V832.888L1283.01 834.933Z" fill="#EFECEA"/>
<path d="M1284.57 832.888C1283.9 839.243 1280.19 844.883 1274.66 848.79L1266.36 840.631L1264.63 838.932L1256.35 830.791L1284.57 832.888Z" fill="#F9795A"/>
<path d="M1265.73 834.674C1265.73 835.4 1265.16 835.988 1264.46 835.988C1263.75 835.988 1263.18 835.4 1263.18 834.674C1263.18 833.948 1263.75 833.36 1264.46 833.36C1265.16 833.36 1265.73 833.948 1265.73 834.674Z" fill="white"/>
<path d="M1267.08 839.444C1267.08 839.969 1266.79 840.418 1266.36 840.631L1264.63 838.932C1264.82 838.459 1265.28 838.131 1265.81 838.131C1266.51 838.137 1267.08 838.724 1267.08 839.444Z" fill="white"/>
<path d="M1271.65 839.744C1271.65 840.107 1271.36 840.401 1271.01 840.401C1270.66 840.401 1270.37 840.107 1270.37 839.744C1270.37 839.381 1270.66 839.087 1271.01 839.087C1271.37 839.087 1271.65 839.381 1271.65 839.744Z" fill="white"/>
<path d="M1275.08 835.988C1275.08 836.351 1274.79 836.644 1274.44 836.644C1274.09 836.644 1273.8 836.351 1273.8 835.988C1273.8 835.625 1274.09 835.331 1274.44 835.331C1274.79 835.331 1275.08 835.625 1275.08 835.988Z" fill="white"/>
<path d="M1268.59 835.003C1268.59 835.365 1268.3 835.659 1267.95 835.659C1267.6 835.659 1267.31 835.365 1267.31 835.003C1267.31 834.64 1267.6 834.346 1267.95 834.346C1268.3 834.346 1268.59 834.64 1268.59 835.003Z" fill="white"/>
<path d="M1271.86 833.844C1271.86 834.444 1271.39 834.927 1270.8 834.927C1270.22 834.927 1269.75 834.444 1269.75 833.844C1269.75 833.245 1270.22 832.761 1270.8 832.761C1271.39 832.761 1271.86 833.245 1271.86 833.844Z" fill="white"/>
<path d="M1270.81 837.359C1270.81 837.762 1270.49 838.091 1270.1 838.091C1269.7 838.091 1269.39 837.762 1269.39 837.359C1269.39 836.956 1269.7 836.627 1270.1 836.627C1270.49 836.627 1270.81 836.956 1270.81 837.359Z" fill="white"/>
<path d="M1261.47 833.361C1261.47 833.626 1261.26 833.845 1261 833.845C1260.74 833.845 1260.53 833.631 1260.53 833.361C1260.53 833.095 1260.74 832.876 1261 832.876C1261.25 832.876 1261.47 833.095 1261.47 833.361Z" fill="white"/>
<path d="M1266.88 835.089C1266.88 835.089 1265.96 835.095 1265.24 836.852C1265.24 836.852 1266.44 837.278 1266.88 835.089Z" fill="#6615B2"/>
<path d="M1277.47 836.748C1277.47 836.748 1276.77 835.146 1275.79 835.216C1275.79 835.216 1276.6 837.641 1277.47 836.748Z" fill="#6615B2"/>
<path d="M1269.12 839.439C1269.12 839.439 1268.4 837.9 1267.42 838.056C1267.42 838.05 1268.26 840.407 1269.12 839.439Z" fill="#6615B2"/>
<path d="M1274.66 840.994C1274.66 840.994 1273.74 840.689 1272.94 842.187C1272.94 842.187 1274.12 843.017 1274.66 840.994Z" fill="#6615B2"/>
<path d="M1260.58 831.886C1260.58 831.886 1259.79 831.413 1259.04 832.554C1259.04 832.554 1260.04 833.55 1260.58 831.886Z" fill="#6615B2"/>
<path d="M1290.57 1069.46H1249.91C1249 1069.46 1248.25 1068.66 1248.25 1067.67C1248.25 1066.68 1249 1065.88 1249.91 1065.88H1290.57C1291.48 1065.88 1292.22 1066.68 1292.22 1067.67C1292.23 1068.66 1291.48 1069.46 1290.57 1069.46Z" fill="#FF7D78"/>
<path d="M1290.57 1061.06H1249.91C1249 1061.06 1248.25 1060.25 1248.25 1059.27C1248.25 1058.28 1249 1057.47 1249.91 1057.47H1290.57C1291.48 1057.47 1292.22 1058.28 1292.22 1059.27C1292.23 1060.25 1291.48 1061.06 1290.57 1061.06Z" fill="#FF7D78"/>
<path d="M1268.09 776.523H1220.89C1219.89 776.523 1219.08 775.643 1219.08 774.563C1219.08 773.482 1219.89 772.602 1220.89 772.602H1268.09C1269.08 772.602 1269.9 773.482 1269.9 774.563C1269.9 775.638 1269.08 776.523 1268.09 776.523Z" fill="#242E6C"/>
<path d="M1268.09 784.532H1220.89C1219.89 784.532 1219.08 783.652 1219.08 782.572C1219.08 781.492 1219.89 780.612 1220.89 780.612H1268.09C1269.08 780.612 1269.9 781.492 1269.9 782.572C1269.9 783.652 1269.08 784.532 1268.09 784.532Z" fill="#242E6C"/>
<path d="M1268.09 792.542H1220.89C1219.89 792.542 1219.08 791.662 1219.08 790.581C1219.08 789.501 1219.89 788.621 1220.89 788.621H1268.09C1269.08 788.621 1269.9 789.501 1269.9 790.581C1269.9 791.662 1269.08 792.542 1268.09 792.542Z" fill="#242E6C"/>
<path d="M1348.79 719.354H1301.59C1300.59 719.354 1299.78 718.474 1299.78 717.394C1299.78 716.313 1300.59 715.433 1301.59 715.433H1348.79C1349.79 715.433 1350.6 716.313 1350.6 717.394C1350.6 718.469 1349.79 719.354 1348.79 719.354Z" fill="#242E6C"/>
<path d="M1348.79 727.364H1301.59C1300.59 727.364 1299.78 726.483 1299.78 725.403C1299.78 724.323 1300.59 723.443 1301.59 723.443H1348.79C1349.79 723.443 1350.6 724.323 1350.6 725.403C1350.6 726.479 1349.79 727.364 1348.79 727.364Z" fill="#242E6C"/>
<path d="M1348.79 735.373H1301.59C1300.59 735.373 1299.78 734.493 1299.78 733.412C1299.78 732.332 1300.59 731.452 1301.59 731.452H1348.79C1349.79 731.452 1350.6 732.332 1350.6 733.412C1350.6 734.488 1349.79 735.373 1348.79 735.373Z" fill="#242E6C"/>
<path d="M1348.79 833.017H1301.59C1300.59 833.017 1299.78 832.137 1299.78 831.056C1299.78 829.976 1300.59 829.096 1301.59 829.096H1348.79C1349.79 829.096 1350.6 829.976 1350.6 831.056C1350.6 832.132 1349.79 833.017 1348.79 833.017Z" fill="#242E6C"/>
<path d="M1348.79 841.026H1301.59C1300.59 841.026 1299.78 840.146 1299.78 839.066C1299.78 837.986 1300.59 837.105 1301.59 837.105H1348.79C1349.79 837.105 1350.6 837.986 1350.6 839.066C1350.6 840.142 1349.79 841.026 1348.79 841.026Z" fill="#242E6C"/>
<path d="M1348.79 849.036H1301.59C1300.59 849.036 1299.78 848.155 1299.78 847.075C1299.78 845.995 1300.59 845.115 1301.59 845.115H1348.79C1349.79 845.115 1350.6 845.995 1350.6 847.075C1350.6 848.151 1349.79 849.036 1348.79 849.036Z" fill="#242E6C"/>
<path d="M1477.87 839.066H1432.68C1425.24 839.066 1419.16 832.486 1419.16 824.449C1419.16 816.407 1425.24 809.827 1432.68 809.827H1477.87C1485.31 809.827 1491.4 816.407 1491.4 824.449C1491.39 832.486 1485.31 839.066 1477.87 839.066Z" fill="#FD8857"/>
<path d="M1446.63 820.239C1446.63 820.239 1455.22 833.226 1455.19 832.742C1455.16 832.258 1463.92 814.292 1463.92 814.292L1453.82 824.882L1446.63 820.239Z" fill="#EFECEA"/>
<path d="M1312.6 999.015L1283.59 1006.6L1274.56 1002.42L1302.68 995.397L1312.6 999.015Z" fill="#FFD4D2"/>
<path d="M1266.38 746.58C1262.77 747.787 1258.56 748.518 1252.91 748.54V748.801H1251.56V748.54C1219.25 748.438 1221.89 722.59 1221.89 722.59C1222.22 724.939 1224.96 726.476 1228.7 727.474C1236.13 729.462 1247.52 729.322 1251.56 729.193V729.135C1251.56 729.135 1251.75 729.149 1252.24 729.169C1252.73 729.149 1252.91 729.135 1252.91 729.135V729.193C1259.1 729.385 1281.62 729.608 1282.6 722.591C1282.6 722.591 1284.47 740.538 1266.38 746.58Z" fill="url(#paint13_linear_112_4)"/>
<path opacity="0.6" d="M1266.38 746.58C1262.77 747.787 1258.56 748.518 1252.91 748.54V748.801H1251.56V748.54C1219.25 748.438 1221.89 722.59 1221.89 722.59C1222.22 724.939 1224.96 726.476 1228.7 727.474C1230.4 729.315 1231.96 731.603 1233.11 734.442C1237.98 746.453 1257.54 731.308 1264.64 743.679C1265.26 744.751 1265.81 745.715 1266.38 746.58Z" fill="url(#paint14_radial_112_4)"/>
<path opacity="0.9" d="M1252.77 729.474C1269.32 729.474 1282.73 726.37 1282.73 722.542C1282.73 718.713 1269.32 715.609 1252.77 715.609C1236.22 715.609 1222.81 718.713 1222.81 722.542C1222.81 726.37 1236.22 729.474 1252.77 729.474Z" fill="url(#paint15_linear_112_4)"/>
<path d="M1259.29 730.584C1258.4 729.869 1259.03 725.913 1260.78 723.01C1263.26 718.895 1268.1 716.719 1269.24 716.236C1270.49 715.712 1271.59 715.415 1272.54 714.135C1273.92 712.288 1273.95 709.769 1274.5 709.798C1274.91 709.821 1274.77 711.218 1275.57 711.769C1276.69 712.532 1278.17 710.693 1279.3 711.548C1279.79 711.918 1279.94 712.587 1279.96 712.658C1280.22 713.837 1279.26 714.67 1279.54 715.24C1279.84 715.867 1281.07 715.02 1282.1 715.674C1283.25 716.402 1283.88 718.823 1283.25 720.393C1282.49 722.292 1280.18 722.147 1280.05 723.534C1279.95 724.562 1281.18 724.968 1281.28 726.074C1281.42 727.745 1278.89 730.078 1276.12 730.856C1270.5 732.431 1267.12 726.718 1262.31 729.071C1260.75 729.839 1259.87 731.052 1259.29 730.584Z" fill="url(#paint16_linear_112_4)"/>
<path opacity="0.3" d="M1264.72 726.815C1267.22 726.426 1268.2 728.967 1272.09 729.429C1275.33 729.812 1278.75 728.537 1279.01 726.877C1279.17 725.799 1277.89 725.308 1277.97 723.896C1278.1 721.803 1281.02 721.134 1280.9 719.696C1280.79 718.417 1278.44 718.493 1277.86 716.541C1277.42 715.062 1278.43 713.901 1277.89 713.207C1277.24 712.359 1275.56 713.889 1274.23 713.119C1273.93 712.945 1273.68 712.677 1273.48 712.344C1273.26 712.942 1272.97 713.57 1272.55 714.134C1271.6 715.414 1270.49 715.711 1269.25 716.235C1268.1 716.717 1263.26 718.894 1260.78 723.009C1259.03 725.912 1258.4 729.869 1259.29 730.584C1259.63 730.858 1260.08 730.555 1260.7 730.102C1262.21 727.726 1263.61 726.986 1264.72 726.815Z" fill="url(#paint17_linear_112_4)"/>
<path d="M1259.11 732.99C1257.74 732.137 1254.23 729.65 1252.83 724.789C1250.54 716.86 1255.28 707.583 1258.61 707.344C1259.74 707.264 1260.68 708.216 1262.68 707.74C1264.05 707.413 1264.23 706.813 1265.61 706.663C1266.86 706.528 1268.74 706.802 1269.2 708.01C1269.52 708.848 1268.96 709.642 1269.34 710.055C1269.79 710.55 1270.71 709.554 1271.46 709.865C1272.56 710.32 1273.28 713.566 1272.51 715.985C1271.14 720.224 1266.1 719.021 1262.37 723.542C1260.05 726.361 1259.33 730.083 1259.11 732.99Z" fill="url(#paint18_linear_112_4)"/>
<path opacity="0.3" d="M1258.4 731.586C1258.4 731.586 1255.14 725.264 1256.71 718.766C1258.28 712.268 1259.86 713.147 1260.59 712.747C1261.32 712.347 1259.71 715.14 1258.93 717.286C1258.14 719.431 1256.34 721.344 1258.4 731.586Z" fill="url(#paint19_linear_112_4)"/>
<path opacity="0.3" d="M1271.46 709.865C1270.71 709.554 1269.79 710.55 1269.34 710.055C1268.96 709.641 1269.52 708.848 1269.2 708.01C1268.75 706.802 1266.86 706.528 1265.61 706.663C1264.24 706.813 1264.05 707.413 1262.68 707.74C1260.68 708.216 1259.74 707.264 1258.61 707.344C1255.34 707.578 1250.71 716.521 1252.71 724.349C1252.36 721.36 1252.46 717.774 1253.89 714.408C1254.17 713.738 1256.24 708.87 1258.66 709.048C1259.91 709.14 1260.25 710.498 1261.65 710.498C1263.68 710.499 1264.5 707.678 1265.79 708.073C1267 708.449 1266.72 711.137 1268.26 711.812C1269.35 712.293 1270.08 711.191 1270.99 711.517C1271.65 711.756 1272.3 712.732 1272.66 715.437C1273.18 713.103 1272.48 710.287 1271.46 709.865Z" fill="url(#paint20_linear_112_4)"/>
<path d="M1247.04 732.92C1247.93 732.205 1247.31 728.249 1245.56 725.346C1243.08 721.231 1238.23 719.055 1237.09 718.572C1235.84 718.048 1234.74 717.751 1233.79 716.471C1232.42 714.624 1232.38 712.105 1231.83 712.134C1231.42 712.157 1231.56 713.554 1230.76 714.105C1229.64 714.868 1228.16 713.029 1227.03 713.884C1226.54 714.253 1226.39 714.923 1226.37 714.993C1226.12 716.173 1227.07 717.006 1226.8 717.576C1226.49 718.203 1225.26 717.356 1224.23 718.01C1223.09 718.738 1222.45 721.159 1223.08 722.729C1223.85 724.628 1226.15 724.483 1226.28 725.87C1226.38 726.897 1225.15 727.304 1225.06 728.41C1224.91 730.081 1227.44 732.414 1230.21 733.192C1235.83 734.767 1239.22 729.054 1244.02 731.407C1245.59 732.175 1246.46 733.388 1247.04 732.92Z" fill="url(#paint21_linear_112_4)"/>
<path d="M1241.62 729.151C1239.11 728.762 1238.13 731.303 1234.24 731.765C1231 732.148 1227.58 730.873 1227.33 729.213C1227.16 728.135 1228.45 727.644 1228.36 726.232C1228.23 724.138 1225.31 723.47 1225.43 722.031C1225.54 720.753 1227.89 720.829 1228.47 718.877C1228.91 717.398 1227.9 716.236 1228.44 715.543C1229.1 714.695 1230.77 716.225 1232.11 715.455C1232.41 715.281 1232.65 715.013 1232.85 714.679C1233.07 715.278 1233.37 715.906 1233.79 716.47C1234.74 717.75 1235.84 718.047 1237.09 718.571C1238.23 719.053 1243.07 721.229 1245.56 725.345C1247.31 728.248 1247.93 732.204 1247.04 732.919C1246.7 733.194 1246.26 732.891 1245.64 732.438C1244.12 730.062 1242.72 729.322 1241.62 729.151Z" fill="url(#paint22_linear_112_4)"/>
<path d="M1247.22 735.327C1248.59 734.474 1252.1 731.987 1253.51 727.125C1255.8 719.196 1251.06 709.92 1247.72 709.681C1246.59 709.6 1245.65 710.552 1243.66 710.076C1242.29 709.749 1242.1 709.149 1240.72 709C1239.47 708.865 1237.59 709.139 1237.13 710.347C1236.82 711.185 1237.37 711.979 1237 712.392C1236.55 712.886 1235.62 711.891 1234.87 712.202C1233.77 712.657 1233.05 715.903 1233.83 718.322C1235.19 722.561 1240.23 721.358 1243.96 725.879C1246.29 728.697 1247.01 732.419 1247.22 735.327Z" fill="url(#paint23_linear_112_4)"/>
<path d="M1247.93 733.922C1247.93 733.922 1251.19 727.6 1249.62 721.102C1248.05 714.604 1246.48 715.483 1245.74 715.083C1245.01 714.683 1246.63 717.476 1247.41 719.622C1248.19 721.767 1250 723.68 1247.93 733.922Z" fill="url(#paint24_linear_112_4)"/>
<path opacity="0.3" d="M1234.87 712.202C1235.62 711.891 1236.55 712.886 1237 712.392C1237.37 711.978 1236.82 711.185 1237.13 710.347C1237.59 709.139 1239.47 708.865 1240.72 709C1242.1 709.149 1242.28 709.749 1243.65 710.076C1245.65 710.552 1246.59 709.6 1247.72 709.681C1250.99 709.915 1255.62 718.857 1253.62 726.685C1253.97 723.697 1253.88 720.11 1252.45 716.745C1252.16 716.074 1250.09 711.206 1247.67 711.385C1246.43 711.477 1246.09 712.834 1244.68 712.834C1242.65 712.835 1241.83 710.014 1240.55 710.41C1239.33 710.786 1239.61 713.473 1238.08 714.149C1236.99 714.629 1236.25 713.528 1235.35 713.853C1234.68 714.092 1234.03 715.068 1233.68 717.774C1233.16 715.439 1233.86 712.622 1234.87 712.202Z" fill="url(#paint25_linear_112_4)"/>
<path d="M1270.49 708.713C1274.09 712.521 1274.25 719.259 1270.84 723.763C1267.43 728.267 1261.75 728.83 1258.15 725.023L1270.49 708.713Z" fill="url(#paint26_linear_112_4)"/>
<path opacity="0.5" d="M1270.49 708.713C1273.67 712.077 1273.49 718.455 1270.08 722.959C1266.67 727.463 1261.33 728.386 1258.15 725.022L1270.49 708.713Z" fill="url(#paint27_linear_112_4)"/>
<path d="M1269.75 709.686C1272.47 712.559 1272.38 718.232 1269.39 722.184C1266.4 726.135 1261.64 726.868 1258.92 723.995L1269.75 709.686Z" fill="url(#paint28_linear_112_4)"/>
<path d="M1265.7 715.715L1264.79 716.912L1268.96 721.318C1269.95 719.937 1270.5 718.47 1270.77 717.009L1265.7 715.715Z" fill="url(#paint29_linear_112_4)"/>
<path d="M1265.13 724.332C1266.33 723.881 1267.5 723.107 1268.58 721.817L1264.41 717.417L1263.51 718.612L1265.13 724.332Z" fill="url(#paint30_linear_112_4)"/>
<path d="M1262.96 719.342L1259.89 723.396C1261.03 724.599 1262.7 724.982 1264.39 724.56L1262.96 719.342Z" fill="url(#paint31_linear_112_4)"/>
<path d="M1266.25 714.985L1270.9 716.117C1271.11 714.014 1270.72 712.132 1269.44 710.779L1266.25 714.985Z" fill="url(#paint32_linear_112_4)"/>
<g opacity="0.2">
<path opacity="0.2" d="M1265.7 715.715L1264.79 716.912L1268.96 721.318C1269.95 719.937 1270.5 718.47 1270.77 717.009L1265.7 715.715Z" fill="url(#paint33_linear_112_4)"/>
<path opacity="0.2" d="M1265.13 724.332C1266.33 723.881 1267.5 723.107 1268.58 721.817L1264.41 717.417L1263.51 718.612L1265.13 724.332Z" fill="url(#paint34_linear_112_4)"/>
<path opacity="0.2" d="M1262.96 719.342L1259.89 723.396C1261.03 724.599 1262.7 724.982 1264.39 724.56L1262.96 719.342Z" fill="url(#paint35_linear_112_4)"/>
<path opacity="0.2" d="M1266.25 714.985L1270.9 716.117C1271.11 714.014 1270.72 712.132 1269.44 710.779L1266.25 714.985Z" fill="url(#paint36_linear_112_4)"/>
</g>
<path d="M1250.22 723.191C1247.54 727.949 1241.92 729.095 1237.66 725.751C1233.41 722.407 1232.12 715.839 1234.8 711.081L1250.22 723.191Z" fill="url(#paint37_linear_112_4)"/>
<path opacity="0.5" d="M1250.22 723.191C1247.85 727.394 1242.49 728.09 1238.23 724.746C1233.97 721.403 1232.44 715.284 1234.8 711.081L1250.22 723.191Z" fill="url(#paint38_linear_112_4)"/>
<path d="M1249.3 722.469C1247.28 726.058 1242.51 726.767 1238.78 723.833C1235.04 720.899 1233.75 715.433 1235.77 711.844L1249.3 722.469Z" fill="url(#paint39_linear_112_4)"/>
<path d="M1243.67 718.591L1242.54 717.701L1239.44 723.207C1240.74 724.162 1242.05 724.6 1243.31 724.71L1243.67 718.591Z" fill="url(#paint40_linear_112_4)"/>
<path d="M1236.37 719.156C1236.92 720.495 1237.74 721.755 1238.97 722.825L1242.06 717.327L1240.93 716.44L1236.37 719.156Z" fill="url(#paint41_linear_112_4)"/>
<path d="M1240.24 715.898L1236.41 712.888C1235.56 714.392 1235.48 716.403 1236.08 718.323L1240.24 715.898Z" fill="url(#paint42_linear_112_4)"/>
<path d="M1244.36 719.133L1244.07 724.73C1245.86 724.678 1247.38 723.948 1248.34 722.256L1244.36 719.133Z" fill="url(#paint43_linear_112_4)"/>
<g opacity="0.2">
<path opacity="0.2" d="M1243.67 718.591L1242.54 717.701L1239.44 723.207C1240.74 724.162 1242.05 724.6 1243.31 724.71L1243.67 718.591Z" fill="url(#paint44_linear_112_4)"/>
<path opacity="0.2" d="M1236.37 719.156C1236.92 720.495 1237.74 721.755 1238.97 722.825L1242.06 717.327L1240.93 716.44L1236.37 719.156Z" fill="url(#paint45_linear_112_4)"/>
<path opacity="0.2" d="M1240.24 715.898L1236.41 712.888C1235.56 714.392 1235.48 716.403 1236.08 718.323L1240.24 715.898Z" fill="url(#paint46_linear_112_4)"/>
<path opacity="0.2" d="M1244.36 719.133L1244.07 724.73C1245.86 724.678 1247.38 723.948 1248.34 722.256L1244.36 719.133Z" fill="url(#paint47_linear_112_4)"/>
</g>
<path d="M1264.71 736.277C1265.61 735.562 1264.98 731.605 1263.23 728.703C1260.75 724.588 1255.91 722.411 1254.76 721.929C1253.51 721.404 1252.41 721.107 1251.46 719.827C1250.09 717.98 1250.05 715.461 1249.5 715.491C1249.09 715.513 1249.24 716.911 1248.43 717.462C1247.32 718.224 1245.83 716.385 1244.7 717.24C1244.22 717.61 1244.06 718.279 1244.05 718.35C1243.79 719.529 1244.74 720.362 1244.47 720.932C1244.17 721.559 1242.93 720.713 1241.9 721.366C1240.76 722.094 1240.12 724.515 1240.75 726.085C1241.52 727.985 1243.82 727.839 1243.95 729.227C1244.05 730.254 1242.82 730.661 1242.73 731.766C1242.58 733.437 1245.11 735.77 1247.89 736.548C1253.5 738.124 1256.89 732.41 1261.69 734.763C1263.26 735.531 1264.13 736.746 1264.71 736.277Z" fill="url(#paint48_linear_112_4)"/>
<path d="M1259.29 732.507C1256.78 732.118 1255.81 734.66 1251.91 735.121C1248.67 735.504 1245.25 734.229 1245 732.569C1244.83 731.491 1246.12 731 1246.03 729.588C1245.91 727.495 1242.98 726.826 1243.1 725.388C1243.21 724.11 1245.56 724.186 1246.14 722.233C1246.58 720.754 1245.57 719.593 1246.11 718.899C1246.77 718.052 1248.44 719.582 1249.78 718.811C1250.08 718.638 1250.32 718.369 1250.52 718.036C1250.74 718.634 1251.04 719.262 1251.46 719.826C1252.41 721.106 1253.51 721.403 1254.76 721.928C1255.9 722.409 1260.75 724.586 1263.23 728.702C1264.98 731.604 1265.61 735.561 1264.71 736.276C1264.37 736.55 1263.93 736.247 1263.31 735.794C1261.8 733.419 1260.39 732.679 1259.29 732.507Z" fill="url(#paint49_linear_112_4)"/>
<path d="M1257.1 730.971C1256.72 731.787 1256.19 732.535 1255.53 733.181C1252.19 736.441 1247.37 735.077 1244.77 730.134C1243.11 726.982 1242.42 723.458 1242.75 720.729C1242.93 719.181 1243.44 717.888 1244.29 717.064C1246.62 714.789 1251.44 716.154 1255.05 720.11C1257.94 723.284 1258.66 727.674 1257.1 730.971Z" fill="url(#paint50_linear_112_4)"/>
<path d="M1253.51 722.878C1254.92 724.898 1254.66 727.901 1252.93 729.585C1251.2 731.269 1248.66 730.997 1247.25 728.977C1245.84 726.957 1246.1 723.953 1247.83 722.269C1249.56 720.586 1252.1 720.858 1253.51 722.878Z" fill="url(#paint51_linear_112_4)"/>
<path opacity="0.1" d="M1257.1 730.971C1256.72 731.787 1256.19 732.535 1255.53 733.181C1252.19 736.441 1247.37 735.077 1244.77 730.134C1243.11 726.982 1242.42 723.458 1242.75 720.729C1243.14 723.485 1244.2 727.636 1247.11 728.757C1247.52 728.915 1247.96 729.012 1248.45 729.038C1250.09 729.121 1251.66 729.247 1253.04 729.473C1254.82 729.764 1256.27 730.221 1257.1 730.971Z" fill="url(#paint52_linear_112_4)"/>
<path d="M1323.32 983.398C1317.79 985.12 1311.34 986.162 1302.66 986.193V986.566H1300.59V986.193C1251.02 986.048 1255.06 949.2 1255.06 949.2C1255.56 952.548 1259.78 954.74 1265.51 956.162C1276.91 958.997 1294.4 958.797 1300.59 958.614V958.531C1300.59 958.531 1300.87 958.55 1301.63 958.58C1302.38 958.55 1302.66 958.531 1302.66 958.531V958.614C1312.16 958.887 1346.71 959.205 1348.22 949.202C1348.22 949.202 1351.09 974.786 1323.32 983.398Z" fill="url(#paint53_linear_112_4)"/>
<path opacity="0.6" d="M1323.32 983.398C1317.79 985.12 1311.34 986.162 1302.66 986.193V986.566H1300.59V986.193C1251.02 986.048 1255.06 949.2 1255.06 949.2C1255.56 952.548 1259.78 954.74 1265.51 956.162C1268.13 958.787 1270.51 962.049 1272.28 966.096C1279.75 983.217 1309.77 961.628 1320.67 979.263C1321.61 980.792 1322.46 982.166 1323.32 983.398Z" fill="url(#paint54_linear_112_4)"/>
<path d="M1301.61 960.944C1327.51 960.944 1348.51 956.119 1348.51 950.167C1348.51 944.214 1327.51 939.389 1301.61 939.389C1275.71 939.389 1254.72 944.214 1254.72 950.167C1254.72 956.119 1275.71 960.944 1301.61 960.944Z" fill="url(#paint55_linear_112_4)"/>
<path opacity="0.9" d="M1302.45 959.014C1327.84 959.014 1348.43 954.589 1348.43 949.132C1348.43 943.674 1327.84 939.249 1302.45 939.249C1277.06 939.249 1256.47 943.674 1256.47 949.132C1256.47 954.589 1277.06 959.014 1302.45 959.014Z" fill="url(#paint56_linear_112_4)"/>
<path d="M1312.45 960.597C1311.08 959.578 1312.05 953.937 1314.73 949.8C1318.54 943.934 1325.97 940.831 1327.73 940.143C1329.64 939.396 1331.33 938.972 1332.79 937.147C1334.9 934.515 1334.95 930.923 1335.8 930.966C1336.43 930.997 1336.2 932.99 1337.44 933.775C1339.15 934.862 1341.43 932.241 1343.16 933.46C1343.91 933.987 1344.14 934.941 1344.17 935.041C1344.56 936.722 1343.1 937.91 1343.52 938.722C1343.98 939.616 1345.87 938.409 1347.45 939.342C1349.21 940.379 1350.19 943.831 1349.22 946.068C1348.05 948.776 1344.51 948.569 1344.31 950.547C1344.16 952.011 1346.04 952.591 1346.19 954.167C1346.41 956.549 1342.53 959.875 1338.28 960.984C1329.66 963.23 1324.46 955.085 1317.09 958.44C1314.69 959.534 1313.35 961.264 1312.45 960.597Z" fill="url(#paint57_linear_112_4)"/>
<path opacity="0.3" d="M1320.78 955.223C1324.62 954.669 1326.12 958.292 1332.09 958.949C1337.06 959.496 1342.31 957.678 1342.71 955.312C1342.96 953.775 1340.99 953.075 1341.12 951.062C1341.31 948.078 1345.8 947.125 1345.61 945.074C1345.45 943.252 1341.84 943.361 1340.95 940.577C1340.27 938.469 1341.83 936.813 1341 935.824C1339.99 934.616 1337.42 936.797 1335.37 935.699C1334.91 935.451 1334.54 935.069 1334.23 934.594C1333.89 935.447 1333.44 936.342 1332.79 937.146C1331.33 938.971 1329.64 939.394 1327.73 940.142C1325.97 940.828 1318.54 943.931 1314.73 949.798C1312.05 953.936 1311.09 959.576 1312.46 960.596C1312.98 960.986 1313.66 960.555 1314.61 959.909C1316.93 956.523 1319.09 955.468 1320.78 955.223Z" fill="url(#paint58_linear_112_4)"/>
<path d="M1312.18 964.026C1310.07 962.81 1304.69 959.265 1302.54 952.334C1299.02 941.032 1306.29 927.808 1311.41 927.467C1313.14 927.352 1314.59 928.709 1317.65 928.031C1319.75 927.565 1320.04 926.709 1322.15 926.496C1324.07 926.304 1326.96 926.695 1327.66 928.416C1328.15 929.611 1327.29 930.743 1327.87 931.331C1328.56 932.036 1329.97 930.617 1331.13 931.061C1332.81 931.709 1333.92 936.337 1332.73 939.785C1330.64 945.828 1322.9 944.113 1317.18 950.557C1313.61 954.576 1312.51 959.883 1312.18 964.026Z" fill="url(#paint59_linear_112_4)"/>
<path opacity="0.3" d="M1311.09 962.024C1311.09 962.024 1306.09 953.012 1308.5 943.749C1310.9 934.486 1313.32 935.74 1314.44 935.169C1315.57 934.599 1313.09 938.58 1311.89 941.639C1310.69 944.697 1307.92 947.424 1311.09 962.024Z" fill="url(#paint60_linear_112_4)"/>
<path opacity="0.3" d="M1331.13 931.061C1329.98 930.617 1328.56 932.036 1327.87 931.331C1327.29 930.741 1328.15 929.611 1327.66 928.416C1326.96 926.695 1324.07 926.304 1322.15 926.496C1320.04 926.709 1319.76 927.565 1317.65 928.031C1314.59 928.709 1313.14 927.352 1311.42 927.467C1306.39 927.801 1299.29 940.548 1302.36 951.707C1301.82 947.447 1301.97 942.335 1304.16 937.537C1304.6 936.581 1307.77 929.641 1311.48 929.896C1313.4 930.027 1313.92 931.962 1316.08 931.962C1319.19 931.964 1320.45 927.942 1322.42 928.506C1324.29 929.042 1323.86 932.873 1326.21 933.836C1327.88 934.521 1329.01 932.951 1330.4 933.415C1331.42 933.755 1332.42 935.147 1332.96 939.004C1333.76 935.676 1332.69 931.661 1331.13 931.061Z" fill="url(#paint61_linear_112_4)"/>
<path d="M1293.66 963.927C1295.03 962.907 1294.06 957.267 1291.38 953.129C1287.57 947.263 1280.14 944.161 1278.38 943.473C1276.47 942.726 1274.78 942.302 1273.32 940.477C1271.21 937.844 1271.16 934.253 1270.31 934.296C1269.68 934.327 1269.91 936.32 1268.67 937.105C1266.96 938.192 1264.68 935.571 1262.95 936.79C1262.2 937.316 1261.97 938.271 1261.94 938.371C1261.55 940.052 1263.01 941.24 1262.59 942.052C1262.13 942.946 1260.24 941.739 1258.66 942.671C1256.9 943.709 1255.92 947.16 1256.89 949.398C1258.06 952.106 1261.6 951.899 1261.8 953.877C1261.96 955.341 1260.07 955.92 1259.92 957.497C1259.7 959.879 1263.58 963.204 1267.83 964.313C1276.45 966.559 1281.65 958.414 1289.02 961.769C1291.42 962.864 1292.76 964.593 1293.66 963.927Z" fill="url(#paint62_linear_112_4)"/>
<path d="M1285.33 958.553C1281.49 957.999 1279.99 961.621 1274.02 962.279C1269.04 962.826 1263.8 961.008 1263.41 958.642C1263.15 957.105 1265.12 956.405 1264.99 954.392C1264.8 951.408 1260.31 950.454 1260.5 948.404C1260.66 946.582 1264.27 946.69 1265.16 943.907C1265.84 941.799 1264.28 940.143 1265.11 939.154C1266.12 937.946 1268.69 940.127 1270.74 939.029C1271.2 938.78 1271.57 938.399 1271.88 937.924C1272.22 938.776 1272.67 939.672 1273.32 940.476C1274.78 942.3 1276.47 942.724 1278.38 943.471C1280.14 944.158 1287.57 947.261 1291.38 953.128C1294.06 957.266 1295.03 962.906 1293.66 963.925C1293.13 964.316 1292.45 963.884 1291.5 963.239C1289.18 959.852 1287.02 958.797 1285.33 958.553Z" fill="url(#paint63_linear_112_4)"/>
<path d="M1293.93 967.357C1296.04 966.141 1301.42 962.596 1303.57 955.666C1307.09 944.363 1299.82 931.139 1294.7 930.798C1292.97 930.683 1291.52 932.04 1288.46 931.362C1286.36 930.896 1286.07 930.04 1283.96 929.828C1282.04 929.635 1279.15 930.026 1278.45 931.747C1277.97 932.942 1278.82 934.074 1278.24 934.663C1277.55 935.368 1276.14 933.948 1274.98 934.392C1273.3 935.04 1272.19 939.668 1273.38 943.116C1275.47 949.159 1283.21 947.444 1288.93 953.889C1292.5 957.906 1293.6 963.212 1293.93 967.357Z" fill="url(#paint64_linear_112_4)"/>
<path d="M1295.02 965.354C1295.02 965.354 1300.02 956.342 1297.61 947.079C1295.21 937.815 1292.79 939.07 1291.67 938.499C1290.54 937.929 1293.02 941.91 1294.22 944.969C1295.42 948.026 1298.19 950.754 1295.02 965.354Z" fill="url(#paint65_linear_112_4)"/>
<path opacity="0.3" d="M1274.98 934.392C1276.14 933.948 1277.55 935.368 1278.24 934.663C1278.82 934.072 1277.96 932.942 1278.45 931.747C1279.15 930.026 1282.04 929.635 1283.96 929.828C1286.07 930.04 1286.36 930.896 1288.46 931.362C1291.52 932.04 1292.97 930.683 1294.7 930.798C1299.72 931.132 1306.82 943.879 1303.76 955.039C1304.29 950.778 1304.15 945.666 1301.95 940.868C1301.51 939.912 1298.34 932.973 1294.63 933.227C1292.72 933.358 1292.19 935.294 1290.03 935.294C1286.92 935.295 1285.66 931.273 1283.69 931.837C1281.83 932.373 1282.26 936.205 1279.9 937.167C1278.23 937.852 1277.1 936.283 1275.71 936.746C1274.69 937.087 1273.69 938.478 1273.15 942.335C1272.35 939.006 1273.42 934.991 1274.98 934.392Z" fill="url(#paint66_linear_112_4)"/>
<path d="M1329.63 929.418C1335.16 934.847 1335.4 944.452 1330.18 950.873C1324.95 957.294 1316.23 958.096 1310.7 952.669L1329.63 929.418Z" fill="url(#paint67_linear_112_4)"/>
<path opacity="0.5" d="M1329.63 929.418C1334.52 934.214 1334.23 943.305 1329 949.726C1323.78 956.146 1315.58 957.463 1310.7 952.667L1329.63 929.418Z" fill="url(#paint68_linear_112_4)"/>
<path d="M1328.5 930.805C1332.67 934.9 1332.54 942.988 1327.95 948.622C1323.37 954.254 1316.06 955.299 1311.89 951.203L1328.5 930.805Z" fill="url(#paint69_linear_112_4)"/>
<path d="M1322.29 939.4L1320.9 941.107L1327.29 947.388C1328.81 945.419 1329.66 943.328 1330.07 941.244L1322.29 939.4Z" fill="url(#paint70_linear_112_4)"/>
<path d="M1321.42 951.684C1323.26 951.041 1325.06 949.937 1326.7 948.099L1320.31 941.827L1318.92 943.53L1321.42 951.684Z" fill="url(#paint71_linear_112_4)"/>
<path d="M1318.08 944.57L1313.37 950.349C1315.12 952.064 1317.68 952.611 1320.28 952.009L1318.08 944.57Z" fill="url(#paint72_linear_112_4)"/>
<path d="M1323.14 938.359L1330.27 939.973C1330.59 936.976 1329.99 934.293 1328.02 932.364L1323.14 938.359Z" fill="url(#paint73_linear_112_4)"/>
<g opacity="0.2">
<path opacity="0.2" d="M1322.29 939.4L1320.9 941.107L1327.29 947.388C1328.81 945.419 1329.66 943.328 1330.07 941.244L1322.29 939.4Z" fill="url(#paint74_linear_112_4)"/>
<path opacity="0.2" d="M1321.42 951.684C1323.26 951.041 1325.06 949.937 1326.7 948.099L1320.31 941.827L1318.92 943.53L1321.42 951.684Z" fill="url(#paint75_linear_112_4)"/>
<path opacity="0.2" d="M1318.08 944.57L1313.37 950.349C1315.12 952.064 1317.68 952.611 1320.28 952.009L1318.08 944.57Z" fill="url(#paint76_linear_112_4)"/>
<path opacity="0.2" d="M1323.14 938.359L1330.27 939.973C1330.59 936.976 1329.99 934.293 1328.02 932.364L1323.14 938.359Z" fill="url(#paint77_linear_112_4)"/>
</g>
<path d="M1298.53 950.057C1294.42 956.839 1285.8 958.474 1279.27 953.706C1272.73 948.939 1270.76 939.577 1274.87 932.794L1298.53 950.057Z" fill="url(#paint78_linear_112_4)"/>
<path opacity="0.5" d="M1298.53 950.057C1294.9 956.049 1286.67 957.04 1280.13 952.274C1273.6 947.508 1271.24 938.786 1274.87 932.794L1298.53 950.057Z" fill="url(#paint79_linear_112_4)"/>
<path d="M1297.12 949.027C1294.02 954.145 1286.71 955.155 1280.98 950.972C1275.25 946.789 1273.26 938.998 1276.36 933.882L1297.12 949.027Z" fill="url(#paint80_linear_112_4)"/>
<path d="M1288.48 943.499L1286.74 942.232L1281.99 950.079C1283.98 951.442 1285.99 952.066 1287.93 952.222L1288.48 943.499Z" fill="url(#paint81_linear_112_4)"/>
<path d="M1277.28 944.306C1278.13 946.214 1279.38 948.011 1281.27 949.535L1286.01 941.698L1284.28 940.433L1277.28 944.306Z" fill="url(#paint82_linear_112_4)"/>
<path d="M1283.22 939.661L1277.34 935.37C1276.04 937.514 1275.92 940.381 1276.83 943.118L1283.22 939.661Z" fill="url(#paint83_linear_112_4)"/>
<path d="M1289.54 944.271L1289.1 952.251C1291.85 952.176 1294.18 951.136 1295.64 948.723L1289.54 944.271Z" fill="url(#paint84_linear_112_4)"/>
<g opacity="0.2">
<path opacity="0.2" d="M1288.48 943.499L1286.74 942.232L1281.99 950.079C1283.98 951.442 1285.99 952.066 1287.93 952.222L1288.48 943.499Z" fill="url(#paint85_linear_112_4)"/>
<path opacity="0.2" d="M1277.28 944.306C1278.13 946.214 1279.38 948.011 1281.27 949.535L1286.01 941.698L1284.28 940.433L1277.28 944.306Z" fill="url(#paint86_linear_112_4)"/>
<path opacity="0.2" d="M1283.22 939.661L1277.34 935.37C1276.04 937.514 1275.92 940.381 1276.83 943.118L1283.22 939.661Z" fill="url(#paint87_linear_112_4)"/>
<path opacity="0.2" d="M1289.54 944.271L1289.1 952.251C1291.85 952.176 1294.18 951.136 1295.64 948.723L1289.54 944.271Z" fill="url(#paint88_linear_112_4)"/>
</g>
<path d="M1320.77 968.711C1322.14 967.692 1321.18 962.052 1318.49 957.914C1314.69 952.048 1307.26 948.945 1305.5 948.258C1303.59 947.51 1301.89 947.086 1300.44 945.262C1298.33 942.629 1298.27 939.038 1297.43 939.08C1296.8 939.112 1297.02 941.104 1295.79 941.89C1294.08 942.976 1291.8 940.356 1290.07 941.574C1289.32 942.101 1289.08 943.056 1289.06 943.156C1288.67 944.837 1290.13 946.025 1289.71 946.837C1289.24 947.731 1287.35 946.524 1285.77 947.456C1284.01 948.494 1283.04 951.945 1284.01 954.183C1285.18 956.891 1288.71 956.684 1288.92 958.661C1289.07 960.126 1287.19 960.705 1287.04 962.282C1286.82 964.663 1290.7 967.989 1294.95 969.098C1303.57 971.344 1308.77 963.199 1316.14 966.554C1318.54 967.649 1319.88 969.38 1320.77 968.711Z" fill="url(#paint89_linear_112_4)"/>
<path d="M1312.45 963.338C1308.61 962.783 1307.1 966.406 1301.13 967.064C1296.16 967.61 1290.91 965.792 1290.52 963.426C1290.27 961.889 1292.24 961.19 1292.11 959.176C1291.91 956.192 1287.43 955.239 1287.61 953.189C1287.78 951.367 1291.38 951.475 1292.28 948.692C1292.96 946.583 1291.4 944.928 1292.23 943.939C1293.24 942.731 1295.8 944.912 1297.85 943.813C1298.31 943.566 1298.69 943.184 1299 942.708C1299.34 943.561 1299.79 944.456 1300.43 945.26C1301.89 947.085 1303.59 947.509 1305.5 948.256C1307.26 948.943 1314.69 952.045 1318.49 957.913C1321.18 962.051 1322.14 967.691 1320.77 968.71C1320.25 969.101 1319.57 968.669 1318.62 968.024C1316.3 964.637 1314.14 963.582 1312.45 963.338Z" fill="url(#paint90_linear_112_4)"/>
<path d="M1309.09 961.148C1308.51 962.311 1307.7 963.378 1306.68 964.298C1301.55 968.945 1294.15 967.002 1290.17 959.955C1287.62 955.461 1286.57 950.437 1287.07 946.548C1287.35 944.34 1288.14 942.497 1289.43 941.324C1293.02 938.08 1300.41 940.026 1305.95 945.666C1310.39 950.191 1311.48 956.447 1309.09 961.148Z" fill="url(#paint91_linear_112_4)"/>
<path d="M1303.58 949.611C1305.74 952.49 1305.35 956.772 1302.7 959.172C1300.04 961.573 1296.14 961.184 1293.98 958.305C1291.82 955.425 1292.21 951.144 1294.86 948.743C1297.52 946.343 1301.42 946.731 1303.58 949.611Z" fill="url(#paint92_linear_112_4)"/>
<path opacity="0.1" d="M1309.09 961.148C1308.5 962.311 1307.7 963.377 1306.68 964.298C1301.55 968.945 1294.15 967.002 1290.17 959.955C1287.62 955.461 1286.57 950.437 1287.07 946.548C1287.67 950.477 1289.3 956.394 1293.76 957.992C1294.39 958.216 1295.07 958.355 1295.82 958.392C1298.33 958.511 1300.74 958.69 1302.86 959.013C1305.6 959.427 1307.83 960.078 1309.09 961.148Z" fill="url(#paint93_linear_112_4)"/>
</g>
<path d="M0 867.967V1094H514.404C514.404 1094 449.477 867.967 0 867.967Z" fill="url(#paint94_linear_112_4)"/>
<path d="M1762.63 -118.88V307.475C1762.63 307.475 787.808 631.649 505.62 -118.88H1762.63Z" fill="url(#paint95_linear_112_4)"/>
<path d="M0 139.806C0 139.806 359.618 272.154 658.676 105.367C957.735 -61.4187 1146.39 -50.1661 1146.39 -50.1661L0 -50.3266V139.806Z" fill="url(#paint96_linear_112_4)"/>
</g>
<defs>
<linearGradient id="paint0_linear_112_4" x1="1657.09" y1="1094" x2="1657.09" y2="798.469" gradientUnits="userSpaceOnUse">
<stop stop-color="#C5CFFF"/>
<stop offset="0.248" stop-color="#D3DCFF"/>
<stop offset="0.5471" stop-color="#DCE4FF"/>
<stop offset="1" stop-color="#DFE6FF"/>
</linearGradient>
<linearGradient id="paint1_linear_112_4" x1="1291.91" y1="777.101" x2="1350.79" y2="777.101" gradientUnits="userSpaceOnUse">
<stop offset="0.00359712" stop-color="#EBEFF2"/>
<stop offset="1" stop-color="white"/>
</linearGradient>
<linearGradient id="paint2_linear_112_4" x1="1302.03" y1="759.254" x2="1323.04" y2="779.437" gradientUnits="userSpaceOnUse">
<stop offset="0.00359712" stop-color="#E38DDD"/>
<stop offset="1" stop-color="#9571F6"/>
</linearGradient>
<linearGradient id="paint3_linear_112_4" x1="1312.48" y1="774.377" x2="1301.87" y2="772.416" gradientUnits="userSpaceOnUse">
<stop offset="0.00359712" stop-color="#E38DDD"/>
<stop offset="1" stop-color="#9571F6"/>
</linearGradient>
<linearGradient id="paint4_linear_112_4" x1="1315.11" y1="771.514" x2="1305.12" y2="769.666" gradientUnits="userSpaceOnUse">
<stop offset="0.00359712" stop-color="#E38DDD"/>
<stop offset="1" stop-color="#9571F6"/>
</linearGradient>
<linearGradient id="paint5_linear_112_4" x1="1312.7" y1="772.738" x2="1310" y2="766.403" gradientUnits="userSpaceOnUse">
<stop offset="0.00359712" stop-color="#E38DDD"/>
<stop offset="1" stop-color="#9571F6"/>
</linearGradient>
<linearGradient id="paint6_linear_112_4" x1="1309.32" y1="759.258" x2="1313.06" y2="767.631" gradientUnits="userSpaceOnUse">
<stop offset="0.00359712" stop-color="#E38DDD"/>
<stop offset="1" stop-color="#9571F6"/>
</linearGradient>
<linearGradient id="paint7_linear_112_4" x1="1324.28" y1="756.822" x2="1308.83" y2="777" gradientUnits="userSpaceOnUse">
<stop stop-color="#AB316D"/>
<stop offset="1" stop-color="#792D3D"/>
</linearGradient>
<linearGradient id="paint8_linear_112_4" x1="1319.71" y1="772.348" x2="1303.9" y2="793.002" gradientUnits="userSpaceOnUse">
<stop stop-color="#AB316D"/>
<stop offset="1" stop-color="#792D3D"/>
</linearGradient>
<linearGradient id="paint9_linear_112_4" x1="1313.05" y1="773.782" x2="1307.2" y2="781.414" gradientUnits="userSpaceOnUse">
<stop stop-color="#AB316D"/>
<stop offset="1" stop-color="#792D3D"/>
</linearGradient>
<linearGradient id="paint10_linear_112_4" x1="1316.89" y1="773.39" x2="1311.05" y2="781.022" gradientUnits="userSpaceOnUse">
<stop stop-color="#AB316D"/>
<stop offset="1" stop-color="#792D3D"/>
</linearGradient>
<linearGradient id="paint11_linear_112_4" x1="1320.74" y1="772.998" x2="1314.89" y2="780.63" gradientUnits="userSpaceOnUse">
<stop stop-color="#AB316D"/>
<stop offset="1" stop-color="#792D3D"/>
</linearGradient>
<linearGradient id="paint12_linear_112_4" x1="1324.58" y1="772.606" x2="1318.74" y2="780.239" gradientUnits="userSpaceOnUse">
<stop stop-color="#AB316D"/>
<stop offset="1" stop-color="#792D3D"/>
</linearGradient>
<linearGradient id="paint13_linear_112_4" x1="1221.84" y1="735.696" x2="1282.66" y2="735.696" gradientUnits="userSpaceOnUse">
<stop offset="0.00359712" stop-color="#EBEFF2"/>
<stop offset="1" stop-color="white"/>
</linearGradient>
<radialGradient id="paint14_radial_112_4" cx="0" cy="0" r="1" gradientUnits="userSpaceOnUse" gradientTransform="translate(1241.67 707.764) rotate(53.3076) scale(41.9752 31.4945)">
<stop offset="0.145833" stop-color="#252527"/>
<stop offset="1" stop-color="#EBEFF2"/>
</radialGradient>
<linearGradient id="paint15_linear_112_4" x1="1250.15" y1="692.3" x2="1254.04" y2="724.366" gradientUnits="userSpaceOnUse">
<stop stop-color="white"/>
<stop offset="0.9964" stop-color="#EBEFF2"/>
</linearGradient>
<linearGradient id="paint16_linear_112_4" x1="1281.74" y1="703.768" x2="1251.19" y2="746.768" gradientUnits="userSpaceOnUse">
<stop offset="0.00359712" stop-color="#E38DDD"/>
<stop offset="1" stop-color="#9571F6"/>
</linearGradient>
<linearGradient id="paint17_linear_112_4" x1="1258.17" y1="727.031" x2="1281.21" y2="720.787" gradientUnits="userSpaceOnUse">
<stop offset="0.00359712" stop-color="#E38DDD"/>
<stop offset="1" stop-color="#9571F6"/>
</linearGradient>
<linearGradient id="paint18_linear_112_4" x1="1252.24" y1="722.627" x2="1273.94" y2="716.746" gradientUnits="userSpaceOnUse">
<stop offset="0.00359712" stop-color="#E38DDD"/>
<stop offset="1" stop-color="#9571F6"/>
</linearGradient>
<linearGradient id="paint19_linear_112_4" x1="1257.69" y1="724.51" x2="1260.77" y2="713.895" gradientUnits="userSpaceOnUse">
<stop offset="0.00359712" stop-color="#E38DDD"/>
<stop offset="1" stop-color="#9571F6"/>
</linearGradient>
<linearGradient id="paint20_linear_112_4" x1="1265.3" y1="703.775" x2="1261" y2="717.906" gradientUnits="userSpaceOnUse">
<stop offset="0.00359712" stop-color="#E38DDD"/>
<stop offset="1" stop-color="#9571F6"/>
</linearGradient>
<linearGradient id="paint21_linear_112_4" x1="1224.59" y1="706.104" x2="1255.14" y2="749.104" gradientUnits="userSpaceOnUse">
<stop offset="0.00359712" stop-color="#E38DDD"/>
<stop offset="1" stop-color="#9571F6"/>
</linearGradient>
<linearGradient id="paint22_linear_112_4" x1="1248.16" y1="729.367" x2="1225.12" y2="723.123" gradientUnits="userSpaceOnUse">
<stop offset="0.00359712" stop-color="#E38DDD"/>
<stop offset="1" stop-color="#9571F6"/>
</linearGradient>
<linearGradient id="paint23_linear_112_4" x1="1254.09" y1="724.963" x2="1232.39" y2="719.082" gradientUnits="userSpaceOnUse">
<stop offset="0.00359712" stop-color="#E38DDD"/>
<stop offset="1" stop-color="#9571F6"/>
</linearGradient>
<linearGradient id="paint24_linear_112_4" x1="1248.64" y1="726.846" x2="1245.56" y2="716.232" gradientUnits="userSpaceOnUse">
<stop offset="0.00359712" stop-color="#E38DDD"/>
<stop offset="1" stop-color="#9571F6"/>
</linearGradient>
<linearGradient id="paint25_linear_112_4" x1="1241.04" y1="706.111" x2="1245.34" y2="720.242" gradientUnits="userSpaceOnUse">
<stop offset="0.00359712" stop-color="#E38DDD"/>
<stop offset="1" stop-color="#9571F6"/>
</linearGradient>
<linearGradient id="paint26_linear_112_4" x1="1273.77" y1="714.398" x2="1257.01" y2="722.731" gradientUnits="userSpaceOnUse">
<stop stop-color="#FF9085"/>
<stop offset="1" stop-color="#FB6FBB"/>
</linearGradient>
<linearGradient id="paint27_linear_112_4" x1="1273.47" y1="713.983" x2="1256.78" y2="722.277" gradientUnits="userSpaceOnUse">
<stop stop-color="#FF9085"/>
<stop offset="1" stop-color="#FB6FBB"/>
</linearGradient>
<linearGradient id="paint28_linear_112_4" x1="1272.36" y1="714.309" x2="1257.72" y2="721.581" gradientUnits="userSpaceOnUse">
<stop offset="0.00359712" stop-color="#EBEFF2"/>
<stop offset="1" stop-color="white"/>
</linearGradient>
<linearGradient id="paint29_linear_112_4" x1="1270.45" y1="716.353" x2="1265.69" y2="718.717" gradientUnits="userSpaceOnUse">
<stop stop-color="#FF9085"/>
<stop offset="1" stop-color="#FB6FBB"/>
</linearGradient>
<linearGradient id="paint30_linear_112_4" x1="1267.3" y1="719.26" x2="1263.54" y2="721.13" gradientUnits="userSpaceOnUse">
<stop stop-color="#FF9085"/>
<stop offset="1" stop-color="#FB6FBB"/>
</linearGradient>
<linearGradient id="paint31_linear_112_4" x1="1264.1" y1="721.652" x2="1260.03" y2="723.678" gradientUnits="userSpaceOnUse">
<stop stop-color="#FF9085"/>
<stop offset="1" stop-color="#FB6FBB"/>
</linearGradient>
<linearGradient id="paint32_linear_112_4" x1="1270.79" y1="713.012" x2="1266.37" y2="715.213" gradientUnits="userSpaceOnUse">
<stop stop-color="#FF9085"/>
<stop offset="1" stop-color="#FB6FBB"/>
</linearGradient>
<linearGradient id="paint33_linear_112_4" x1="1270.45" y1="716.353" x2="1265.69" y2="718.717" gradientUnits="userSpaceOnUse">
<stop stop-color="#FF9085"/>
<stop offset="1" stop-color="#FB6FBB"/>
</linearGradient>
<linearGradient id="paint34_linear_112_4" x1="1267.3" y1="719.26" x2="1263.54" y2="721.13" gradientUnits="userSpaceOnUse">
<stop stop-color="#FF9085"/>
<stop offset="1" stop-color="#FB6FBB"/>
</linearGradient>
<linearGradient id="paint35_linear_112_4" x1="1264.1" y1="721.652" x2="1260.03" y2="723.678" gradientUnits="userSpaceOnUse">
<stop stop-color="#FF9085"/>
<stop offset="1" stop-color="#FB6FBB"/>
</linearGradient>
<linearGradient id="paint36_linear_112_4" x1="1270.79" y1="713.012" x2="1266.37" y2="715.213" gradientUnits="userSpaceOnUse">
<stop stop-color="#FF9085"/>
<stop offset="1" stop-color="#FB6FBB"/>
</linearGradient>
<linearGradient id="paint37_linear_112_4" x1="1245.92" y1="727.848" x2="1232.31" y2="713.436" gradientUnits="userSpaceOnUse">
<stop stop-color="#FF9085"/>
<stop offset="1" stop-color="#FB6FBB"/>
</linearGradient>
<linearGradient id="paint38_linear_112_4" x1="1246.23" y1="727.431" x2="1232.67" y2="713.087" gradientUnits="userSpaceOnUse">
<stop stop-color="#FF9085"/>
<stop offset="1" stop-color="#FB6FBB"/>
</linearGradient>
<linearGradient id="paint39_linear_112_4" x1="1245.8" y1="726.175" x2="1233.91" y2="713.599" gradientUnits="userSpaceOnUse">
<stop offset="0.00359712" stop-color="#EBEFF2"/>
<stop offset="1" stop-color="white"/>
</linearGradient>
<linearGradient id="paint40_linear_112_4" x1="1243.81" y1="724.235" x2="1239.95" y2="720.147" gradientUnits="userSpaceOnUse">
<stop stop-color="#FF9085"/>
<stop offset="1" stop-color="#FB6FBB"/>
</linearGradient>
<linearGradient id="paint41_linear_112_4" x1="1240.93" y1="720.973" x2="1237.87" y2="717.739" gradientUnits="userSpaceOnUse">
<stop stop-color="#FF9085"/>
<stop offset="1" stop-color="#FB6FBB"/>
</linearGradient>
<linearGradient id="paint42_linear_112_4" x1="1238.47" y1="717.571" x2="1235.16" y2="714.068" gradientUnits="userSpaceOnUse">
<stop stop-color="#FF9085"/>
<stop offset="1" stop-color="#FB6FBB"/>
</linearGradient>
<linearGradient id="paint43_linear_112_4" x1="1246.66" y1="724.166" x2="1243.06" y2="720.358" gradientUnits="userSpaceOnUse">
<stop stop-color="#FF9085"/>
<stop offset="1" stop-color="#FB6FBB"/>
</linearGradient>
<linearGradient id="paint44_linear_112_4" x1="1243.81" y1="724.235" x2="1239.95" y2="720.147" gradientUnits="userSpaceOnUse">
<stop stop-color="#FF9085"/>
<stop offset="1" stop-color="#FB6FBB"/>
</linearGradient>
<linearGradient id="paint45_linear_112_4" x1="1240.93" y1="720.973" x2="1237.87" y2="717.739" gradientUnits="userSpaceOnUse">
<stop stop-color="#FF9085"/>
<stop offset="1" stop-color="#FB6FBB"/>
</linearGradient>
<linearGradient id="paint46_linear_112_4" x1="1238.47" y1="717.571" x2="1235.16" y2="714.068" gradientUnits="userSpaceOnUse">
<stop stop-color="#FF9085"/>
<stop offset="1" stop-color="#FB6FBB"/>
</linearGradient>
<linearGradient id="paint47_linear_112_4" x1="1246.66" y1="724.166" x2="1243.06" y2="720.358" gradientUnits="userSpaceOnUse">
<stop stop-color="#FF9085"/>
<stop offset="1" stop-color="#FB6FBB"/>
</linearGradient>
<linearGradient id="paint48_linear_112_4" x1="1242.26" y1="709.46" x2="1272.82" y2="752.46" gradientUnits="userSpaceOnUse">
<stop offset="0.00359712" stop-color="#E38DDD"/>
<stop offset="1" stop-color="#9571F6"/>
</linearGradient>
<linearGradient id="paint49_linear_112_4" x1="1265.83" y1="732.724" x2="1242.79" y2="726.48" gradientUnits="userSpaceOnUse">
<stop offset="0.00359712" stop-color="#E38DDD"/>
<stop offset="1" stop-color="#9571F6"/>
</linearGradient>
<linearGradient id="paint50_linear_112_4" x1="1257.99" y1="727.591" x2="1242.02" y2="724.754" gradientUnits="userSpaceOnUse">
<stop offset="0.00359712" stop-color="#EBEFF2"/>
<stop offset="1" stop-color="white"/>
</linearGradient>
<linearGradient id="paint51_linear_112_4" x1="1254.32" y1="726.906" x2="1246.34" y2="725.489" gradientUnits="userSpaceOnUse">
<stop stop-color="#FFC444"/>
<stop offset="0.9964" stop-color="#F36F56"/>
</linearGradient>
<linearGradient id="paint52_linear_112_4" x1="1257.2" y1="730.434" x2="1241.52" y2="727.65" gradientUnits="userSpaceOnUse">
<stop stop-color="#FFC444"/>
<stop offset="0.9964" stop-color="#F36F56"/>
</linearGradient>
<linearGradient id="paint53_linear_112_4" x1="1254.98" y1="967.884" x2="1348.31" y2="967.884" gradientUnits="userSpaceOnUse">
<stop offset="0.00359712" stop-color="#EBEFF2"/>
<stop offset="1" stop-color="white"/>
</linearGradient>
<linearGradient id="paint54_linear_112_4" x1="1281.3" y1="883.935" x2="1291.22" y2="972.006" gradientUnits="userSpaceOnUse">
<stop stop-color="white"/>
<stop offset="0.9964" stop-color="#EBEFF2"/>
</linearGradient>
<linearGradient id="paint55_linear_112_4" x1="1297.28" y1="903.789" x2="1302.83" y2="953.062" gradientUnits="userSpaceOnUse">
<stop offset="0.00359712" stop-color="#EBEFF2"/>
<stop offset="1" stop-color="white"/>
</linearGradient>
<linearGradient id="paint56_linear_112_4" x1="1298.42" y1="906.021" x2="1303.58" y2="951.823" gradientUnits="userSpaceOnUse">
<stop stop-color="white"/>
<stop offset="0.9964" stop-color="#EBEFF2"/>
</linearGradient>
<linearGradient id="paint57_linear_112_4" x1="1346.9" y1="922.368" x2="1304.49" y2="986.619" gradientUnits="userSpaceOnUse">
<stop offset="0.00359712" stop-color="#E38DDD"/>
<stop offset="1" stop-color="#9571F6"/>
</linearGradient>
<linearGradient id="paint58_linear_112_4" x1="1310.73" y1="955.532" x2="1345.71" y2="945.329" gradientUnits="userSpaceOnUse">
<stop offset="0.00359712" stop-color="#E38DDD"/>
<stop offset="1" stop-color="#9571F6"/>
</linearGradient>
<linearGradient id="paint59_linear_112_4" x1="1301.63" y1="949.253" x2="1334.58" y2="939.643" gradientUnits="userSpaceOnUse">
<stop offset="0.00359712" stop-color="#E38DDD"/>
<stop offset="1" stop-color="#9571F6"/>
</linearGradient>
<linearGradient id="paint60_linear_112_4" x1="1310" y1="951.937" x2="1314.12" y2="936.643" gradientUnits="userSpaceOnUse">
<stop offset="0.00359712" stop-color="#E38DDD"/>
<stop offset="1" stop-color="#9571F6"/>
</linearGradient>
<linearGradient id="paint61_linear_112_4" x1="1321.67" y1="922.379" x2="1315.91" y2="942.76" gradientUnits="userSpaceOnUse">
<stop offset="0.00359712" stop-color="#E38DDD"/>
<stop offset="1" stop-color="#9571F6"/>
</linearGradient>
<linearGradient id="paint62_linear_112_4" x1="1259.21" y1="925.698" x2="1301.62" y2="989.949" gradientUnits="userSpaceOnUse">
<stop offset="0.00359712" stop-color="#E38DDD"/>
<stop offset="1" stop-color="#9571F6"/>
</linearGradient>
<linearGradient id="paint63_linear_112_4" x1="1295.38" y1="958.861" x2="1260.4" y2="948.658" gradientUnits="userSpaceOnUse">
<stop offset="0.00359712" stop-color="#E38DDD"/>
<stop offset="1" stop-color="#9571F6"/>
</linearGradient>
<linearGradient id="paint64_linear_112_4" x1="1304.48" y1="952.583" x2="1271.53" y2="942.973" gradientUnits="userSpaceOnUse">
<stop offset="0.00359712" stop-color="#E38DDD"/>
<stop offset="1" stop-color="#9571F6"/>
</linearGradient>
<linearGradient id="paint65_linear_112_4" x1="1296.11" y1="955.267" x2="1291.99" y2="939.973" gradientUnits="userSpaceOnUse">
<stop offset="0.00359712" stop-color="#E38DDD"/>
<stop offset="1" stop-color="#9571F6"/>
</linearGradient>
<linearGradient id="paint66_linear_112_4" x1="1284.44" y1="925.709" x2="1290.2" y2="946.09" gradientUnits="userSpaceOnUse">
<stop offset="0.00359712" stop-color="#E38DDD"/>
<stop offset="1" stop-color="#9571F6"/>
</linearGradient>
<linearGradient id="paint67_linear_112_4" x1="1334.68" y1="937.523" x2="1309.74" y2="950.868" gradientUnits="userSpaceOnUse">
<stop stop-color="#FF9085"/>
<stop offset="1" stop-color="#FB6FBB"/>
</linearGradient>
<linearGradient id="paint68_linear_112_4" x1="1334.21" y1="936.931" x2="1309.38" y2="950.213" gradientUnits="userSpaceOnUse">
<stop stop-color="#FF9085"/>
<stop offset="1" stop-color="#FB6FBB"/>
</linearGradient>
<linearGradient id="paint69_linear_112_4" x1="1332.5" y1="937.396" x2="1310.73" y2="949.041" gradientUnits="userSpaceOnUse">
<stop offset="0.00359712" stop-color="#EBEFF2"/>
<stop offset="1" stop-color="white"/>
</linearGradient>
<linearGradient id="paint70_linear_112_4" x1="1329.57" y1="940.31" x2="1322.5" y2="944.095" gradientUnits="userSpaceOnUse">
<stop stop-color="#FF9085"/>
<stop offset="1" stop-color="#FB6FBB"/>
</linearGradient>
<linearGradient id="paint71_linear_112_4" x1="1324.75" y1="944.454" x2="1319.15" y2="947.449" gradientUnits="userSpaceOnUse">
<stop stop-color="#FF9085"/>
<stop offset="1" stop-color="#FB6FBB"/>
</linearGradient>
<linearGradient id="paint72_linear_112_4" x1="1319.84" y1="947.864" x2="1313.78" y2="951.107" gradientUnits="userSpaceOnUse">
<stop stop-color="#FF9085"/>
<stop offset="1" stop-color="#FB6FBB"/>
</linearGradient>
<linearGradient id="paint73_linear_112_4" x1="1330.11" y1="935.547" x2="1323.52" y2="939.072" gradientUnits="userSpaceOnUse">
<stop stop-color="#FF9085"/>
<stop offset="1" stop-color="#FB6FBB"/>
</linearGradient>
<linearGradient id="paint74_linear_112_4" x1="1329.57" y1="940.31" x2="1322.5" y2="944.095" gradientUnits="userSpaceOnUse">
<stop stop-color="#FF9085"/>
<stop offset="1" stop-color="#FB6FBB"/>
</linearGradient>
<linearGradient id="paint75_linear_112_4" x1="1324.75" y1="944.454" x2="1319.15" y2="947.449" gradientUnits="userSpaceOnUse">
<stop stop-color="#FF9085"/>
<stop offset="1" stop-color="#FB6FBB"/>
</linearGradient>
<linearGradient id="paint76_linear_112_4" x1="1319.84" y1="947.864" x2="1313.78" y2="951.107" gradientUnits="userSpaceOnUse">
<stop stop-color="#FF9085"/>
<stop offset="1" stop-color="#FB6FBB"/>
</linearGradient>
<linearGradient id="paint77_linear_112_4" x1="1330.11" y1="935.547" x2="1323.52" y2="939.072" gradientUnits="userSpaceOnUse">
<stop stop-color="#FF9085"/>
<stop offset="1" stop-color="#FB6FBB"/>
</linearGradient>
<linearGradient id="paint78_linear_112_4" x1="1291.94" y1="956.695" x2="1272.66" y2="934.731" gradientUnits="userSpaceOnUse">
<stop stop-color="#FF9085"/>
<stop offset="1" stop-color="#FB6FBB"/>
</linearGradient>
<linearGradient id="paint79_linear_112_4" x1="1292.41" y1="956.101" x2="1273.22" y2="934.242" gradientUnits="userSpaceOnUse">
<stop stop-color="#FF9085"/>
<stop offset="1" stop-color="#FB6FBB"/>
</linearGradient>
<linearGradient id="paint80_linear_112_4" x1="1291.74" y1="954.311" x2="1274.92" y2="935.146" gradientUnits="userSpaceOnUse">
<stop offset="0.00359712" stop-color="#EBEFF2"/>
<stop offset="1" stop-color="white"/>
</linearGradient>
<linearGradient id="paint81_linear_112_4" x1="1288.7" y1="951.546" x2="1283.23" y2="945.315" gradientUnits="userSpaceOnUse">
<stop stop-color="#FF9085"/>
<stop offset="1" stop-color="#FB6FBB"/>
</linearGradient>
<linearGradient id="paint82_linear_112_4" x1="1284.28" y1="946.895" x2="1279.95" y2="941.966" gradientUnits="userSpaceOnUse">
<stop stop-color="#FF9085"/>
<stop offset="1" stop-color="#FB6FBB"/>
</linearGradient>
<linearGradient id="paint83_linear_112_4" x1="1280.5" y1="942.046" x2="1275.82" y2="936.707" gradientUnits="userSpaceOnUse">
<stop stop-color="#FF9085"/>
<stop offset="1" stop-color="#FB6FBB"/>
</linearGradient>
<linearGradient id="paint84_linear_112_4" x1="1293.07" y1="951.446" x2="1287.98" y2="945.644" gradientUnits="userSpaceOnUse">
<stop stop-color="#FF9085"/>
<stop offset="1" stop-color="#FB6FBB"/>
</linearGradient>
<linearGradient id="paint85_linear_112_4" x1="1288.7" y1="951.546" x2="1283.23" y2="945.315" gradientUnits="userSpaceOnUse">
<stop stop-color="#FF9085"/>
<stop offset="1" stop-color="#FB6FBB"/>
</linearGradient>
<linearGradient id="paint86_linear_112_4" x1="1284.28" y1="946.895" x2="1279.95" y2="941.966" gradientUnits="userSpaceOnUse">
<stop stop-color="#FF9085"/>
<stop offset="1" stop-color="#FB6FBB"/>
</linearGradient>
<linearGradient id="paint87_linear_112_4" x1="1280.5" y1="942.046" x2="1275.82" y2="936.707" gradientUnits="userSpaceOnUse">
<stop stop-color="#FF9085"/>
<stop offset="1" stop-color="#FB6FBB"/>
</linearGradient>
<linearGradient id="paint88_linear_112_4" x1="1293.07" y1="951.446" x2="1287.98" y2="945.644" gradientUnits="userSpaceOnUse">
<stop stop-color="#FF9085"/>
<stop offset="1" stop-color="#FB6FBB"/>
</linearGradient>
<linearGradient id="paint89_linear_112_4" x1="1286.33" y1="930.483" x2="1328.73" y2="994.734" gradientUnits="userSpaceOnUse">
<stop offset="0.00359712" stop-color="#E38DDD"/>
<stop offset="1" stop-color="#9571F6"/>
</linearGradient>
<linearGradient id="paint90_linear_112_4" x1="1322.49" y1="963.647" x2="1287.51" y2="953.443" gradientUnits="userSpaceOnUse">
<stop offset="0.00359712" stop-color="#E38DDD"/>
<stop offset="1" stop-color="#9571F6"/>
</linearGradient>
<linearGradient id="paint91_linear_112_4" x1="1310.46" y1="956.329" x2="1286.07" y2="951.666" gradientUnits="userSpaceOnUse">
<stop offset="0.00359712" stop-color="#EBEFF2"/>
<stop offset="1" stop-color="white"/>
</linearGradient>
<linearGradient id="paint92_linear_112_4" x1="1304.83" y1="955.353" x2="1292.64" y2="953.023" gradientUnits="userSpaceOnUse">
<stop stop-color="#FFC444"/>
<stop offset="0.9964" stop-color="#F36F56"/>
</linearGradient>
<linearGradient id="paint93_linear_112_4" x1="1309.24" y1="960.383" x2="1285.3" y2="955.806" gradientUnits="userSpaceOnUse">
<stop stop-color="#FFC444"/>
<stop offset="0.9964" stop-color="#F36F56"/>
</linearGradient>
<linearGradient id="paint94_linear_112_4" x1="257.202" y1="1094" x2="257.202" y2="867.969" gradientUnits="userSpaceOnUse">
<stop stop-color="#C5CFFF"/>
<stop offset="0.248" stop-color="#D3DCFF"/>
<stop offset="0.5471" stop-color="#DCE4FF"/>
<stop offset="1" stop-color="#DFE6FF"/>
</linearGradient>
<linearGradient id="paint95_linear_112_4" x1="1134.12" y1="-99.3844" x2="1134.12" y2="396.605" gradientUnits="userSpaceOnUse">
<stop stop-color="#6615B2"/>
<stop offset="0.2956" stop-color="#8D28C3"/>
<stop offset="0.5849" stop-color="#AC37D0"/>
<stop offset="0.8295" stop-color="#BF40D8"/>
<stop offset="1" stop-color="#C643DB"/>
</linearGradient>
<linearGradient id="paint96_linear_112_4" x1="573.196" y1="189.612" x2="573.196" y2="-50.3266" gradientUnits="userSpaceOnUse">
<stop stop-color="#F9795A"/>
<stop offset="1" stop-color="#EB3668"/>
</linearGradient>
<clipPath id="clip0_112_4">
<rect width="1763" height="1107" fill="white" transform="translate(0 -13)"/>
</clipPath>
</defs>
</svg>
