<svg width="1440" height="698" viewBox="0 0 1440 698" fill="none" xmlns="http://www.w3.org/2000/svg">
<g clip-path="url(#clip0_136_2)">
<rect width="1440" height="698" fill="white"/>
<g clip-path="url(#clip1_136_2)">
<path d="M1440.01 472C1440.01 472 1267 504.309 1267 698.386H1439.82L1440.01 472Z" fill="url(#paint0_linear_136_2)"/>
<path d="M0 533V706.149H420.16C420.16 706.149 367.128 533 0 533Z" fill="url(#paint1_linear_136_2)"/>
<path d="M1479 -187V161.139C1479 161.139 551.492 425.842 283 -187H1479Z" fill="url(#paint2_linear_136_2)"/>
<path d="M-15 129.313C-15 129.313 219.017 266.658 413.626 93.5737C608.235 -79.511 731 -67.8334 731 -67.8334L-15 -68V129.313Z" fill="url(#paint3_linear_136_2)"/>
<path d="M1246.35 571.374C1246.35 571.374 1232.23 548.266 1245.48 533.592C1245.48 533.592 1255.17 525.372 1263.06 526.041C1263.06 526.041 1251.87 552.341 1255.49 554.957C1259.11 557.574 1266.45 524.393 1266.45 524.393C1266.45 524.393 1288.48 521.399 1295.57 526.176C1295.57 526.176 1276.73 547.788 1280.7 549.074C1284.67 550.36 1305.01 529.147 1305.01 529.147C1305.01 529.147 1325.52 534.04 1324.43 551.578C1323.33 569.116 1316.27 574.532 1313.16 574.065C1310.06 573.598 1291.89 563.876 1291.49 567.442C1291.1 571.007 1302.03 582.67 1309.69 583.215C1309.69 583.215 1295.23 605.571 1285.62 599.12C1276.02 592.668 1275.2 582.442 1269.21 578.607C1263.22 574.772 1258.1 574.779 1260.58 578.693C1263.05 582.606 1273.89 586.408 1277.31 594.9C1280.74 603.396 1283.81 609.126 1273.87 607.026C1263.93 604.929 1247.77 594.728 1247.06 583.051C1246.35 571.374 1246.35 571.374 1246.35 571.374Z" fill="#1B2251"/>
<path d="M1314.35 552.049C1314.35 552.049 1258.66 549.04 1246.35 571.374C1246.35 571.374 1243.63 582.797 1235.26 593.199L1233.96 598.186C1233.96 598.186 1243.61 583.918 1247.07 583.055C1247.06 583.051 1241.66 555.384 1314.35 552.049Z" fill="#1B2251"/>
<path d="M1235.26 593.199C1235.26 593.199 1223.31 605.594 1222.48 627.745L1224.65 628.017C1224.65 628.017 1228.46 605.116 1235.37 596.16C1242.27 587.2 1235.26 593.199 1235.26 593.199Z" fill="#6615B2"/>
<path d="M1100.81 382.627C1100.81 382.627 1122.42 365.661 1112.33 342.636C1112.33 342.636 1104.27 328.499 1095.62 324.862C1095.62 324.862 1100.23 359.198 1095.62 360.006C1091.01 360.813 1092.45 321.226 1092.45 321.226C1092.45 321.226 1069.69 305.874 1060.76 307.089C1060.76 307.089 1074.88 340.618 1070.27 339.81C1065.66 339.003 1049.81 305.071 1049.81 305.071C1049.81 305.071 1026.47 299.011 1022.73 318.4C1018.98 337.788 1025.03 347.484 1028.49 348.695C1031.95 349.906 1054.13 349.502 1053.56 353.543C1052.98 357.584 1038 364.046 1029.64 360.409C1029.64 360.409 1038.86 392.319 1050.96 390.705C1063.06 389.09 1066.81 378.587 1074.3 377.779C1081.79 376.972 1087.27 379.798 1083.52 382.627C1079.77 385.453 1067.1 383.554 1061.05 390.765C1055 397.975 1050.1 402.419 1061.34 405.652C1072.57 408.882 1092.74 406.863 1096.77 394.745C1100.81 382.627 1100.81 382.627 1100.81 382.627Z" fill="#242E6C"/>
<path d="M1033.39 324.459C1033.39 324.459 1093.89 351.928 1100.81 382.627C1100.81 382.627 1100.52 396.36 1106.57 412.115V418.174C1106.57 418.174 1100.23 397.571 1096.78 394.745C1096.78 394.745 1110.32 368.083 1033.39 324.459Z" fill="#1B2251"/>
<path d="M1106.57 412.115C1106.57 412.115 1115.9 431.982 1110.58 456.162L1108.18 455.257C1108.18 455.257 1110.51 428.621 1105.63 415.225C1100.75 401.832 1106.57 412.115 1106.57 412.115Z" fill="#6615B2"/>
<path d="M1232.71 517.982C1232.71 517.982 1203.09 494.725 1216.92 463.163C1216.92 463.163 1227.97 443.782 1239.82 438.8C1239.82 438.8 1233.5 485.867 1239.82 486.977C1246.14 488.087 1244.17 433.817 1244.17 433.817C1244.17 433.817 1275.37 412.777 1287.61 414.436C1287.61 414.436 1268.26 460.397 1274.58 459.291C1280.9 458.184 1302.62 411.67 1302.62 411.67C1302.62 411.67 1334.61 403.365 1339.75 429.945C1344.88 456.525 1336.59 469.813 1331.85 471.476C1327.11 473.136 1296.69 472.582 1297.48 478.122C1298.27 483.658 1318.81 492.52 1330.27 487.534C1330.27 487.534 1317.63 531.278 1301.04 529.065C1284.45 526.848 1279.31 512.454 1269.04 511.344C1258.78 510.237 1251.27 514.114 1256.41 517.99C1261.54 521.866 1278.92 519.261 1287.21 529.147C1295.51 539.034 1302.22 545.123 1286.82 549.556C1271.41 553.985 1243.77 551.216 1238.24 534.604C1232.71 517.982 1232.71 517.982 1232.71 517.982Z" fill="#242E6C"/>
<path d="M1325.14 438.243C1325.14 438.243 1242.19 475.898 1232.71 517.982C1232.71 517.982 1233.11 536.81 1224.81 558.403V566.709C1224.81 566.709 1233.5 538.469 1238.24 534.593C1238.24 534.593 1219.68 498.048 1325.14 438.243Z" fill="#1B2251"/>
<path d="M1224.81 558.408C1224.81 558.408 1212.02 585.641 1219.31 618.789L1222.6 617.548C1222.6 617.548 1219.41 581.036 1226.1 562.672C1232.8 544.308 1224.81 558.408 1224.81 558.408Z" fill="#6615B2"/>
<path d="M954.205 403.963C954.205 403.963 949.044 409.978 954.73 417.618C954.73 417.618 949.852 420.006 948.268 418.384C948.268 418.384 948.598 419.21 948.889 419.569C948.889 419.569 943.893 420.204 941.741 418.175C939.59 416.145 939.518 380.138 953.568 383.087C953.568 383.087 965.296 380.938 964.941 400.125C964.589 419.311 969.034 418.971 969.034 418.971C969.034 418.971 967.831 419.92 967.234 419.965C967.234 419.965 966.344 419.565 966.144 418.904C966.144 418.904 966.357 419.954 966.594 420.272C966.594 420.272 961.819 421.277 959.324 418.918C956.829 416.56 953.675 407.955 954.205 403.963Z" fill="#9B53C9"/>
<path d="M953.451 413.771C953.451 413.771 949.441 408.415 947.78 403.215C946.594 399.504 940.872 384.474 951.563 382.926C951.563 382.926 959.196 382.422 962.489 384.1C965.109 385.434 969.159 388.881 967.789 402.715L967.608 407.29L953.451 413.771Z" fill="#1B2251"/>
<path d="M941.245 520.535C940.787 504.754 939.8 491.025 938.619 481.449C936.737 466.187 935.042 457.407 935.023 457.313C934.775 455.972 931.192 450.54 923.228 450.709C915.262 450.877 916.019 457.997 916.019 457.997C916.019 458.237 916.041 458.461 916.075 458.629C916.153 458.995 923.463 496.165 923.146 544.155C923.14 544.828 923.087 545.994 923.122 546.768C923.122 546.771 941.579 547.437 941.584 546.768C942.227 542.574 941.915 530.953 941.245 520.535Z" fill="#F24B46"/>
<path d="M943.565 543.92C943.56 544.589 943.306 545.123 943 545.123H942.992C942.685 545.112 942.44 544.577 942.437 543.92H926.62C926.614 544.589 926.361 545.123 926.054 545.123H926.046C925.734 545.112 925.486 544.559 925.489 543.882C925.58 530.146 925.023 517.317 924.177 505.995C922.074 477.76 918.187 458.891 918.131 458.629C918.096 458.461 918.075 458.237 918.075 457.994C918.075 457.994 917.32 450.873 925.284 450.705C933.25 450.537 936.833 455.968 937.081 457.31C937.097 457.381 938.054 462.352 939.331 471.289C939.755 474.25 940.211 477.647 940.678 481.441C941.859 491.018 942.845 504.747 943.304 520.528C943.973 530.953 944.208 539.726 943.565 543.92Z" fill="#F9795A"/>
<path d="M924.321 545.123H986.339C986.339 545.123 984.894 536.929 948.98 538.148C923.562 539.011 924.321 545.123 924.321 545.123Z" fill="#FD8857"/>
<path d="M919.275 630.709C926.465 579.672 924.617 548.356 924.607 547.96C924.588 547.175 925.622 546.461 926.177 546.435C926.74 546.42 929.222 546.203 929.51 546.876C929.885 547.758 931.333 586.344 920.618 630.709H919.275V630.709Z" fill="#F9795A"/>
<path d="M977.179 630.709C969.988 579.672 971.836 548.356 971.847 547.96C971.865 547.175 970.831 546.461 970.276 546.435C969.714 546.42 967.232 546.203 966.944 546.876C966.568 547.758 965.12 586.344 975.835 630.709H977.179V630.709Z" fill="#F9795A"/>
<path d="M988.653 630.709C981.463 579.672 983.311 548.356 983.321 547.96C983.34 547.175 982.305 546.461 981.751 546.435C981.188 546.42 978.706 546.203 978.418 546.876C978.042 547.758 976.595 586.344 987.31 630.709H988.653V630.709Z" fill="#F9795A"/>
<path d="M930.827 630.709C938.017 579.672 936.169 548.356 936.159 547.96C936.14 547.175 937.174 546.461 937.729 546.435C938.292 546.42 940.774 546.203 941.062 546.876C941.437 547.758 942.885 586.344 932.17 630.709H930.827V630.709Z" fill="#F9795A"/>
<path d="M986.296 547.736H924.441C923.698 547.736 923.09 546.884 923.09 545.841V544.895C923.09 543.852 923.698 543 924.441 543H986.296C987.04 543 987.648 543.852 987.648 544.895V545.841C987.645 546.884 987.038 547.736 986.296 547.736Z" fill="#F24B46"/>
<path d="M1019.19 632.918C1016.93 632.914 1012.26 633.74 1010.21 630.241C1008.15 626.739 1003.72 625.02 1003.15 623.898C1002.85 623.293 1003.25 620.609 1003.69 618.258C1004.8 616.127 1003.01 613.215 1003.01 613.215L1008.95 613.776C1008.95 613.776 1011.78 619.039 1013.87 623.278C1014.66 624.885 1017.04 627.296 1018.48 628.017C1020.33 628.948 1022.18 629.52 1022.86 630.451C1024.06 632.092 1021.46 632.921 1019.19 632.918Z" fill="#FF9792"/>
<path d="M1019.2 632.918C1016.93 632.914 1012.26 633.74 1010.21 630.241C1008.16 626.739 1003.72 625.02 1003.15 623.898C1002.85 623.293 1002.83 620.856 1003.69 618.258V618.254C1003.69 618.254 1007.43 620.4 1009.54 624.511C1011.66 628.623 1017.28 630.413 1018.46 628.04C1018.47 628.032 1018.47 628.021 1018.48 628.014C1020.33 628.944 1022.18 629.516 1022.86 630.447C1024.06 632.092 1021.46 632.921 1019.2 632.918Z" fill="#6615B2"/>
<path d="M1003.15 623.898L1005.43 630.712L1006.94 630.944L1006.72 624.874L1003.15 623.898Z" fill="white"/>
<path d="M958.681 503.192C958.681 503.192 991.717 517.534 998.824 525.821C1005.93 534.104 1010.89 616.273 1010.89 616.273C1010.89 616.273 1010.04 616.995 1008.3 616.939C1006.68 616.886 1003.3 614.928 1003.3 614.928C1003.3 614.928 988.776 575.901 988.363 566.664C987.947 557.428 989.005 549.452 986.16 548.708C983.316 547.964 947.007 547.695 942.856 533.356C938.702 519.018 944.405 506.631 944.405 506.631L958.681 503.192Z" fill="#1B2251"/>
<path d="M1011.53 632.918C1009.27 632.914 1004.6 633.74 1002.55 630.241C1000.49 626.739 996.056 625.02 995.491 623.898C995.187 623.293 995.592 620.609 996.029 618.258C997.136 616.127 995.352 613.215 995.352 613.215L1001.29 613.776C1001.29 613.776 1004.12 619.039 1006.2 623.278C1006.99 624.885 1009.38 627.296 1010.82 628.017C1012.67 628.948 1014.52 629.52 1015.2 630.451C1016.4 632.092 1013.8 632.921 1011.53 632.918Z" fill="#FF9792"/>
<path d="M1011.53 632.918C1009.27 632.914 1004.6 633.74 1002.55 630.241C1000.49 626.739 996.057 625.02 995.492 623.898C995.188 623.293 995.172 620.856 996.03 618.258V618.254C996.03 618.254 999.771 620.4 1001.88 624.511C1003.99 628.623 1009.62 630.413 1010.8 628.04C1010.81 628.032 1010.81 628.021 1010.82 628.014C1012.67 628.944 1014.52 629.516 1015.2 630.447C1016.4 632.092 1013.8 632.921 1011.53 632.918Z" fill="#6615B2"/>
<path d="M995.492 623.898L997.768 630.712L999.283 630.944L999.059 624.874L995.492 623.898Z" fill="#6615B2"/>
<path d="M950.035 507.531C950.035 507.531 984.054 517.538 991.162 525.821C998.27 534.104 1003.22 616.273 1003.22 616.273C1003.22 616.273 1002.38 616.994 1000.64 616.938C999.022 616.886 995.636 614.927 995.636 614.927C995.636 614.927 981.116 575.9 980.703 566.664C980.287 557.428 981.346 549.451 978.501 548.708C975.656 547.964 939.347 547.695 935.196 533.356C931.043 519.018 936.745 506.631 936.745 506.631L950.035 507.531Z" fill="#242E6C"/>
<path d="M962.817 430.588C962.857 430.614 958.855 433.526 955.845 432.374C953.014 431.29 951.163 426.143 951.203 426.132C952.403 425.8 952.747 423.49 952.723 413.562L953.264 413.711L962.379 416.242C962.379 416.242 962.171 420.264 962.166 424.05C962.161 427.231 962.299 430.248 962.817 430.588Z" fill="#FF9792"/>
<path d="M962.379 416.238C962.379 416.238 962.171 420.26 962.166 424.046C957.066 423.845 954.37 417.322 953.264 413.708L962.379 416.238Z" fill="#FF938F"/>
<path d="M964.083 419.827C964.083 419.827 952.016 420.107 952.006 409.566C951.998 399.025 950.435 391.965 958.138 391.34C965.842 390.716 967.343 394.734 967.954 398.252C968.573 401.769 967.224 419.483 964.083 419.827Z" fill="#FF9792"/>
<path d="M935.945 476.103C934.756 469.106 938.803 455.527 943.032 444.287C946.866 434.097 950.849 425.833 951.206 426.132C961.321 434.55 962.233 427.552 962.233 427.552C962.235 427.552 971.42 429.261 974.022 435.54C977.248 443.33 980.735 465.096 984.198 469.218C983.668 471.498 983.894 472.717 984.457 475.543C984.577 476.148 984.71 476.724 984.857 477.27C985.379 479.258 986.033 480.873 986.595 482.275C984.835 483.774 981.436 486.626 978.933 484.573C975.115 481.441 972.137 471.902 970.46 468.105C970.455 468.09 970.447 468.075 970.441 468.063C966.797 496.983 971.753 503.569 969.244 506.616C966.597 509.834 962.811 505.083 954.488 510.14C949.028 513.46 941.451 518.263 936.351 519.096C933.677 519.537 931.68 518.883 931.029 516.353C929.134 508.993 938.217 489.444 935.945 476.103Z" fill="#7F22BA"/>
<path d="M961.401 413.439C961.401 413.439 961.625 414.777 964 414.571C964 414.571 965.994 414.399 965.933 412.926C965.936 412.926 964 411.88 961.401 413.439Z" fill="white"/>
<path d="M929.302 486.379C932.005 481.056 934.823 478.238 936.679 476.821C936.252 475.281 948.055 454.992 948.055 451.849C948.055 448.668 951.203 426.125 951.203 426.125C951.203 426.125 941.368 426.977 937.964 433.634C933.706 441.962 924.863 474.007 929.302 486.379Z" fill="#7F22BA"/>
<path d="M936.679 476.825L956.333 484.017L954.488 488.659C954.488 488.659 930.571 488.424 929.304 486.383C928.035 484.338 936.679 476.825 936.679 476.825Z" fill="#FF9792"/>
<path d="M970.46 468.105C972.137 471.902 975.115 481.438 978.933 484.574C981.436 486.626 984.835 483.774 986.595 482.275C986.032 480.873 985.379 479.258 984.857 477.27C983.452 477.722 981.737 478.298 980.631 478.765C978.482 479.673 970.46 468.105 970.46 468.105Z" fill="#994EC8"/>
<path d="M968.455 464.322L957.935 497.039L982.873 500.339L992.684 467.117L968.455 464.322Z" fill="#1B2251"/>
<path d="M992.684 467.118L1004.32 456.771L992.684 492.445L982.873 500.343C983.396 498.568 992.684 467.118 992.684 467.118Z" fill="#242E6C"/>
<path d="M956.333 484.013C956.333 484.013 959.967 481.77 960.886 480.623C961.481 479.882 961.436 480.94 961.38 481.228C961.268 481.811 961.118 482.977 960.057 483.953C958.532 485.362 956.333 484.013 956.333 484.013Z" fill="#FF9792"/>
<path d="M962.857 387.554C962.857 387.554 959.007 402.692 953.475 405.144C947.945 407.596 946.156 404.494 946.156 404.494C946.156 404.494 950.273 399.373 950.838 390.94C950.843 390.94 959.847 381.255 962.857 387.554Z" fill="#1B2251"/>
<path d="M961.995 388.735C961.995 388.735 964.843 391.58 965.624 394.499C966.405 397.418 966.944 403.503 968.205 403.201C968.205 403.201 970.596 393.695 967.296 388.672C963.798 383.345 961.995 388.735 961.995 388.735Z" fill="#1B2251"/>
<path d="M962.521 389.157C962.521 389.157 960.476 403.679 953.576 408.807C953.576 408.807 960.31 399.466 960.542 389.965C960.774 380.467 962.521 389.157 962.521 389.157Z" fill="#1B2251"/>
<path d="M941.741 418.171C943.893 420.204 948.889 419.569 948.889 419.569C948.598 419.21 948.268 418.384 948.268 418.384C951.217 420.432 957.01 416.448 957.01 416.448C951.88 416.474 951.88 406.09 953.475 405.145C953.248 397.385 953.683 387.498 953.915 383.046C953.691 383.065 953.565 383.088 953.565 383.088C939.521 380.135 939.593 416.145 941.741 418.171Z" fill="#1B2251"/>
<path d="M956.333 484.013C956.333 484.013 962.713 482.305 964.123 482.738C965.531 483.172 968.682 485.067 968.916 485.474C969.151 485.882 968.002 486.113 967.176 485.639C966.117 485.033 964.358 485.284 964.358 485.284C964.358 485.284 967.749 486.842 968.578 487.504C968.661 487.571 968.663 487.739 968.583 487.81C968.359 488.012 967.813 488.08 967.058 487.818C965.973 487.444 964.035 487.201 964.035 487.201L967.89 488.977C967.938 488.999 967.97 489.066 967.965 489.134C967.938 489.395 967.602 489.631 966.677 489.556C965.962 489.496 963.595 488.652 963.595 488.652L965.621 490.547C965.621 490.547 965.064 490.991 964.008 490.326C963.283 489.87 961.102 488.76 960.574 488.835C960.047 488.913 957.346 489.956 956.173 489.418C955 488.883 954.49 488.648 954.49 488.648L956.333 484.013Z" fill="#FF9792"/>
<path d="M949.054 630.708C949.617 630.708 950.099 630.155 950.195 629.396L955.786 584.965L963.83 521.062L966.08 503.192L960.35 502.964L959.356 513.336L952.379 586.232L948.241 629.441C948.175 630.114 948.556 630.708 949.054 630.708Z" fill="#F9795A"/>
<path d="M959.353 513.336C963.064 515.631 963.827 521.062 963.827 521.062L966.077 503.192L960.348 502.964L959.353 513.336Z" fill="#F24B46"/>
<path d="M1091.53 630.708C1090.97 630.708 1090.48 630.155 1090.39 629.396L1084.8 584.965L1076.75 521.062L1074.5 503.192L1080.23 502.964L1081.23 513.336L1088.2 586.232L1092.34 629.441C1092.41 630.114 1092.03 630.708 1091.53 630.708Z" fill="#F9795A"/>
<path d="M1081.23 513.336C1077.52 515.631 1076.76 521.062 1076.76 521.062L1074.51 503.192L1080.23 502.964L1081.23 513.336Z" fill="#7B36BD"/>
<path d="M944.479 510.208H1092.67C1094.18 510.208 1095.42 508.477 1095.42 506.361V505.154C1095.42 503.038 1094.18 501.308 1092.67 501.308H944.479C942.97 501.308 941.736 503.038 941.736 505.154V506.361C941.739 508.477 942.97 510.208 944.479 510.208Z" fill="#F24B46"/>
<path d="M1251.97 519.291H1223.95C1223.18 519.291 1222.55 518.401 1222.55 517.317C1222.55 516.229 1223.18 515.343 1223.95 515.343H1251.97C1252.74 515.343 1253.37 516.233 1253.37 517.317C1253.37 518.401 1252.74 519.291 1251.97 519.291Z" fill="#FF7D78"/>
<path d="M1251.97 527.024H1223.95C1223.18 527.024 1222.55 526.134 1222.55 525.051C1222.55 523.963 1223.18 523.077 1223.95 523.077H1251.97C1252.74 523.077 1253.37 523.967 1253.37 525.051C1253.37 526.134 1252.74 527.024 1251.97 527.024Z" fill="#FF7D78"/>
<path d="M1257.86 193.122V618.344C1257.86 624.907 1254.09 630.297 1249.44 630.462C1249.36 630.466 1249.29 630.466 1249.21 630.466H1097.55C1092.8 630.466 1088.9 625.012 1088.9 618.344V193.122C1088.9 186.454 1092.8 181 1097.55 181H1249.21C1253.97 181 1257.86 186.454 1257.86 193.122Z" fill="#F24B46"/>
<path d="M1266.79 193.122V618.347C1266.79 625.008 1262.9 630.466 1258.15 630.466H1106.48C1101.73 630.466 1097.84 625.012 1097.84 618.347V193.122C1097.84 186.454 1101.73 181 1106.48 181H1258.15C1262.9 181 1266.79 186.454 1266.79 193.122Z" fill="#F9795A"/>
<path d="M1207.08 198.015H1163.15C1162.21 198.015 1161.45 196.938 1161.45 195.619C1161.45 194.299 1162.21 193.223 1163.15 193.223H1207.08C1208.02 193.223 1208.78 194.299 1208.78 195.619C1208.78 196.934 1208.01 198.015 1207.08 198.015Z" fill="#F24B46"/>
<path d="M1155.35 198.015C1154.42 198.015 1153.64 196.938 1153.64 195.619C1153.64 194.299 1154.41 193.223 1155.35 193.223C1156.29 193.223 1157.06 194.299 1157.06 195.619C1157.06 196.934 1156.29 198.015 1155.35 198.015Z" fill="#F24B46"/>
<path d="M1195.43 605.628C1195.43 609.87 1194.21 613.713 1192.23 616.505C1190.24 619.331 1187.47 621.08 1184.41 621.08C1178.32 621.08 1173.38 614.161 1173.38 605.628C1173.38 600.14 1175.42 595.326 1178.5 592.586C1180.2 591.061 1182.23 590.179 1184.41 590.179C1190.49 590.179 1195.43 597.094 1195.43 605.628Z" fill="url(#paint4_linear_136_2)"/>
<path d="M1257.78 208.686H1107.95V582.58H1257.78V208.686Z" fill="#242E6C"/>
<path d="M1192.23 616.508C1190.24 619.334 1187.47 621.084 1184.41 621.084C1178.32 621.084 1173.38 614.165 1173.38 605.631C1173.38 600.144 1175.42 595.33 1178.5 592.59C1179.58 599.165 1182.78 610.169 1192.23 616.508Z" fill="#F24B46"/>
<path d="M1257.86 238.967V386.055H1115.16C1113.57 386.055 1112.26 384.108 1112.26 381.727V243.303C1112.26 240.918 1113.57 238.967 1115.16 238.967H1257.86Z" fill="#B1C9F6"/>
<path d="M1217.16 415.633V554.056C1217.16 556.437 1215.98 558.385 1214.54 558.385H1107.95V411.297H1214.54C1215.98 411.297 1217.16 413.244 1217.16 415.633Z" fill="#B1C9F6"/>
<path d="M1323.43 231.072V369.496C1323.43 371.874 1322.04 373.825 1320.33 373.825H1120.39C1118.69 373.825 1117.3 371.877 1117.3 369.496V231.072C1117.3 228.684 1118.69 226.736 1120.39 226.736H1320.33C1322.04 226.736 1323.43 228.684 1323.43 231.072Z" fill="#EFECEA"/>
<path d="M1188.02 318.442C1200.23 318.442 1210.13 312.141 1210.13 304.369C1210.13 296.597 1200.23 290.296 1188.02 290.296C1175.81 290.296 1165.91 296.597 1165.91 304.369C1165.91 312.141 1175.81 318.442 1188.02 318.442Z" fill="#D8DEE8"/>
<path opacity="0.3" d="M1188.02 312.859C1197.77 312.859 1205.68 308.875 1205.68 303.962C1205.68 299.048 1197.77 295.065 1188.02 295.065C1178.27 295.065 1170.36 299.048 1170.36 303.962C1170.36 308.875 1178.27 312.859 1188.02 312.859Z" fill="#D8DEE8"/>
<path d="M1188.02 312.86C1198.09 312.86 1206.25 305.726 1206.25 296.925C1206.25 288.125 1198.09 280.991 1188.02 280.991C1177.95 280.991 1169.79 288.125 1169.79 296.925C1169.79 305.726 1177.95 312.86 1188.02 312.86Z" fill="#AABBCC"/>
<path d="M1188.02 309.138C1198.09 309.138 1206.25 302.838 1206.25 295.065C1206.25 287.293 1198.09 280.993 1188.02 280.993C1177.95 280.993 1169.79 287.293 1169.79 295.065C1169.79 302.838 1177.95 309.138 1188.02 309.138Z" fill="url(#paint5_linear_136_2)"/>
<path d="M1182.22 294.732C1182.47 294.359 1182.29 292.294 1181.81 290.779C1181.13 288.632 1179.8 287.496 1179.49 287.245C1179.15 286.971 1178.84 286.816 1178.58 286.148C1178.2 285.185 1178.19 283.87 1178.04 283.886C1177.93 283.898 1177.97 284.626 1177.75 284.915C1177.44 285.313 1177.04 284.353 1176.73 284.799C1176.59 284.992 1176.55 285.342 1176.55 285.378C1176.47 285.993 1176.74 286.427 1176.66 286.725C1176.58 287.052 1176.24 286.611 1175.96 286.952C1175.64 287.332 1175.47 288.595 1175.64 289.414C1175.85 290.405 1176.48 290.329 1176.52 291.053C1176.55 291.589 1176.21 291.801 1176.18 292.378C1176.14 293.251 1176.84 294.468 1177.6 294.873C1179.14 295.695 1180.07 292.714 1181.39 293.942C1181.82 294.343 1182.06 294.977 1182.22 294.732Z" fill="url(#paint6_linear_136_2)"/>
<path d="M1180.73 292.766C1180.04 292.562 1179.77 293.889 1178.71 294.129C1177.82 294.33 1176.88 293.663 1176.81 292.798C1176.76 292.236 1177.11 291.979 1177.09 291.242C1177.06 290.15 1176.25 289.8 1176.29 289.05C1176.32 288.382 1176.96 288.422 1177.12 287.403C1177.24 286.632 1176.96 286.026 1177.11 285.663C1177.29 285.221 1177.75 286.019 1178.12 285.618C1178.2 285.527 1178.27 285.387 1178.32 285.213C1178.38 285.525 1178.47 285.853 1178.58 286.147C1178.84 286.816 1179.14 286.97 1179.49 287.244C1179.8 287.496 1181.13 288.631 1181.81 290.779C1182.29 292.293 1182.47 294.358 1182.22 294.731C1182.13 294.874 1182.01 294.716 1181.84 294.48C1181.42 293.241 1181.03 292.855 1180.73 292.766Z" fill="url(#paint7_linear_136_2)"/>
<path d="M1182.27 295.988C1182.65 295.542 1183.61 294.246 1184 291.709C1184.62 287.571 1183.32 282.73 1182.41 282.606C1182.1 282.563 1181.84 283.06 1181.29 282.812C1180.91 282.641 1180.86 282.327 1180.49 282.25C1180.14 282.179 1179.62 282.322 1179.5 282.952C1179.41 283.39 1179.56 283.804 1179.46 284.02C1179.34 284.278 1179.08 283.758 1178.88 283.921C1178.58 284.158 1178.38 285.852 1178.59 287.114C1178.96 289.326 1180.35 288.698 1181.37 291.057C1182.01 292.529 1182.21 294.472 1182.27 295.988Z" fill="url(#paint8_linear_136_2)"/>
<path d="M1182.47 295.255C1182.47 295.255 1183.36 291.956 1182.93 288.565C1182.5 285.174 1182.07 285.633 1181.86 285.425C1181.66 285.216 1182.11 286.673 1182.32 287.792C1182.54 288.912 1183.03 289.911 1182.47 295.255Z" fill="url(#paint9_linear_136_2)"/>
<path opacity="0.3" d="M1178.88 283.921C1179.08 283.759 1179.34 284.278 1179.46 284.02C1179.57 283.804 1179.41 283.39 1179.5 282.952C1179.62 282.322 1180.14 282.179 1180.49 282.25C1180.86 282.327 1180.91 282.64 1181.29 282.812C1181.84 283.06 1182.1 282.563 1182.41 282.606C1183.31 282.727 1184.58 287.394 1184.03 291.48C1184.12 289.92 1184.1 288.049 1183.71 286.292C1183.63 285.943 1183.06 283.402 1182.39 283.495C1182.05 283.543 1181.96 284.251 1181.57 284.251C1181.01 284.251 1180.79 282.779 1180.44 282.985C1180.1 283.181 1180.18 284.584 1179.76 284.937C1179.46 285.187 1179.26 284.613 1179.01 284.783C1178.83 284.907 1178.65 285.417 1178.55 286.828C1178.41 285.61 1178.6 284.14 1178.88 283.921Z" fill="url(#paint10_linear_136_2)"/>
<path d="M1192.72 292.497C1192.72 292.497 1182.52 286.678 1179.87 290.295C1177.21 293.912 1177.14 301.871 1182.43 302.059C1187.71 302.246 1194.16 300.069 1194.16 300.069V296.924L1192.72 292.497Z" fill="url(#paint11_linear_136_2)"/>
<path d="M1192.72 289.353C1192.72 289.353 1182.52 286.678 1179.87 290.295C1177.21 293.912 1177.14 298.726 1182.43 298.914C1187.71 299.102 1194.16 296.924 1194.16 296.924L1192.72 289.353Z" fill="url(#paint12_linear_136_2)"/>
<g opacity="0.5">
<path opacity="0.5" d="M1183.67 290.407C1183.55 290.2 1183.37 290.26 1183.28 290.539L1181.62 295.596C1181.52 295.875 1181.55 296.268 1181.67 296.475C1181.8 296.682 1181.97 296.622 1182.07 296.343L1183.73 291.287C1183.82 291.007 1183.8 290.614 1183.67 290.407Z" fill="url(#paint13_linear_136_2)"/>
<path opacity="0.5" d="M1186.05 290.092C1185.93 289.885 1185.75 289.945 1185.66 290.224L1184 295.281C1183.9 295.56 1183.93 295.954 1184.05 296.16C1184.18 296.367 1184.35 296.307 1184.45 296.028L1186.11 290.972C1186.2 290.692 1186.18 290.299 1186.05 290.092Z" fill="url(#paint14_linear_136_2)"/>
<path opacity="0.5" d="M1188.43 289.778C1188.31 289.571 1188.13 289.631 1188.04 289.91L1186.38 294.966C1186.28 295.246 1186.31 295.64 1186.44 295.846C1186.56 296.053 1186.73 295.993 1186.83 295.714L1188.49 290.658C1188.58 290.378 1188.56 289.985 1188.43 289.778Z" fill="url(#paint15_linear_136_2)"/>
<path opacity="0.5" d="M1190.81 289.463C1190.69 289.256 1190.51 289.316 1190.42 289.595L1188.76 294.652C1188.66 294.931 1188.69 295.325 1188.82 295.531C1188.94 295.738 1189.12 295.679 1189.21 295.4L1190.87 290.343C1190.96 290.064 1190.94 289.67 1190.81 289.463Z" fill="url(#paint16_linear_136_2)"/>
</g>
<path d="M1323.43 231.072V369.496C1323.43 371.877 1321.81 373.825 1319.83 373.825H1220.37V226.736H1319.83C1321.81 226.736 1323.43 228.684 1323.43 231.072Z" fill="#FFD4D2"/>
<path d="M1279.33 245.882H1241.9C1241.28 245.882 1240.78 245.175 1240.78 244.312C1240.78 243.448 1241.28 242.742 1241.9 242.742H1279.33C1279.95 242.742 1280.45 243.448 1280.45 244.312C1280.45 245.172 1279.95 245.882 1279.33 245.882Z" fill="#FD8857"/>
<path d="M1279.33 251.933H1241.9C1241.28 251.933 1240.78 251.227 1240.78 250.363C1240.78 249.5 1241.28 248.793 1241.9 248.793H1279.33C1279.95 248.793 1280.45 249.5 1280.45 250.363C1280.45 251.227 1279.95 251.933 1279.33 251.933Z" fill="#FD8857"/>
<path d="M1235.27 246.218H1234.02C1233.37 246.218 1232.84 245.474 1232.84 244.566V244.046C1232.84 243.138 1233.37 242.394 1234.02 242.394H1235.27C1235.91 242.394 1236.44 243.138 1236.44 244.046V244.566C1236.44 245.474 1235.91 246.218 1235.27 246.218Z" fill="#FD8857"/>
<path d="M1279.33 268.167H1241.9C1241.28 268.167 1240.78 267.46 1240.78 266.597C1240.78 265.733 1241.28 265.027 1241.9 265.027H1279.33C1279.95 265.027 1280.45 265.733 1280.45 266.597C1280.45 267.46 1279.95 268.167 1279.33 268.167Z" fill="#FD8857"/>
<path d="M1279.33 274.222H1241.9C1241.28 274.222 1240.78 273.515 1240.78 272.652C1240.78 271.789 1241.28 271.082 1241.9 271.082H1279.33C1279.95 271.082 1280.45 271.789 1280.45 272.652C1280.45 273.515 1279.95 274.222 1279.33 274.222Z" fill="#FD8857"/>
<path d="M1235.27 268.507H1234.02C1233.37 268.507 1232.84 267.763 1232.84 266.855V266.335C1232.84 265.427 1233.37 264.683 1234.02 264.683H1235.27C1235.91 264.683 1236.44 265.427 1236.44 266.335V266.855C1236.44 267.763 1235.91 268.507 1235.27 268.507Z" fill="#FD8857"/>
<path d="M1279.33 290.209H1241.9C1241.28 290.209 1240.78 289.502 1240.78 288.639C1240.78 287.776 1241.28 287.069 1241.9 287.069H1279.33C1279.95 287.069 1280.45 287.776 1280.45 288.639C1280.45 289.502 1279.95 290.209 1279.33 290.209Z" fill="#FD8857"/>
<path d="M1279.33 296.261H1241.9C1241.28 296.261 1240.78 295.554 1240.78 294.691C1240.78 293.827 1241.28 293.121 1241.9 293.121H1279.33C1279.95 293.121 1280.45 293.827 1280.45 294.691C1280.45 295.554 1279.95 296.261 1279.33 296.261Z" fill="#FD8857"/>
<path d="M1235.27 290.545H1234.02C1233.37 290.545 1232.84 289.801 1232.84 288.893V288.374C1232.84 287.465 1233.37 286.721 1234.02 286.721H1235.27C1235.91 286.721 1236.44 287.465 1236.44 288.374V288.893C1236.44 289.805 1235.91 290.545 1235.27 290.545Z" fill="#FD8857"/>
<path d="M1224.7 401.077V539.501C1224.7 541.886 1223.31 543.833 1221.61 543.833H1021.67C1019.96 543.833 1018.57 541.886 1018.57 539.501V401.077C1018.57 398.696 1019.96 396.749 1021.67 396.749H1221.61C1223.31 396.749 1224.7 398.7 1224.7 401.077Z" fill="#FD8857"/>
<path d="M1224.7 401.077V539.501C1224.7 541.886 1223.31 543.837 1221.61 543.837H1132.68V396.749H1221.61C1223.31 396.749 1224.7 398.696 1224.7 401.077Z" fill="#EFECEA"/>
<path d="M1045.4 420.761C1039.28 420.761 1034.31 427.721 1034.31 436.307C1034.31 444.892 1039.28 451.852 1045.4 451.852C1051.53 451.852 1056.49 444.892 1056.49 436.307C1056.49 427.717 1051.53 420.761 1045.4 420.761ZM1053.08 436.8H1045.4C1045.21 436.8 1045.05 436.579 1045.05 436.303V424.727C1045.05 424.454 1045.21 424.23 1045.4 424.23C1045.6 424.23 1045.76 424.45 1045.76 424.727V435.806H1053.08C1053.28 435.806 1053.44 436.026 1053.44 436.303C1053.44 436.576 1053.28 436.8 1053.08 436.8Z" fill="#EFECEA"/>
<path d="M1044.3 480.921C1038.79 480.921 1034.32 487.186 1034.32 494.912C1034.32 502.638 1044.3 519.821 1044.3 519.821C1044.3 519.821 1054.28 502.642 1054.28 494.912C1054.28 487.186 1049.81 480.921 1044.3 480.921ZM1044.3 501.311C1041.72 501.311 1039.63 498.385 1039.63 494.77C1039.63 491.159 1041.72 488.229 1044.3 488.229C1046.87 488.229 1048.96 491.156 1048.96 494.77C1048.96 498.385 1046.87 501.311 1044.3 501.311Z" fill="#EFECEA"/>
<path d="M1100.34 489.533H1064.01C1063.09 489.533 1062.34 488.476 1062.34 487.186C1062.34 485.893 1063.09 484.839 1064.01 484.839H1100.34C1101.26 484.839 1102.01 485.896 1102.01 487.186C1102.01 488.479 1101.26 489.533 1100.34 489.533Z" fill="#242E6C"/>
<path d="M1090.9 498.527H1063.79C1062.99 498.527 1062.34 497.615 1062.34 496.497V495.862C1062.34 494.744 1062.99 493.832 1063.79 493.832H1090.9C1091.7 493.832 1092.35 494.744 1092.35 495.862V496.497C1092.35 497.611 1091.7 498.527 1090.9 498.527Z" fill="#242E6C"/>
<path d="M1100.34 434.157H1064.01C1063.09 434.157 1062.34 433.099 1062.34 431.81C1062.34 430.517 1063.09 429.463 1064.01 429.463H1100.34C1101.26 429.463 1102.01 430.52 1102.01 431.81C1102.01 433.099 1101.26 434.157 1100.34 434.157Z" fill="#242E6C"/>
<path d="M1090.9 443.147H1063.79C1062.99 443.147 1062.34 442.235 1062.34 441.117V440.482C1062.34 439.364 1062.99 438.452 1063.79 438.452H1090.9C1091.7 438.452 1092.35 439.364 1092.35 440.482V441.117C1092.35 442.235 1091.7 443.147 1090.9 443.147Z" fill="#242E6C"/>
<path d="M1224.7 463.036V439.2L1188.46 418.264L1132.68 434.352V466.553L1164.33 484.652L1164.37 484.674L1224.7 463.047V463.036Z" fill="#C643DB"/>
<path d="M1164.28 484.674V498.878L1132.68 479.647V466.583L1164.28 484.674Z" fill="#6615B2"/>
<path d="M1224.7 463.036L1164.33 484.652L1164.28 484.674V498.878L1224.7 475.748V463.047V463.036Z" fill="#7F22BA"/>
<path d="M1301.65 280.595C1301.45 280.419 1301.16 280.191 1300.82 279.93L1295.4 273.736C1295.4 273.736 1294.72 274.286 1295.4 275.336C1295.49 275.471 1295.61 275.646 1295.75 275.848L1293.69 273.587C1293.69 273.587 1293.32 274.099 1293.56 274.91C1293.73 275.493 1295.67 277.81 1296.76 279.081C1296.1 278.64 1295.18 277.665 1293.8 275.721C1292.94 274.51 1293.22 276.334 1293.35 277.134C1293.58 278.547 1296.27 283.32 1297.21 285.466C1298.16 287.615 1298.63 289.734 1297.97 288.807C1297.31 287.88 1293.72 284.778 1293.34 285.466C1292.96 286.157 1295.13 288.807 1296.17 290.927C1297.21 293.046 1298.34 296.623 1302.03 297.419C1305.72 298.215 1306.35 295.603 1306.35 295.603C1306.35 295.603 1303.35 282.053 1301.65 280.595Z" fill="#FF9792"/>
<path d="M1415.57 409.712C1415.57 409.712 1414.67 421.953 1413.69 424.271C1412.7 426.584 1408.12 433.312 1406.72 435.439C1406.62 435.585 1405.71 434.456 1406.4 432.827C1409.18 426.252 1408.4 427.829 1407.44 423.508C1406.97 421.37 1406.67 427.523 1405.89 427.665C1405.1 427.81 1405.38 421.179 1405.35 419.165C1405.32 417.146 1409.3 416.201 1409.77 408.927C1410.07 404.247 1415.57 409.712 1415.57 409.712Z" fill="#FF9792"/>
<path d="M1388.19 284.109C1388.19 284.109 1380.93 334.069 1340.97 350.392C1328.5 355.487 1300.17 297.92 1300.17 297.92C1300.17 297.92 1301.17 292.612 1307.4 293.831C1307.4 293.831 1334.99 319.439 1338.47 322.22C1341.55 324.687 1361.82 290.489 1371.05 284.976C1380.29 279.459 1388.19 284.109 1388.19 284.109Z" fill="#1B2251"/>
<path d="M1435.89 598.175C1435.89 598.175 1440.84 604.518 1439.87 609.022C1438.91 613.53 1434.43 616.531 1433.83 622.041C1433.23 627.547 1430.81 630.552 1428.63 630.552C1426.46 630.552 1418.26 630.552 1418.26 630.552C1418.26 630.552 1416.66 626.676 1420.52 625.509C1424.39 624.339 1425.85 617.869 1425.61 611.863C1425.37 605.856 1425.97 597.846 1425.97 597.846L1434.19 595.177L1435.89 598.175Z" fill="#1B2251"/>
<path d="M1375.08 614.58C1375.08 614.58 1375.97 629.012 1373.79 630.514L1345.95 630.436C1345.95 630.436 1345.95 625.928 1350.42 624.93C1354.89 623.928 1362.75 620.258 1364.08 612.079C1365.41 603.897 1375.08 614.58 1375.08 614.58Z" fill="#1B2251"/>
<path d="M1351.57 410.706C1351.57 410.706 1353.04 436.004 1354.76 466.415C1357.11 507.726 1359.93 558.467 1360.21 568.081C1360.69 584.774 1362.63 611.473 1362.63 611.473C1362.63 611.473 1367.22 617.817 1376.41 615.144C1376.41 615.144 1384.6 577.029 1386.94 536.701C1386.97 536.04 1387.01 535.375 1387.05 534.709C1389.22 493.656 1392.61 407.204 1392.61 407.204L1351.57 410.706Z" fill="#F9795A"/>
<path d="M1351.57 410.706C1351.57 410.706 1353.04 436.004 1354.76 466.415L1386.94 536.698C1386.98 536.036 1387.01 535.371 1387.05 534.705C1389.22 493.653 1392.61 407.2 1392.61 407.2L1351.57 410.706Z" fill="#F24B46"/>
<path d="M1358.28 413.711C1358.28 413.711 1384.75 505.333 1402.16 548.39C1419.57 591.446 1425.01 603.463 1425.01 603.463C1425.01 603.463 1434.98 597.957 1435.89 594.201C1435.89 594.201 1429.23 511.078 1417.57 490.816C1410.99 479.366 1403.25 445.004 1402.89 432.987C1402.52 420.97 1400.53 397.19 1400.53 397.19L1358.28 413.711Z" fill="#F9795A"/>
<path d="M1393.11 272.514C1393.11 272.514 1375.2 284.632 1364.87 280.135C1364.87 280.135 1367.41 275.639 1371.86 272.293C1371.5 269.385 1371.22 266.866 1371.06 264.728C1370.63 259.794 1370.63 256.998 1370.63 256.998L1377.54 249.376L1384.09 242.084C1383.58 262.59 1393.11 272.514 1393.11 272.514Z" fill="#FF9792"/>
<path d="M1402.55 401.881C1402.59 403.421 1400.25 405.174 1399.21 405.828C1391.55 410.545 1384.4 413.834 1376.29 414.93C1366.72 416.301 1355.4 413.285 1351.51 413.397C1351.11 413.397 1350.75 413.177 1350.44 412.792C1350.16 412.519 1349.96 396.341 1350.16 376C1350.16 375.181 1350.16 374.359 1350.2 373.537V373.264C1350.28 365.313 1350.48 356.978 1350.75 348.643C1351.31 330.331 1352.35 312.673 1354.09 302.914C1356.2 291.397 1360.97 283.78 1365.29 278.236L1368.87 273.852C1372.44 274.839 1376.21 274.562 1379.99 271.987C1384.12 269.191 1388.57 266.174 1389.28 266.941C1394.69 272.476 1398.34 284.923 1400.29 300.828C1400.29 300.906 1400.31 300.985 1400.32 301.063C1401.41 310.158 1401.96 320.332 1401.92 330.985C1401.92 334.936 1401.84 338.991 1401.68 342.995C1400.88 361.127 1401.41 377.271 1401.94 388.458C1402.04 390.667 1402.14 392.682 1402.24 394.484C1402.39 397.661 1402.51 400.128 1402.55 401.881Z" fill="#242E6C"/>
<path d="M1401.93 388.455C1372.24 340.39 1390.66 305.456 1390.66 305.456L1400.32 301.064C1401.41 310.158 1401.96 320.332 1401.92 330.985C1401.92 334.936 1401.84 338.992 1401.68 342.995C1400.88 361.123 1401.41 377.267 1401.93 388.455Z" fill="#1B2251"/>
<path d="M1384.21 249.926C1384.21 249.926 1379.69 261.495 1371.07 264.732C1370.63 259.798 1370.63 257.002 1370.63 257.002L1377.54 249.38L1384.21 249.926Z" fill="#FF9490"/>
<path d="M1367.48 256.662C1367.48 256.662 1384.57 260.579 1386.17 245.852C1387.77 231.125 1391.06 221.709 1380.22 218.584C1369.37 215.459 1366.64 220.64 1365.24 225.376C1363.83 230.112 1363.07 255.264 1367.48 256.662Z" fill="#FF9792"/>
<path d="M1392.38 216.824C1392.54 216.573 1392.89 216.371 1393.69 216.311C1393.69 216.311 1393.05 215.754 1392.2 215.725C1392.04 214.173 1391.45 211.426 1389.54 210.757C1389.54 210.757 1390.57 211.523 1390.7 213.172C1388.49 209.994 1383.76 207.681 1370.67 209.131C1353.41 211.041 1359.1 226.534 1361.33 228.381C1363.56 230.227 1369.19 225.163 1373.35 225.626C1377.52 226.09 1378.31 234.522 1379.72 235.681C1381.13 236.84 1380.57 234.791 1382.49 233.58C1384.4 232.369 1384.58 236.81 1384.03 239.695C1383.47 242.581 1386.1 246.39 1386.1 246.39C1386.1 246.39 1386.1 246.39 1388.75 242.383C1391.41 238.376 1393.91 221.406 1392.7 217.792C1392.6 217.47 1392.49 217.149 1392.38 216.824Z" fill="#1B2251"/>
<path d="M1389.28 266.817C1389.28 266.817 1400.09 273.994 1405.27 285.032C1413.31 302.151 1422.63 364.536 1422.81 370.311C1422.98 376.09 1416 416.873 1416 416.873C1416 416.873 1408.93 416.219 1407.1 411.214C1407.1 411.214 1408.52 369.309 1407.62 366.614C1406.73 363.919 1378.13 310.404 1381.34 298.981C1384.56 287.562 1389.28 266.817 1389.28 266.817Z" fill="#242E6C"/>
<path d="M1413.69 424.271L1408.57 436.273C1408.57 436.273 1407.96 435.91 1408.05 435.055C1408.15 434.199 1409.63 427.698 1409.63 427.698L1413.69 424.271Z" fill="#FF9792"/>
<path d="M1408.56 424.618C1408.56 424.618 1404.87 430.517 1405.69 431.851L1408.35 428.962L1408.56 424.618Z" fill="#FF9792"/>
<path d="M1144.8 321.587C1139.5 322.919 1134.69 324.01 1131.31 327.886C1128.2 331.456 1126.3 336.261 1126.3 341.542C1126.3 347.411 1128.37 353.696 1132.4 356.346C1135.78 358.571 1141.11 363.14 1144.8 361.494C1149.43 359.431 1153.54 359.713 1156.77 356.758L1155.27 354.852L1144.82 341.542L1161.66 343.161L1163.24 343.314C1163.28 342.731 1163.31 342.139 1163.31 341.542C1163.31 335.891 1161.13 330.785 1157.63 327.155C1154.3 323.709 1149.77 320.343 1144.8 321.587Z" fill="#EFECEA"/>
<path d="M1161.65 343.166L1144.82 341.547L1155.27 354.857C1154.23 355.676 1153.1 356.374 1151.89 356.934C1149.74 357.923 1147.25 357.248 1144.82 358.478C1140.8 360.522 1137.09 355.833 1134.11 354.649C1130.9 353.372 1127.54 346.671 1127.91 341.547C1128.29 336.224 1130.46 330.055 1134.36 328.242C1137.28 326.882 1141.14 323.733 1145.09 323.733C1148.3 323.733 1150.99 326.512 1153.58 327.058C1158.47 328.094 1161.73 335.405 1161.73 341.542C1161.73 342.088 1161.71 342.629 1161.65 343.166Z" fill="#F98B5D"/>
<path d="M1135.94 339.706C1135.94 340.289 1135.59 340.761 1135.15 340.761C1134.71 340.761 1134.36 340.289 1134.36 339.706C1134.36 339.124 1134.72 338.652 1135.15 338.652C1135.59 338.652 1135.94 339.124 1135.94 339.706Z" fill="white"/>
<path d="M1140.75 334.638C1140.75 335.221 1140.39 335.692 1139.96 335.692C1139.52 335.692 1139.17 335.221 1139.17 334.638C1139.17 334.055 1139.52 333.583 1139.96 333.583C1140.4 333.583 1140.75 334.055 1140.75 334.638Z" fill="white"/>
<path d="M1137.78 331.844C1137.78 332.325 1137.49 332.714 1137.13 332.714C1136.77 332.714 1136.48 332.325 1136.48 331.844C1136.48 331.363 1136.77 330.975 1137.13 330.975C1137.49 330.975 1137.78 331.363 1137.78 331.844Z" fill="white"/>
<path d="M1143.68 329.689C1143.68 330.226 1143.35 330.656 1142.95 330.656C1142.55 330.656 1142.22 330.221 1142.22 329.689C1142.22 329.153 1142.55 328.723 1142.95 328.723C1143.35 328.723 1143.68 329.153 1143.68 329.689Z" fill="white"/>
<path d="M1143.68 339.706C1143.68 340.548 1143.16 341.233 1142.53 341.233C1141.9 341.233 1141.38 340.548 1141.38 339.706C1141.38 338.865 1141.9 338.18 1142.53 338.18C1143.16 338.176 1143.68 338.86 1143.68 339.706Z" fill="white"/>
<path d="M1146.17 334.124C1146.17 334.707 1145.81 335.179 1145.38 335.179C1144.94 335.179 1144.58 334.707 1144.58 334.124C1144.58 333.542 1144.94 333.07 1145.38 333.07C1145.81 333.07 1146.17 333.546 1146.17 334.124Z" fill="white"/>
<path d="M1149.83 334.652C1149.83 334.943 1149.65 335.179 1149.43 335.179C1149.21 335.179 1149.04 334.943 1149.04 334.652C1149.04 334.36 1149.21 334.124 1149.43 334.124C1149.65 334.124 1149.83 334.36 1149.83 334.652Z" fill="white"/>
<path d="M1148.17 330.128C1148.17 330.42 1147.99 330.656 1147.77 330.656C1147.55 330.656 1147.37 330.42 1147.37 330.128C1147.37 329.837 1147.55 329.601 1147.77 329.601C1147.99 329.601 1148.17 329.837 1148.17 330.128Z" fill="white"/>
<path d="M1143.68 347.12C1143.68 347.411 1143.5 347.647 1143.28 347.647C1143.06 347.647 1142.88 347.411 1142.88 347.12C1142.88 346.828 1143.06 346.593 1143.28 346.593C1143.5 346.593 1143.68 346.828 1143.68 347.12Z" fill="white"/>
<path d="M1146.38 349.52C1146.38 349.811 1146.21 350.047 1145.99 350.047C1145.77 350.047 1145.59 349.811 1145.59 349.52C1145.59 349.229 1145.77 348.993 1145.99 348.993C1146.21 348.993 1146.38 349.229 1146.38 349.52Z" fill="white"/>
<path d="M1140.39 345.385C1140.39 346.042 1139.99 346.579 1139.5 346.579C1139.01 346.579 1138.61 346.047 1138.61 345.385C1138.61 344.729 1139.01 344.192 1139.5 344.192C1139.99 344.192 1140.39 344.724 1140.39 345.385Z" fill="white"/>
<path d="M1135.27 345.681C1135.27 345.681 1134.68 345.163 1134.11 346.204C1134.11 346.204 1134.85 347.24 1135.27 345.681Z" fill="#6615B2"/>
<path d="M1139.78 338.152C1139.78 338.152 1138.98 337.454 1138.21 338.86C1138.21 338.86 1139.21 340.271 1139.78 338.152Z" fill="#6615B2"/>
<path d="M1148.33 334.143C1148.33 334.143 1147.51 334.152 1146.87 336.178C1146.87 336.178 1147.94 336.677 1148.33 334.143Z" fill="#6615B2"/>
<path d="M1152.14 335.664C1152.14 335.664 1151.44 334.147 1150.58 334.665C1150.58 334.665 1151.41 337.079 1152.14 335.664Z" fill="#6615B2"/>
<path d="M1146.04 339.989C1146.04 339.989 1145.66 337.991 1144.95 337.362C1144.95 337.362 1145.35 340.215 1146.04 339.989Z" fill="#6615B2"/>
<path d="M1144.7 342.828C1144.7 342.828 1144.01 342.657 1143.43 344.225C1143.43 344.225 1144.32 344.877 1144.7 342.828Z" fill="#6615B2"/>
<path d="M1145.35 351.772C1145.35 351.772 1144.78 350.39 1144.05 350.699C1144.05 350.695 1144.72 352.855 1145.35 351.772Z" fill="#6615B2"/>
<path d="M1146.35 345.774C1146.35 345.774 1145.66 345.681 1145.09 347.309C1145.09 347.309 1146 347.864 1146.35 345.774Z" fill="#6615B2"/>
<path d="M1143.19 334.721C1143.19 334.721 1142.52 334.18 1141.87 335.414C1141.87 335.414 1142.73 336.543 1143.19 334.721Z" fill="#6615B2"/>
<path d="M1141.46 332.099C1141.46 332.099 1140.94 330.494 1140.21 330.494C1140.21 330.499 1140.8 332.917 1141.46 332.099Z" fill="#6615B2"/>
<path d="M1136.34 347C1135.56 347.689 1135.17 349.076 1135.47 350.089C1135.69 350.852 1136.2 350.69 1136.76 350.269L1137.05 351.236C1137.09 351.37 1137.2 351.402 1137.3 351.314L1137.86 350.829C1137.96 350.736 1138.01 350.556 1137.97 350.422L1137.68 349.46C1138.2 348.928 1138.53 348.378 1138.29 347.592C1138 346.579 1137.11 346.315 1136.34 347Z" fill="#DFDCF7"/>
<path d="M1151.1 329.31C1151.73 329.87 1152.05 331.003 1151.8 331.826C1151.62 332.446 1151.21 332.316 1150.75 331.974L1150.52 332.76C1150.49 332.871 1150.39 332.899 1150.31 332.825L1149.86 332.427C1149.78 332.353 1149.74 332.205 1149.77 332.094L1150 331.313C1149.58 330.882 1149.31 330.429 1149.5 329.791C1149.75 328.968 1150.46 328.75 1151.1 329.31Z" fill="#DFDCF7"/>
<path d="M1142.05 342.699C1142.69 343.258 1143.01 344.391 1142.76 345.214C1142.57 345.834 1142.17 345.705 1141.71 345.362L1141.47 346.149C1141.44 346.26 1141.35 346.287 1141.26 346.213L1140.82 345.816C1140.73 345.742 1140.69 345.594 1140.72 345.483L1140.96 344.701C1140.53 344.271 1140.27 343.818 1140.46 343.18C1140.7 342.356 1141.42 342.139 1142.05 342.699Z" fill="#DFDCF7"/>
<path d="M1136.69 334.138C1136.06 334.698 1135.74 335.831 1135.99 336.654C1136.17 337.274 1136.58 337.144 1137.04 336.802L1137.28 337.588C1137.31 337.699 1137.4 337.727 1137.48 337.653L1137.93 337.255C1138.02 337.181 1138.06 337.033 1138.03 336.922L1137.79 336.141C1138.22 335.71 1138.48 335.257 1138.29 334.619C1138.05 333.791 1137.33 333.578 1136.69 334.138Z" fill="#DFDCF7"/>
<path d="M1164.28 341.487L1149.75 340.09L1147.77 338.166V339.9L1159.11 354.344C1162.53 351.208 1164.83 346.685 1165.24 341.579V339.845L1164.28 341.487Z" fill="#EFECEA"/>
<path d="M1165.25 339.845C1164.83 344.946 1162.53 349.474 1159.11 352.609L1153.97 346.061L1152.9 344.696L1147.77 338.161L1165.25 339.845Z" fill="#F9795A"/>
<path d="M1153.58 341.279C1153.58 341.861 1153.23 342.333 1152.79 342.333C1152.36 342.333 1152 341.861 1152 341.279C1152 340.696 1152.36 340.224 1152.79 340.224C1153.23 340.224 1153.58 340.696 1153.58 341.279Z" fill="white"/>
<path d="M1154.42 345.108C1154.42 345.529 1154.24 345.889 1153.97 346.061L1152.9 344.696C1153.02 344.317 1153.3 344.053 1153.63 344.053C1154.07 344.058 1154.42 344.53 1154.42 345.108Z" fill="white"/>
<path d="M1157.25 345.348C1157.25 345.64 1157.07 345.876 1156.85 345.876C1156.63 345.876 1156.46 345.64 1156.46 345.348C1156.46 345.057 1156.63 344.821 1156.85 344.821C1157.07 344.821 1157.25 345.057 1157.25 345.348Z" fill="white"/>
<path d="M1159.37 342.333C1159.37 342.625 1159.19 342.86 1158.97 342.86C1158.76 342.86 1158.58 342.625 1158.58 342.333C1158.58 342.042 1158.76 341.806 1158.97 341.806C1159.19 341.806 1159.37 342.042 1159.37 342.333Z" fill="white"/>
<path d="M1155.35 341.542C1155.35 341.834 1155.18 342.069 1154.96 342.069C1154.74 342.069 1154.56 341.834 1154.56 341.542C1154.56 341.251 1154.74 341.015 1154.96 341.015C1155.18 341.015 1155.35 341.251 1155.35 341.542Z" fill="white"/>
<path d="M1157.38 340.613C1157.38 341.094 1157.09 341.482 1156.72 341.482C1156.36 341.482 1156.07 341.094 1156.07 340.613C1156.07 340.132 1156.36 339.743 1156.72 339.743C1157.09 339.743 1157.38 340.132 1157.38 340.613Z" fill="white"/>
<path d="M1156.73 343.434C1156.73 343.757 1156.53 344.021 1156.29 344.021C1156.04 344.021 1155.85 343.757 1155.85 343.434C1155.85 343.11 1156.04 342.846 1156.29 342.846C1156.53 342.846 1156.73 343.11 1156.73 343.434Z" fill="white"/>
<path d="M1150.94 340.224C1150.94 340.437 1150.81 340.613 1150.65 340.613C1150.49 340.613 1150.36 340.442 1150.36 340.224C1150.36 340.012 1150.49 339.836 1150.65 339.836C1150.81 339.836 1150.94 340.012 1150.94 340.224Z" fill="white"/>
<path d="M1154.29 341.612C1154.29 341.612 1153.73 341.616 1153.28 343.027C1153.28 343.027 1154.02 343.369 1154.29 341.612Z" fill="#6615B2"/>
<path d="M1160.85 342.944C1160.85 342.944 1160.42 341.658 1159.81 341.713C1159.81 341.713 1160.31 343.66 1160.85 342.944Z" fill="#6615B2"/>
<path d="M1155.68 345.103C1155.68 345.103 1155.23 343.868 1154.63 343.993C1154.63 343.989 1155.15 345.88 1155.68 345.103Z" fill="#6615B2"/>
<path d="M1159.11 346.352C1159.11 346.352 1158.54 346.107 1158.05 347.309C1158.05 347.309 1158.77 347.975 1159.11 346.352Z" fill="#6615B2"/>
<path d="M1150.4 339.04C1150.4 339.04 1149.91 338.661 1149.44 339.577C1149.44 339.577 1150.06 340.377 1150.4 339.04Z" fill="#6615B2"/>
<path d="M1168.96 529.745H1143.79C1143.22 529.745 1142.76 529.099 1142.76 528.306C1142.76 527.514 1143.22 526.867 1143.79 526.867H1168.96C1169.52 526.867 1169.98 527.514 1169.98 528.306C1169.99 529.099 1169.52 529.745 1168.96 529.745Z" fill="#FF7D78"/>
<path d="M1168.96 522.999H1143.79C1143.22 522.999 1142.76 522.352 1142.76 521.559C1142.76 520.767 1143.22 520.12 1143.79 520.12H1168.96C1169.52 520.12 1169.98 520.767 1169.98 521.559C1169.99 522.352 1169.52 522.999 1168.96 522.999Z" fill="#FF7D78"/>
<path d="M1155.04 294.601H1125.82C1125.2 294.601 1124.7 293.894 1124.7 293.027C1124.7 292.16 1125.2 291.454 1125.82 291.454H1155.04C1155.66 291.454 1156.16 292.16 1156.16 293.027C1156.16 293.891 1155.66 294.601 1155.04 294.601Z" fill="#242E6C"/>
<path d="M1155.04 301.03H1125.82C1125.2 301.03 1124.7 300.324 1124.7 299.456C1124.7 298.589 1125.2 297.883 1125.82 297.883H1155.04C1155.66 297.883 1156.16 298.589 1156.16 299.456C1156.16 300.324 1155.66 301.03 1155.04 301.03Z" fill="#242E6C"/>
<path d="M1155.04 307.459H1125.82C1125.2 307.459 1124.7 306.753 1124.7 305.885C1124.7 305.018 1125.2 304.312 1125.82 304.312H1155.04C1155.66 304.312 1156.16 305.018 1156.16 305.885C1156.16 306.753 1155.66 307.459 1155.04 307.459Z" fill="#242E6C"/>
<path d="M1205.01 248.711H1175.78C1175.17 248.711 1174.66 248.005 1174.66 247.138C1174.66 246.27 1175.17 245.564 1175.78 245.564H1205.01C1205.62 245.564 1206.13 246.27 1206.13 247.138C1206.13 248.001 1205.62 248.711 1205.01 248.711Z" fill="#242E6C"/>
<path d="M1205.01 255.141H1175.78C1175.17 255.141 1174.66 254.434 1174.66 253.567C1174.66 252.7 1175.17 251.993 1175.78 251.993H1205.01C1205.62 251.993 1206.13 252.7 1206.13 253.567C1206.13 254.43 1205.62 255.141 1205.01 255.141Z" fill="#242E6C"/>
<path d="M1205.01 261.57H1175.78C1175.17 261.57 1174.66 260.863 1174.66 259.996C1174.66 259.129 1175.17 258.422 1175.78 258.422H1205.01C1205.62 258.422 1206.13 259.129 1206.13 259.996C1206.13 260.859 1205.62 261.57 1205.01 261.57Z" fill="#242E6C"/>
<path d="M1205.01 339.948H1175.78C1175.17 339.948 1174.66 339.242 1174.66 338.375C1174.66 337.508 1175.17 336.801 1175.78 336.801H1205.01C1205.62 336.801 1206.13 337.508 1206.13 338.375C1206.13 339.238 1205.62 339.948 1205.01 339.948Z" fill="#242E6C"/>
<path d="M1205.01 346.377H1175.78C1175.17 346.377 1174.66 345.671 1174.66 344.804C1174.66 343.937 1175.17 343.23 1175.78 343.23H1205.01C1205.62 343.23 1206.13 343.937 1206.13 344.804C1206.13 345.667 1205.62 346.377 1205.01 346.377Z" fill="#242E6C"/>
<path d="M1205.01 352.807H1175.78C1175.17 352.807 1174.66 352.1 1174.66 351.233C1174.66 350.366 1175.17 349.659 1175.78 349.659H1205.01C1205.62 349.659 1206.13 350.366 1206.13 351.233C1206.13 352.096 1205.62 352.807 1205.01 352.807Z" fill="#242E6C"/>
<path d="M1284.93 344.804H1256.95C1252.34 344.804 1248.57 339.522 1248.57 333.071C1248.57 326.615 1252.34 321.334 1256.95 321.334H1284.93C1289.53 321.334 1293.3 326.615 1293.3 333.071C1293.3 339.522 1289.53 344.804 1284.93 344.804Z" fill="#FD8857"/>
<path d="M1265.59 329.692C1265.59 329.692 1270.9 340.117 1270.88 339.728C1270.87 339.339 1276.29 324.918 1276.29 324.918L1270.03 333.418L1265.59 329.692Z" fill="#EFECEA"/>
<path d="M1182.6 473.195L1164.64 479.284L1159.05 475.928L1176.46 470.291L1182.6 473.195Z" fill="#FFD4D2"/>
<path d="M1153.98 270.565C1151.75 271.535 1149.14 272.121 1145.64 272.139V272.349H1144.81V272.139C1124.81 272.057 1126.44 251.309 1126.44 251.309C1126.64 253.194 1128.34 254.428 1130.66 255.229C1135.26 256.825 1142.31 256.713 1144.81 256.609V256.563C1144.81 256.563 1144.92 256.574 1145.23 256.59C1145.53 256.574 1145.64 256.563 1145.64 256.563V256.609C1149.48 256.763 1163.42 256.943 1164.03 251.309C1164.03 251.309 1165.18 265.716 1153.98 270.565Z" fill="url(#paint17_linear_136_2)"/>
<path opacity="0.6" d="M1153.98 270.565C1151.75 271.535 1149.14 272.121 1145.64 272.139V272.349H1144.81V272.139C1124.81 272.057 1126.44 251.309 1126.44 251.309C1126.64 253.194 1128.34 254.428 1130.66 255.229C1131.71 256.707 1132.67 258.544 1133.39 260.823C1136.4 270.463 1148.51 258.307 1152.91 268.237C1153.29 269.098 1153.63 269.872 1153.98 270.565Z" fill="url(#paint18_radial_136_2)"/>
<path opacity="0.9" d="M1145.56 256.835C1155.8 256.835 1164.11 254.343 1164.11 251.27C1164.11 248.197 1155.8 245.705 1145.56 245.705C1135.31 245.705 1127.01 248.197 1127.01 251.27C1127.01 254.343 1135.31 256.835 1145.56 256.835Z" fill="url(#paint19_linear_136_2)"/>
<path d="M1149.6 257.726C1149.04 257.152 1149.43 253.976 1150.52 251.646C1152.05 248.343 1155.05 246.596 1155.76 246.208C1156.53 245.788 1157.21 245.549 1157.8 244.522C1158.65 243.039 1158.67 241.017 1159.01 241.041C1159.27 241.059 1159.18 242.18 1159.68 242.623C1160.37 243.235 1161.29 241.759 1161.98 242.445C1162.29 242.742 1162.38 243.279 1162.39 243.336C1162.55 244.282 1161.96 244.951 1162.13 245.408C1162.32 245.912 1163.08 245.232 1163.72 245.757C1164.43 246.341 1164.82 248.285 1164.43 249.545C1163.96 251.07 1162.53 250.953 1162.45 252.067C1162.39 252.891 1163.15 253.218 1163.21 254.105C1163.3 255.446 1161.73 257.319 1160.01 257.944C1156.54 259.208 1154.44 254.622 1151.47 256.511C1150.5 257.127 1149.96 258.101 1149.6 257.726Z" fill="url(#paint20_linear_136_2)"/>
<path opacity="0.3" d="M1152.95 254.7C1154.51 254.388 1155.11 256.428 1157.52 256.798C1159.53 257.106 1161.64 256.082 1161.8 254.75C1161.9 253.885 1161.11 253.491 1161.16 252.357C1161.24 250.677 1163.05 250.14 1162.98 248.985C1162.91 247.959 1161.45 248.02 1161.09 246.453C1160.82 245.266 1161.45 244.334 1161.11 243.777C1160.71 243.097 1159.67 244.325 1158.84 243.706C1158.66 243.566 1158.51 243.352 1158.38 243.084C1158.24 243.564 1158.06 244.068 1157.8 244.521C1157.21 245.548 1156.53 245.787 1155.76 246.208C1155.05 246.595 1152.05 248.342 1150.52 251.645C1149.43 253.975 1149.04 257.151 1149.6 257.725C1149.81 257.945 1150.08 257.702 1150.47 257.339C1151.4 255.432 1152.27 254.838 1152.95 254.7Z" fill="url(#paint21_linear_136_2)"/>
<path d="M1149.48 259.657C1148.64 258.972 1146.46 256.976 1145.59 253.074C1144.18 246.709 1147.11 239.263 1149.18 239.071C1149.87 239.006 1150.46 239.77 1151.69 239.388C1152.54 239.126 1152.66 238.644 1153.51 238.524C1154.28 238.416 1155.45 238.636 1155.73 239.605C1155.93 240.278 1155.58 240.915 1155.81 241.247C1156.09 241.644 1156.66 240.845 1157.13 241.094C1157.81 241.459 1158.26 244.065 1157.78 246.007C1156.93 249.41 1153.81 248.444 1151.5 252.073C1150.06 254.336 1149.62 257.324 1149.48 259.657Z" fill="url(#paint22_linear_136_2)"/>
<path opacity="0.3" d="M1149.04 258.53C1149.04 258.53 1147.03 253.455 1148 248.239C1148.97 243.023 1149.95 243.729 1150.4 243.408C1150.85 243.087 1149.85 245.328 1149.37 247.051C1148.89 248.773 1147.77 250.309 1149.04 258.53Z" fill="url(#paint23_linear_136_2)"/>
<path opacity="0.3" d="M1157.13 241.094C1156.67 240.845 1156.1 241.644 1155.82 241.247C1155.58 240.915 1155.93 240.278 1155.73 239.605C1155.45 238.636 1154.28 238.416 1153.51 238.524C1152.66 238.644 1152.54 239.126 1151.69 239.388C1150.46 239.77 1149.87 239.006 1149.18 239.071C1147.15 239.259 1144.28 246.437 1145.52 252.72C1145.31 250.321 1145.36 247.443 1146.25 244.741C1146.43 244.203 1147.71 240.295 1149.2 240.439C1149.98 240.512 1150.19 241.602 1151.06 241.602C1152.31 241.603 1152.82 239.338 1153.62 239.656C1154.37 239.958 1154.2 242.115 1155.15 242.657C1155.82 243.043 1156.28 242.159 1156.84 242.42C1157.25 242.612 1157.65 243.395 1157.87 245.567C1158.19 243.694 1157.76 241.433 1157.13 241.094Z" fill="url(#paint24_linear_136_2)"/>
<path d="M1142.01 259.601C1142.56 259.027 1142.18 255.851 1141.09 253.521C1139.56 250.218 1136.56 248.471 1135.85 248.084C1135.08 247.663 1134.39 247.424 1133.81 246.397C1132.96 244.914 1132.93 242.892 1132.59 242.916C1132.34 242.934 1132.43 244.056 1131.93 244.498C1131.24 245.11 1130.32 243.634 1129.62 244.32C1129.32 244.617 1129.23 245.154 1129.22 245.211C1129.06 246.157 1129.65 246.826 1129.48 247.284C1129.29 247.787 1128.53 247.107 1127.89 247.632C1127.18 248.217 1126.79 250.16 1127.18 251.42C1127.65 252.945 1129.08 252.828 1129.16 253.942C1129.22 254.766 1128.46 255.093 1128.4 255.98C1128.31 257.321 1129.88 259.194 1131.59 259.819C1135.07 261.083 1137.17 256.497 1140.14 258.386C1141.11 259.002 1141.65 259.976 1142.01 259.601Z" fill="url(#paint25_linear_136_2)"/>
<path d="M1138.65 256.575C1137.1 256.263 1136.5 258.303 1134.09 258.673C1132.08 258.981 1129.96 257.957 1129.81 256.625C1129.7 255.76 1130.5 255.366 1130.45 254.232C1130.37 252.552 1128.56 252.015 1128.63 250.86C1128.7 249.834 1130.15 249.895 1130.51 248.328C1130.79 247.141 1130.16 246.209 1130.49 245.652C1130.9 244.972 1131.94 246.2 1132.76 245.581C1132.95 245.441 1133.1 245.227 1133.23 244.959C1133.36 245.439 1133.55 245.943 1133.8 246.396C1134.39 247.423 1135.08 247.662 1135.85 248.083C1136.56 248.47 1139.56 250.217 1141.09 253.52C1142.17 255.85 1142.56 259.026 1142.01 259.6C1141.8 259.82 1141.53 259.577 1141.14 259.214C1140.21 257.307 1139.33 256.713 1138.65 256.575Z" fill="url(#paint26_linear_136_2)"/>
<path d="M1142.12 261.533C1142.97 260.848 1145.14 258.852 1146.01 254.949C1147.43 248.585 1144.5 241.138 1142.43 240.947C1141.73 240.882 1141.15 241.646 1139.92 241.264C1139.07 241.002 1138.95 240.52 1138.1 240.4C1137.33 240.292 1136.16 240.512 1135.88 241.481C1135.68 242.154 1136.03 242.791 1135.79 243.123C1135.51 243.52 1134.94 242.721 1134.48 242.97C1133.8 243.335 1133.35 245.941 1133.83 247.883C1134.67 251.286 1137.8 250.32 1140.1 253.949C1141.54 256.211 1141.99 259.199 1142.12 261.533Z" fill="url(#paint27_linear_136_2)"/>
<path d="M1142.56 260.405C1142.56 260.405 1144.58 255.33 1143.61 250.114C1142.64 244.898 1141.66 245.604 1141.21 245.283C1140.75 244.962 1141.75 247.203 1142.24 248.926C1142.72 250.648 1143.84 252.184 1142.56 260.405Z" fill="url(#paint28_linear_136_2)"/>
<path opacity="0.3" d="M1134.48 242.97C1134.94 242.721 1135.51 243.52 1135.79 243.123C1136.03 242.79 1135.68 242.154 1135.88 241.481C1136.16 240.512 1137.33 240.292 1138.1 240.4C1138.95 240.52 1139.07 241.002 1139.91 241.264C1141.15 241.646 1141.73 240.882 1142.43 240.947C1144.46 241.135 1147.32 248.313 1146.09 254.596C1146.3 252.197 1146.24 249.319 1145.36 246.617C1145.18 246.079 1143.9 242.171 1142.4 242.315C1141.63 242.388 1141.42 243.478 1140.55 243.478C1139.29 243.479 1138.79 241.214 1137.99 241.532C1137.24 241.834 1137.41 243.991 1136.46 244.533C1135.79 244.919 1135.33 244.035 1134.77 244.296C1134.36 244.488 1133.96 245.271 1133.74 247.443C1133.42 245.569 1133.85 243.308 1134.48 242.97Z" fill="url(#paint29_linear_136_2)"/>
<path d="M1156.53 240.17C1158.76 243.227 1158.86 248.635 1156.75 252.25C1154.64 255.866 1151.12 256.318 1148.89 253.262L1156.53 240.17Z" fill="url(#paint30_linear_136_2)"/>
<path opacity="0.5" d="M1156.53 240.17C1158.5 242.87 1158.38 247.989 1156.27 251.604C1154.16 255.22 1150.86 255.961 1148.89 253.261L1156.53 240.17Z" fill="url(#paint31_linear_136_2)"/>
<path d="M1156.07 240.95C1157.75 243.256 1157.7 247.811 1155.85 250.983C1154 254.155 1151.05 254.743 1149.37 252.436L1156.07 240.95Z" fill="url(#paint32_linear_136_2)"/>
<path d="M1153.56 245.79L1153 246.751L1155.58 250.288C1156.19 249.179 1156.54 248.002 1156.71 246.828L1153.56 245.79Z" fill="url(#paint33_linear_136_2)"/>
<path d="M1153.21 252.707C1153.96 252.345 1154.68 251.724 1155.34 250.689L1152.77 247.157L1152.21 248.116L1153.21 252.707Z" fill="url(#paint34_linear_136_2)"/>
<path d="M1151.87 248.701L1149.97 251.956C1150.67 252.921 1151.71 253.229 1152.75 252.89L1151.87 248.701Z" fill="url(#paint35_linear_136_2)"/>
<path d="M1153.91 245.204L1156.78 246.113C1156.91 244.425 1156.67 242.915 1155.88 241.828L1153.91 245.204Z" fill="url(#paint36_linear_136_2)"/>
<g opacity="0.2">
<path opacity="0.2" d="M1153.56 245.79L1153 246.751L1155.58 250.288C1156.19 249.179 1156.54 248.002 1156.71 246.828L1153.56 245.79Z" fill="url(#paint37_linear_136_2)"/>
<path opacity="0.2" d="M1153.21 252.707C1153.96 252.345 1154.68 251.724 1155.34 250.689L1152.77 247.157L1152.21 248.116L1153.21 252.707Z" fill="url(#paint38_linear_136_2)"/>
<path opacity="0.2" d="M1151.87 248.701L1149.97 251.956C1150.67 252.921 1151.71 253.229 1152.75 252.89L1151.87 248.701Z" fill="url(#paint39_linear_136_2)"/>
<path opacity="0.2" d="M1153.91 245.204L1156.78 246.113C1156.91 244.425 1156.67 242.915 1155.88 241.828L1153.91 245.204Z" fill="url(#paint40_linear_136_2)"/>
</g>
<path d="M1143.98 251.791C1142.32 255.61 1138.84 256.531 1136.21 253.846C1133.57 251.161 1132.77 245.89 1134.43 242.071L1143.98 251.791Z" fill="url(#paint41_linear_136_2)"/>
<path opacity="0.5" d="M1143.98 251.791C1142.51 255.165 1139.19 255.723 1136.56 253.039C1133.92 250.356 1132.97 245.444 1134.43 242.071L1143.98 251.791Z" fill="url(#paint42_linear_136_2)"/>
<path d="M1143.41 251.211C1142.16 254.093 1139.21 254.661 1136.9 252.306C1134.58 249.951 1133.78 245.564 1135.03 242.683L1143.41 251.211Z" fill="url(#paint43_linear_136_2)"/>
<path d="M1139.92 248.098L1139.22 247.385L1137.31 251.804C1138.11 252.571 1138.92 252.923 1139.7 253.01L1139.92 248.098Z" fill="url(#paint44_linear_136_2)"/>
<path d="M1135.41 248.553C1135.75 249.627 1136.25 250.639 1137.01 251.497L1138.93 247.084L1138.23 246.372L1135.41 248.553Z" fill="url(#paint45_linear_136_2)"/>
<path d="M1137.8 245.937L1135.43 243.521C1134.9 244.728 1134.85 246.342 1135.22 247.883L1137.8 245.937Z" fill="url(#paint46_linear_136_2)"/>
<path d="M1140.35 248.533L1140.17 253.027C1141.28 252.984 1142.22 252.399 1142.81 251.04L1140.35 248.533Z" fill="url(#paint47_linear_136_2)"/>
<g opacity="0.2">
<path opacity="0.2" d="M1139.92 248.098L1139.22 247.385L1137.31 251.804C1138.11 252.571 1138.92 252.923 1139.7 253.01L1139.92 248.098Z" fill="url(#paint48_linear_136_2)"/>
<path opacity="0.2" d="M1135.41 248.553C1135.75 249.627 1136.25 250.639 1137.01 251.497L1138.93 247.084L1138.23 246.372L1135.41 248.553Z" fill="url(#paint49_linear_136_2)"/>
<path opacity="0.2" d="M1137.8 245.937L1135.43 243.521C1134.9 244.728 1134.85 246.342 1135.22 247.883L1137.8 245.937Z" fill="url(#paint50_linear_136_2)"/>
<path opacity="0.2" d="M1140.35 248.533L1140.17 253.027C1141.28 252.984 1142.22 252.399 1142.81 251.04L1140.35 248.533Z" fill="url(#paint51_linear_136_2)"/>
</g>
<path d="M1152.95 262.295C1153.51 261.721 1153.12 258.545 1152.03 256.215C1150.5 252.912 1147.5 251.165 1146.79 250.778C1146.02 250.357 1145.34 250.118 1144.75 249.091C1143.9 247.608 1143.87 245.586 1143.53 245.61C1143.28 245.628 1143.37 246.75 1142.87 247.192C1142.18 247.804 1141.26 246.328 1140.56 247.014C1140.26 247.311 1140.17 247.849 1140.16 247.905C1140 248.851 1140.59 249.521 1140.42 249.978C1140.23 250.481 1139.47 249.802 1138.83 250.326C1138.12 250.911 1137.73 252.854 1138.12 254.114C1138.59 255.639 1140.02 255.522 1140.1 256.636C1140.16 257.461 1139.4 257.787 1139.34 258.675C1139.25 260.016 1140.82 261.888 1142.53 262.513C1146.01 263.778 1148.11 259.191 1151.08 261.08C1152.05 261.697 1152.59 262.671 1152.95 262.295Z" fill="url(#paint52_linear_136_2)"/>
<path d="M1149.59 259.27C1148.04 258.957 1147.44 260.997 1145.03 261.368C1143.02 261.675 1140.9 260.652 1140.75 259.319C1140.64 258.454 1141.44 258.06 1141.39 256.926C1141.31 255.246 1139.5 254.709 1139.57 253.555C1139.64 252.529 1141.09 252.59 1141.45 251.023C1141.73 249.835 1141.1 248.903 1141.43 248.346C1141.84 247.666 1142.88 248.894 1143.7 248.276C1143.89 248.137 1144.04 247.921 1144.17 247.653C1144.3 248.134 1144.49 248.638 1144.75 249.09C1145.33 250.118 1146.02 250.356 1146.79 250.777C1147.5 251.164 1150.5 252.911 1152.03 256.215C1153.12 258.545 1153.51 261.721 1152.95 262.295C1152.74 262.515 1152.47 262.272 1152.08 261.908C1151.15 260.001 1150.28 259.407 1149.59 259.27Z" fill="url(#paint53_linear_136_2)"/>
<path d="M1148.24 258.036C1148 258.691 1147.68 259.292 1147.27 259.81C1145.2 262.427 1142.21 261.332 1140.6 257.365C1139.58 254.834 1139.15 252.005 1139.35 249.815C1139.47 248.572 1139.78 247.534 1140.31 246.873C1141.75 245.047 1144.74 246.142 1146.97 249.318C1148.76 251.866 1149.2 255.389 1148.24 258.036Z" fill="url(#paint54_linear_136_2)"/>
<path d="M1146.02 251.54C1146.89 253.161 1146.73 255.572 1145.66 256.924C1144.59 258.276 1143.01 258.057 1142.14 256.436C1141.27 254.814 1141.43 252.403 1142.5 251.052C1143.57 249.7 1145.14 249.919 1146.02 251.54Z" fill="url(#paint55_linear_136_2)"/>
<path opacity="0.1" d="M1148.24 258.036C1148 258.691 1147.68 259.292 1147.27 259.81C1145.2 262.427 1142.21 261.332 1140.6 257.365C1139.58 254.834 1139.15 252.005 1139.35 249.815C1139.6 252.028 1140.25 255.36 1142.05 256.259C1142.31 256.386 1142.58 256.464 1142.88 256.484C1143.9 256.551 1144.87 256.653 1145.73 256.834C1146.83 257.067 1147.73 257.434 1148.24 258.036Z" fill="url(#paint56_linear_136_2)"/>
<path d="M1189.24 460.66C1185.81 462.042 1181.82 462.878 1176.45 462.904V463.203H1175.17V462.904C1144.47 462.787 1146.97 433.209 1146.97 433.209C1147.29 435.897 1149.9 437.656 1153.45 438.798C1160.51 441.073 1171.33 440.913 1175.17 440.766V440.699C1175.17 440.699 1175.34 440.715 1175.81 440.738C1176.27 440.715 1176.45 440.699 1176.45 440.699V440.766C1182.33 440.985 1203.72 441.24 1204.66 433.21C1204.66 433.21 1206.43 453.747 1189.24 460.66Z" fill="url(#paint57_linear_136_2)"/>
<path opacity="0.6" d="M1189.24 460.66C1185.81 462.042 1181.82 462.878 1176.45 462.904V463.203H1175.17V462.904C1144.47 462.787 1146.97 433.209 1146.97 433.209C1147.29 435.897 1149.9 437.656 1153.45 438.798C1155.07 440.905 1156.54 443.523 1157.64 446.772C1162.26 460.515 1180.85 443.185 1187.6 457.341C1188.18 458.568 1188.7 459.671 1189.24 460.66Z" fill="url(#paint58_linear_136_2)"/>
<path d="M1175.8 442.636C1191.83 442.636 1204.83 438.763 1204.83 433.985C1204.83 429.207 1191.83 425.334 1175.8 425.334C1159.76 425.334 1146.76 429.207 1146.76 433.985C1146.76 438.763 1159.76 442.636 1175.8 442.636Z" fill="url(#paint59_linear_136_2)"/>
<path opacity="0.9" d="M1176.32 441.086C1192.04 441.086 1204.78 437.535 1204.78 433.154C1204.78 428.773 1192.04 425.221 1176.32 425.221C1160.6 425.221 1147.85 428.773 1147.85 433.154C1147.85 437.535 1160.6 441.086 1176.32 441.086Z" fill="url(#paint60_linear_136_2)"/>
<path d="M1182.51 442.357C1181.66 441.539 1182.26 437.012 1183.92 433.69C1186.28 428.982 1190.88 426.491 1191.97 425.939C1193.15 425.339 1194.2 424.999 1195.1 423.534C1196.41 421.421 1196.44 418.538 1196.96 418.572C1197.35 418.598 1197.22 420.197 1197.98 420.828C1199.04 421.7 1200.45 419.596 1201.52 420.574C1201.98 420.997 1202.13 421.763 1202.14 421.844C1202.39 423.193 1201.49 424.147 1201.74 424.799C1202.03 425.516 1203.2 424.547 1204.18 425.296C1205.27 426.129 1205.88 428.899 1205.27 430.695C1204.55 432.869 1202.36 432.703 1202.23 434.29C1202.14 435.465 1203.31 435.931 1203.4 437.196C1203.53 439.108 1201.13 441.778 1198.5 442.668C1193.16 444.471 1189.94 437.933 1185.38 440.626C1183.89 441.504 1183.06 442.893 1182.51 442.357Z" fill="url(#paint61_linear_136_2)"/>
<path opacity="0.3" d="M1187.66 438.044C1190.04 437.599 1190.97 440.507 1194.67 441.034C1197.75 441.473 1201 440.014 1201.24 438.115C1201.4 436.881 1200.18 436.319 1200.26 434.703C1200.38 432.308 1203.16 431.543 1203.04 429.897C1202.94 428.435 1200.71 428.522 1200.15 426.287C1199.73 424.595 1200.7 423.266 1200.18 422.472C1199.56 421.503 1197.97 423.253 1196.7 422.372C1196.42 422.172 1196.18 421.866 1195.99 421.484C1195.78 422.169 1195.5 422.888 1195.1 423.533C1194.2 424.998 1193.15 425.338 1191.97 425.938C1190.88 426.489 1186.28 428.979 1183.92 433.689C1182.26 437.01 1181.66 441.538 1182.51 442.356C1182.84 442.67 1183.26 442.323 1183.85 441.805C1185.28 439.087 1186.62 438.24 1187.66 438.044Z" fill="url(#paint62_linear_136_2)"/>
<path d="M1182.34 445.109C1181.04 444.133 1177.7 441.288 1176.37 435.725C1174.19 426.652 1178.7 416.037 1181.87 415.764C1182.94 415.671 1183.83 416.761 1185.73 416.216C1187.03 415.842 1187.21 415.155 1188.51 414.985C1189.7 414.83 1191.49 415.144 1191.92 416.526C1192.23 417.485 1191.7 418.393 1192.05 418.866C1192.48 419.432 1193.36 418.292 1194.07 418.648C1195.11 419.169 1195.8 422.883 1195.07 425.652C1193.77 430.502 1188.98 429.126 1185.44 434.298C1183.23 437.524 1182.54 441.784 1182.34 445.109Z" fill="url(#paint63_linear_136_2)"/>
<path opacity="0.3" d="M1181.66 443.503C1181.66 443.503 1178.57 436.269 1180.06 428.833C1181.55 421.398 1183.05 422.404 1183.74 421.947C1184.44 421.489 1182.91 424.684 1182.16 427.14C1181.42 429.594 1179.7 431.784 1181.66 443.503Z" fill="url(#paint64_linear_136_2)"/>
<path opacity="0.3" d="M1194.07 418.648C1193.36 418.292 1192.48 419.432 1192.06 418.866C1191.7 418.392 1192.23 417.485 1191.93 416.526C1191.49 415.144 1189.7 414.83 1188.51 414.985C1187.21 415.155 1187.03 415.842 1185.73 416.216C1183.83 416.761 1182.94 415.671 1181.87 415.764C1178.76 416.032 1174.36 426.264 1176.26 435.222C1175.93 431.802 1176.02 427.698 1177.38 423.847C1177.65 423.079 1179.61 417.509 1181.91 417.714C1183.09 417.819 1183.42 419.372 1184.76 419.372C1186.68 419.373 1187.46 416.145 1188.68 416.598C1189.84 417.028 1189.57 420.104 1191.03 420.876C1192.06 421.426 1192.76 420.166 1193.62 420.538C1194.25 420.811 1194.87 421.929 1195.21 425.024C1195.7 422.353 1195.04 419.131 1194.07 418.648Z" fill="url(#paint65_linear_136_2)"/>
<path d="M1170.87 445.03C1171.72 444.212 1171.12 439.685 1169.46 436.363C1167.1 431.654 1162.5 429.164 1161.42 428.612C1160.23 428.012 1159.18 427.672 1158.28 426.207C1156.98 424.094 1156.94 421.211 1156.42 421.245C1156.03 421.271 1156.17 422.87 1155.4 423.5C1154.34 424.373 1152.93 422.269 1151.86 423.247C1151.4 423.67 1151.25 424.436 1151.24 424.517C1150.99 425.866 1151.9 426.82 1151.64 427.471C1151.35 428.189 1150.18 427.22 1149.2 427.969C1148.11 428.802 1147.51 431.572 1148.11 433.368C1148.84 435.542 1151.02 435.375 1151.15 436.963C1151.24 438.138 1150.08 438.604 1149.99 439.869C1149.85 441.781 1152.25 444.45 1154.88 445.341C1160.22 447.143 1163.44 440.605 1168 443.298C1169.49 444.177 1170.32 445.565 1170.87 445.03Z" fill="url(#paint66_linear_136_2)"/>
<path d="M1165.72 440.717C1163.34 440.272 1162.41 443.18 1158.71 443.708C1155.63 444.146 1152.39 442.687 1152.14 440.788C1151.99 439.554 1153.21 438.993 1153.12 437.376C1153 434.981 1150.23 434.216 1150.34 432.57C1150.44 431.108 1152.68 431.195 1153.23 428.961C1153.65 427.268 1152.69 425.939 1153.2 425.145C1153.82 424.175 1155.41 425.926 1156.68 425.045C1156.97 424.845 1157.2 424.539 1157.39 424.157C1157.6 424.842 1157.88 425.561 1158.28 426.206C1159.18 427.671 1160.23 428.011 1161.42 428.611C1162.5 429.162 1167.1 431.652 1169.46 436.362C1171.12 439.684 1171.72 444.211 1170.87 445.029C1170.55 445.343 1170.13 444.996 1169.54 444.478C1168.1 441.76 1166.76 440.913 1165.72 440.717Z" fill="url(#paint67_linear_136_2)"/>
<path d="M1171.04 447.783C1172.35 446.807 1175.68 443.962 1177.01 438.399C1179.19 429.326 1174.69 418.711 1171.52 418.438C1170.45 418.345 1169.55 419.435 1167.66 418.89C1166.35 418.516 1166.18 417.829 1164.87 417.659C1163.68 417.504 1161.89 417.818 1161.46 419.2C1161.16 420.159 1161.69 421.067 1161.33 421.54C1160.9 422.106 1160.03 420.966 1159.31 421.322C1158.27 421.843 1157.58 425.557 1158.32 428.326C1159.61 433.176 1164.41 431.8 1167.95 436.972C1170.15 440.197 1170.84 444.457 1171.04 447.783Z" fill="url(#paint68_linear_136_2)"/>
<path d="M1171.72 446.176C1171.72 446.176 1174.81 438.942 1173.32 431.506C1171.83 424.071 1170.34 425.077 1169.64 424.62C1168.94 424.162 1170.48 427.357 1171.22 429.813C1171.96 432.267 1173.68 434.457 1171.72 446.176Z" fill="url(#paint69_linear_136_2)"/>
<path opacity="0.3" d="M1159.31 421.322C1160.02 420.966 1160.9 422.106 1161.33 421.54C1161.69 421.066 1161.16 420.159 1161.46 419.2C1161.89 417.818 1163.68 417.504 1164.87 417.659C1166.17 417.829 1166.35 418.516 1167.65 418.89C1169.55 419.435 1170.45 418.345 1171.52 418.438C1174.63 418.706 1179.02 428.938 1177.13 437.896C1177.45 434.476 1177.37 430.372 1176.01 426.521C1175.74 425.753 1173.77 420.183 1171.47 420.388C1170.29 420.493 1169.97 422.046 1168.63 422.046C1166.7 422.047 1165.92 418.819 1164.7 419.272C1163.55 419.702 1163.81 422.777 1162.36 423.55C1161.32 424.1 1160.62 422.84 1159.76 423.212C1159.13 423.485 1158.51 424.602 1158.18 427.698C1157.68 425.026 1158.34 421.804 1159.31 421.322Z" fill="url(#paint70_linear_136_2)"/>
<path d="M1193.15 417.33C1196.57 421.688 1196.72 429.398 1193.48 434.552C1190.25 439.706 1184.85 440.35 1181.42 435.993L1193.15 417.33Z" fill="url(#paint71_linear_136_2)"/>
<path opacity="0.5" d="M1193.15 417.33C1196.17 421.18 1196 428.477 1192.76 433.631C1189.52 438.785 1184.45 439.842 1181.42 435.992L1193.15 417.33Z" fill="url(#paint72_linear_136_2)"/>
<path d="M1192.45 418.443C1195.03 421.731 1194.95 428.223 1192.11 432.745C1189.27 437.266 1184.74 438.105 1182.16 434.817L1192.45 418.443Z" fill="url(#paint73_linear_136_2)"/>
<path d="M1188.6 425.342L1187.74 426.713L1191.7 431.754C1192.63 430.174 1193.16 428.495 1193.42 426.823L1188.6 425.342Z" fill="url(#paint74_linear_136_2)"/>
<path d="M1188.06 435.203C1189.2 434.687 1190.31 433.801 1191.33 432.325L1187.38 427.29L1186.52 428.657L1188.06 435.203Z" fill="url(#paint75_linear_136_2)"/>
<path d="M1185.99 429.493L1183.08 434.131C1184.16 435.508 1185.75 435.947 1187.36 435.463L1185.99 429.493Z" fill="url(#paint76_linear_136_2)"/>
<path d="M1189.12 424.507L1193.54 425.802C1193.74 423.396 1193.36 421.243 1192.15 419.695L1189.12 424.507Z" fill="url(#paint77_linear_136_2)"/>
<g opacity="0.2">
<path opacity="0.2" d="M1188.6 425.342L1187.74 426.713L1191.7 431.754C1192.63 430.174 1193.16 428.495 1193.42 426.823L1188.6 425.342Z" fill="url(#paint78_linear_136_2)"/>
<path opacity="0.2" d="M1188.06 435.203C1189.2 434.687 1190.31 433.801 1191.33 432.325L1187.38 427.29L1186.52 428.657L1188.06 435.203Z" fill="url(#paint79_linear_136_2)"/>
<path opacity="0.2" d="M1185.99 429.493L1183.08 434.131C1184.16 435.508 1185.75 435.947 1187.36 435.463L1185.99 429.493Z" fill="url(#paint80_linear_136_2)"/>
<path opacity="0.2" d="M1189.12 424.507L1193.54 425.802C1193.74 423.396 1193.36 421.243 1192.15 419.695L1189.12 424.507Z" fill="url(#paint81_linear_136_2)"/>
</g>
<path d="M1173.89 433.897C1171.35 439.341 1166.01 440.653 1161.96 436.826C1157.92 432.999 1156.7 425.484 1159.24 420.04L1173.89 433.897Z" fill="url(#paint82_linear_136_2)"/>
<path opacity="0.5" d="M1173.89 433.897C1171.64 438.706 1166.54 439.502 1162.5 435.676C1158.45 431.851 1156.99 424.85 1159.24 420.04L1173.89 433.897Z" fill="url(#paint83_linear_136_2)"/>
<path d="M1173.01 433.07C1171.1 437.178 1166.57 437.989 1163.02 434.631C1159.47 431.274 1158.25 425.02 1160.16 420.913L1173.01 433.07Z" fill="url(#paint84_linear_136_2)"/>
<path d="M1167.67 428.633L1166.59 427.615L1163.65 433.915C1164.88 435.008 1166.13 435.51 1167.33 435.635L1167.67 428.633Z" fill="url(#paint85_linear_136_2)"/>
<path d="M1160.74 429.28C1161.26 430.812 1162.03 432.254 1163.2 433.478L1166.14 427.187L1165.07 426.172L1160.74 429.28Z" fill="url(#paint86_linear_136_2)"/>
<path d="M1164.41 425.552L1160.77 422.108C1159.97 423.829 1159.89 426.13 1160.45 428.327L1164.41 425.552Z" fill="url(#paint87_linear_136_2)"/>
<path d="M1168.32 429.253L1168.05 435.658C1169.75 435.598 1171.2 434.763 1172.1 432.827L1168.32 429.253Z" fill="url(#paint88_linear_136_2)"/>
<g opacity="0.2">
<path opacity="0.2" d="M1167.67 428.633L1166.59 427.615L1163.65 433.915C1164.88 435.008 1166.13 435.51 1167.33 435.635L1167.67 428.633Z" fill="url(#paint89_linear_136_2)"/>
<path opacity="0.2" d="M1160.74 429.28C1161.26 430.812 1162.03 432.254 1163.2 433.478L1166.14 427.187L1165.07 426.172L1160.74 429.28Z" fill="url(#paint90_linear_136_2)"/>
<path opacity="0.2" d="M1164.41 425.552L1160.77 422.108C1159.97 423.829 1159.89 426.13 1160.45 428.327L1164.41 425.552Z" fill="url(#paint91_linear_136_2)"/>
<path opacity="0.2" d="M1168.32 429.253L1168.05 435.658C1169.75 435.598 1171.2 434.763 1172.1 432.827L1168.32 429.253Z" fill="url(#paint92_linear_136_2)"/>
</g>
<path d="M1187.66 448.871C1188.51 448.053 1187.91 443.525 1186.25 440.204C1183.89 435.495 1179.29 433.005 1178.21 432.453C1177.02 431.853 1175.97 431.512 1175.07 430.048C1173.77 427.935 1173.73 425.052 1173.21 425.086C1172.82 425.111 1172.96 426.711 1172.19 427.341C1171.13 428.213 1169.72 426.11 1168.65 427.088C1168.19 427.511 1168.04 428.277 1168.03 428.357C1167.78 429.707 1168.69 430.66 1168.43 431.312C1168.14 432.03 1166.97 431.061 1165.99 431.809C1164.9 432.642 1164.3 435.413 1164.9 437.209C1165.62 439.383 1167.81 439.216 1167.94 440.804C1168.03 441.979 1166.87 442.444 1166.77 443.71C1166.64 445.622 1169.04 448.291 1171.67 449.181C1177.01 450.984 1180.23 444.446 1184.79 447.139C1186.28 448.018 1187.11 449.407 1187.66 448.871Z" fill="url(#paint93_linear_136_2)"/>
<path d="M1182.51 444.558C1180.13 444.112 1179.2 447.021 1175.5 447.548C1172.42 447.987 1169.17 446.528 1168.93 444.629C1168.77 443.395 1169.99 442.833 1169.91 441.217C1169.79 438.822 1167.01 438.057 1167.13 436.411C1167.23 434.948 1169.46 435.035 1170.02 432.801C1170.44 431.109 1169.47 429.78 1169.99 428.986C1170.61 428.016 1172.2 429.767 1173.47 428.885C1173.76 428.687 1173.99 428.38 1174.18 427.998C1174.39 428.683 1174.67 429.401 1175.07 430.047C1175.97 431.511 1177.02 431.852 1178.2 432.451C1179.29 433.003 1183.89 435.493 1186.25 440.203C1187.91 443.524 1188.51 448.052 1187.66 448.87C1187.34 449.184 1186.92 448.837 1186.33 448.319C1184.89 445.6 1183.55 444.754 1182.51 444.558Z" fill="url(#paint94_linear_136_2)"/>
<path d="M1180.43 442.8C1180.07 443.733 1179.57 444.59 1178.94 445.328C1175.76 449.059 1171.18 447.499 1168.71 441.843C1167.14 438.235 1166.48 434.203 1166.79 431.08C1166.97 429.308 1167.45 427.829 1168.26 426.887C1170.48 424.283 1175.05 425.845 1178.48 430.372C1181.23 434.004 1181.91 439.027 1180.43 442.8Z" fill="url(#paint95_linear_136_2)"/>
<path d="M1177.02 433.539C1178.36 435.85 1178.11 439.287 1176.47 441.214C1174.83 443.141 1172.41 442.829 1171.07 440.518C1169.73 438.206 1169.98 434.769 1171.62 432.843C1173.26 430.916 1175.68 431.227 1177.02 433.539Z" fill="url(#paint96_linear_136_2)"/>
<path opacity="0.1" d="M1180.43 442.799C1180.07 443.733 1179.57 444.589 1178.94 445.328C1175.76 449.058 1171.18 447.498 1168.71 441.842C1167.14 438.235 1166.48 434.202 1166.79 431.08C1167.16 434.234 1168.18 438.984 1170.94 440.266C1171.32 440.446 1171.75 440.558 1172.21 440.587C1173.76 440.683 1175.26 440.827 1176.57 441.086C1178.27 441.418 1179.64 441.941 1180.43 442.799Z" fill="url(#paint97_linear_136_2)"/>
</g>
</g>
<defs>
<linearGradient id="paint0_linear_136_2" x1="1353.51" y1="698.386" x2="1353.51" y2="471.999" gradientUnits="userSpaceOnUse">
<stop stop-color="#C5CFFF"/>
<stop offset="0.248" stop-color="#D3DCFF"/>
<stop offset="0.5471" stop-color="#DCE4FF"/>
<stop offset="1" stop-color="#DFE6FF"/>
</linearGradient>
<linearGradient id="paint1_linear_136_2" x1="210.08" y1="706.149" x2="210.08" y2="533.001" gradientUnits="userSpaceOnUse">
<stop stop-color="#C5CFFF"/>
<stop offset="0.248" stop-color="#D3DCFF"/>
<stop offset="0.5471" stop-color="#DCE4FF"/>
<stop offset="1" stop-color="#DFE6FF"/>
</linearGradient>
<linearGradient id="paint2_linear_136_2" x1="881" y1="-187" x2="881" y2="217.998" gradientUnits="userSpaceOnUse">
<stop stop-color="#6615B2"/>
<stop offset="0.2956" stop-color="#8D28C3"/>
<stop offset="0.5849" stop-color="#AC37D0"/>
<stop offset="0.8295" stop-color="#BF40D8"/>
<stop offset="1" stop-color="#C643DB"/>
</linearGradient>
<linearGradient id="paint3_linear_136_2" x1="358" y1="181" x2="358" y2="-68" gradientUnits="userSpaceOnUse">
<stop stop-color="#F9795A"/>
<stop offset="1" stop-color="#EB3668"/>
</linearGradient>
<linearGradient id="paint4_linear_136_2" x1="1173.38" y1="605.632" x2="1195.43" y2="605.632" gradientUnits="userSpaceOnUse">
<stop stop-color="#F9795A"/>
<stop offset="1" stop-color="#FFEFE9"/>
</linearGradient>
<linearGradient id="paint5_linear_136_2" x1="1169.79" y1="295.065" x2="1206.25" y2="295.065" gradientUnits="userSpaceOnUse">
<stop offset="0.00359712" stop-color="#EBEFF2"/>
<stop offset="1" stop-color="white"/>
</linearGradient>
<linearGradient id="paint6_linear_136_2" x1="1176.06" y1="280.739" x2="1192.21" y2="292.702" gradientUnits="userSpaceOnUse">
<stop offset="0.00359712" stop-color="#E38DDD"/>
<stop offset="1" stop-color="#9571F6"/>
</linearGradient>
<linearGradient id="paint7_linear_136_2" x1="1182.53" y1="292.879" x2="1175.87" y2="291.929" gradientUnits="userSpaceOnUse">
<stop offset="0.00359712" stop-color="#E38DDD"/>
<stop offset="1" stop-color="#9571F6"/>
</linearGradient>
<linearGradient id="paint8_linear_136_2" x1="1184.16" y1="290.58" x2="1177.89" y2="289.686" gradientUnits="userSpaceOnUse">
<stop offset="0.00359712" stop-color="#E38DDD"/>
<stop offset="1" stop-color="#9571F6"/>
</linearGradient>
<linearGradient id="paint9_linear_136_2" x1="1182.66" y1="291.563" x2="1180.12" y2="286.958" gradientUnits="userSpaceOnUse">
<stop offset="0.00359712" stop-color="#E38DDD"/>
<stop offset="1" stop-color="#9571F6"/>
</linearGradient>
<linearGradient id="paint10_linear_136_2" x1="1180.57" y1="280.743" x2="1184.06" y2="286.781" gradientUnits="userSpaceOnUse">
<stop offset="0.00359712" stop-color="#E38DDD"/>
<stop offset="1" stop-color="#9571F6"/>
</linearGradient>
<linearGradient id="paint11_linear_136_2" x1="1189.83" y1="278.787" x2="1176.99" y2="291.727" gradientUnits="userSpaceOnUse">
<stop stop-color="#AB316D"/>
<stop offset="1" stop-color="#792D3D"/>
</linearGradient>
<linearGradient id="paint12_linear_136_2" x1="1187" y1="291.249" x2="1173.86" y2="304.495" gradientUnits="userSpaceOnUse">
<stop stop-color="#AB316D"/>
<stop offset="1" stop-color="#792D3D"/>
</linearGradient>
<linearGradient id="paint13_linear_136_2" x1="1182.88" y1="292.4" x2="1178.02" y2="297.295" gradientUnits="userSpaceOnUse">
<stop stop-color="#AB316D"/>
<stop offset="1" stop-color="#792D3D"/>
</linearGradient>
<linearGradient id="paint14_linear_136_2" x1="1185.26" y1="292.086" x2="1180.4" y2="296.981" gradientUnits="userSpaceOnUse">
<stop stop-color="#AB316D"/>
<stop offset="1" stop-color="#792D3D"/>
</linearGradient>
<linearGradient id="paint15_linear_136_2" x1="1187.64" y1="291.771" x2="1182.78" y2="296.666" gradientUnits="userSpaceOnUse">
<stop stop-color="#AB316D"/>
<stop offset="1" stop-color="#792D3D"/>
</linearGradient>
<linearGradient id="paint16_linear_136_2" x1="1190.02" y1="291.457" x2="1185.16" y2="296.352" gradientUnits="userSpaceOnUse">
<stop stop-color="#AB316D"/>
<stop offset="1" stop-color="#792D3D"/>
</linearGradient>
<linearGradient id="paint17_linear_136_2" x1="1126.41" y1="261.829" x2="1164.06" y2="261.829" gradientUnits="userSpaceOnUse">
<stop offset="0.00359712" stop-color="#EBEFF2"/>
<stop offset="1" stop-color="white"/>
</linearGradient>
<radialGradient id="paint18_radial_136_2" cx="0" cy="0" r="1" gradientUnits="userSpaceOnUse" gradientTransform="translate(1138.69 239.408) rotate(60.1111) scale(31.1621 21.0836)">
<stop offset="0.145833" stop-color="#252527"/>
<stop offset="1" stop-color="#EBEFF2"/>
</radialGradient>
<linearGradient id="paint19_linear_136_2" x1="1143.94" y1="226.995" x2="1147.94" y2="252.483" gradientUnits="userSpaceOnUse">
<stop stop-color="white"/>
<stop offset="0.9964" stop-color="#EBEFF2"/>
</linearGradient>
<linearGradient id="paint20_linear_136_2" x1="1163.49" y1="236.2" x2="1137.61" y2="264.298" gradientUnits="userSpaceOnUse">
<stop offset="0.00359712" stop-color="#E38DDD"/>
<stop offset="1" stop-color="#9571F6"/>
</linearGradient>
<linearGradient id="paint21_linear_136_2" x1="1148.9" y1="254.874" x2="1163.58" y2="251.807" gradientUnits="userSpaceOnUse">
<stop offset="0.00359712" stop-color="#E38DDD"/>
<stop offset="1" stop-color="#9571F6"/>
</linearGradient>
<linearGradient id="paint22_linear_136_2" x1="1145.23" y1="251.338" x2="1159.05" y2="248.45" gradientUnits="userSpaceOnUse">
<stop offset="0.00359712" stop-color="#E38DDD"/>
<stop offset="1" stop-color="#9571F6"/>
</linearGradient>
<linearGradient id="paint23_linear_136_2" x1="1148.6" y1="252.85" x2="1151.65" y2="244.758" gradientUnits="userSpaceOnUse">
<stop offset="0.00359712" stop-color="#E38DDD"/>
<stop offset="1" stop-color="#9571F6"/>
</linearGradient>
<linearGradient id="paint24_linear_136_2" x1="1153.31" y1="236.206" x2="1149.08" y2="246.93" gradientUnits="userSpaceOnUse">
<stop offset="0.00359712" stop-color="#E38DDD"/>
<stop offset="1" stop-color="#9571F6"/>
</linearGradient>
<linearGradient id="paint25_linear_136_2" x1="1128.11" y1="238.075" x2="1154" y2="266.173" gradientUnits="userSpaceOnUse">
<stop offset="0.00359712" stop-color="#E38DDD"/>
<stop offset="1" stop-color="#9571F6"/>
</linearGradient>
<linearGradient id="paint26_linear_136_2" x1="1142.71" y1="256.749" x2="1128.03" y2="253.682" gradientUnits="userSpaceOnUse">
<stop offset="0.00359712" stop-color="#E38DDD"/>
<stop offset="1" stop-color="#9571F6"/>
</linearGradient>
<linearGradient id="paint27_linear_136_2" x1="1146.38" y1="253.213" x2="1132.56" y2="250.325" gradientUnits="userSpaceOnUse">
<stop offset="0.00359712" stop-color="#E38DDD"/>
<stop offset="1" stop-color="#9571F6"/>
</linearGradient>
<linearGradient id="paint28_linear_136_2" x1="1143" y1="254.725" x2="1139.96" y2="246.633" gradientUnits="userSpaceOnUse">
<stop offset="0.00359712" stop-color="#E38DDD"/>
<stop offset="1" stop-color="#9571F6"/>
</linearGradient>
<linearGradient id="paint29_linear_136_2" x1="1138.29" y1="238.081" x2="1142.52" y2="248.805" gradientUnits="userSpaceOnUse">
<stop offset="0.00359712" stop-color="#E38DDD"/>
<stop offset="1" stop-color="#9571F6"/>
</linearGradient>
<linearGradient id="paint30_linear_136_2" x1="1158.56" y1="244.733" x2="1147.28" y2="249.06" gradientUnits="userSpaceOnUse">
<stop stop-color="#FF9085"/>
<stop offset="1" stop-color="#FB6FBB"/>
</linearGradient>
<linearGradient id="paint31_linear_136_2" x1="1158.37" y1="244.4" x2="1147.14" y2="248.706" gradientUnits="userSpaceOnUse">
<stop stop-color="#FF9085"/>
<stop offset="1" stop-color="#FB6FBB"/>
</linearGradient>
<linearGradient id="paint32_linear_136_2" x1="1157.68" y1="244.662" x2="1147.84" y2="248.438" gradientUnits="userSpaceOnUse">
<stop offset="0.00359712" stop-color="#EBEFF2"/>
<stop offset="1" stop-color="white"/>
</linearGradient>
<linearGradient id="paint33_linear_136_2" x1="1156.5" y1="246.302" x2="1153.3" y2="247.53" gradientUnits="userSpaceOnUse">
<stop stop-color="#FF9085"/>
<stop offset="1" stop-color="#FB6FBB"/>
</linearGradient>
<linearGradient id="paint34_linear_136_2" x1="1154.56" y1="248.636" x2="1152.02" y2="249.607" gradientUnits="userSpaceOnUse">
<stop stop-color="#FF9085"/>
<stop offset="1" stop-color="#FB6FBB"/>
</linearGradient>
<linearGradient id="paint35_linear_136_2" x1="1152.58" y1="250.556" x2="1149.83" y2="251.608" gradientUnits="userSpaceOnUse">
<stop stop-color="#FF9085"/>
<stop offset="1" stop-color="#FB6FBB"/>
</linearGradient>
<linearGradient id="paint36_linear_136_2" x1="1156.72" y1="243.621" x2="1153.74" y2="244.764" gradientUnits="userSpaceOnUse">
<stop stop-color="#FF9085"/>
<stop offset="1" stop-color="#FB6FBB"/>
</linearGradient>
<linearGradient id="paint37_linear_136_2" x1="1156.5" y1="246.302" x2="1153.3" y2="247.53" gradientUnits="userSpaceOnUse">
<stop stop-color="#FF9085"/>
<stop offset="1" stop-color="#FB6FBB"/>
</linearGradient>
<linearGradient id="paint38_linear_136_2" x1="1154.56" y1="248.636" x2="1152.02" y2="249.607" gradientUnits="userSpaceOnUse">
<stop stop-color="#FF9085"/>
<stop offset="1" stop-color="#FB6FBB"/>
</linearGradient>
<linearGradient id="paint39_linear_136_2" x1="1152.58" y1="250.556" x2="1149.83" y2="251.608" gradientUnits="userSpaceOnUse">
<stop stop-color="#FF9085"/>
<stop offset="1" stop-color="#FB6FBB"/>
</linearGradient>
<linearGradient id="paint40_linear_136_2" x1="1156.72" y1="243.621" x2="1153.74" y2="244.764" gradientUnits="userSpaceOnUse">
<stop stop-color="#FF9085"/>
<stop offset="1" stop-color="#FB6FBB"/>
</linearGradient>
<linearGradient id="paint41_linear_136_2" x1="1141.32" y1="255.529" x2="1130.59" y2="246.773" gradientUnits="userSpaceOnUse">
<stop stop-color="#FF9085"/>
<stop offset="1" stop-color="#FB6FBB"/>
</linearGradient>
<linearGradient id="paint42_linear_136_2" x1="1141.51" y1="255.195" x2="1130.83" y2="246.48" gradientUnits="userSpaceOnUse">
<stop stop-color="#FF9085"/>
<stop offset="1" stop-color="#FB6FBB"/>
</linearGradient>
<linearGradient id="paint43_linear_136_2" x1="1141.24" y1="254.187" x2="1131.88" y2="246.546" gradientUnits="userSpaceOnUse">
<stop offset="0.00359712" stop-color="#EBEFF2"/>
<stop offset="1" stop-color="white"/>
</linearGradient>
<linearGradient id="paint44_linear_136_2" x1="1140.01" y1="252.629" x2="1136.97" y2="250.145" gradientUnits="userSpaceOnUse">
<stop stop-color="#FF9085"/>
<stop offset="1" stop-color="#FB6FBB"/>
</linearGradient>
<linearGradient id="paint45_linear_136_2" x1="1138.23" y1="250.011" x2="1135.82" y2="248.046" gradientUnits="userSpaceOnUse">
<stop stop-color="#FF9085"/>
<stop offset="1" stop-color="#FB6FBB"/>
</linearGradient>
<linearGradient id="paint46_linear_136_2" x1="1136.7" y1="247.28" x2="1134.1" y2="245.152" gradientUnits="userSpaceOnUse">
<stop stop-color="#FF9085"/>
<stop offset="1" stop-color="#FB6FBB"/>
</linearGradient>
<linearGradient id="paint47_linear_136_2" x1="1141.78" y1="252.573" x2="1138.94" y2="250.26" gradientUnits="userSpaceOnUse">
<stop stop-color="#FF9085"/>
<stop offset="1" stop-color="#FB6FBB"/>
</linearGradient>
<linearGradient id="paint48_linear_136_2" x1="1140.01" y1="252.629" x2="1136.97" y2="250.145" gradientUnits="userSpaceOnUse">
<stop stop-color="#FF9085"/>
<stop offset="1" stop-color="#FB6FBB"/>
</linearGradient>
<linearGradient id="paint49_linear_136_2" x1="1138.23" y1="250.011" x2="1135.82" y2="248.046" gradientUnits="userSpaceOnUse">
<stop stop-color="#FF9085"/>
<stop offset="1" stop-color="#FB6FBB"/>
</linearGradient>
<linearGradient id="paint50_linear_136_2" x1="1136.7" y1="247.28" x2="1134.1" y2="245.152" gradientUnits="userSpaceOnUse">
<stop stop-color="#FF9085"/>
<stop offset="1" stop-color="#FB6FBB"/>
</linearGradient>
<linearGradient id="paint51_linear_136_2" x1="1141.78" y1="252.573" x2="1138.94" y2="250.26" gradientUnits="userSpaceOnUse">
<stop stop-color="#FF9085"/>
<stop offset="1" stop-color="#FB6FBB"/>
</linearGradient>
<linearGradient id="paint52_linear_136_2" x1="1139.05" y1="240.769" x2="1164.94" y2="268.868" gradientUnits="userSpaceOnUse">
<stop offset="0.00359712" stop-color="#E38DDD"/>
<stop offset="1" stop-color="#9571F6"/>
</linearGradient>
<linearGradient id="paint53_linear_136_2" x1="1153.65" y1="259.443" x2="1138.97" y2="256.377" gradientUnits="userSpaceOnUse">
<stop offset="0.00359712" stop-color="#E38DDD"/>
<stop offset="1" stop-color="#9571F6"/>
</linearGradient>
<linearGradient id="paint54_linear_136_2" x1="1148.79" y1="255.323" x2="1138.78" y2="253.951" gradientUnits="userSpaceOnUse">
<stop offset="0.00359712" stop-color="#EBEFF2"/>
<stop offset="1" stop-color="white"/>
</linearGradient>
<linearGradient id="paint55_linear_136_2" x1="1146.52" y1="254.773" x2="1141.52" y2="254.088" gradientUnits="userSpaceOnUse">
<stop stop-color="#FFC444"/>
<stop offset="0.9964" stop-color="#F36F56"/>
</linearGradient>
<linearGradient id="paint56_linear_136_2" x1="1148.3" y1="257.605" x2="1138.47" y2="256.259" gradientUnits="userSpaceOnUse">
<stop stop-color="#FFC444"/>
<stop offset="0.9964" stop-color="#F36F56"/>
</linearGradient>
<linearGradient id="paint57_linear_136_2" x1="1146.93" y1="448.207" x2="1204.71" y2="448.207" gradientUnits="userSpaceOnUse">
<stop offset="0.00359712" stop-color="#EBEFF2"/>
<stop offset="1" stop-color="white"/>
</linearGradient>
<linearGradient id="paint58_linear_136_2" x1="1163.22" y1="380.821" x2="1173.45" y2="450.918" gradientUnits="userSpaceOnUse">
<stop stop-color="white"/>
<stop offset="0.9964" stop-color="#EBEFF2"/>
</linearGradient>
<linearGradient id="paint59_linear_136_2" x1="1173.12" y1="396.758" x2="1178.84" y2="435.975" gradientUnits="userSpaceOnUse">
<stop offset="0.00359712" stop-color="#EBEFF2"/>
<stop offset="1" stop-color="white"/>
</linearGradient>
<linearGradient id="paint60_linear_136_2" x1="1173.82" y1="398.549" x2="1179.15" y2="435.003" gradientUnits="userSpaceOnUse">
<stop stop-color="white"/>
<stop offset="0.9964" stop-color="#EBEFF2"/>
</linearGradient>
<linearGradient id="paint61_linear_136_2" x1="1203.84" y1="411.671" x2="1167.26" y2="454.414" gradientUnits="userSpaceOnUse">
<stop offset="0.00359712" stop-color="#E38DDD"/>
<stop offset="1" stop-color="#9571F6"/>
</linearGradient>
<linearGradient id="paint62_linear_136_2" x1="1181.44" y1="438.291" x2="1203.81" y2="433.259" gradientUnits="userSpaceOnUse">
<stop offset="0.00359712" stop-color="#E38DDD"/>
<stop offset="1" stop-color="#9571F6"/>
</linearGradient>
<linearGradient id="paint63_linear_136_2" x1="1175.81" y1="433.251" x2="1196.88" y2="428.512" gradientUnits="userSpaceOnUse">
<stop offset="0.00359712" stop-color="#E38DDD"/>
<stop offset="1" stop-color="#9571F6"/>
</linearGradient>
<linearGradient id="paint64_linear_136_2" x1="1180.99" y1="435.406" x2="1185.09" y2="423.672" gradientUnits="userSpaceOnUse">
<stop offset="0.00359712" stop-color="#E38DDD"/>
<stop offset="1" stop-color="#9571F6"/>
</linearGradient>
<linearGradient id="paint65_linear_136_2" x1="1188.22" y1="411.68" x2="1182.51" y2="427.255" gradientUnits="userSpaceOnUse">
<stop offset="0.00359712" stop-color="#E38DDD"/>
<stop offset="1" stop-color="#9571F6"/>
</linearGradient>
<linearGradient id="paint66_linear_136_2" x1="1149.55" y1="414.344" x2="1186.12" y2="457.087" gradientUnits="userSpaceOnUse">
<stop offset="0.00359712" stop-color="#E38DDD"/>
<stop offset="1" stop-color="#9571F6"/>
</linearGradient>
<linearGradient id="paint67_linear_136_2" x1="1171.94" y1="440.964" x2="1149.57" y2="435.932" gradientUnits="userSpaceOnUse">
<stop offset="0.00359712" stop-color="#E38DDD"/>
<stop offset="1" stop-color="#9571F6"/>
</linearGradient>
<linearGradient id="paint68_linear_136_2" x1="1177.57" y1="435.924" x2="1156.5" y2="431.185" gradientUnits="userSpaceOnUse">
<stop offset="0.00359712" stop-color="#E38DDD"/>
<stop offset="1" stop-color="#9571F6"/>
</linearGradient>
<linearGradient id="paint69_linear_136_2" x1="1172.39" y1="438.079" x2="1168.29" y2="426.345" gradientUnits="userSpaceOnUse">
<stop offset="0.00359712" stop-color="#E38DDD"/>
<stop offset="1" stop-color="#9571F6"/>
</linearGradient>
<linearGradient id="paint70_linear_136_2" x1="1165.17" y1="414.352" x2="1170.88" y2="429.928" gradientUnits="userSpaceOnUse">
<stop offset="0.00359712" stop-color="#E38DDD"/>
<stop offset="1" stop-color="#9571F6"/>
</linearGradient>
<linearGradient id="paint71_linear_136_2" x1="1196.27" y1="423.836" x2="1179.3" y2="430.84" gradientUnits="userSpaceOnUse">
<stop stop-color="#FF9085"/>
<stop offset="1" stop-color="#FB6FBB"/>
</linearGradient>
<linearGradient id="paint72_linear_136_2" x1="1195.98" y1="423.361" x2="1179.09" y2="430.332" gradientUnits="userSpaceOnUse">
<stop stop-color="#FF9085"/>
<stop offset="1" stop-color="#FB6FBB"/>
</linearGradient>
<linearGradient id="paint73_linear_136_2" x1="1194.92" y1="423.734" x2="1180.11" y2="429.846" gradientUnits="userSpaceOnUse">
<stop offset="0.00359712" stop-color="#EBEFF2"/>
<stop offset="1" stop-color="white"/>
</linearGradient>
<linearGradient id="paint74_linear_136_2" x1="1193.11" y1="426.073" x2="1188.29" y2="428.06" gradientUnits="userSpaceOnUse">
<stop stop-color="#FF9085"/>
<stop offset="1" stop-color="#FB6FBB"/>
</linearGradient>
<linearGradient id="paint75_linear_136_2" x1="1190.12" y1="429.399" x2="1186.31" y2="430.971" gradientUnits="userSpaceOnUse">
<stop stop-color="#FF9085"/>
<stop offset="1" stop-color="#FB6FBB"/>
</linearGradient>
<linearGradient id="paint76_linear_136_2" x1="1187.08" y1="432.136" x2="1182.96" y2="433.839" gradientUnits="userSpaceOnUse">
<stop stop-color="#FF9085"/>
<stop offset="1" stop-color="#FB6FBB"/>
</linearGradient>
<linearGradient id="paint77_linear_136_2" x1="1193.44" y1="422.249" x2="1188.96" y2="424.1" gradientUnits="userSpaceOnUse">
<stop stop-color="#FF9085"/>
<stop offset="1" stop-color="#FB6FBB"/>
</linearGradient>
<linearGradient id="paint78_linear_136_2" x1="1193.11" y1="426.073" x2="1188.29" y2="428.06" gradientUnits="userSpaceOnUse">
<stop stop-color="#FF9085"/>
<stop offset="1" stop-color="#FB6FBB"/>
</linearGradient>
<linearGradient id="paint79_linear_136_2" x1="1190.12" y1="429.399" x2="1186.31" y2="430.971" gradientUnits="userSpaceOnUse">
<stop stop-color="#FF9085"/>
<stop offset="1" stop-color="#FB6FBB"/>
</linearGradient>
<linearGradient id="paint80_linear_136_2" x1="1187.08" y1="432.136" x2="1182.96" y2="433.839" gradientUnits="userSpaceOnUse">
<stop stop-color="#FF9085"/>
<stop offset="1" stop-color="#FB6FBB"/>
</linearGradient>
<linearGradient id="paint81_linear_136_2" x1="1193.44" y1="422.249" x2="1188.96" y2="424.1" gradientUnits="userSpaceOnUse">
<stop stop-color="#FF9085"/>
<stop offset="1" stop-color="#FB6FBB"/>
</linearGradient>
<linearGradient id="paint82_linear_136_2" x1="1169.81" y1="439.226" x2="1154.33" y2="425.625" gradientUnits="userSpaceOnUse">
<stop stop-color="#FF9085"/>
<stop offset="1" stop-color="#FB6FBB"/>
</linearGradient>
<linearGradient id="paint83_linear_136_2" x1="1170.1" y1="438.749" x2="1154.69" y2="425.213" gradientUnits="userSpaceOnUse">
<stop stop-color="#FF9085"/>
<stop offset="1" stop-color="#FB6FBB"/>
</linearGradient>
<linearGradient id="paint84_linear_136_2" x1="1169.69" y1="437.312" x2="1156.18" y2="425.444" gradientUnits="userSpaceOnUse">
<stop offset="0.00359712" stop-color="#EBEFF2"/>
<stop offset="1" stop-color="white"/>
</linearGradient>
<linearGradient id="paint85_linear_136_2" x1="1167.8" y1="435.092" x2="1163.41" y2="431.234" gradientUnits="userSpaceOnUse">
<stop stop-color="#FF9085"/>
<stop offset="1" stop-color="#FB6FBB"/>
</linearGradient>
<linearGradient id="paint86_linear_136_2" x1="1165.07" y1="431.359" x2="1161.59" y2="428.307" gradientUnits="userSpaceOnUse">
<stop stop-color="#FF9085"/>
<stop offset="1" stop-color="#FB6FBB"/>
</linearGradient>
<linearGradient id="paint87_linear_136_2" x1="1162.73" y1="427.467" x2="1158.97" y2="424.161" gradientUnits="userSpaceOnUse">
<stop stop-color="#FF9085"/>
<stop offset="1" stop-color="#FB6FBB"/>
</linearGradient>
<linearGradient id="paint88_linear_136_2" x1="1170.51" y1="435.012" x2="1166.42" y2="431.419" gradientUnits="userSpaceOnUse">
<stop stop-color="#FF9085"/>
<stop offset="1" stop-color="#FB6FBB"/>
</linearGradient>
<linearGradient id="paint89_linear_136_2" x1="1167.8" y1="435.092" x2="1163.41" y2="431.234" gradientUnits="userSpaceOnUse">
<stop stop-color="#FF9085"/>
<stop offset="1" stop-color="#FB6FBB"/>
</linearGradient>
<linearGradient id="paint90_linear_136_2" x1="1165.07" y1="431.359" x2="1161.59" y2="428.307" gradientUnits="userSpaceOnUse">
<stop stop-color="#FF9085"/>
<stop offset="1" stop-color="#FB6FBB"/>
</linearGradient>
<linearGradient id="paint91_linear_136_2" x1="1162.73" y1="427.467" x2="1158.97" y2="424.161" gradientUnits="userSpaceOnUse">
<stop stop-color="#FF9085"/>
<stop offset="1" stop-color="#FB6FBB"/>
</linearGradient>
<linearGradient id="paint92_linear_136_2" x1="1170.51" y1="435.012" x2="1166.42" y2="431.419" gradientUnits="userSpaceOnUse">
<stop stop-color="#FF9085"/>
<stop offset="1" stop-color="#FB6FBB"/>
</linearGradient>
<linearGradient id="paint93_linear_136_2" x1="1166.33" y1="418.185" x2="1202.91" y2="460.928" gradientUnits="userSpaceOnUse">
<stop offset="0.00359712" stop-color="#E38DDD"/>
<stop offset="1" stop-color="#9571F6"/>
</linearGradient>
<linearGradient id="paint94_linear_136_2" x1="1188.73" y1="444.805" x2="1166.36" y2="439.773" gradientUnits="userSpaceOnUse">
<stop offset="0.00359712" stop-color="#E38DDD"/>
<stop offset="1" stop-color="#9571F6"/>
</linearGradient>
<linearGradient id="paint95_linear_136_2" x1="1181.28" y1="438.932" x2="1165.95" y2="436.673" gradientUnits="userSpaceOnUse">
<stop offset="0.00359712" stop-color="#EBEFF2"/>
<stop offset="1" stop-color="white"/>
</linearGradient>
<linearGradient id="paint96_linear_136_2" x1="1177.79" y1="438.148" x2="1170.14" y2="437.019" gradientUnits="userSpaceOnUse">
<stop stop-color="#FFC444"/>
<stop offset="0.9964" stop-color="#F36F56"/>
</linearGradient>
<linearGradient id="paint97_linear_136_2" x1="1180.52" y1="442.185" x2="1165.48" y2="439.968" gradientUnits="userSpaceOnUse">
<stop stop-color="#FFC444"/>
<stop offset="0.9964" stop-color="#F36F56"/>
</linearGradient>
<clipPath id="clip0_136_2">
<rect width="1440" height="698" fill="white"/>
</clipPath>
<clipPath id="clip1_136_2">
<rect width="1440" height="848" fill="white" transform="translate(0 -14)"/>
</clipPath>
</defs>
</svg>
