<svg width="1440" height="834" viewBox="0 0 1440 834" fill="none" xmlns="http://www.w3.org/2000/svg">
<g clip-path="url(#clip0_136_2)">
<rect width="1440" height="834" fill="white"/>
<path d="M1440 -14H0V834H1440V-14Z" fill="white"/>
<path d="M1440 607.614C1440 607.614 1266.99 639.922 1266.99 834H1439.81L1440 607.614Z" fill="url(#paint0_linear_136_2)"/>
<path d="M0 660.851V834H420.16C420.16 834 367.128 660.851 0 660.851Z" fill="url(#paint1_linear_136_2)"/>
<path d="M1440 -14V312.603C1440 312.603 643.776 560.931 413.288 -14H1440Z" fill="url(#paint2_linear_136_2)"/>
<path d="M0 131.648C0 131.648 293.732 233.031 538 105.267C782.268 -22.497 936.36 -13.877 936.36 -13.877L0 -14V131.648Z" fill="url(#paint3_linear_136_2)"/>
<path d="M1232.68 770.177C1232.68 770.177 1217.56 746.245 1231.75 731.047C1231.75 731.047 1242.11 722.535 1250.57 723.228C1250.57 723.228 1238.59 750.465 1242.46 753.175C1246.34 755.884 1254.19 721.52 1254.19 721.52C1254.19 721.52 1277.78 718.42 1285.37 723.367C1285.37 723.367 1265.21 745.75 1269.45 747.082C1273.7 748.413 1295.48 726.445 1295.48 726.445C1295.48 726.445 1317.44 731.512 1316.27 749.675C1315.1 767.838 1307.53 773.448 1304.21 772.964C1300.88 772.48 1281.43 762.411 1281.01 766.104C1280.58 769.797 1292.29 781.875 1300.49 782.44C1300.49 782.44 1285.01 805.594 1274.72 798.912C1264.44 792.23 1263.56 781.639 1257.15 777.667C1250.73 773.696 1245.26 773.703 1247.91 777.756C1250.56 781.809 1262.16 785.746 1265.83 794.542C1269.5 803.341 1272.79 809.275 1262.14 807.099C1251.5 804.928 1234.2 794.363 1233.44 782.27C1232.68 770.177 1232.68 770.177 1232.68 770.177Z" fill="#1B2251"/>
<path d="M1305.48 750.163C1305.48 750.163 1245.85 747.047 1232.68 770.177C1232.68 770.177 1229.77 782.007 1220.81 792.78L1219.41 797.944C1219.41 797.944 1229.74 783.168 1233.44 782.274C1233.44 782.27 1227.66 753.616 1305.48 750.163Z" fill="#1B2251"/>
<path d="M1220.81 792.78C1220.81 792.78 1208.01 805.617 1207.12 828.557L1209.44 828.84C1209.44 828.84 1213.53 805.121 1220.92 795.846C1228.31 786.567 1220.81 792.78 1220.81 792.78Z" fill="#6615B2"/>
<path d="M1076.86 574.7C1076.86 574.7 1099.99 557.129 1089.2 533.283C1089.2 533.283 1080.56 518.643 1071.31 514.876C1071.31 514.876 1076.24 550.436 1071.31 551.272C1066.37 552.109 1067.91 511.109 1067.91 511.109C1067.91 511.109 1043.55 495.211 1033.98 496.469C1033.98 496.469 1049.09 531.193 1044.16 530.357C1039.22 529.521 1022.26 494.379 1022.26 494.379C1022.26 494.379 997.272 488.103 993.264 508.183C989.254 528.262 995.733 538.304 999.432 539.558C1003.13 540.813 1026.89 540.395 1026.27 544.579C1025.65 548.764 1009.61 555.457 1000.67 551.69C1000.67 551.69 1010.54 584.738 1023.49 583.066C1036.45 581.394 1040.46 570.516 1048.48 569.68C1056.5 568.843 1062.36 571.77 1058.35 574.7C1054.34 577.627 1040.77 575.66 1034.29 583.128C1027.81 590.595 1022.57 595.198 1034.6 598.546C1046.63 601.891 1068.22 599.801 1072.54 587.251C1076.86 574.7 1076.86 574.7 1076.86 574.7Z" fill="#242E6C"/>
<path d="M1004.68 514.458C1004.68 514.458 1069.45 542.907 1076.86 574.7C1076.86 574.7 1076.55 588.923 1083.03 605.24V611.515C1083.03 611.515 1076.24 590.177 1072.54 587.251C1072.54 587.251 1087.04 559.638 1004.68 514.458Z" fill="#1B2251"/>
<path d="M1083.03 605.24C1083.03 605.24 1093.02 625.815 1087.32 650.857L1084.75 649.92C1084.75 649.92 1087.25 622.334 1082.02 608.46C1076.79 594.59 1083.03 605.24 1083.03 605.24Z" fill="#6615B2"/>
<path d="M1218.08 714.881C1218.08 714.881 1186.36 690.795 1201.16 658.108C1201.16 658.108 1213 638.036 1225.69 632.876C1225.69 632.876 1218.92 681.621 1225.69 682.771C1232.45 683.92 1230.34 627.715 1230.34 627.715C1230.34 627.715 1263.74 605.925 1276.85 607.644C1276.85 607.644 1256.13 655.243 1262.9 654.097C1269.66 652.951 1292.92 604.779 1292.92 604.779C1292.92 604.779 1327.17 596.177 1332.67 623.705C1338.16 651.232 1329.28 664.994 1324.21 666.717C1319.13 668.436 1286.58 667.863 1287.42 673.6C1288.27 679.333 1310.25 688.511 1322.52 683.347C1322.52 683.347 1308.98 728.651 1291.23 726.359C1273.47 724.064 1267.97 709.156 1256.97 708.006C1245.98 706.86 1237.95 710.875 1243.44 714.889C1248.94 718.904 1267.54 716.205 1276.42 726.445C1285.3 736.684 1292.49 742.99 1276 747.581C1259.51 752.168 1229.91 749.3 1223.99 732.096C1218.08 714.881 1218.08 714.881 1218.08 714.881Z" fill="#242E6C"/>
<path d="M1317.03 632.299C1317.03 632.299 1228.23 671.296 1218.08 714.881C1218.08 714.881 1218.5 734.38 1209.62 756.744V765.345C1209.62 765.345 1218.92 736.099 1224 732.085C1224 732.085 1204.12 694.237 1317.03 632.299Z" fill="#1B2251"/>
<path d="M1209.62 756.748C1209.62 756.748 1195.93 784.953 1203.73 819.282L1207.25 817.997C1207.25 817.997 1203.83 780.184 1211 761.165C1218.17 742.146 1209.62 756.748 1209.62 756.748Z" fill="#6615B2"/>
<path d="M919.903 596.797C919.903 596.797 914.377 603.026 920.465 610.938C920.465 610.938 915.242 613.412 913.546 611.732C913.546 611.732 913.9 612.588 914.211 612.959C914.211 612.959 908.862 613.617 906.559 611.515C904.256 609.413 904.178 572.123 919.221 575.177C919.221 575.177 931.777 572.951 931.397 592.822C931.02 612.692 935.779 612.34 935.779 612.34C935.779 612.34 934.491 613.323 933.852 613.37C933.852 613.37 932.899 612.955 932.684 612.27C932.684 612.27 932.913 613.358 933.167 613.687C933.167 613.687 928.055 614.728 925.383 612.286C922.711 609.843 919.335 600.932 919.903 596.797Z" fill="#9B53C9"/>
<path d="M919.095 606.955C919.095 606.955 914.802 601.407 913.024 596.023C911.754 592.179 905.629 576.613 917.074 575.01C917.074 575.01 925.246 574.488 928.771 576.226C931.577 577.608 935.913 581.177 934.446 595.504L934.252 600.242L919.095 606.955Z" fill="#1B2251"/>
<path d="M906.028 717.526C905.537 701.182 904.481 686.963 903.217 677.045C901.201 661.24 899.386 652.146 899.366 652.05C899.101 650.66 895.264 645.035 886.739 645.209C878.21 645.383 879.021 652.758 879.021 652.758C879.021 653.006 879.044 653.238 879.081 653.412C879.163 653.792 886.99 692.286 886.65 741.987C886.645 742.684 886.587 743.892 886.625 744.693C886.625 744.697 906.385 745.386 906.391 744.693C907.078 740.35 906.744 728.314 906.028 717.526Z" fill="#F24B46"/>
<path d="M908.511 741.743C908.506 742.436 908.235 742.99 907.906 742.99H907.898C907.569 742.978 907.307 742.425 907.304 741.743H890.369C890.364 742.436 890.093 742.99 889.764 742.99H889.756C889.422 742.978 889.156 742.405 889.159 741.705C889.256 727.478 888.66 714.193 887.755 702.467C885.503 673.225 881.341 653.683 881.281 653.412C881.244 653.238 881.221 653.006 881.221 652.754C881.221 652.754 880.414 645.38 888.939 645.205C897.468 645.031 901.304 650.656 901.57 652.046C901.587 652.119 902.612 657.268 903.979 666.524C904.433 669.59 904.921 673.108 905.42 677.038C906.685 686.955 907.741 701.174 908.232 717.518C908.948 728.314 909.199 737.4 908.511 741.743Z" fill="#F9795A"/>
<path d="M887.909 742.99H954.306C954.306 742.99 952.759 734.504 914.308 735.766C887.096 736.66 887.909 742.99 887.909 742.99Z" fill="#FD8857"/>
<path d="M882.506 831.627C890.204 778.771 888.226 746.338 888.214 745.928C888.194 745.115 889.302 744.376 889.896 744.349C890.498 744.333 893.155 744.109 893.463 744.805C893.866 745.719 895.416 785.681 883.944 831.627H882.506V831.627Z" fill="#F9795A"/>
<path d="M944.499 831.627C936.8 778.771 938.778 746.338 938.79 745.928C938.81 745.115 937.702 744.376 937.109 744.349C936.506 744.333 933.849 744.109 933.541 744.805C933.138 745.719 931.588 785.681 943.06 831.627H944.499V831.627Z" fill="#F9795A"/>
<path d="M956.783 831.627C949.085 778.771 951.063 746.338 951.075 745.928C951.095 745.115 949.987 744.376 949.394 744.349C948.791 744.333 946.134 744.109 945.826 744.805C945.423 745.719 943.873 785.681 955.345 831.627H956.783V831.627Z" fill="#F9795A"/>
<path d="M894.873 831.627C902.572 778.771 900.594 746.338 900.582 745.928C900.562 745.115 901.67 744.376 902.263 744.349C902.866 744.333 905.523 744.109 905.831 744.805C906.234 745.719 907.784 785.681 896.312 831.627H894.873V831.627Z" fill="#F9795A"/>
<path d="M954.26 745.696H888.037C887.241 745.696 886.59 744.813 886.59 743.733V742.754C886.59 741.674 887.241 740.791 888.037 740.791H954.26C955.056 740.791 955.707 741.674 955.707 742.754V743.733C955.704 744.813 955.054 745.696 954.26 745.696Z" fill="#F24B46"/>
<path d="M989.481 833.915C987.055 833.911 982.054 834.766 979.859 831.143C977.662 827.516 972.912 825.735 972.307 824.574C971.981 823.947 972.415 821.167 972.883 818.732C974.068 816.526 972.158 813.51 972.158 813.51L978.515 814.091C978.515 814.091 981.543 819.541 983.776 823.931C984.623 825.596 987.175 828.093 988.713 828.84C990.7 829.804 992.678 830.396 993.403 831.36C994.693 833.059 991.907 833.919 989.481 833.915Z" fill="#FF9792"/>
<path d="M989.482 833.915C987.056 833.911 982.055 834.766 979.86 831.143C977.663 827.516 972.913 825.735 972.308 824.574C971.983 823.947 971.965 821.423 972.885 818.732V818.728C972.885 818.728 976.889 820.95 979.15 825.209C981.41 829.467 987.43 831.321 988.697 828.863C988.703 828.855 988.709 828.844 988.714 828.836C990.701 829.8 992.679 830.392 993.404 831.356C994.694 833.059 991.908 833.919 989.482 833.915Z" fill="#6615B2"/>
<path d="M972.308 824.574L974.745 831.631L976.367 831.871L976.127 825.584L972.308 824.574Z" fill="white"/>
<path d="M924.695 699.564C924.695 699.564 960.063 714.417 967.672 722.999C975.282 731.578 980.585 816.677 980.585 816.677C980.585 816.677 979.678 817.424 977.817 817.366C976.087 817.312 972.459 815.283 972.459 815.283C972.459 815.283 956.915 774.865 956.472 765.299C956.027 755.734 957.16 747.473 954.115 746.702C951.069 745.932 912.196 745.653 907.752 730.804C903.305 715.954 909.41 703.125 909.41 703.125L924.695 699.564Z" fill="#1B2251"/>
<path d="M981.278 833.915C978.852 833.911 973.851 834.766 971.656 831.143C969.458 827.516 964.709 825.735 964.104 824.574C963.778 823.947 964.212 821.167 964.68 818.732C965.865 816.526 963.955 813.51 963.955 813.51L970.312 814.091C970.312 814.091 973.34 819.541 975.572 823.931C976.42 825.596 978.972 828.093 980.51 828.84C982.497 829.804 984.475 830.396 985.2 831.36C986.49 833.059 983.704 833.919 981.278 833.915Z" fill="#FF9792"/>
<path d="M981.279 833.915C978.853 833.911 973.852 834.766 971.657 831.143C969.459 827.516 964.71 825.735 964.105 824.574C963.779 823.947 963.762 821.423 964.681 818.732V818.728C964.681 818.728 968.686 820.95 970.946 825.209C973.207 829.467 979.227 831.321 980.494 828.863C980.5 828.855 980.505 828.844 980.511 828.836C982.498 829.8 984.476 830.392 985.201 831.356C986.491 833.059 983.705 833.919 981.279 833.915Z" fill="#6615B2"/>
<path d="M964.105 824.574L966.542 831.631L968.163 831.871L967.924 825.584L964.105 824.574Z" fill="#6615B2"/>
<path d="M915.439 704.058C915.439 704.058 951.86 714.421 959.469 722.999C967.079 731.578 972.382 816.677 972.382 816.677C972.382 816.677 971.474 817.424 969.613 817.366C967.884 817.311 964.259 815.283 964.259 815.283C964.259 815.283 948.714 774.865 948.272 765.299C947.827 755.734 948.96 747.473 945.914 746.702C942.869 745.932 903.996 745.653 899.552 730.804C895.105 715.954 901.21 703.125 901.21 703.125L915.439 704.058Z" fill="#242E6C"/>
<path d="M929.122 624.371C929.165 624.398 924.881 627.414 921.658 626.221C918.627 625.099 916.646 619.768 916.689 619.757C917.973 619.412 918.342 617.02 918.316 606.738L918.895 606.893L928.654 609.514C928.654 609.514 928.432 613.679 928.426 617.6C928.42 620.895 928.569 624.019 929.122 624.371Z" fill="#FF9792"/>
<path d="M928.654 609.51C928.654 609.51 928.432 613.675 928.426 617.596C922.966 617.387 920.08 610.632 918.895 606.889L928.654 609.51Z" fill="#FF938F"/>
<path d="M930.478 613.226C930.478 613.226 917.559 613.516 917.548 602.6C917.539 591.683 915.867 584.371 924.113 583.724C932.362 583.078 933.969 587.239 934.623 590.882C935.285 594.525 933.84 612.87 930.478 613.226Z" fill="#FF9792"/>
<path d="M900.354 671.51C899.081 664.263 903.414 650.199 907.94 638.559C912.045 628.006 916.309 619.447 916.692 619.757C927.521 628.474 928.497 621.228 928.497 621.228C928.5 621.228 938.333 622.997 941.119 629.5C944.573 637.568 948.306 660.109 952.014 664.379C951.446 666.74 951.688 668.002 952.291 670.929C952.419 671.556 952.562 672.152 952.719 672.717C953.278 674.777 953.978 676.449 954.58 677.901C952.696 679.453 949.057 682.407 946.377 680.282C942.289 677.038 939.101 667.158 937.306 663.225C937.3 663.21 937.291 663.194 937.286 663.183C933.384 693.134 938.69 699.955 936.004 703.11C933.17 706.443 929.117 701.522 920.205 706.76C914.36 710.198 906.248 715.172 900.788 716.035C897.925 716.492 895.787 715.815 895.09 713.194C893.061 705.572 902.786 685.326 900.354 671.51Z" fill="#7F22BA"/>
<path d="M927.607 606.61C927.607 606.61 927.846 607.996 930.39 607.783C930.39 607.783 932.525 607.605 932.459 606.08C932.462 606.08 930.39 604.996 927.607 606.61Z" fill="white"/>
<path d="M893.241 682.151C896.135 676.639 899.152 673.72 901.139 672.253C900.682 670.658 913.318 649.645 913.318 646.39C913.318 643.095 916.689 619.749 916.689 619.749C916.689 619.749 906.159 620.631 902.514 627.526C897.956 636.151 888.488 669.338 893.241 682.151Z" fill="#7F22BA"/>
<path d="M901.139 672.257L922.181 679.705L920.205 684.513C920.205 684.513 894.599 684.269 893.244 682.155C891.885 680.038 901.139 672.257 901.139 672.257Z" fill="#FF9792"/>
<path d="M937.306 663.226C939.101 667.159 942.289 677.034 946.377 680.282C949.057 682.407 952.696 679.453 954.58 677.901C953.978 676.449 953.278 674.777 952.719 672.718C951.215 673.186 949.379 673.782 948.195 674.266C945.894 675.207 937.306 663.226 937.306 663.226Z" fill="#994EC8"/>
<path d="M935.159 659.308L923.896 693.192L950.595 696.61L961.099 662.203L935.159 659.308Z" fill="#1B2251"/>
<path d="M961.099 662.203L973.555 651.488L961.099 688.434L950.595 696.614C951.155 694.775 961.099 662.203 961.099 662.203Z" fill="#242E6C"/>
<path d="M922.181 679.701C922.181 679.701 926.071 677.378 927.056 676.19C927.692 675.423 927.644 676.519 927.584 676.817C927.464 677.421 927.304 678.628 926.168 679.639C924.535 681.098 922.181 679.701 922.181 679.701Z" fill="#FF9792"/>
<path d="M929.165 579.803C929.165 579.803 925.044 595.481 919.121 598.02C913.201 600.56 911.286 597.347 911.286 597.347C911.286 597.347 915.693 592.043 916.298 583.31C916.304 583.31 925.943 573.28 929.165 579.803Z" fill="#1B2251"/>
<path d="M928.243 581.026C928.243 581.026 931.292 583.972 932.128 586.995C932.964 590.019 933.541 596.321 934.891 596.007C934.891 596.007 937.451 586.163 933.918 580.96C930.173 575.444 928.243 581.026 928.243 581.026Z" fill="#1B2251"/>
<path d="M928.805 581.463C928.805 581.463 926.616 596.503 919.229 601.814C919.229 601.814 926.439 592.14 926.688 582.3C926.936 572.463 928.805 581.463 928.805 581.463Z" fill="#1B2251"/>
<path d="M906.559 611.512C908.862 613.617 914.211 612.959 914.211 612.959C913.9 612.588 913.546 611.732 913.546 611.732C916.703 613.854 922.906 609.727 922.906 609.727C917.414 609.754 917.414 599 919.121 598.021C918.878 589.984 919.343 579.745 919.592 575.135C919.352 575.154 919.218 575.177 919.218 575.177C904.181 572.119 904.258 609.413 906.559 611.512Z" fill="#1B2251"/>
<path d="M922.181 679.701C922.181 679.701 929.011 677.932 930.521 678.381C932.028 678.83 935.402 680.792 935.653 681.214C935.904 681.636 934.674 681.876 933.789 681.385C932.656 680.758 930.772 681.017 930.772 681.017C930.772 681.017 934.403 682.631 935.29 683.316C935.379 683.386 935.382 683.56 935.296 683.634C935.056 683.843 934.471 683.913 933.663 683.642C932.502 683.255 930.427 683.003 930.427 683.003L934.554 684.842C934.605 684.865 934.64 684.935 934.634 685.004C934.605 685.275 934.246 685.519 933.255 685.442C932.49 685.38 929.956 684.505 929.956 684.505L932.125 686.467C932.125 686.467 931.528 686.928 930.398 686.239C929.622 685.767 927.287 684.617 926.722 684.695C926.157 684.776 923.265 685.856 922.009 685.298C920.753 684.745 920.208 684.501 920.208 684.501L922.181 679.701Z" fill="#FF9792"/>
<path d="M914.388 831.627C914.991 831.627 915.507 831.054 915.61 830.268L921.595 784.252L930.207 718.071L932.616 699.563L926.482 699.327L925.417 710.07L917.948 785.564L913.518 830.315C913.446 831.011 913.855 831.627 914.388 831.627Z" fill="#F9795A"/>
<path d="M925.415 710.07C929.388 712.447 930.204 718.071 930.204 718.071L932.613 699.563L926.479 699.327L925.415 710.07Z" fill="#F24B46"/>
<path d="M1066.92 831.627C1066.32 831.627 1065.8 831.054 1065.7 830.268L1059.72 784.252L1051.1 718.071L1048.69 699.563L1054.83 699.327L1055.89 710.07L1063.36 785.564L1067.79 830.315C1067.86 831.011 1067.46 831.627 1066.92 831.627Z" fill="#F9795A"/>
<path d="M1055.9 710.07C1051.92 712.447 1051.11 718.071 1051.11 718.071L1048.7 699.563L1054.83 699.327L1055.9 710.07Z" fill="#7B36BD"/>
<path d="M909.49 706.829H1068.15C1069.76 706.829 1071.08 705.037 1071.08 702.846V701.596C1071.08 699.405 1069.76 697.612 1068.15 697.612H909.49C907.875 697.612 906.553 699.405 906.553 701.596V702.846C906.556 705.037 907.875 706.829 909.49 706.829Z" fill="#F24B46"/>
<path d="M1238.69 716.236H1208.7C1207.87 716.236 1207.19 715.315 1207.19 714.192C1207.19 713.066 1207.87 712.149 1208.7 712.149H1238.69C1239.52 712.149 1240.2 713.07 1240.2 714.192C1240.2 715.315 1239.52 716.236 1238.69 716.236Z" fill="#FF7D78"/>
<path d="M1238.69 724.246H1208.7C1207.87 724.246 1207.19 723.324 1207.19 722.202C1207.19 721.075 1207.87 720.158 1208.7 720.158H1238.69C1239.52 720.158 1240.2 721.079 1240.2 722.202C1240.2 723.324 1239.52 724.246 1238.69 724.246Z" fill="#FF7D78"/>
<path d="M1245 378.438V818.821C1245 825.619 1240.97 831.201 1235.98 831.371C1235.9 831.375 1235.83 831.375 1235.74 831.375H1073.37C1068.28 831.375 1064.11 825.727 1064.11 818.821V378.438C1064.11 371.532 1068.28 365.884 1073.37 365.884H1235.74C1240.84 365.884 1245 371.532 1245 378.438Z" fill="#F24B46"/>
<path d="M1254.56 378.438V818.825C1254.56 825.723 1250.4 831.375 1245.31 831.375H1082.93C1077.84 831.375 1073.68 825.727 1073.68 818.825V378.438C1073.68 371.532 1077.84 365.884 1082.93 365.884H1245.31C1250.4 365.884 1254.56 371.532 1254.56 378.438Z" fill="#F9795A"/>
<path d="M1190.63 383.506H1143.61C1142.6 383.506 1141.78 382.391 1141.78 381.024C1141.78 379.658 1142.6 378.543 1143.61 378.543H1190.63C1191.64 378.543 1192.46 379.658 1192.46 381.024C1192.46 382.387 1191.63 383.506 1190.63 383.506Z" fill="#F24B46"/>
<path d="M1135.25 383.506C1134.25 383.506 1133.42 382.391 1133.42 381.024C1133.42 379.658 1134.25 378.543 1135.25 378.543C1136.26 378.543 1137.08 379.658 1137.08 381.024C1137.08 382.387 1136.26 383.506 1135.25 383.506Z" fill="#F24B46"/>
<path d="M1178.16 805.652C1178.16 810.045 1176.85 814.025 1174.74 816.917C1172.6 819.843 1169.63 821.655 1166.36 821.655C1159.84 821.655 1154.56 814.489 1154.56 805.652C1154.56 799.969 1156.74 794.983 1160.03 792.145C1161.86 790.566 1164.03 789.652 1166.36 789.652C1172.87 789.652 1178.16 796.814 1178.16 805.652Z" fill="url(#paint4_linear_136_2)"/>
<path d="M1244.91 394.558H1084.51V781.782H1244.91V394.558Z" fill="#242E6C"/>
<path d="M1174.74 816.92C1172.6 819.847 1169.63 821.659 1166.36 821.659C1159.84 821.659 1154.56 814.493 1154.56 805.655C1154.56 799.973 1156.74 794.987 1160.03 792.149C1161.19 798.958 1164.62 810.355 1174.74 816.92Z" fill="#F24B46"/>
<path d="M1245 425.918V578.25H1092.23C1090.52 578.25 1089.11 576.233 1089.11 573.768V430.408C1089.11 427.938 1090.52 425.918 1092.23 425.918H1245Z" fill="#B1C9F6"/>
<path d="M1201.43 608.883V752.242C1201.43 754.708 1200.16 756.725 1198.62 756.725H1084.51V604.392H1198.62C1200.16 604.392 1201.43 606.409 1201.43 608.883Z" fill="#B1C9F6"/>
<path d="M1315.2 417.742V561.101C1315.2 563.563 1313.71 565.584 1311.88 565.584H1097.82C1096.01 565.584 1094.52 563.567 1094.52 561.101V417.742C1094.52 415.268 1096.01 413.251 1097.82 413.251H1311.88C1313.71 413.251 1315.2 415.268 1315.2 417.742Z" fill="#EFECEA"/>
<path d="M1170.23 508.226C1183.3 508.226 1193.9 501.701 1193.9 493.652C1193.9 485.603 1183.3 479.078 1170.23 479.078C1157.15 479.078 1146.55 485.603 1146.55 493.652C1146.55 501.701 1157.15 508.226 1170.23 508.226Z" fill="#D8DEE8"/>
<path opacity="0.3" d="M1170.23 502.444C1180.67 502.444 1189.13 498.319 1189.13 493.23C1189.13 488.141 1180.67 484.016 1170.23 484.016C1159.78 484.016 1151.32 488.141 1151.32 493.23C1151.32 498.319 1159.78 502.444 1170.23 502.444Z" fill="#D8DEE8"/>
<path d="M1170.23 502.445C1181 502.445 1189.74 495.057 1189.74 485.943C1189.74 476.829 1181 469.441 1170.23 469.441C1159.45 469.441 1150.71 476.829 1150.71 485.943C1150.71 495.057 1159.45 502.445 1170.23 502.445Z" fill="#AABBCC"/>
<path d="M1170.23 498.591C1181 498.591 1189.74 492.066 1189.74 484.017C1189.74 475.967 1181 469.442 1170.23 469.442C1159.45 469.442 1150.71 475.967 1150.71 484.017C1150.71 492.066 1159.45 498.591 1170.23 498.591Z" fill="url(#paint5_linear_136_2)"/>
<path d="M1164.02 483.672C1164.28 483.285 1164.1 481.147 1163.58 479.578C1162.85 477.354 1161.43 476.178 1161.09 475.917C1160.73 475.634 1160.4 475.474 1160.12 474.782C1159.72 473.784 1159.71 472.423 1159.55 472.439C1159.43 472.451 1159.47 473.205 1159.23 473.504C1158.9 473.916 1158.47 472.922 1158.14 473.385C1157.99 473.585 1157.95 473.947 1157.94 473.984C1157.87 474.621 1158.15 475.071 1158.07 475.379C1157.98 475.717 1157.62 475.26 1157.31 475.614C1156.98 476.007 1156.79 477.315 1156.97 478.164C1157.2 479.19 1157.88 479.112 1157.92 479.861C1157.94 480.417 1157.58 480.636 1157.55 481.234C1157.51 482.137 1158.26 483.398 1159.07 483.818C1160.72 484.669 1161.72 481.582 1163.13 482.853C1163.59 483.269 1163.85 483.925 1164.02 483.672Z" fill="url(#paint6_linear_136_2)"/>
<path d="M1162.42 481.635C1161.69 481.424 1161.4 482.798 1160.26 483.047C1159.3 483.255 1158.3 482.565 1158.22 481.668C1158.17 481.086 1158.55 480.821 1158.53 480.057C1158.49 478.926 1157.63 478.564 1157.66 477.786C1157.7 477.095 1158.39 477.136 1158.56 476.081C1158.69 475.282 1158.39 474.655 1158.55 474.279C1158.74 473.822 1159.23 474.648 1159.63 474.232C1159.72 474.138 1159.79 473.993 1159.85 473.813C1159.91 474.136 1160 474.476 1160.12 474.781C1160.4 475.473 1160.73 475.633 1161.09 475.916C1161.43 476.177 1162.85 477.353 1163.58 479.577C1164.1 481.146 1164.28 483.284 1164.02 483.671C1163.92 483.819 1163.79 483.655 1163.61 483.41C1163.16 482.128 1162.75 481.728 1162.42 481.635Z" fill="url(#paint7_linear_136_2)"/>
<path d="M1164.07 484.972C1164.47 484.511 1165.51 483.168 1165.92 480.54C1166.59 476.255 1165.2 471.242 1164.22 471.113C1163.89 471.069 1163.61 471.584 1163.02 471.326C1162.62 471.15 1162.56 470.824 1162.16 470.744C1161.79 470.671 1161.24 470.819 1161.1 471.472C1161.01 471.925 1161.18 472.353 1161.06 472.577C1160.93 472.844 1160.66 472.306 1160.44 472.475C1160.12 472.72 1159.9 474.475 1160.13 475.782C1160.53 478.073 1162.02 477.423 1163.11 479.865C1163.8 481.389 1164.01 483.402 1164.07 484.972Z" fill="url(#paint8_linear_136_2)"/>
<path d="M1164.28 484.213C1164.28 484.213 1165.24 480.796 1164.78 477.284C1164.32 473.772 1163.85 474.248 1163.64 474.032C1163.42 473.816 1163.9 475.325 1164.13 476.484C1164.36 477.643 1164.89 478.679 1164.28 484.213Z" fill="url(#paint9_linear_136_2)"/>
<path opacity="0.3" d="M1160.44 472.475C1160.66 472.307 1160.93 472.844 1161.06 472.577C1161.18 472.353 1161.01 471.925 1161.1 471.472C1161.24 470.819 1161.79 470.671 1162.16 470.744C1162.56 470.824 1162.62 471.149 1163.02 471.326C1163.61 471.583 1163.89 471.069 1164.22 471.113C1165.18 471.239 1166.54 476.072 1165.95 480.303C1166.06 478.688 1166.03 476.75 1165.61 474.931C1165.52 474.569 1164.92 471.937 1164.2 472.034C1163.84 472.083 1163.74 472.817 1163.32 472.817C1162.73 472.817 1162.49 471.293 1162.11 471.506C1161.75 471.709 1161.83 473.162 1161.38 473.527C1161.06 473.787 1160.85 473.191 1160.58 473.368C1160.38 473.497 1160.19 474.024 1160.09 475.486C1159.94 474.224 1160.14 472.702 1160.44 472.475Z" fill="url(#paint10_linear_136_2)"/>
<path d="M1175.26 481.357C1175.26 481.357 1164.34 475.331 1161.5 479.077C1158.66 482.823 1158.58 491.065 1164.24 491.26C1169.9 491.454 1176.8 489.199 1176.8 489.199V485.942L1175.26 481.357Z" fill="url(#paint11_linear_136_2)"/>
<path d="M1175.26 478.1C1175.26 478.1 1164.34 475.331 1161.5 479.077C1158.66 482.822 1158.58 487.808 1164.24 488.003C1169.9 488.197 1176.8 485.942 1176.8 485.942L1175.26 478.1Z" fill="url(#paint12_linear_136_2)"/>
<g opacity="0.5">
<path opacity="0.5" d="M1165.57 479.192C1165.44 478.978 1165.25 479.04 1165.15 479.329L1163.37 484.566C1163.27 484.855 1163.3 485.262 1163.43 485.477C1163.57 485.691 1163.75 485.629 1163.85 485.34L1165.64 480.103C1165.73 479.814 1165.71 479.406 1165.57 479.192Z" fill="url(#paint13_linear_136_2)"/>
<path opacity="0.5" d="M1168.12 478.866C1167.99 478.652 1167.8 478.713 1167.7 479.003L1165.92 484.24C1165.82 484.529 1165.85 484.937 1165.98 485.15C1166.12 485.365 1166.3 485.303 1166.4 485.014L1168.18 479.777C1168.28 479.488 1168.25 479.08 1168.12 478.866Z" fill="url(#paint14_linear_136_2)"/>
<path opacity="0.5" d="M1170.67 478.541C1170.54 478.327 1170.35 478.388 1170.25 478.677L1168.47 483.914C1168.37 484.203 1168.4 484.612 1168.53 484.825C1168.66 485.039 1168.85 484.978 1168.95 484.689L1170.73 479.452C1170.83 479.163 1170.8 478.755 1170.67 478.541Z" fill="url(#paint15_linear_136_2)"/>
<path opacity="0.5" d="M1173.22 478.215C1173.09 478.001 1172.9 478.062 1172.8 478.351L1171.02 483.588C1170.92 483.878 1170.95 484.286 1171.08 484.499C1171.21 484.714 1171.4 484.652 1171.5 484.363L1173.28 479.126C1173.38 478.837 1173.35 478.429 1173.22 478.215Z" fill="url(#paint16_linear_136_2)"/>
</g>
<path d="M1315.2 417.742V561.101C1315.2 563.567 1313.47 565.584 1311.35 565.584H1204.86V413.251H1311.35C1313.47 413.251 1315.2 415.268 1315.2 417.742Z" fill="#FFD4D2"/>
<path d="M1267.99 433.079H1227.91C1227.25 433.079 1226.71 432.348 1226.71 431.454C1226.71 430.559 1227.25 429.828 1227.91 429.828H1267.99C1268.64 429.828 1269.18 430.559 1269.18 431.454C1269.19 432.344 1268.65 433.079 1267.99 433.079Z" fill="#FD8857"/>
<path d="M1267.99 439.346H1227.91C1227.25 439.346 1226.71 438.615 1226.71 437.721C1226.71 436.826 1227.25 436.095 1227.91 436.095H1267.99C1268.64 436.095 1269.18 436.826 1269.18 437.721C1269.19 438.615 1268.65 439.346 1267.99 439.346Z" fill="#FD8857"/>
<path d="M1220.81 433.428H1219.47C1218.78 433.428 1218.21 432.657 1218.21 431.717V431.179C1218.21 430.238 1218.78 429.468 1219.47 429.468H1220.81C1221.5 429.468 1222.07 430.238 1222.07 431.179V431.717C1222.07 432.657 1221.5 433.428 1220.81 433.428Z" fill="#FD8857"/>
<path d="M1267.99 456.159H1227.91C1227.25 456.159 1226.71 455.427 1226.71 454.533C1226.71 453.639 1227.25 452.907 1227.91 452.907H1267.99C1268.64 452.907 1269.18 453.639 1269.18 454.533C1269.19 455.427 1268.65 456.159 1267.99 456.159Z" fill="#FD8857"/>
<path d="M1267.99 462.43H1227.91C1227.25 462.43 1226.71 461.698 1226.71 460.804C1226.71 459.91 1227.25 459.178 1227.91 459.178H1267.99C1268.64 459.178 1269.18 459.91 1269.18 460.804C1269.19 461.698 1268.65 462.43 1267.99 462.43Z" fill="#FD8857"/>
<path d="M1220.81 456.511H1219.47C1218.78 456.511 1218.21 455.741 1218.21 454.8V454.262C1218.21 453.321 1218.78 452.551 1219.47 452.551H1220.81C1221.5 452.551 1222.07 453.321 1222.07 454.262V454.8C1222.07 455.741 1221.5 456.511 1220.81 456.511Z" fill="#FD8857"/>
<path d="M1267.99 478.987H1227.91C1227.25 478.987 1226.71 478.255 1226.71 477.361C1226.71 476.467 1227.25 475.735 1227.91 475.735H1267.99C1268.64 475.735 1269.18 476.467 1269.18 477.361C1269.19 478.255 1268.65 478.987 1267.99 478.987Z" fill="#FD8857"/>
<path d="M1267.99 485.254H1227.91C1227.25 485.254 1226.71 484.523 1226.71 483.629C1226.71 482.734 1227.25 482.003 1227.91 482.003H1267.99C1268.64 482.003 1269.18 482.734 1269.18 483.629C1269.19 484.523 1268.65 485.254 1267.99 485.254Z" fill="#FD8857"/>
<path d="M1220.81 479.335H1219.47C1218.78 479.335 1218.21 478.565 1218.21 477.624V477.086C1218.21 476.146 1218.78 475.375 1219.47 475.375H1220.81C1221.5 475.375 1222.07 476.146 1222.07 477.086V477.624C1222.07 478.569 1221.5 479.335 1220.81 479.335Z" fill="#FD8857"/>
<path d="M1209.49 593.808V737.167C1209.49 739.637 1208.01 741.654 1206.19 741.654H992.128C990.304 741.654 988.817 739.637 988.817 737.167V593.808C988.817 591.342 990.304 589.325 992.128 589.325H1206.19C1208.01 589.325 1209.49 591.346 1209.49 593.808Z" fill="#FD8857"/>
<path d="M1209.49 593.808V737.167C1209.49 739.637 1208 741.658 1206.19 741.658H1110.98V589.325H1206.19C1208.01 589.325 1209.49 591.342 1209.49 593.808Z" fill="#EFECEA"/>
<path d="M1017.54 614.194C1010.98 614.194 1005.67 621.402 1005.67 630.294C1005.67 639.186 1010.98 646.394 1017.54 646.394C1024.1 646.394 1029.41 639.186 1029.41 630.294C1029.41 621.398 1024.1 614.194 1017.54 614.194ZM1025.76 630.805H1017.54C1017.33 630.805 1017.16 630.576 1017.16 630.29V618.301C1017.16 618.018 1017.33 617.786 1017.54 617.786C1017.75 617.786 1017.92 618.014 1017.92 618.301V629.775H1025.76C1025.97 629.775 1026.14 630.003 1026.14 630.29C1026.14 630.572 1025.97 630.805 1025.76 630.805Z" fill="#EFECEA"/>
<path d="M1016.36 676.499C1010.46 676.499 1005.67 682.987 1005.67 690.989C1005.67 698.99 1016.36 716.786 1016.36 716.786C1016.36 716.786 1027.04 698.994 1027.04 690.989C1027.04 682.987 1022.26 676.499 1016.36 676.499ZM1016.36 697.616C1013.6 697.616 1011.36 694.585 1011.36 690.842C1011.36 687.102 1013.6 684.067 1016.36 684.067C1019.11 684.067 1021.35 687.098 1021.35 690.842C1021.35 694.585 1019.11 697.616 1016.36 697.616Z" fill="#EFECEA"/>
<path d="M1076.35 685.418H1037.47C1036.48 685.418 1035.67 684.323 1035.67 682.987C1035.67 681.648 1036.48 680.556 1037.47 680.556H1076.35C1077.34 680.556 1078.15 681.652 1078.15 682.987C1078.15 684.327 1077.34 685.418 1076.35 685.418Z" fill="#242E6C"/>
<path d="M1066.25 694.732H1037.23C1036.37 694.732 1035.68 693.788 1035.68 692.63V691.972C1035.68 690.815 1036.37 689.87 1037.23 689.87H1066.25C1067.11 689.87 1067.8 690.815 1067.8 691.972V692.63C1067.8 693.784 1067.11 694.732 1066.25 694.732Z" fill="#242E6C"/>
<path d="M1076.35 628.068H1037.47C1036.48 628.068 1035.67 626.972 1035.67 625.637C1035.67 624.297 1036.48 623.206 1037.47 623.206H1076.35C1077.34 623.206 1078.15 624.301 1078.15 625.637C1078.15 626.972 1077.34 628.068 1076.35 628.068Z" fill="#242E6C"/>
<path d="M1066.25 637.378H1037.23C1036.37 637.378 1035.68 636.433 1035.68 635.276V634.618C1035.68 633.46 1036.37 632.516 1037.23 632.516H1066.25C1067.11 632.516 1067.8 633.46 1067.8 634.618V635.276C1067.8 636.433 1067.11 637.378 1066.25 637.378Z" fill="#242E6C"/>
<path d="M1209.5 657.976V633.29L1170.7 611.608L1110.98 628.269V661.619L1144.87 680.363L1144.91 680.386L1209.5 657.988V657.976Z" fill="#C643DB"/>
<path d="M1144.81 680.386V695.096L1110.98 675.179V661.65L1144.81 680.386Z" fill="#6615B2"/>
<path d="M1209.49 657.976L1144.87 680.363L1144.81 680.386V695.096L1209.49 671.142V657.987V657.976Z" fill="#7F22BA"/>
<path d="M1291.88 469.03C1291.66 468.849 1291.36 468.612 1290.99 468.341L1285.19 461.927C1285.19 461.927 1284.46 462.496 1285.19 463.584C1285.29 463.723 1285.42 463.905 1285.57 464.114L1283.36 461.772C1283.36 461.772 1282.96 462.302 1283.22 463.142C1283.4 463.746 1285.47 466.146 1286.64 467.463C1285.94 467.006 1284.95 465.995 1283.47 463.982C1282.55 462.728 1282.85 464.617 1282.99 465.446C1283.24 466.909 1286.12 471.853 1287.13 474.075C1288.14 476.3 1288.65 478.495 1287.94 477.535C1287.23 476.575 1283.39 473.362 1282.98 474.075C1282.58 474.791 1284.91 477.535 1286.02 479.73C1287.13 481.925 1288.34 485.63 1292.29 486.454C1296.24 487.279 1296.91 484.573 1296.91 484.573C1296.91 484.573 1293.71 470.54 1291.88 469.03Z" fill="#FF9792"/>
<path d="M1413.84 602.751C1413.84 602.751 1412.88 615.428 1411.83 617.829C1410.77 620.225 1405.87 627.193 1404.37 629.395C1404.26 629.546 1403.29 628.377 1404.03 626.69C1407 619.88 1406.17 621.514 1405.15 617.039C1404.64 614.825 1404.32 621.196 1403.48 621.344C1402.63 621.494 1402.93 614.627 1402.9 612.541C1402.87 610.45 1407.13 609.471 1407.63 601.938C1407.95 597.091 1413.84 602.751 1413.84 602.751Z" fill="#FF9792"/>
<path d="M1384.53 472.669C1384.53 472.669 1376.76 524.411 1333.98 541.316C1320.63 546.592 1290.29 486.973 1290.29 486.973C1290.29 486.973 1291.36 481.476 1298.04 482.738C1298.04 482.738 1327.58 509.259 1331.3 512.139C1334.6 514.694 1356.29 479.277 1366.19 473.567C1376.08 467.854 1384.53 472.669 1384.53 472.669Z" fill="#1B2251"/>
<path d="M1435.6 797.933C1435.6 797.933 1440.9 804.502 1439.87 809.167C1438.83 813.835 1434.04 816.944 1433.4 822.65C1432.75 828.352 1430.16 831.464 1427.83 831.464C1425.5 831.464 1416.72 831.464 1416.72 831.464C1416.72 831.464 1415.01 827.45 1419.15 826.242C1423.29 825.031 1424.85 818.33 1424.59 812.109C1424.33 805.888 1424.98 797.592 1424.98 797.592L1433.78 794.828L1435.6 797.933Z" fill="#1B2251"/>
<path d="M1370.5 814.923C1370.5 814.923 1371.45 829.869 1369.12 831.426L1339.31 831.344C1339.31 831.344 1339.31 826.676 1344.1 825.642C1348.89 824.605 1357.3 820.803 1358.72 812.333C1360.14 803.859 1370.5 814.923 1370.5 814.923Z" fill="#1B2251"/>
<path d="M1345.33 603.78C1345.33 603.78 1346.9 629.98 1348.75 661.476C1351.26 704.259 1354.28 756.81 1354.58 766.766C1355.09 784.055 1357.17 811.706 1357.17 811.706C1357.17 811.706 1362.08 818.275 1371.92 815.507C1371.92 815.507 1380.69 776.034 1383.19 734.268C1383.23 733.583 1383.27 732.894 1383.31 732.205C1385.64 689.688 1389.26 600.153 1389.26 600.153L1345.33 603.78Z" fill="#F9795A"/>
<path d="M1345.33 603.78C1345.33 603.78 1346.9 629.98 1348.75 661.475L1383.19 734.264C1383.23 733.579 1383.27 732.89 1383.31 732.201C1385.64 689.684 1389.26 600.149 1389.26 600.149L1345.33 603.78Z" fill="#F24B46"/>
<path d="M1352.51 606.893C1352.51 606.893 1380.85 701.782 1399.49 746.373C1418.12 790.964 1423.95 803.41 1423.95 803.41C1423.95 803.41 1434.63 797.708 1435.6 793.817C1435.6 793.817 1428.47 707.731 1415.99 686.746C1408.94 674.889 1400.65 639.302 1400.27 626.856C1399.88 614.41 1397.74 589.782 1397.74 589.782L1352.51 606.893Z" fill="#F9795A"/>
<path d="M1389.8 460.661C1389.8 460.661 1370.62 473.211 1359.56 468.554C1359.56 468.554 1362.28 463.897 1367.05 460.432C1366.66 457.421 1366.37 454.812 1366.2 452.597C1365.73 447.487 1365.73 444.592 1365.73 444.592L1373.13 436.699L1380.14 429.146C1379.59 450.383 1389.8 460.661 1389.8 460.661Z" fill="#FF9792"/>
<path d="M1399.91 594.641C1399.95 596.235 1397.44 598.051 1396.33 598.728C1388.13 603.614 1380.47 607.02 1371.8 608.155C1361.55 609.575 1349.43 606.451 1345.26 606.567C1344.83 606.567 1344.45 606.339 1344.11 605.94C1343.82 605.658 1343.6 588.904 1343.82 567.837C1343.82 566.989 1343.82 566.137 1343.86 565.286V565.003C1343.94 556.769 1344.16 548.137 1344.45 539.504C1345.05 520.54 1346.16 502.252 1348.03 492.145C1350.28 480.218 1355.38 472.329 1360.02 466.588L1363.84 462.047C1367.67 463.069 1371.71 462.782 1375.75 460.115C1380.17 457.22 1384.94 454.096 1385.7 454.889C1391.49 460.622 1395.4 473.513 1397.48 489.985C1397.49 490.066 1397.51 490.147 1397.51 490.229C1398.68 499.647 1399.27 510.184 1399.23 521.217C1399.23 525.309 1399.14 529.509 1398.97 533.655C1398.12 552.434 1398.69 569.153 1399.25 580.739C1399.36 583.027 1399.47 585.114 1399.57 586.98C1399.73 590.27 1399.86 592.825 1399.91 594.641Z" fill="#242E6C"/>
<path d="M1399.25 580.736C1367.46 530.957 1387.18 494.777 1387.18 494.777L1397.51 490.229C1398.68 499.647 1399.27 510.184 1399.23 521.217C1399.23 525.309 1399.14 529.509 1398.97 533.655C1398.12 552.43 1398.69 569.149 1399.25 580.736Z" fill="#1B2251"/>
<path d="M1380.27 437.268C1380.27 437.268 1375.43 449.249 1366.2 452.602C1365.73 447.492 1365.73 444.596 1365.73 444.596L1373.13 436.703L1380.27 437.268Z" fill="#FF9490"/>
<path d="M1362.36 444.244C1362.36 444.244 1380.65 448.301 1382.37 433.048C1384.09 417.796 1387.6 408.045 1376 404.808C1364.39 401.572 1361.46 406.938 1359.96 411.842C1358.46 416.747 1357.64 442.796 1362.36 444.244Z" fill="#FF9792"/>
<path d="M1389.02 402.985C1389.19 402.726 1389.57 402.517 1390.42 402.455C1390.42 402.455 1389.74 401.878 1388.83 401.847C1388.65 400.241 1388.02 397.395 1385.98 396.702C1385.98 396.702 1387.08 397.496 1387.22 399.203C1384.86 395.913 1379.79 393.516 1365.77 395.018C1347.29 396.997 1353.38 413.042 1355.78 414.955C1358.17 416.867 1364.19 411.622 1368.65 412.102C1373.1 412.582 1373.95 421.315 1375.46 422.515C1376.97 423.715 1376.38 421.594 1378.42 420.339C1380.47 419.085 1380.66 423.684 1380.07 426.673C1379.48 429.661 1382.29 433.606 1382.29 433.606C1382.29 433.606 1382.29 433.606 1385.13 429.456C1387.97 425.306 1390.65 407.731 1389.36 403.988C1389.25 403.655 1389.13 403.322 1389.02 402.985Z" fill="#1B2251"/>
<path d="M1385.69 454.761C1385.69 454.761 1397.27 462.194 1402.82 473.625C1411.43 491.355 1421.41 555.964 1421.59 561.945C1421.78 567.93 1414.31 610.168 1414.31 610.168C1414.31 610.168 1406.73 609.49 1404.78 604.307C1404.78 604.307 1406.29 560.908 1405.33 558.116C1404.38 555.325 1373.76 499.903 1377.2 488.072C1380.64 476.246 1385.69 454.761 1385.69 454.761Z" fill="#242E6C"/>
<path d="M1411.83 617.829L1406.35 630.259C1406.35 630.259 1405.69 629.883 1405.8 628.997C1405.9 628.11 1407.49 621.378 1407.49 621.378L1411.83 617.829Z" fill="#FF9792"/>
<path d="M1406.34 618.189C1406.34 618.189 1402.39 624.297 1403.27 625.679L1406.12 622.687L1406.34 618.189Z" fill="#FF9792"/>
<path d="M1123.96 511.484C1118.28 512.863 1113.13 513.993 1109.51 518.007C1106.19 521.705 1104.15 526.681 1104.15 532.151C1104.15 538.229 1106.36 544.738 1110.68 547.482C1114.3 549.786 1120.01 554.518 1123.96 552.813C1128.91 550.677 1133.31 550.969 1136.77 547.909L1135.17 545.935L1123.98 532.151L1142 533.827L1143.69 533.985C1143.74 533.382 1143.77 532.769 1143.77 532.151C1143.77 526.298 1141.44 521.01 1137.69 517.25C1134.12 513.682 1129.27 510.195 1123.96 511.484Z" fill="#EFECEA"/>
<path d="M1142 533.832L1123.98 532.156L1135.17 545.94C1134.06 546.788 1132.84 547.511 1131.54 548.091C1129.24 549.116 1126.58 548.416 1123.98 549.69C1119.67 551.807 1115.7 546.951 1112.51 545.725C1109.08 544.403 1105.48 537.462 1105.87 532.156C1106.28 526.643 1108.6 520.253 1112.77 518.376C1115.91 516.968 1120.04 513.706 1124.27 513.706C1127.7 513.706 1130.59 516.584 1133.36 517.15C1138.59 518.223 1142.08 525.795 1142.08 532.151C1142.08 532.716 1142.05 533.276 1142 533.832Z" fill="#F98B5D"/>
<path d="M1114.47 530.249C1114.47 530.853 1114.09 531.341 1113.63 531.341C1113.16 531.341 1112.78 530.853 1112.78 530.249C1112.78 529.646 1113.16 529.157 1113.63 529.157C1114.09 529.157 1114.47 529.646 1114.47 530.249Z" fill="white"/>
<path d="M1119.62 525C1119.62 525.603 1119.24 526.092 1118.77 526.092C1118.3 526.092 1117.93 525.603 1117.93 525C1117.93 524.397 1118.31 523.908 1118.77 523.908C1119.24 523.908 1119.62 524.397 1119.62 525Z" fill="white"/>
<path d="M1116.44 522.107C1116.44 522.605 1116.13 523.007 1115.74 523.007C1115.36 523.007 1115.04 522.605 1115.04 522.107C1115.04 521.609 1115.36 521.207 1115.74 521.207C1116.13 521.207 1116.44 521.609 1116.44 522.107Z" fill="white"/>
<path d="M1122.75 519.875C1122.75 520.431 1122.4 520.876 1121.97 520.876C1121.54 520.876 1121.2 520.426 1121.2 519.875C1121.2 519.319 1121.54 518.874 1121.97 518.874C1122.4 518.874 1122.75 519.319 1122.75 519.875Z" fill="white"/>
<path d="M1122.75 530.249C1122.75 531.121 1122.2 531.83 1121.52 531.83C1120.85 531.83 1120.3 531.121 1120.3 530.249C1120.3 529.378 1120.85 528.669 1121.52 528.669C1122.2 528.664 1122.75 529.373 1122.75 530.249Z" fill="white"/>
<path d="M1125.42 524.468C1125.42 525.072 1125.04 525.56 1124.57 525.56C1124.1 525.56 1123.73 525.072 1123.73 524.468C1123.73 523.865 1124.11 523.376 1124.57 523.376C1125.04 523.376 1125.42 523.87 1125.42 524.468Z" fill="white"/>
<path d="M1129.34 525.014C1129.34 525.316 1129.15 525.56 1128.91 525.56C1128.68 525.56 1128.49 525.316 1128.49 525.014C1128.49 524.713 1128.68 524.468 1128.91 524.468C1129.15 524.468 1129.34 524.713 1129.34 525.014Z" fill="white"/>
<path d="M1127.56 520.33C1127.56 520.632 1127.37 520.876 1127.14 520.876C1126.9 520.876 1126.71 520.632 1126.71 520.33C1126.71 520.028 1126.9 519.784 1127.14 519.784C1127.37 519.784 1127.56 520.028 1127.56 520.33Z" fill="white"/>
<path d="M1122.75 537.927C1122.75 538.229 1122.56 538.473 1122.33 538.473C1122.1 538.473 1121.91 538.229 1121.91 537.927C1121.91 537.625 1122.1 537.381 1122.33 537.381C1122.56 537.381 1122.75 537.625 1122.75 537.927Z" fill="white"/>
<path d="M1125.65 540.413C1125.65 540.715 1125.46 540.959 1125.23 540.959C1124.99 540.959 1124.8 540.715 1124.8 540.413C1124.8 540.111 1124.99 539.867 1125.23 539.867C1125.46 539.867 1125.65 540.111 1125.65 540.413Z" fill="white"/>
<path d="M1119.24 536.131C1119.24 536.811 1118.81 537.367 1118.28 537.367C1117.75 537.367 1117.32 536.816 1117.32 536.131C1117.32 535.451 1117.75 534.895 1118.28 534.895C1118.81 534.895 1119.24 535.446 1119.24 536.131Z" fill="white"/>
<path d="M1113.75 536.437C1113.75 536.437 1113.12 535.901 1112.51 536.979C1112.51 536.979 1113.31 538.052 1113.75 536.437Z" fill="#6615B2"/>
<path d="M1118.58 528.64C1118.58 528.64 1117.73 527.917 1116.9 529.373C1116.9 529.373 1117.98 530.834 1118.58 528.64Z" fill="#6615B2"/>
<path d="M1127.74 524.487C1127.74 524.487 1126.86 524.497 1126.17 526.595C1126.17 526.595 1127.32 527.112 1127.74 524.487Z" fill="#6615B2"/>
<path d="M1131.81 526.063C1131.81 526.063 1131.07 524.492 1130.15 525.029C1130.15 525.029 1131.04 527.529 1131.81 526.063Z" fill="#6615B2"/>
<path d="M1125.29 530.542C1125.29 530.542 1124.87 528.473 1124.11 527.821C1124.11 527.821 1124.54 530.776 1125.29 530.542Z" fill="#6615B2"/>
<path d="M1123.85 533.482C1123.85 533.482 1123.11 533.305 1122.49 534.929C1122.49 534.929 1123.44 535.604 1123.85 533.482Z" fill="#6615B2"/>
<path d="M1124.54 542.745C1124.54 542.745 1123.94 541.313 1123.15 541.634C1123.15 541.629 1123.87 543.866 1124.54 542.745Z" fill="#6615B2"/>
<path d="M1125.62 536.533C1125.62 536.533 1124.88 536.437 1124.27 538.123C1124.27 538.123 1125.24 538.698 1125.62 536.533Z" fill="#6615B2"/>
<path d="M1122.23 525.086C1122.23 525.086 1121.51 524.526 1120.82 525.804C1120.82 525.804 1121.73 526.973 1122.23 525.086Z" fill="#6615B2"/>
<path d="M1120.38 522.37C1120.38 522.37 1119.83 520.708 1119.04 520.708C1119.04 520.713 1119.68 523.218 1120.38 522.37Z" fill="#6615B2"/>
<path d="M1114.89 537.803C1114.06 538.516 1113.64 539.953 1113.97 541.002C1114.21 541.792 1114.74 541.625 1115.35 541.189L1115.66 542.19C1115.7 542.329 1115.82 542.362 1115.93 542.271L1116.52 541.768C1116.63 541.673 1116.69 541.486 1116.64 541.347L1116.34 540.351C1116.89 539.8 1117.24 539.23 1116.99 538.416C1116.67 537.367 1115.73 537.094 1114.89 537.803Z" fill="#DFDCF7"/>
<path d="M1130.7 519.482C1131.38 520.062 1131.72 521.235 1131.45 522.088C1131.26 522.73 1130.82 522.596 1130.33 522.241L1130.08 523.055C1130.04 523.17 1129.94 523.199 1129.85 523.122L1129.37 522.711C1129.28 522.634 1129.24 522.481 1129.27 522.366L1129.52 521.556C1129.07 521.111 1128.79 520.641 1128.99 519.981C1129.25 519.128 1130.02 518.903 1130.7 519.482Z" fill="#DFDCF7"/>
<path d="M1121.02 533.348C1121.7 533.928 1122.04 535.101 1121.77 535.954C1121.57 536.596 1121.14 536.462 1120.64 536.107L1120.39 536.921C1120.36 537.036 1120.26 537.065 1120.17 536.988L1119.69 536.576C1119.6 536.5 1119.56 536.347 1119.59 536.232L1119.84 535.422C1119.39 534.977 1119.11 534.507 1119.31 533.846C1119.57 532.994 1120.34 532.769 1121.02 533.348Z" fill="#DFDCF7"/>
<path d="M1115.28 524.483C1114.6 525.062 1114.26 526.236 1114.52 527.088C1114.72 527.73 1115.16 527.596 1115.65 527.241L1115.9 528.056C1115.93 528.17 1116.04 528.199 1116.12 528.123L1116.6 527.711C1116.69 527.634 1116.74 527.481 1116.7 527.366L1116.45 526.556C1116.91 526.111 1117.19 525.642 1116.98 524.981C1116.73 524.123 1115.96 523.903 1115.28 524.483Z" fill="#DFDCF7"/>
<path d="M1144.81 532.093L1129.26 530.647L1127.14 528.654V530.45L1139.27 545.408C1142.94 542.161 1145.4 537.477 1145.84 532.189V530.393L1144.81 532.093Z" fill="#EFECEA"/>
<path d="M1145.85 530.393C1145.4 535.676 1142.94 540.365 1139.28 543.612L1133.77 536.83L1132.63 535.417L1127.14 528.649L1145.85 530.393Z" fill="#F9795A"/>
<path d="M1133.36 531.878C1133.36 532.481 1132.98 532.97 1132.51 532.97C1132.05 532.97 1131.67 532.481 1131.67 531.878C1131.67 531.274 1132.05 530.786 1132.51 530.786C1132.98 530.786 1133.36 531.274 1133.36 531.878Z" fill="white"/>
<path d="M1134.25 535.843C1134.25 536.279 1134.06 536.653 1133.77 536.83L1132.63 535.417C1132.76 535.024 1133.06 534.751 1133.41 534.751C1133.88 534.756 1134.25 535.245 1134.25 535.843Z" fill="white"/>
<path d="M1137.28 536.092C1137.28 536.394 1137.09 536.638 1136.86 536.638C1136.63 536.638 1136.44 536.394 1136.44 536.092C1136.44 535.791 1136.63 535.546 1136.86 535.546C1137.09 535.546 1137.28 535.791 1137.28 536.092Z" fill="white"/>
<path d="M1139.55 532.97C1139.55 533.272 1139.36 533.516 1139.13 533.516C1138.9 533.516 1138.71 533.272 1138.71 532.97C1138.71 532.668 1138.9 532.424 1139.13 532.424C1139.37 532.424 1139.55 532.668 1139.55 532.97Z" fill="white"/>
<path d="M1135.25 532.151C1135.25 532.452 1135.06 532.697 1134.83 532.697C1134.6 532.697 1134.41 532.452 1134.41 532.151C1134.41 531.849 1134.6 531.605 1134.83 531.605C1135.06 531.605 1135.25 531.849 1135.25 532.151Z" fill="white"/>
<path d="M1137.42 531.188C1137.42 531.686 1137.11 532.089 1136.72 532.089C1136.34 532.089 1136.02 531.686 1136.02 531.188C1136.02 530.69 1136.34 530.288 1136.72 530.288C1137.11 530.288 1137.42 530.69 1137.42 531.188Z" fill="white"/>
<path d="M1136.72 534.11C1136.72 534.445 1136.51 534.718 1136.25 534.718C1135.99 534.718 1135.78 534.445 1135.78 534.11C1135.78 533.774 1135.99 533.501 1136.25 533.501C1136.51 533.501 1136.72 533.774 1136.72 534.11Z" fill="white"/>
<path d="M1130.53 530.786C1130.53 531.006 1130.39 531.188 1130.22 531.188C1130.05 531.188 1129.91 531.011 1129.91 530.786C1129.91 530.565 1130.05 530.383 1130.22 530.383C1130.39 530.383 1130.53 530.565 1130.53 530.786Z" fill="white"/>
<path d="M1134.12 532.223C1134.12 532.223 1133.51 532.227 1133.03 533.688C1133.03 533.688 1133.83 534.043 1134.12 532.223Z" fill="#6615B2"/>
<path d="M1141.14 533.602C1141.14 533.602 1140.67 532.27 1140.03 532.328C1140.03 532.328 1140.56 534.344 1141.14 533.602Z" fill="#6615B2"/>
<path d="M1135.6 535.839C1135.6 535.839 1135.13 534.56 1134.48 534.689C1134.48 534.684 1135.04 536.643 1135.6 535.839Z" fill="#6615B2"/>
<path d="M1139.27 537.132C1139.27 537.132 1138.67 536.878 1138.14 538.123C1138.14 538.123 1138.92 538.813 1139.27 537.132Z" fill="#6615B2"/>
<path d="M1129.95 529.559C1129.95 529.559 1129.42 529.167 1128.92 530.115C1128.92 530.115 1129.59 530.943 1129.95 529.559Z" fill="#6615B2"/>
<path d="M1149.82 727.064H1122.87C1122.27 727.064 1121.77 726.394 1121.77 725.573C1121.77 724.753 1122.27 724.083 1122.87 724.083H1149.82C1150.43 724.083 1150.92 724.753 1150.92 725.573C1150.92 726.394 1150.43 727.064 1149.82 727.064Z" fill="#FF7D78"/>
<path d="M1149.82 720.077H1122.87C1122.27 720.077 1121.77 719.407 1121.77 718.586C1121.77 717.765 1122.27 717.096 1122.87 717.096H1149.82C1150.43 717.096 1150.92 717.765 1150.92 718.586C1150.92 719.407 1150.43 720.077 1149.82 720.077Z" fill="#FF7D78"/>
<path d="M1134.92 483.536H1103.63C1102.97 483.536 1102.43 482.804 1102.43 481.906C1102.43 481.008 1102.97 480.276 1103.63 480.276H1134.92C1135.58 480.276 1136.12 481.008 1136.12 481.906C1136.12 482.8 1135.58 483.536 1134.92 483.536Z" fill="#242E6C"/>
<path d="M1134.92 490.194H1103.63C1102.97 490.194 1102.43 489.462 1102.43 488.564C1102.43 487.666 1102.97 486.934 1103.63 486.934H1134.92C1135.58 486.934 1136.12 487.666 1136.12 488.564C1136.12 489.462 1135.58 490.194 1134.92 490.194Z" fill="#242E6C"/>
<path d="M1134.92 496.852H1103.63C1102.97 496.852 1102.43 496.121 1102.43 495.223C1102.43 494.324 1102.97 493.593 1103.63 493.593H1134.92C1135.58 493.593 1136.12 494.324 1136.12 495.223C1136.12 496.121 1135.58 496.852 1134.92 496.852Z" fill="#242E6C"/>
<path d="M1188.41 436.01H1157.13C1156.46 436.01 1155.93 435.278 1155.93 434.38C1155.93 433.482 1156.46 432.75 1157.13 432.75H1188.41C1189.08 432.75 1189.61 433.482 1189.61 434.38C1189.61 435.274 1189.08 436.01 1188.41 436.01Z" fill="#242E6C"/>
<path d="M1188.41 442.668H1157.13C1156.46 442.668 1155.93 441.937 1155.93 441.038C1155.93 440.14 1156.46 439.409 1157.13 439.409H1188.41C1189.08 439.409 1189.61 440.14 1189.61 441.038C1189.61 441.933 1189.08 442.668 1188.41 442.668Z" fill="#242E6C"/>
<path d="M1188.41 449.327H1157.13C1156.46 449.327 1155.93 448.595 1155.93 447.697C1155.93 446.799 1156.46 446.067 1157.13 446.067H1188.41C1189.08 446.067 1189.61 446.799 1189.61 447.697C1189.61 448.591 1189.08 449.327 1188.41 449.327Z" fill="#242E6C"/>
<path d="M1188.41 530.5H1157.13C1156.46 530.5 1155.93 529.768 1155.93 528.87C1155.93 527.972 1156.46 527.24 1157.13 527.24H1188.41C1189.08 527.24 1189.61 527.972 1189.61 528.87C1189.61 529.764 1189.08 530.5 1188.41 530.5Z" fill="#242E6C"/>
<path d="M1188.41 537.158H1157.13C1156.46 537.158 1155.93 536.427 1155.93 535.528C1155.93 534.63 1156.46 533.899 1157.13 533.899H1188.41C1189.08 533.899 1189.61 534.63 1189.61 535.528C1189.61 536.423 1189.08 537.158 1188.41 537.158Z" fill="#242E6C"/>
<path d="M1188.41 543.817H1157.13C1156.46 543.817 1155.93 543.085 1155.93 542.187C1155.93 541.289 1156.46 540.557 1157.13 540.557H1188.41C1189.08 540.557 1189.61 541.289 1189.61 542.187C1189.61 543.081 1189.08 543.817 1188.41 543.817Z" fill="#242E6C"/>
<path d="M1273.98 535.529H1244.02C1239.09 535.529 1235.06 530.059 1235.06 523.377C1235.06 516.692 1239.09 511.222 1244.02 511.222H1273.98C1278.91 511.222 1282.94 516.692 1282.94 523.377C1282.94 530.059 1278.91 535.529 1273.98 535.529Z" fill="#FD8857"/>
<path d="M1253.27 519.878C1253.27 519.878 1258.96 530.674 1258.94 530.272C1258.93 529.869 1264.73 514.934 1264.73 514.934L1258.03 523.737L1253.27 519.878Z" fill="#EFECEA"/>
<path d="M1164.43 668.498L1145.2 674.804L1139.21 671.328L1157.85 665.49L1164.43 668.498Z" fill="#FFD4D2"/>
<path d="M1133.79 458.643C1131.39 459.647 1128.61 460.255 1124.86 460.273V460.49H1123.97V460.273C1102.55 460.188 1104.3 438.7 1104.3 438.7C1104.52 440.652 1106.34 441.931 1108.81 442.76C1113.74 444.413 1121.29 444.297 1123.97 444.19V444.141C1123.97 444.141 1124.09 444.153 1124.41 444.17C1124.74 444.153 1124.86 444.141 1124.86 444.141V444.19C1128.96 444.349 1143.89 444.534 1144.54 438.701C1144.54 438.701 1145.78 453.621 1133.79 458.643Z" fill="url(#paint17_linear_136_2)"/>
<path opacity="0.6" d="M1133.79 458.643C1131.39 459.647 1128.61 460.255 1124.86 460.273V460.49H1123.97V460.273C1102.55 460.188 1104.3 438.7 1104.3 438.7C1104.52 440.652 1106.34 441.931 1108.81 442.76C1109.94 444.29 1110.97 446.193 1111.74 448.553C1114.96 458.538 1127.93 445.947 1132.64 456.232C1133.05 457.123 1133.41 457.925 1133.79 458.643Z" fill="url(#paint18_radial_136_2)"/>
<path opacity="0.9" d="M1124.77 444.423C1135.74 444.423 1144.63 441.843 1144.63 438.66C1144.63 435.477 1135.74 432.897 1124.77 432.897C1113.8 432.897 1104.91 435.477 1104.91 438.66C1104.91 441.843 1113.8 444.423 1124.77 444.423Z" fill="url(#paint19_linear_136_2)"/>
<path d="M1129.09 445.346C1128.5 444.751 1128.91 441.462 1130.07 439.049C1131.72 435.628 1134.93 433.819 1135.69 433.418C1136.51 432.982 1137.25 432.735 1137.88 431.671C1138.79 430.136 1138.81 428.041 1139.17 428.066C1139.45 428.084 1139.35 429.246 1139.88 429.704C1140.62 430.338 1141.61 428.81 1142.35 429.52C1142.68 429.828 1142.78 430.384 1142.79 430.443C1142.96 431.423 1142.33 432.116 1142.51 432.589C1142.71 433.111 1143.53 432.407 1144.21 432.95C1144.97 433.556 1145.39 435.568 1144.97 436.873C1144.47 438.452 1142.94 438.332 1142.85 439.485C1142.78 440.339 1143.6 440.677 1143.66 441.596C1143.76 442.985 1142.08 444.925 1140.24 445.571C1136.52 446.881 1134.28 442.131 1131.09 444.088C1130.05 444.726 1129.48 445.735 1129.09 445.346Z" fill="url(#paint20_linear_136_2)"/>
<path opacity="0.3" d="M1132.69 442.212C1134.35 441.889 1134.99 444.002 1137.57 444.385C1139.72 444.704 1141.99 443.644 1142.16 442.264C1142.27 441.368 1141.42 440.96 1141.47 439.785C1141.56 438.045 1143.5 437.489 1143.42 436.294C1143.34 435.231 1141.79 435.294 1141.4 433.671C1141.11 432.442 1141.78 431.476 1141.42 430.899C1140.98 430.195 1139.88 431.467 1138.99 430.826C1138.79 430.682 1138.63 430.459 1138.5 430.182C1138.35 430.679 1138.15 431.201 1137.88 431.67C1137.25 432.734 1136.51 432.981 1135.69 433.417C1134.93 433.818 1131.72 435.627 1130.08 439.049C1128.92 441.462 1128.5 444.751 1129.09 445.345C1129.32 445.573 1129.61 445.321 1130.02 444.945C1131.02 442.97 1131.96 442.355 1132.69 442.212Z" fill="url(#paint21_linear_136_2)"/>
<path d="M1128.97 447.345C1128.06 446.636 1125.74 444.569 1124.81 440.528C1123.29 433.936 1126.43 426.224 1128.64 426.026C1129.39 425.959 1130.01 426.75 1131.33 426.354C1132.24 426.083 1132.37 425.584 1133.28 425.46C1134.11 425.347 1135.36 425.575 1135.66 426.579C1135.87 427.276 1135.5 427.936 1135.75 428.279C1136.05 428.69 1136.66 427.863 1137.16 428.121C1137.88 428.499 1138.37 431.198 1137.85 433.209C1136.95 436.733 1133.6 435.733 1131.13 439.491C1129.59 441.835 1129.11 444.929 1128.97 447.345Z" fill="url(#paint22_linear_136_2)"/>
<path opacity="0.3" d="M1128.5 446.178C1128.5 446.178 1126.34 440.923 1127.38 435.521C1128.42 430.119 1129.46 430.85 1129.95 430.517C1130.44 430.185 1129.37 432.506 1128.85 434.29C1128.33 436.073 1127.13 437.664 1128.5 446.178Z" fill="url(#paint23_linear_136_2)"/>
<path opacity="0.3" d="M1137.16 428.121C1136.66 427.863 1136.05 428.69 1135.75 428.279C1135.5 427.935 1135.87 427.276 1135.66 426.579C1135.36 425.575 1134.11 425.347 1133.28 425.46C1132.37 425.584 1132.24 426.083 1131.34 426.354C1130.01 426.75 1129.39 425.959 1128.64 426.026C1126.47 426.22 1123.4 433.654 1124.73 440.162C1124.5 437.677 1124.56 434.696 1125.51 431.898C1125.7 431.341 1127.07 427.294 1128.67 427.442C1129.5 427.519 1129.72 428.647 1130.66 428.647C1132 428.648 1132.55 426.303 1133.39 426.632C1134.2 426.944 1134.02 429.179 1135.03 429.74C1135.75 430.139 1136.24 429.224 1136.84 429.494C1137.28 429.693 1137.72 430.504 1137.95 432.753C1138.29 430.813 1137.83 428.472 1137.16 428.121Z" fill="url(#paint24_linear_136_2)"/>
<path d="M1120.97 447.288C1121.56 446.693 1121.15 443.404 1119.99 440.991C1118.34 437.57 1115.13 435.761 1114.37 435.36C1113.55 434.924 1112.82 434.677 1112.18 433.613C1111.28 432.077 1111.25 429.983 1110.89 430.008C1110.62 430.026 1110.71 431.188 1110.18 431.646C1109.44 432.28 1108.46 430.752 1107.71 431.462C1107.38 431.769 1107.28 432.326 1107.27 432.385C1107.1 433.365 1107.73 434.058 1107.55 434.531C1107.35 435.052 1106.53 434.349 1105.85 434.892C1105.09 435.498 1104.67 437.51 1105.09 438.815C1105.6 440.394 1107.12 440.273 1107.21 441.427C1107.28 442.281 1106.46 442.619 1106.4 443.538C1106.3 444.927 1107.98 446.867 1109.82 447.513C1113.54 448.823 1115.78 444.073 1118.97 446.03C1120.01 446.668 1120.58 447.677 1120.97 447.288Z" fill="url(#paint25_linear_136_2)"/>
<path d="M1117.38 444.154C1115.72 443.831 1115.07 445.944 1112.49 446.327C1110.34 446.646 1108.07 445.586 1107.9 444.206C1107.79 443.31 1108.64 442.901 1108.59 441.727C1108.5 439.987 1106.57 439.431 1106.65 438.236C1106.72 437.173 1108.27 437.236 1108.66 435.613C1108.95 434.384 1108.28 433.418 1108.64 432.841C1109.08 432.137 1110.18 433.409 1111.07 432.768C1111.27 432.623 1111.43 432.401 1111.56 432.124C1111.71 432.621 1111.91 433.143 1112.18 433.612C1112.81 434.676 1113.55 434.923 1114.37 435.359C1115.13 435.759 1118.34 437.569 1119.99 440.99C1121.15 443.403 1121.56 446.693 1120.97 447.287C1120.74 447.515 1120.45 447.263 1120.04 446.887C1119.04 444.912 1118.1 444.297 1117.38 444.154Z" fill="url(#paint26_linear_136_2)"/>
<path d="M1121.09 449.288C1122 448.579 1124.32 446.512 1125.25 442.47C1126.77 435.879 1123.63 428.167 1121.42 427.968C1120.67 427.901 1120.05 428.693 1118.73 428.297C1117.82 428.025 1117.69 427.526 1116.78 427.402C1115.95 427.29 1114.7 427.518 1114.4 428.522C1114.19 429.219 1114.56 429.879 1114.31 430.222C1114.01 430.633 1113.4 429.805 1112.9 430.064C1112.18 430.442 1111.7 433.141 1112.21 435.152C1113.11 438.676 1116.46 437.676 1118.93 441.434C1120.47 443.777 1120.95 446.871 1121.09 449.288Z" fill="url(#paint27_linear_136_2)"/>
<path d="M1121.56 448.12C1121.56 448.12 1123.72 442.864 1122.68 437.462C1121.64 432.061 1120.6 432.792 1120.11 432.459C1119.62 432.127 1120.69 434.448 1121.21 436.232C1121.73 438.015 1122.93 439.606 1121.56 448.12Z" fill="url(#paint28_linear_136_2)"/>
<path opacity="0.3" d="M1112.9 430.064C1113.4 429.805 1114.01 430.633 1114.31 430.222C1114.56 429.878 1114.19 429.219 1114.4 428.522C1114.7 427.518 1115.95 427.29 1116.78 427.402C1117.69 427.526 1117.82 428.025 1118.73 428.297C1120.05 428.693 1120.67 427.901 1121.42 427.968C1123.59 428.163 1126.66 435.597 1125.33 442.105C1125.56 439.62 1125.5 436.639 1124.55 433.841C1124.36 433.283 1122.99 429.237 1121.39 429.385C1120.56 429.461 1120.34 430.59 1119.4 430.59C1118.06 430.591 1117.52 428.246 1116.67 428.574C1115.86 428.887 1116.05 431.121 1115.03 431.683C1114.31 432.082 1113.82 431.167 1113.22 431.437C1112.78 431.636 1112.35 432.447 1112.11 434.696C1111.77 432.755 1112.23 430.414 1112.9 430.064Z" fill="url(#paint29_linear_136_2)"/>
<path d="M1136.51 427.164C1138.9 430.33 1139 435.931 1136.75 439.675C1134.49 443.419 1130.72 443.888 1128.33 440.722L1136.51 427.164Z" fill="url(#paint30_linear_136_2)"/>
<path opacity="0.5" d="M1136.51 427.164C1138.62 429.96 1138.5 435.262 1136.24 439.006C1133.98 442.75 1130.44 443.518 1128.33 440.722L1136.51 427.164Z" fill="url(#paint31_linear_136_2)"/>
<path d="M1136.02 427.972C1137.82 430.361 1137.77 435.077 1135.79 438.363C1133.8 441.647 1130.65 442.256 1128.85 439.868L1136.02 427.972Z" fill="url(#paint32_linear_136_2)"/>
<path d="M1133.34 432.984L1132.74 433.98L1135.5 437.643C1136.15 436.495 1136.52 435.275 1136.7 434.06L1133.34 432.984Z" fill="url(#paint33_linear_136_2)"/>
<path d="M1132.96 440.148C1133.76 439.773 1134.53 439.129 1135.24 438.058L1132.49 434.4L1131.89 435.393L1132.96 440.148Z" fill="url(#paint34_linear_136_2)"/>
<path d="M1131.52 436L1129.49 439.37C1130.24 440.37 1131.35 440.689 1132.47 440.337L1131.52 436Z" fill="url(#paint35_linear_136_2)"/>
<path d="M1133.71 432.378L1136.79 433.319C1136.93 431.571 1136.66 430.006 1135.81 428.882L1133.71 432.378Z" fill="url(#paint36_linear_136_2)"/>
<g opacity="0.2">
<path opacity="0.2" d="M1133.34 432.984L1132.74 433.98L1135.5 437.643C1136.15 436.495 1136.52 435.275 1136.7 434.06L1133.34 432.984Z" fill="url(#paint37_linear_136_2)"/>
<path opacity="0.2" d="M1132.96 440.148C1133.76 439.773 1134.53 439.129 1135.24 438.058L1132.49 434.4L1131.89 435.393L1132.96 440.148Z" fill="url(#paint38_linear_136_2)"/>
<path opacity="0.2" d="M1131.52 436L1129.49 439.37C1130.24 440.37 1131.35 440.689 1132.47 440.337L1131.52 436Z" fill="url(#paint39_linear_136_2)"/>
<path opacity="0.2" d="M1133.71 432.378L1136.79 433.319C1136.93 431.571 1136.66 430.006 1135.81 428.882L1133.71 432.378Z" fill="url(#paint40_linear_136_2)"/>
</g>
<path d="M1123.07 439.199C1121.3 443.155 1117.58 444.108 1114.75 441.328C1111.93 438.547 1111.08 433.088 1112.85 429.132L1123.07 439.199Z" fill="url(#paint41_linear_136_2)"/>
<path opacity="0.5" d="M1123.07 439.2C1121.51 442.694 1117.95 443.272 1115.13 440.492C1112.31 437.713 1111.29 432.626 1112.85 429.132L1123.07 439.2Z" fill="url(#paint42_linear_136_2)"/>
<path d="M1122.47 438.599C1121.13 441.583 1117.97 442.172 1115.49 439.733C1113.02 437.294 1112.16 432.75 1113.5 429.767L1122.47 438.599Z" fill="url(#paint43_linear_136_2)"/>
<path d="M1118.73 435.375L1117.98 434.636L1115.93 439.213C1116.79 440.007 1117.66 440.371 1118.5 440.462L1118.73 435.375Z" fill="url(#paint44_linear_136_2)"/>
<path d="M1113.9 435.846C1114.26 436.958 1114.8 438.006 1115.62 438.895L1117.67 434.325L1116.92 433.587L1113.9 435.846Z" fill="url(#paint45_linear_136_2)"/>
<path d="M1116.46 433.137L1113.92 430.635C1113.36 431.885 1113.31 433.556 1113.7 435.153L1116.46 433.137Z" fill="url(#paint46_linear_136_2)"/>
<path d="M1119.19 435.826L1119 440.479C1120.19 440.435 1121.2 439.829 1121.83 438.422L1119.19 435.826Z" fill="url(#paint47_linear_136_2)"/>
<g opacity="0.2">
<path opacity="0.2" d="M1118.73 435.375L1117.98 434.636L1115.93 439.213C1116.79 440.007 1117.66 440.371 1118.5 440.462L1118.73 435.375Z" fill="url(#paint48_linear_136_2)"/>
<path opacity="0.2" d="M1113.9 435.846C1114.26 436.958 1114.8 438.006 1115.62 438.895L1117.67 434.325L1116.92 433.587L1113.9 435.846Z" fill="url(#paint49_linear_136_2)"/>
<path opacity="0.2" d="M1116.46 433.137L1113.92 430.635C1113.36 431.885 1113.31 433.556 1113.7 435.153L1116.46 433.137Z" fill="url(#paint50_linear_136_2)"/>
<path opacity="0.2" d="M1119.19 435.826L1119 440.479C1120.19 440.435 1121.2 439.829 1121.83 438.422L1119.19 435.826Z" fill="url(#paint51_linear_136_2)"/>
</g>
<path d="M1132.68 450.078C1133.28 449.484 1132.86 446.194 1131.7 443.781C1130.06 440.361 1126.85 438.551 1126.09 438.15C1125.26 437.714 1124.53 437.467 1123.9 436.403C1122.99 434.868 1122.97 432.773 1122.6 432.798C1122.33 432.817 1122.42 433.978 1121.89 434.437C1121.15 435.07 1120.17 433.542 1119.42 434.253C1119.1 434.56 1119 435.116 1118.99 435.175C1118.81 436.155 1119.45 436.848 1119.26 437.322C1119.06 437.843 1118.25 437.139 1117.57 437.683C1116.8 438.288 1116.38 440.3 1116.8 441.606C1117.31 443.185 1118.84 443.064 1118.92 444.217C1118.99 445.071 1118.17 445.409 1118.11 446.328C1118.02 447.717 1119.69 449.657 1121.53 450.304C1125.25 451.613 1127.5 446.864 1130.68 448.82C1131.72 449.458 1132.3 450.468 1132.68 450.078Z" fill="url(#paint52_linear_136_2)"/>
<path d="M1129.09 446.944C1127.43 446.621 1126.78 448.734 1124.2 449.117C1122.05 449.436 1119.79 448.376 1119.62 446.996C1119.51 446.1 1120.36 445.692 1120.3 444.518C1120.22 442.778 1118.28 442.222 1118.36 441.026C1118.43 439.963 1119.99 440.027 1120.37 438.403C1120.67 437.174 1120 436.208 1120.35 435.632C1120.79 434.927 1121.9 436.199 1122.78 435.559C1122.98 435.415 1123.14 435.191 1123.28 434.914C1123.42 435.411 1123.62 435.933 1123.9 436.402C1124.53 437.466 1125.26 437.714 1126.09 438.149C1126.85 438.55 1130.05 440.359 1131.7 443.781C1132.86 446.194 1133.28 449.483 1132.68 450.077C1132.46 450.305 1132.16 450.054 1131.75 449.677C1130.75 447.702 1129.82 447.087 1129.09 446.944Z" fill="url(#paint53_linear_136_2)"/>
<path d="M1127.64 445.667C1127.38 446.345 1127.04 446.967 1126.6 447.504C1124.38 450.214 1121.19 449.081 1119.46 444.972C1118.36 442.351 1117.91 439.421 1118.13 437.153C1118.25 435.865 1118.59 434.791 1119.15 434.106C1120.69 432.214 1123.89 433.349 1126.28 436.638C1128.2 439.277 1128.67 442.926 1127.64 445.667Z" fill="url(#paint54_linear_136_2)"/>
<path d="M1125.26 438.939C1126.19 440.619 1126.02 443.116 1124.88 444.515C1123.73 445.915 1122.04 445.689 1121.11 444.009C1120.18 442.33 1120.35 439.833 1121.49 438.434C1122.64 437.034 1124.32 437.26 1125.26 438.939Z" fill="url(#paint55_linear_136_2)"/>
<path opacity="0.1" d="M1127.64 445.667C1127.38 446.345 1127.04 446.967 1126.6 447.504C1124.38 450.214 1121.19 449.081 1119.46 444.972C1118.36 442.351 1117.91 439.421 1118.13 437.153C1118.38 439.444 1119.09 442.895 1121.01 443.827C1121.29 443.958 1121.58 444.039 1121.9 444.06C1122.99 444.129 1124.03 444.234 1124.95 444.422C1126.13 444.664 1127.09 445.043 1127.64 445.667Z" fill="url(#paint56_linear_136_2)"/>
<path d="M1171.53 655.516C1167.86 656.947 1163.59 657.813 1157.84 657.839V658.149H1156.47V657.839C1123.61 657.718 1126.28 627.086 1126.28 627.086C1126.62 629.869 1129.41 631.691 1133.21 632.873C1140.77 635.23 1152.36 635.064 1156.47 634.912V634.843C1156.47 634.843 1156.65 634.859 1157.15 634.883C1157.65 634.859 1157.84 634.843 1157.84 634.843V634.912C1164.14 635.139 1187.04 635.403 1188.04 627.087C1188.04 627.087 1189.94 648.356 1171.53 655.516Z" fill="url(#paint57_linear_136_2)"/>
<path opacity="0.6" d="M1171.53 655.516C1167.86 656.947 1163.59 657.813 1157.84 657.839V658.149H1156.47V657.839C1123.61 657.718 1126.28 627.086 1126.28 627.086C1126.62 629.869 1129.41 631.691 1133.21 632.873C1134.95 635.055 1136.53 637.768 1137.7 641.132C1142.65 655.365 1162.55 637.417 1169.77 652.078C1170.4 653.349 1170.96 654.491 1171.53 655.516Z" fill="url(#paint58_linear_136_2)"/>
<path d="M1157.14 636.849C1174.31 636.849 1188.23 632.837 1188.23 627.889C1188.23 622.941 1174.31 618.93 1157.14 618.93C1139.97 618.93 1126.06 622.941 1126.06 627.889C1126.06 632.837 1139.97 636.849 1157.14 636.849Z" fill="url(#paint59_linear_136_2)"/>
<path opacity="0.9" d="M1157.7 635.244C1174.53 635.244 1188.17 631.566 1188.17 627.029C1188.17 622.491 1174.53 618.813 1157.7 618.813C1140.87 618.813 1127.22 622.491 1127.22 627.029C1127.22 631.566 1140.87 635.244 1157.7 635.244Z" fill="url(#paint60_linear_136_2)"/>
<path d="M1164.33 636.56C1163.42 635.713 1164.06 631.024 1165.84 627.584C1168.36 622.708 1173.29 620.128 1174.45 619.556C1175.72 618.935 1176.84 618.583 1177.81 617.066C1179.21 614.877 1179.24 611.892 1179.8 611.927C1180.22 611.953 1180.07 613.61 1180.89 614.263C1182.02 615.166 1183.53 612.987 1184.68 614C1185.18 614.438 1185.33 615.232 1185.35 615.315C1185.61 616.713 1184.64 617.7 1184.92 618.375C1185.23 619.118 1186.48 618.115 1187.53 618.89C1188.7 619.753 1189.34 622.622 1188.7 624.482C1187.92 626.733 1185.58 626.561 1185.44 628.205C1185.34 629.423 1186.59 629.904 1186.69 631.215C1186.84 633.195 1184.26 635.96 1181.45 636.882C1175.73 638.749 1172.29 631.978 1167.4 634.767C1165.81 635.677 1164.92 637.114 1164.33 636.56Z" fill="url(#paint61_linear_136_2)"/>
<path opacity="0.3" d="M1169.85 632.093C1172.39 631.632 1173.39 634.644 1177.35 635.19C1180.64 635.645 1184.12 634.133 1184.38 632.166C1184.55 630.889 1183.24 630.307 1183.33 628.633C1183.46 626.153 1186.43 625.36 1186.31 623.656C1186.2 622.141 1183.81 622.231 1183.22 619.917C1182.77 618.165 1183.8 616.788 1183.25 615.966C1182.58 614.962 1180.88 616.775 1179.52 615.862C1179.22 615.655 1178.97 615.338 1178.76 614.943C1178.54 615.652 1178.24 616.396 1177.81 617.065C1176.84 618.582 1175.72 618.934 1174.45 619.555C1173.29 620.126 1168.36 622.705 1165.84 627.583C1164.06 631.023 1163.42 635.712 1164.33 636.559C1164.68 636.884 1165.13 636.525 1165.76 635.988C1167.3 633.173 1168.73 632.296 1169.85 632.093Z" fill="url(#paint62_linear_136_2)"/>
<path d="M1164.14 639.411C1162.75 638.4 1159.18 635.453 1157.75 629.691C1155.42 620.295 1160.25 609.302 1163.64 609.018C1164.78 608.923 1165.74 610.051 1167.77 609.487C1169.17 609.1 1169.36 608.388 1170.76 608.212C1172.03 608.051 1173.94 608.376 1174.41 609.808C1174.73 610.801 1174.16 611.742 1174.55 612.231C1175 612.817 1175.94 611.637 1176.71 612.006C1177.82 612.545 1178.56 616.392 1177.77 619.259C1176.38 624.283 1171.25 622.857 1167.46 628.214C1165.1 631.555 1164.37 635.966 1164.14 639.411Z" fill="url(#paint63_linear_136_2)"/>
<path opacity="0.3" d="M1163.42 637.747C1163.42 637.747 1160.11 630.255 1161.71 622.554C1163.3 614.853 1164.9 615.896 1165.65 615.422C1166.39 614.948 1164.75 618.257 1163.96 620.8C1163.16 623.342 1161.32 625.61 1163.42 637.747Z" fill="url(#paint64_linear_136_2)"/>
<path opacity="0.3" d="M1176.71 612.006C1175.94 611.637 1175.01 612.817 1174.55 612.231C1174.16 611.74 1174.73 610.801 1174.41 609.808C1173.95 608.376 1172.03 608.051 1170.76 608.212C1169.36 608.388 1169.17 609.1 1167.77 609.487C1165.75 610.051 1164.79 608.923 1163.64 609.018C1160.31 609.296 1155.6 619.893 1157.64 629.17C1157.28 625.628 1157.38 621.378 1158.83 617.39C1159.12 616.595 1161.23 610.826 1163.69 611.038C1164.95 611.147 1165.3 612.756 1166.73 612.756C1168.8 612.757 1169.63 609.414 1170.93 609.882C1172.17 610.328 1171.89 613.513 1173.45 614.313C1174.56 614.883 1175.3 613.578 1176.22 613.963C1176.9 614.246 1177.56 615.403 1177.92 618.609C1178.45 615.843 1177.74 612.505 1176.71 612.006Z" fill="url(#paint65_linear_136_2)"/>
<path d="M1151.87 639.328C1152.78 638.481 1152.14 633.792 1150.36 630.352C1147.83 625.476 1142.91 622.896 1141.75 622.324C1140.48 621.703 1139.35 621.351 1138.39 619.834C1136.99 617.645 1136.96 614.66 1136.4 614.695C1135.98 614.721 1136.13 616.378 1135.31 617.031C1134.17 617.934 1132.66 615.755 1131.52 616.768C1131.02 617.206 1130.86 618 1130.85 618.083C1130.59 619.481 1131.55 620.468 1131.28 621.143C1130.97 621.886 1129.72 620.883 1128.67 621.658C1127.5 622.521 1126.85 625.39 1127.5 627.25C1128.28 629.501 1130.62 629.329 1130.75 630.973C1130.86 632.191 1129.6 632.672 1129.51 633.983C1129.36 635.963 1131.93 638.728 1134.75 639.65C1140.46 641.517 1143.91 634.746 1148.79 637.535C1150.39 638.445 1151.28 639.882 1151.87 639.328Z" fill="url(#paint66_linear_136_2)"/>
<path d="M1146.35 634.861C1143.8 634.4 1142.81 637.412 1138.85 637.959C1135.55 638.413 1132.08 636.902 1131.82 634.935C1131.65 633.657 1132.96 633.075 1132.87 631.402C1132.74 628.921 1129.76 628.129 1129.89 626.424C1130 624.909 1132.39 624.999 1132.98 622.686C1133.43 620.933 1132.4 619.556 1132.95 618.734C1133.62 617.73 1135.32 619.543 1136.68 618.63C1136.98 618.424 1137.23 618.106 1137.43 617.711C1137.66 618.42 1137.96 619.165 1138.39 619.833C1139.35 621.35 1140.48 621.702 1141.74 622.323C1142.91 622.894 1147.83 625.473 1150.36 630.351C1152.14 633.791 1152.78 638.48 1151.87 639.327C1151.52 639.652 1151.07 639.293 1150.44 638.756C1148.9 635.941 1147.47 635.064 1146.35 634.861Z" fill="url(#paint67_linear_136_2)"/>
<path d="M1152.05 642.18C1153.45 641.169 1157.01 638.222 1158.44 632.461C1160.77 623.064 1155.95 612.071 1152.56 611.788C1151.41 611.692 1150.45 612.821 1148.42 612.256C1147.03 611.869 1146.84 611.158 1145.44 610.981C1144.17 610.821 1142.25 611.146 1141.79 612.577C1141.47 613.57 1142.03 614.511 1141.65 615C1141.19 615.586 1140.26 614.407 1139.49 614.775C1138.37 615.314 1137.64 619.161 1138.43 622.028C1139.81 627.052 1144.95 625.626 1148.74 630.983C1151.1 634.323 1151.83 638.735 1152.05 642.18Z" fill="url(#paint68_linear_136_2)"/>
<path d="M1152.78 640.515C1152.78 640.515 1156.09 633.023 1154.49 625.322C1152.9 617.621 1151.29 618.664 1150.55 618.19C1149.8 617.716 1151.45 621.025 1152.24 623.568C1153.04 626.11 1154.87 628.378 1152.78 640.515Z" fill="url(#paint69_linear_136_2)"/>
<path opacity="0.3" d="M1139.49 614.775C1140.26 614.407 1141.19 615.586 1141.65 615C1142.03 614.51 1141.47 613.57 1141.79 612.577C1142.25 611.146 1144.17 610.821 1145.44 610.981C1146.84 611.158 1147.03 611.869 1148.42 612.256C1150.45 612.821 1151.41 611.692 1152.56 611.788C1155.89 612.065 1160.59 622.663 1158.56 631.939C1158.92 628.397 1158.82 624.148 1157.37 620.159C1157.08 619.364 1154.97 613.595 1152.51 613.807C1151.25 613.916 1150.9 615.525 1149.47 615.525C1147.4 615.526 1146.57 612.183 1145.27 612.652C1144.03 613.097 1144.31 616.282 1142.75 617.082C1141.64 617.652 1140.9 616.347 1139.98 616.732C1139.3 617.016 1138.63 618.172 1138.28 621.378C1137.75 618.611 1138.46 615.274 1139.49 614.775Z" fill="url(#paint70_linear_136_2)"/>
<path d="M1175.72 610.641C1179.38 615.154 1179.54 623.139 1176.08 628.477C1172.61 633.814 1166.83 634.481 1163.17 629.969L1175.72 610.641Z" fill="url(#paint71_linear_136_2)"/>
<path opacity="0.5" d="M1175.72 610.641C1178.95 614.627 1178.77 622.185 1175.3 627.523C1171.83 632.86 1166.4 633.955 1163.16 629.968L1175.72 610.641Z" fill="url(#paint72_linear_136_2)"/>
<path d="M1174.97 611.793C1177.73 615.198 1177.64 621.922 1174.6 626.605C1171.56 631.287 1166.72 632.156 1163.95 628.751L1174.97 611.793Z" fill="url(#paint73_linear_136_2)"/>
<path d="M1170.85 618.939L1169.93 620.358L1174.17 625.579C1175.17 623.942 1175.73 622.204 1176.01 620.472L1170.85 618.939Z" fill="url(#paint74_linear_136_2)"/>
<path d="M1170.27 629.151C1171.49 628.616 1172.68 627.698 1173.77 626.171L1169.54 620.956L1168.62 622.372L1170.27 629.151Z" fill="url(#paint75_linear_136_2)"/>
<path d="M1168.06 623.237L1164.94 628.041C1166.1 629.467 1167.8 629.921 1169.52 629.421L1168.06 623.237Z" fill="url(#paint76_linear_136_2)"/>
<path d="M1171.41 618.073L1176.14 619.415C1176.35 616.923 1175.95 614.693 1174.65 613.089L1171.41 618.073Z" fill="url(#paint77_linear_136_2)"/>
<g opacity="0.2">
<path opacity="0.2" d="M1170.85 618.939L1169.93 620.358L1174.17 625.579C1175.17 623.942 1175.73 622.204 1176.01 620.472L1170.85 618.939Z" fill="url(#paint78_linear_136_2)"/>
<path opacity="0.2" d="M1170.27 629.151C1171.49 628.616 1172.68 627.698 1173.77 626.171L1169.54 620.956L1168.62 622.372L1170.27 629.151Z" fill="url(#paint79_linear_136_2)"/>
<path opacity="0.2" d="M1168.06 623.237L1164.94 628.041C1166.1 629.467 1167.8 629.921 1169.52 629.421L1168.06 623.237Z" fill="url(#paint80_linear_136_2)"/>
<path opacity="0.2" d="M1171.41 618.073L1176.14 619.415C1176.35 616.923 1175.95 614.693 1174.65 613.089L1171.41 618.073Z" fill="url(#paint81_linear_136_2)"/>
</g>
<path d="M1155.1 627.798C1152.38 633.436 1146.66 634.795 1142.33 630.832C1138 626.869 1136.69 619.086 1139.41 613.447L1155.1 627.798Z" fill="url(#paint82_linear_136_2)"/>
<path opacity="0.5" d="M1155.1 627.798C1152.69 632.779 1147.24 633.603 1142.9 629.641C1138.57 625.679 1137.01 618.428 1139.41 613.447L1155.1 627.798Z" fill="url(#paint83_linear_136_2)"/>
<path d="M1154.16 626.942C1152.11 631.196 1147.26 632.036 1143.47 628.559C1139.67 625.082 1138.35 618.605 1140.4 614.352L1154.16 626.942Z" fill="url(#paint84_linear_136_2)"/>
<path d="M1148.44 622.346L1147.29 621.293L1144.14 627.817C1145.46 628.949 1146.79 629.468 1148.07 629.598L1148.44 622.346Z" fill="url(#paint85_linear_136_2)"/>
<path d="M1141.02 623.017C1141.57 624.603 1142.4 626.097 1143.66 627.364L1146.8 620.849L1145.65 619.798L1141.02 623.017Z" fill="url(#paint86_linear_136_2)"/>
<path d="M1144.95 619.156L1141.05 615.589C1140.19 617.371 1140.11 619.754 1140.72 622.029L1144.95 619.156Z" fill="url(#paint87_linear_136_2)"/>
<path d="M1149.14 622.989L1148.85 629.622C1150.67 629.56 1152.22 628.695 1153.19 626.69L1149.14 622.989Z" fill="url(#paint88_linear_136_2)"/>
<g opacity="0.2">
<path opacity="0.2" d="M1148.44 622.346L1147.29 621.293L1144.14 627.817C1145.46 628.949 1146.79 629.468 1148.07 629.598L1148.44 622.346Z" fill="url(#paint89_linear_136_2)"/>
<path opacity="0.2" d="M1141.02 623.017C1141.57 624.603 1142.4 626.097 1143.66 627.364L1146.8 620.849L1145.65 619.798L1141.02 623.017Z" fill="url(#paint90_linear_136_2)"/>
<path opacity="0.2" d="M1144.95 619.156L1141.05 615.589C1140.19 617.371 1140.11 619.754 1140.72 622.029L1144.95 619.156Z" fill="url(#paint91_linear_136_2)"/>
<path opacity="0.2" d="M1149.14 622.989L1148.85 629.622C1150.67 629.56 1152.22 628.695 1153.19 626.69L1149.14 622.989Z" fill="url(#paint92_linear_136_2)"/>
</g>
<path d="M1169.84 643.306C1170.75 642.459 1170.11 637.77 1168.33 634.33C1165.81 629.453 1160.89 626.874 1159.72 626.302C1158.45 625.681 1157.33 625.329 1156.36 623.812C1154.97 621.623 1154.93 618.638 1154.37 618.673C1153.95 618.699 1154.1 620.356 1153.28 621.009C1152.15 621.912 1150.64 619.733 1149.49 620.746C1149 621.184 1148.84 621.978 1148.82 622.061C1148.56 623.458 1149.53 624.446 1149.25 625.121C1148.94 625.864 1147.69 624.861 1146.64 625.636C1145.48 626.499 1144.83 629.368 1145.47 631.228C1146.25 633.479 1148.59 633.307 1148.73 634.951C1148.83 636.168 1147.58 636.65 1147.48 637.961C1147.34 639.941 1149.91 642.706 1152.73 643.628C1158.44 645.495 1161.88 638.724 1166.77 641.513C1168.36 642.422 1169.25 643.861 1169.84 643.306Z" fill="url(#paint93_linear_136_2)"/>
<path d="M1164.33 638.839C1161.78 638.378 1160.78 641.39 1156.82 641.936C1153.53 642.391 1150.05 640.879 1149.79 638.912C1149.62 637.635 1150.93 637.053 1150.84 635.379C1150.71 632.899 1147.74 632.106 1147.86 630.402C1147.97 628.887 1150.36 628.977 1150.95 626.663C1151.4 624.91 1150.37 623.534 1150.92 622.712C1151.59 621.708 1153.29 623.521 1154.65 622.608C1154.96 622.402 1155.21 622.084 1155.41 621.689C1155.63 622.398 1155.93 623.142 1156.36 623.811C1157.33 625.327 1158.45 625.68 1159.72 626.301C1160.88 626.872 1165.81 629.451 1168.33 634.329C1170.11 637.769 1170.75 642.457 1169.84 643.305C1169.49 643.63 1169.05 643.271 1168.41 642.734C1166.88 639.919 1165.45 639.042 1164.33 638.839Z" fill="url(#paint94_linear_136_2)"/>
<path d="M1162.1 637.018C1161.71 637.985 1161.18 638.872 1160.5 639.637C1157.1 643.5 1152.2 641.885 1149.56 636.027C1147.87 632.291 1147.17 628.114 1147.5 624.881C1147.69 623.046 1148.21 621.514 1149.07 620.538C1151.44 617.841 1156.34 619.459 1160.02 624.148C1162.96 627.909 1163.68 633.111 1162.1 637.018Z" fill="url(#paint95_linear_136_2)"/>
<path d="M1158.45 627.427C1159.88 629.821 1159.62 633.38 1157.86 635.376C1156.1 637.371 1153.52 637.049 1152.08 634.655C1150.65 632.261 1150.91 628.701 1152.67 626.706C1154.43 624.711 1157.01 625.033 1158.45 627.427Z" fill="url(#paint96_linear_136_2)"/>
<path opacity="0.1" d="M1162.1 637.018C1161.71 637.985 1161.18 638.872 1160.5 639.637C1157.1 643.5 1152.2 641.885 1149.56 636.027C1147.87 632.291 1147.17 628.114 1147.5 624.881C1147.9 628.147 1148.98 633.067 1151.94 634.395C1152.35 634.581 1152.81 634.697 1153.3 634.727C1154.97 634.826 1156.57 634.975 1157.97 635.243C1159.78 635.588 1161.26 636.129 1162.1 637.018Z" fill="url(#paint97_linear_136_2)"/>
</g>
<defs>
<linearGradient id="paint0_linear_136_2" x1="1353.49" y1="834" x2="1353.49" y2="607.613" gradientUnits="userSpaceOnUse">
<stop stop-color="#C5CFFF"/>
<stop offset="0.248" stop-color="#D3DCFF"/>
<stop offset="0.5471" stop-color="#DCE4FF"/>
<stop offset="1" stop-color="#DFE6FF"/>
</linearGradient>
<linearGradient id="paint1_linear_136_2" x1="210.08" y1="834" x2="210.08" y2="660.853" gradientUnits="userSpaceOnUse">
<stop stop-color="#C5CFFF"/>
<stop offset="0.248" stop-color="#D3DCFF"/>
<stop offset="0.5471" stop-color="#DCE4FF"/>
<stop offset="1" stop-color="#DFE6FF"/>
</linearGradient>
<linearGradient id="paint2_linear_136_2" x1="926.644" y1="-14" x2="926.644" y2="365.945" gradientUnits="userSpaceOnUse">
<stop stop-color="#6615B2"/>
<stop offset="0.2956" stop-color="#8D28C3"/>
<stop offset="0.5849" stop-color="#AC37D0"/>
<stop offset="0.8295" stop-color="#BF40D8"/>
<stop offset="1" stop-color="#C643DB"/>
</linearGradient>
<linearGradient id="paint3_linear_136_2" x1="468.18" y1="169.801" x2="468.18" y2="-14" gradientUnits="userSpaceOnUse">
<stop stop-color="#F9795A"/>
<stop offset="1" stop-color="#EB3668"/>
</linearGradient>
<linearGradient id="paint4_linear_136_2" x1="1154.56" y1="805.656" x2="1178.16" y2="805.656" gradientUnits="userSpaceOnUse">
<stop stop-color="#F9795A"/>
<stop offset="1" stop-color="#FFEFE9"/>
</linearGradient>
<linearGradient id="paint5_linear_136_2" x1="1150.71" y1="484.016" x2="1189.74" y2="484.016" gradientUnits="userSpaceOnUse">
<stop offset="0.00359712" stop-color="#EBEFF2"/>
<stop offset="1" stop-color="white"/>
</linearGradient>
<linearGradient id="paint6_linear_136_2" x1="1157.42" y1="469.179" x2="1174.3" y2="482.106" gradientUnits="userSpaceOnUse">
<stop offset="0.00359712" stop-color="#E38DDD"/>
<stop offset="1" stop-color="#9571F6"/>
</linearGradient>
<linearGradient id="paint7_linear_136_2" x1="1164.35" y1="481.752" x2="1157.23" y2="480.702" gradientUnits="userSpaceOnUse">
<stop offset="0.00359712" stop-color="#E38DDD"/>
<stop offset="1" stop-color="#9571F6"/>
</linearGradient>
<linearGradient id="paint8_linear_136_2" x1="1166.09" y1="479.372" x2="1159.39" y2="478.383" gradientUnits="userSpaceOnUse">
<stop offset="0.00359712" stop-color="#E38DDD"/>
<stop offset="1" stop-color="#9571F6"/>
</linearGradient>
<linearGradient id="paint9_linear_136_2" x1="1164.49" y1="480.389" x2="1161.91" y2="475.548" gradientUnits="userSpaceOnUse">
<stop offset="0.00359712" stop-color="#E38DDD"/>
<stop offset="1" stop-color="#9571F6"/>
</linearGradient>
<linearGradient id="paint10_linear_136_2" x1="1162.25" y1="469.183" x2="1165.81" y2="475.539" gradientUnits="userSpaceOnUse">
<stop offset="0.00359712" stop-color="#E38DDD"/>
<stop offset="1" stop-color="#9571F6"/>
</linearGradient>
<linearGradient id="paint11_linear_136_2" x1="1172.17" y1="467.158" x2="1158.87" y2="481.001" gradientUnits="userSpaceOnUse">
<stop stop-color="#AB316D"/>
<stop offset="1" stop-color="#792D3D"/>
</linearGradient>
<linearGradient id="paint12_linear_136_2" x1="1169.14" y1="480.064" x2="1155.53" y2="494.235" gradientUnits="userSpaceOnUse">
<stop stop-color="#AB316D"/>
<stop offset="1" stop-color="#792D3D"/>
</linearGradient>
<linearGradient id="paint13_linear_136_2" x1="1164.72" y1="481.257" x2="1159.7" y2="486.493" gradientUnits="userSpaceOnUse">
<stop stop-color="#AB316D"/>
<stop offset="1" stop-color="#792D3D"/>
</linearGradient>
<linearGradient id="paint14_linear_136_2" x1="1167.27" y1="480.931" x2="1162.24" y2="486.167" gradientUnits="userSpaceOnUse">
<stop stop-color="#AB316D"/>
<stop offset="1" stop-color="#792D3D"/>
</linearGradient>
<linearGradient id="paint15_linear_136_2" x1="1169.82" y1="480.605" x2="1164.79" y2="485.841" gradientUnits="userSpaceOnUse">
<stop stop-color="#AB316D"/>
<stop offset="1" stop-color="#792D3D"/>
</linearGradient>
<linearGradient id="paint16_linear_136_2" x1="1172.37" y1="480.28" x2="1167.34" y2="485.516" gradientUnits="userSpaceOnUse">
<stop stop-color="#AB316D"/>
<stop offset="1" stop-color="#792D3D"/>
</linearGradient>
<linearGradient id="paint17_linear_136_2" x1="1104.26" y1="449.595" x2="1144.58" y2="449.595" gradientUnits="userSpaceOnUse">
<stop offset="0.00359712" stop-color="#EBEFF2"/>
<stop offset="1" stop-color="white"/>
</linearGradient>
<radialGradient id="paint18_radial_136_2" cx="0" cy="0" r="1" gradientUnits="userSpaceOnUse" gradientTransform="translate(1117.41 426.375) rotate(59.2826) scale(32.5471 22.3824)">
<stop offset="0.145833" stop-color="#252527"/>
<stop offset="1" stop-color="#EBEFF2"/>
</radialGradient>
<linearGradient id="paint19_linear_136_2" x1="1123.03" y1="413.519" x2="1127.05" y2="439.957" gradientUnits="userSpaceOnUse">
<stop stop-color="white"/>
<stop offset="0.9964" stop-color="#EBEFF2"/>
</linearGradient>
<linearGradient id="paint20_linear_136_2" x1="1143.97" y1="423.052" x2="1117.25" y2="453.037" gradientUnits="userSpaceOnUse">
<stop offset="0.00359712" stop-color="#E38DDD"/>
<stop offset="1" stop-color="#9571F6"/>
</linearGradient>
<linearGradient id="paint21_linear_136_2" x1="1128.35" y1="442.392" x2="1144.01" y2="439.008" gradientUnits="userSpaceOnUse">
<stop offset="0.00359712" stop-color="#E38DDD"/>
<stop offset="1" stop-color="#9571F6"/>
</linearGradient>
<linearGradient id="paint22_linear_136_2" x1="1124.42" y1="438.73" x2="1139.17" y2="435.543" gradientUnits="userSpaceOnUse">
<stop offset="0.00359712" stop-color="#E38DDD"/>
<stop offset="1" stop-color="#9571F6"/>
</linearGradient>
<linearGradient id="paint23_linear_136_2" x1="1128.03" y1="440.296" x2="1131.11" y2="431.848" gradientUnits="userSpaceOnUse">
<stop offset="0.00359712" stop-color="#E38DDD"/>
<stop offset="1" stop-color="#9571F6"/>
</linearGradient>
<linearGradient id="paint24_linear_136_2" x1="1133.07" y1="423.058" x2="1128.8" y2="434.262" gradientUnits="userSpaceOnUse">
<stop offset="0.00359712" stop-color="#E38DDD"/>
<stop offset="1" stop-color="#9571F6"/>
</linearGradient>
<linearGradient id="paint25_linear_136_2" x1="1106.09" y1="424.994" x2="1132.81" y2="454.979" gradientUnits="userSpaceOnUse">
<stop offset="0.00359712" stop-color="#E38DDD"/>
<stop offset="1" stop-color="#9571F6"/>
</linearGradient>
<linearGradient id="paint26_linear_136_2" x1="1121.71" y1="444.334" x2="1106.05" y2="440.95" gradientUnits="userSpaceOnUse">
<stop offset="0.00359712" stop-color="#E38DDD"/>
<stop offset="1" stop-color="#9571F6"/>
</linearGradient>
<linearGradient id="paint27_linear_136_2" x1="1125.64" y1="440.673" x2="1110.89" y2="437.485" gradientUnits="userSpaceOnUse">
<stop offset="0.00359712" stop-color="#E38DDD"/>
<stop offset="1" stop-color="#9571F6"/>
</linearGradient>
<linearGradient id="paint28_linear_136_2" x1="1122.03" y1="442.238" x2="1118.96" y2="433.79" gradientUnits="userSpaceOnUse">
<stop offset="0.00359712" stop-color="#E38DDD"/>
<stop offset="1" stop-color="#9571F6"/>
</linearGradient>
<linearGradient id="paint29_linear_136_2" x1="1116.99" y1="425.001" x2="1121.27" y2="436.204" gradientUnits="userSpaceOnUse">
<stop offset="0.00359712" stop-color="#E38DDD"/>
<stop offset="1" stop-color="#9571F6"/>
</linearGradient>
<linearGradient id="paint30_linear_136_2" x1="1138.69" y1="431.89" x2="1126.71" y2="436.636" gradientUnits="userSpaceOnUse">
<stop stop-color="#FF9085"/>
<stop offset="1" stop-color="#FB6FBB"/>
</linearGradient>
<linearGradient id="paint31_linear_136_2" x1="1138.49" y1="431.545" x2="1126.57" y2="436.269" gradientUnits="userSpaceOnUse">
<stop stop-color="#FF9085"/>
<stop offset="1" stop-color="#FB6FBB"/>
</linearGradient>
<linearGradient id="paint32_linear_136_2" x1="1137.75" y1="431.816" x2="1127.3" y2="435.958" gradientUnits="userSpaceOnUse">
<stop offset="0.00359712" stop-color="#EBEFF2"/>
<stop offset="1" stop-color="white"/>
</linearGradient>
<linearGradient id="paint33_linear_136_2" x1="1136.49" y1="433.515" x2="1133.09" y2="434.861" gradientUnits="userSpaceOnUse">
<stop stop-color="#FF9085"/>
<stop offset="1" stop-color="#FB6FBB"/>
</linearGradient>
<linearGradient id="paint34_linear_136_2" x1="1134.4" y1="435.932" x2="1131.71" y2="436.997" gradientUnits="userSpaceOnUse">
<stop stop-color="#FF9085"/>
<stop offset="1" stop-color="#FB6FBB"/>
</linearGradient>
<linearGradient id="paint35_linear_136_2" x1="1132.28" y1="437.92" x2="1129.37" y2="439.074" gradientUnits="userSpaceOnUse">
<stop stop-color="#FF9085"/>
<stop offset="1" stop-color="#FB6FBB"/>
</linearGradient>
<linearGradient id="paint36_linear_136_2" x1="1136.72" y1="430.738" x2="1133.55" y2="431.992" gradientUnits="userSpaceOnUse">
<stop stop-color="#FF9085"/>
<stop offset="1" stop-color="#FB6FBB"/>
</linearGradient>
<linearGradient id="paint37_linear_136_2" x1="1136.49" y1="433.515" x2="1133.09" y2="434.861" gradientUnits="userSpaceOnUse">
<stop stop-color="#FF9085"/>
<stop offset="1" stop-color="#FB6FBB"/>
</linearGradient>
<linearGradient id="paint38_linear_136_2" x1="1134.4" y1="435.932" x2="1131.71" y2="436.997" gradientUnits="userSpaceOnUse">
<stop stop-color="#FF9085"/>
<stop offset="1" stop-color="#FB6FBB"/>
</linearGradient>
<linearGradient id="paint39_linear_136_2" x1="1132.28" y1="437.92" x2="1129.37" y2="439.074" gradientUnits="userSpaceOnUse">
<stop stop-color="#FF9085"/>
<stop offset="1" stop-color="#FB6FBB"/>
</linearGradient>
<linearGradient id="paint40_linear_136_2" x1="1136.72" y1="430.738" x2="1133.55" y2="431.992" gradientUnits="userSpaceOnUse">
<stop stop-color="#FF9085"/>
<stop offset="1" stop-color="#FB6FBB"/>
</linearGradient>
<linearGradient id="paint41_linear_136_2" x1="1120.23" y1="443.071" x2="1109.05" y2="433.638" gradientUnits="userSpaceOnUse">
<stop stop-color="#FF9085"/>
<stop offset="1" stop-color="#FB6FBB"/>
</linearGradient>
<linearGradient id="paint42_linear_136_2" x1="1120.43" y1="442.724" x2="1109.31" y2="433.337" gradientUnits="userSpaceOnUse">
<stop stop-color="#FF9085"/>
<stop offset="1" stop-color="#FB6FBB"/>
</linearGradient>
<linearGradient id="paint43_linear_136_2" x1="1120.14" y1="441.68" x2="1110.39" y2="433.45" gradientUnits="userSpaceOnUse">
<stop offset="0.00359712" stop-color="#EBEFF2"/>
<stop offset="1" stop-color="white"/>
</linearGradient>
<linearGradient id="paint44_linear_136_2" x1="1118.83" y1="440.068" x2="1115.66" y2="437.392" gradientUnits="userSpaceOnUse">
<stop stop-color="#FF9085"/>
<stop offset="1" stop-color="#FB6FBB"/>
</linearGradient>
<linearGradient id="paint45_linear_136_2" x1="1116.92" y1="437.356" x2="1114.41" y2="435.239" gradientUnits="userSpaceOnUse">
<stop stop-color="#FF9085"/>
<stop offset="1" stop-color="#FB6FBB"/>
</linearGradient>
<linearGradient id="paint46_linear_136_2" x1="1115.29" y1="434.528" x2="1112.57" y2="432.235" gradientUnits="userSpaceOnUse">
<stop stop-color="#FF9085"/>
<stop offset="1" stop-color="#FB6FBB"/>
</linearGradient>
<linearGradient id="paint47_linear_136_2" x1="1120.72" y1="440.01" x2="1117.76" y2="437.518" gradientUnits="userSpaceOnUse">
<stop stop-color="#FF9085"/>
<stop offset="1" stop-color="#FB6FBB"/>
</linearGradient>
<linearGradient id="paint48_linear_136_2" x1="1118.83" y1="440.068" x2="1115.66" y2="437.392" gradientUnits="userSpaceOnUse">
<stop stop-color="#FF9085"/>
<stop offset="1" stop-color="#FB6FBB"/>
</linearGradient>
<linearGradient id="paint49_linear_136_2" x1="1116.92" y1="437.356" x2="1114.41" y2="435.239" gradientUnits="userSpaceOnUse">
<stop stop-color="#FF9085"/>
<stop offset="1" stop-color="#FB6FBB"/>
</linearGradient>
<linearGradient id="paint50_linear_136_2" x1="1115.29" y1="434.528" x2="1112.57" y2="432.235" gradientUnits="userSpaceOnUse">
<stop stop-color="#FF9085"/>
<stop offset="1" stop-color="#FB6FBB"/>
</linearGradient>
<linearGradient id="paint51_linear_136_2" x1="1120.72" y1="440.01" x2="1117.76" y2="437.518" gradientUnits="userSpaceOnUse">
<stop stop-color="#FF9085"/>
<stop offset="1" stop-color="#FB6FBB"/>
</linearGradient>
<linearGradient id="paint52_linear_136_2" x1="1117.8" y1="427.785" x2="1144.52" y2="457.769" gradientUnits="userSpaceOnUse">
<stop offset="0.00359712" stop-color="#E38DDD"/>
<stop offset="1" stop-color="#9571F6"/>
</linearGradient>
<linearGradient id="paint53_linear_136_2" x1="1133.43" y1="447.125" x2="1117.76" y2="443.74" gradientUnits="userSpaceOnUse">
<stop offset="0.00359712" stop-color="#E38DDD"/>
<stop offset="1" stop-color="#9571F6"/>
</linearGradient>
<linearGradient id="paint54_linear_136_2" x1="1128.23" y1="442.857" x2="1117.52" y2="441.341" gradientUnits="userSpaceOnUse">
<stop offset="0.00359712" stop-color="#EBEFF2"/>
<stop offset="1" stop-color="white"/>
</linearGradient>
<linearGradient id="paint55_linear_136_2" x1="1125.8" y1="442.288" x2="1120.45" y2="441.53" gradientUnits="userSpaceOnUse">
<stop stop-color="#FFC444"/>
<stop offset="0.9964" stop-color="#F36F56"/>
</linearGradient>
<linearGradient id="paint56_linear_136_2" x1="1127.7" y1="445.221" x2="1117.19" y2="443.733" gradientUnits="userSpaceOnUse">
<stop stop-color="#FFC444"/>
<stop offset="0.9964" stop-color="#F36F56"/>
</linearGradient>
<linearGradient id="paint57_linear_136_2" x1="1126.23" y1="642.618" x2="1188.09" y2="642.618" gradientUnits="userSpaceOnUse">
<stop offset="0.00359712" stop-color="#EBEFF2"/>
<stop offset="1" stop-color="white"/>
</linearGradient>
<linearGradient id="paint58_linear_136_2" x1="1143.68" y1="572.83" x2="1153.94" y2="645.524" gradientUnits="userSpaceOnUse">
<stop stop-color="white"/>
<stop offset="0.9964" stop-color="#EBEFF2"/>
</linearGradient>
<linearGradient id="paint59_linear_136_2" x1="1154.27" y1="589.335" x2="1160.01" y2="630.004" gradientUnits="userSpaceOnUse">
<stop offset="0.00359712" stop-color="#EBEFF2"/>
<stop offset="1" stop-color="white"/>
</linearGradient>
<linearGradient id="paint60_linear_136_2" x1="1155.03" y1="591.19" x2="1160.37" y2="628.995" gradientUnits="userSpaceOnUse">
<stop stop-color="white"/>
<stop offset="0.9964" stop-color="#EBEFF2"/>
</linearGradient>
<linearGradient id="paint61_linear_136_2" x1="1187.16" y1="604.78" x2="1149.5" y2="650.282" gradientUnits="userSpaceOnUse">
<stop offset="0.00359712" stop-color="#E38DDD"/>
<stop offset="1" stop-color="#9571F6"/>
</linearGradient>
<linearGradient id="paint62_linear_136_2" x1="1163.19" y1="632.349" x2="1187.06" y2="626.798" gradientUnits="userSpaceOnUse">
<stop offset="0.00359712" stop-color="#E38DDD"/>
<stop offset="1" stop-color="#9571F6"/>
</linearGradient>
<linearGradient id="paint63_linear_136_2" x1="1157.16" y1="627.13" x2="1179.64" y2="621.901" gradientUnits="userSpaceOnUse">
<stop offset="0.00359712" stop-color="#E38DDD"/>
<stop offset="1" stop-color="#9571F6"/>
</linearGradient>
<linearGradient id="paint64_linear_136_2" x1="1162.7" y1="629.361" x2="1166.84" y2="617.123" gradientUnits="userSpaceOnUse">
<stop offset="0.00359712" stop-color="#E38DDD"/>
<stop offset="1" stop-color="#9571F6"/>
</linearGradient>
<linearGradient id="paint65_linear_136_2" x1="1170.44" y1="604.789" x2="1164.68" y2="621.043" gradientUnits="userSpaceOnUse">
<stop offset="0.00359712" stop-color="#E38DDD"/>
<stop offset="1" stop-color="#9571F6"/>
</linearGradient>
<linearGradient id="paint66_linear_136_2" x1="1129.04" y1="607.548" x2="1166.7" y2="653.05" gradientUnits="userSpaceOnUse">
<stop offset="0.00359712" stop-color="#E38DDD"/>
<stop offset="1" stop-color="#9571F6"/>
</linearGradient>
<linearGradient id="paint67_linear_136_2" x1="1153.01" y1="635.117" x2="1129.14" y2="629.566" gradientUnits="userSpaceOnUse">
<stop offset="0.00359712" stop-color="#E38DDD"/>
<stop offset="1" stop-color="#9571F6"/>
</linearGradient>
<linearGradient id="paint68_linear_136_2" x1="1159.04" y1="629.898" x2="1136.56" y2="624.67" gradientUnits="userSpaceOnUse">
<stop offset="0.00359712" stop-color="#E38DDD"/>
<stop offset="1" stop-color="#9571F6"/>
</linearGradient>
<linearGradient id="paint69_linear_136_2" x1="1153.5" y1="632.129" x2="1149.36" y2="619.891" gradientUnits="userSpaceOnUse">
<stop offset="0.00359712" stop-color="#E38DDD"/>
<stop offset="1" stop-color="#9571F6"/>
</linearGradient>
<linearGradient id="paint70_linear_136_2" x1="1145.76" y1="607.557" x2="1151.52" y2="623.811" gradientUnits="userSpaceOnUse">
<stop offset="0.00359712" stop-color="#E38DDD"/>
<stop offset="1" stop-color="#9571F6"/>
</linearGradient>
<linearGradient id="paint71_linear_136_2" x1="1179.06" y1="617.378" x2="1161.07" y2="625.053" gradientUnits="userSpaceOnUse">
<stop stop-color="#FF9085"/>
<stop offset="1" stop-color="#FB6FBB"/>
</linearGradient>
<linearGradient id="paint72_linear_136_2" x1="1178.75" y1="616.886" x2="1160.84" y2="624.525" gradientUnits="userSpaceOnUse">
<stop stop-color="#FF9085"/>
<stop offset="1" stop-color="#FB6FBB"/>
</linearGradient>
<linearGradient id="paint73_linear_136_2" x1="1177.62" y1="617.273" x2="1161.92" y2="623.971" gradientUnits="userSpaceOnUse">
<stop offset="0.00359712" stop-color="#EBEFF2"/>
<stop offset="1" stop-color="white"/>
</linearGradient>
<linearGradient id="paint74_linear_136_2" x1="1175.68" y1="619.695" x2="1170.57" y2="621.872" gradientUnits="userSpaceOnUse">
<stop stop-color="#FF9085"/>
<stop offset="1" stop-color="#FB6FBB"/>
</linearGradient>
<linearGradient id="paint75_linear_136_2" x1="1172.48" y1="623.14" x2="1168.44" y2="624.862" gradientUnits="userSpaceOnUse">
<stop stop-color="#FF9085"/>
<stop offset="1" stop-color="#FB6FBB"/>
</linearGradient>
<linearGradient id="paint76_linear_136_2" x1="1169.23" y1="625.975" x2="1164.85" y2="627.841" gradientUnits="userSpaceOnUse">
<stop stop-color="#FF9085"/>
<stop offset="1" stop-color="#FB6FBB"/>
</linearGradient>
<linearGradient id="paint77_linear_136_2" x1="1176.03" y1="615.735" x2="1171.28" y2="617.763" gradientUnits="userSpaceOnUse">
<stop stop-color="#FF9085"/>
<stop offset="1" stop-color="#FB6FBB"/>
</linearGradient>
<linearGradient id="paint78_linear_136_2" x1="1175.68" y1="619.695" x2="1170.57" y2="621.872" gradientUnits="userSpaceOnUse">
<stop stop-color="#FF9085"/>
<stop offset="1" stop-color="#FB6FBB"/>
</linearGradient>
<linearGradient id="paint79_linear_136_2" x1="1172.48" y1="623.14" x2="1168.44" y2="624.862" gradientUnits="userSpaceOnUse">
<stop stop-color="#FF9085"/>
<stop offset="1" stop-color="#FB6FBB"/>
</linearGradient>
<linearGradient id="paint80_linear_136_2" x1="1169.23" y1="625.975" x2="1164.85" y2="627.841" gradientUnits="userSpaceOnUse">
<stop stop-color="#FF9085"/>
<stop offset="1" stop-color="#FB6FBB"/>
</linearGradient>
<linearGradient id="paint81_linear_136_2" x1="1176.03" y1="615.735" x2="1171.28" y2="617.763" gradientUnits="userSpaceOnUse">
<stop stop-color="#FF9085"/>
<stop offset="1" stop-color="#FB6FBB"/>
</linearGradient>
<linearGradient id="paint82_linear_136_2" x1="1150.73" y1="633.317" x2="1134.64" y2="618.701" gradientUnits="userSpaceOnUse">
<stop stop-color="#FF9085"/>
<stop offset="1" stop-color="#FB6FBB"/>
</linearGradient>
<linearGradient id="paint83_linear_136_2" x1="1151.04" y1="632.823" x2="1135.03" y2="618.277" gradientUnits="userSpaceOnUse">
<stop stop-color="#FF9085"/>
<stop offset="1" stop-color="#FB6FBB"/>
</linearGradient>
<linearGradient id="paint84_linear_136_2" x1="1150.6" y1="631.335" x2="1136.56" y2="618.581" gradientUnits="userSpaceOnUse">
<stop offset="0.00359712" stop-color="#EBEFF2"/>
<stop offset="1" stop-color="white"/>
</linearGradient>
<linearGradient id="paint85_linear_136_2" x1="1148.58" y1="629.035" x2="1144.02" y2="624.89" gradientUnits="userSpaceOnUse">
<stop stop-color="#FF9085"/>
<stop offset="1" stop-color="#FB6FBB"/>
</linearGradient>
<linearGradient id="paint86_linear_136_2" x1="1145.65" y1="625.17" x2="1142.04" y2="621.89" gradientUnits="userSpaceOnUse">
<stop stop-color="#FF9085"/>
<stop offset="1" stop-color="#FB6FBB"/>
</linearGradient>
<linearGradient id="paint87_linear_136_2" x1="1143.15" y1="621.138" x2="1139.24" y2="617.586" gradientUnits="userSpaceOnUse">
<stop stop-color="#FF9085"/>
<stop offset="1" stop-color="#FB6FBB"/>
</linearGradient>
<linearGradient id="paint88_linear_136_2" x1="1151.48" y1="628.953" x2="1147.23" y2="625.092" gradientUnits="userSpaceOnUse">
<stop stop-color="#FF9085"/>
<stop offset="1" stop-color="#FB6FBB"/>
</linearGradient>
<linearGradient id="paint89_linear_136_2" x1="1148.58" y1="629.035" x2="1144.02" y2="624.89" gradientUnits="userSpaceOnUse">
<stop stop-color="#FF9085"/>
<stop offset="1" stop-color="#FB6FBB"/>
</linearGradient>
<linearGradient id="paint90_linear_136_2" x1="1145.65" y1="625.17" x2="1142.04" y2="621.89" gradientUnits="userSpaceOnUse">
<stop stop-color="#FF9085"/>
<stop offset="1" stop-color="#FB6FBB"/>
</linearGradient>
<linearGradient id="paint91_linear_136_2" x1="1143.15" y1="621.138" x2="1139.24" y2="617.586" gradientUnits="userSpaceOnUse">
<stop stop-color="#FF9085"/>
<stop offset="1" stop-color="#FB6FBB"/>
</linearGradient>
<linearGradient id="paint92_linear_136_2" x1="1151.48" y1="628.953" x2="1147.23" y2="625.092" gradientUnits="userSpaceOnUse">
<stop stop-color="#FF9085"/>
<stop offset="1" stop-color="#FB6FBB"/>
</linearGradient>
<linearGradient id="paint93_linear_136_2" x1="1147.01" y1="611.526" x2="1184.68" y2="657.028" gradientUnits="userSpaceOnUse">
<stop offset="0.00359712" stop-color="#E38DDD"/>
<stop offset="1" stop-color="#9571F6"/>
</linearGradient>
<linearGradient id="paint94_linear_136_2" x1="1170.98" y1="639.095" x2="1147.11" y2="633.544" gradientUnits="userSpaceOnUse">
<stop offset="0.00359712" stop-color="#E38DDD"/>
<stop offset="1" stop-color="#9571F6"/>
</linearGradient>
<linearGradient id="paint95_linear_136_2" x1="1163.01" y1="633.013" x2="1146.63" y2="630.516" gradientUnits="userSpaceOnUse">
<stop offset="0.00359712" stop-color="#EBEFF2"/>
<stop offset="1" stop-color="white"/>
</linearGradient>
<linearGradient id="paint96_linear_136_2" x1="1159.28" y1="632.201" x2="1151.09" y2="630.953" gradientUnits="userSpaceOnUse">
<stop stop-color="#FFC444"/>
<stop offset="0.9964" stop-color="#F36F56"/>
</linearGradient>
<linearGradient id="paint97_linear_136_2" x1="1162.2" y1="636.382" x2="1146.12" y2="633.932" gradientUnits="userSpaceOnUse">
<stop stop-color="#FFC444"/>
<stop offset="0.9964" stop-color="#F36F56"/>
</linearGradient>
<clipPath id="clip0_136_2">
<rect width="1440" height="834" fill="white"/>
</clipPath>
</defs>
</svg>
