<svg width="1440" height="698" viewBox="0 0 1440 698" fill="none" xmlns="http://www.w3.org/2000/svg">
<g clip-path="url(#clip0_136_2)">
<rect width="1440" height="698" fill="white"/>
<g clip-path="url(#clip1_136_2)">
<path d="M0 533V706.149H420.16C420.16 706.149 367.128 533 0 533Z" fill="url(#paint0_linear_136_2)"/>
<path d="M1479 -187V161.139C1479 161.139 551.492 425.842 283 -187H1479Z" fill="url(#paint1_linear_136_2)"/>
<path d="M-15 129.313C-15 129.313 219.017 266.658 413.626 93.5737C608.235 -79.511 731 -67.8334 731 -67.8334L-15 -68V129.313Z" fill="url(#paint2_linear_136_2)"/>
<path d="M1440.01 472C1440.01 472 1267 504.309 1267 698.386H1439.82L1440.01 472Z" fill="url(#paint3_linear_136_2)"/>
<ellipse cx="1136.5" cy="606" rx="287.5" ry="31" fill="#DCC0C0" fill-opacity="0.66"/>
<path d="M1202.77 548.6C1202.77 548.6 1188.45 527.078 1201.88 513.409C1201.88 513.409 1211.7 505.754 1219.7 506.377C1219.7 506.377 1208.36 530.873 1212.03 533.31C1215.69 535.747 1223.13 504.841 1223.13 504.841C1223.13 504.841 1245.46 502.053 1252.64 506.502C1252.64 506.502 1233.55 526.632 1237.57 527.83C1241.59 529.027 1262.21 509.27 1262.21 509.27C1262.21 509.27 1282.99 513.827 1281.88 530.162C1280.77 546.498 1273.62 551.542 1270.47 551.107C1267.32 550.672 1248.91 541.616 1248.51 544.938C1248.11 548.259 1259.19 559.121 1266.95 559.63C1266.95 559.63 1252.3 580.453 1242.56 574.443C1232.83 568.434 1231.99 558.909 1225.93 555.337C1219.86 551.765 1214.67 551.772 1217.18 555.417C1219.69 559.062 1230.67 562.603 1234.14 570.513C1237.61 578.426 1240.73 583.763 1230.65 581.807C1220.58 579.854 1204.2 570.353 1203.49 559.477C1202.77 548.6 1202.77 548.6 1202.77 548.6Z" fill="#1B2251"/>
<path d="M1271.68 530.601C1271.68 530.601 1215.23 527.799 1202.77 548.601C1202.77 548.601 1200.01 559.24 1191.53 568.929L1190.21 573.573C1190.21 573.573 1199.99 560.284 1203.49 559.48C1203.49 559.477 1198.01 533.707 1271.68 530.601Z" fill="#1B2251"/>
<path d="M1191.53 568.929C1191.53 568.929 1179.41 580.474 1178.57 601.105L1180.77 601.359C1180.77 601.359 1184.64 580.028 1191.63 571.686C1198.63 563.341 1191.53 568.929 1191.53 568.929Z" fill="#6615B2"/>
<path d="M1055.28 372.799C1055.28 372.799 1077.17 356.996 1066.96 335.55C1066.96 335.55 1058.78 322.383 1050.02 318.996C1050.02 318.996 1054.69 350.977 1050.02 351.729C1045.35 352.481 1046.81 315.608 1046.81 315.608C1046.81 315.608 1023.75 301.31 1014.69 302.441C1014.69 302.441 1029 333.67 1024.33 332.918C1019.66 332.166 1003.6 300.561 1003.6 300.561C1003.6 300.561 979.947 294.918 976.154 312.976C972.358 331.035 978.491 340.066 981.992 341.194C985.496 342.322 1007.98 341.946 1007.39 345.709C1006.81 349.473 991.626 355.492 983.159 352.105C983.159 352.105 992.502 381.826 1004.76 380.322C1017.03 378.818 1020.82 369.035 1028.41 368.283C1036.01 367.531 1041.55 370.163 1037.76 372.799C1033.96 375.431 1021.11 373.662 1014.98 380.378C1008.85 387.094 1003.89 391.233 1015.28 394.245C1026.66 397.253 1047.1 395.373 1051.19 384.086C1055.28 372.799 1055.28 372.799 1055.28 372.799Z" fill="#242E6C"/>
<path d="M986.958 318.62C986.958 318.62 1048.27 344.205 1055.28 372.799C1055.28 372.799 1054.99 385.59 1061.12 400.264V405.908C1061.12 405.908 1054.69 386.718 1051.19 384.086C1051.19 384.086 1064.91 359.252 986.958 318.62Z" fill="#1B2251"/>
<path d="M1061.12 400.264C1061.12 400.264 1070.57 418.768 1065.18 441.29L1062.75 440.448C1062.75 440.448 1065.11 415.639 1060.16 403.161C1055.22 390.687 1061.12 400.264 1061.12 400.264Z" fill="#6615B2"/>
<path d="M1188.95 498.871C1188.95 498.871 1158.93 477.209 1172.94 447.811C1172.94 447.811 1184.14 429.76 1196.15 425.119C1196.15 425.119 1189.75 468.958 1196.15 469.992C1202.55 471.026 1200.55 420.478 1200.55 420.478C1200.55 420.478 1232.17 400.881 1244.58 402.426C1244.58 402.426 1224.97 445.235 1231.37 444.204C1237.77 443.174 1259.79 399.85 1259.79 399.85C1259.79 399.85 1292.21 392.114 1297.41 416.871C1302.61 441.628 1294.21 454.005 1289.4 455.554C1284.6 457.1 1253.78 456.585 1254.58 461.744C1255.38 466.9 1276.19 475.155 1287.8 470.511C1287.8 470.511 1274.99 511.254 1258.18 509.193C1241.37 507.129 1236.17 493.722 1225.76 492.688C1215.35 491.657 1207.75 495.267 1212.95 498.878C1218.16 502.488 1235.77 500.061 1244.17 509.27C1252.58 518.479 1259.38 524.15 1243.77 528.279C1228.16 532.405 1200.14 529.825 1194.54 514.353C1188.95 498.871 1188.95 498.871 1188.95 498.871Z" fill="#242E6C"/>
<path d="M1282.6 424.6C1282.6 424.6 1198.55 459.673 1188.95 498.871C1188.95 498.871 1189.35 516.407 1180.94 536.52V544.255C1180.94 544.255 1189.74 517.953 1194.55 514.342C1194.55 514.342 1175.74 480.304 1282.6 424.6Z" fill="#1B2251"/>
<path d="M1180.94 536.523C1180.94 536.523 1167.98 561.889 1175.37 592.763L1178.7 591.607C1178.7 591.607 1175.46 557.6 1182.25 540.496C1189.03 523.391 1180.94 536.523 1180.94 536.523Z" fill="#6615B2"/>
<path d="M906.716 392.672C906.716 392.672 901.485 398.273 907.248 405.39C907.248 405.39 902.304 407.614 900.699 406.103C900.699 406.103 901.034 406.873 901.328 407.207C901.328 407.207 896.265 407.799 894.085 405.908C891.905 404.018 891.832 370.481 906.07 373.227C906.07 373.227 917.954 371.226 917.595 389.096C917.239 406.967 921.742 406.65 921.742 406.65C921.742 406.65 920.524 407.534 919.919 407.576C919.919 407.576 919.016 407.203 918.814 406.587C918.814 406.587 919.03 407.566 919.27 407.861C919.27 407.861 914.431 408.798 911.903 406.601C909.374 404.404 906.178 396.39 906.716 392.672Z" fill="#9B53C9"/>
<path d="M905.951 401.807C905.951 401.807 901.888 396.818 900.205 391.975C899.002 388.518 893.205 374.519 904.038 373.077C904.038 373.077 911.773 372.607 915.11 374.171C917.765 375.413 921.869 378.623 920.481 391.508L920.297 395.77L905.951 401.807Z" fill="#1B2251"/>
<path d="M893.583 501.249C893.118 486.55 892.118 473.762 890.922 464.843C889.014 450.628 887.296 442.45 887.277 442.363C887.026 441.113 883.395 436.054 875.325 436.211C867.252 436.368 868.02 443 868.02 443C868.02 443.223 868.041 443.432 868.076 443.588C868.155 443.929 875.563 478.549 875.241 523.248C875.236 523.875 875.182 524.961 875.217 525.682C875.217 525.685 893.92 526.305 893.926 525.682C894.577 521.776 894.261 510.952 893.583 501.249Z" fill="#F24B46"/>
<path d="M895.933 523.029C895.928 523.652 895.671 524.15 895.361 524.15H895.352C895.042 524.14 894.793 523.642 894.79 523.029H878.761C878.756 523.652 878.499 524.15 878.189 524.15H878.181C877.864 524.14 877.613 523.624 877.616 522.994C877.708 510.2 877.143 498.251 876.287 487.706C874.155 461.407 870.216 443.832 870.159 443.588C870.124 443.432 870.103 443.223 870.103 442.996C870.103 442.996 869.338 436.364 877.408 436.208C885.48 436.051 889.112 441.109 889.363 442.359C889.379 442.426 890.349 447.056 891.643 455.38C892.073 458.137 892.535 461.302 893.007 464.836C894.204 473.755 895.204 486.543 895.668 501.242C896.347 510.952 896.584 519.123 895.933 523.029Z" fill="#F9795A"/>
<path d="M876.433 524.15H939.279C939.279 524.15 937.815 516.518 901.42 517.653C875.663 518.458 876.433 524.15 876.433 524.15Z" fill="#FD8857"/>
<path d="M871.318 603.866C878.605 556.329 876.732 527.161 876.722 526.792C876.703 526.061 877.751 525.396 878.313 525.372C878.883 525.358 881.398 525.156 881.69 525.783C882.071 526.604 883.538 562.544 872.68 603.866H871.318V603.866Z" fill="#F9795A"/>
<path d="M929.996 603.866C922.709 556.329 924.582 527.161 924.593 526.792C924.611 526.061 923.563 525.396 923.001 525.372C922.431 525.358 919.916 525.156 919.624 525.783C919.243 526.604 917.776 562.544 928.634 603.866H929.996V603.866Z" fill="#F9795A"/>
<path d="M941.624 603.866C934.337 556.329 936.21 527.161 936.221 526.792C936.239 526.061 935.191 525.396 934.629 525.372C934.059 525.358 931.544 525.156 931.252 525.783C930.871 526.604 929.404 562.544 940.262 603.866H941.624V603.866Z" fill="#F9795A"/>
<path d="M883.025 603.866C890.311 556.329 888.439 527.161 888.428 526.792C888.409 526.061 889.457 525.396 890.019 525.372C890.589 525.358 893.105 525.156 893.396 525.783C893.777 526.604 895.244 562.544 884.386 603.866H883.025V603.866Z" fill="#F9795A"/>
<path d="M939.236 526.584H876.554C875.8 526.584 875.184 525.79 875.184 524.818V523.938C875.184 522.966 875.8 522.172 876.554 522.172H939.236C939.989 522.172 940.605 522.966 940.605 523.938V524.818C940.603 525.79 939.987 526.584 939.236 526.584Z" fill="#F24B46"/>
<path d="M972.573 605.923C970.277 605.92 965.543 606.689 963.466 603.431C961.386 600.168 956.89 598.567 956.317 597.523C956.009 596.959 956.42 594.459 956.863 592.269C957.984 590.284 956.177 587.572 956.177 587.572L962.193 588.095C962.193 588.095 965.06 592.997 967.173 596.945C967.975 598.442 970.39 600.687 971.846 601.359C973.727 602.226 975.599 602.759 976.285 603.626C977.506 605.154 974.87 605.927 972.573 605.923Z" fill="#FF9792"/>
<path d="M972.574 605.923C970.278 605.92 965.544 606.689 963.467 603.431C961.387 600.169 956.891 598.567 956.318 597.523C956.01 596.959 955.994 594.689 956.864 592.269V592.266C956.864 592.266 960.654 594.264 962.794 598.094C964.934 601.923 970.632 603.591 971.831 601.38C971.837 601.373 971.842 601.363 971.847 601.356C973.728 602.223 975.6 602.755 976.286 603.622C977.507 605.154 974.871 605.927 972.574 605.923Z" fill="#6615B2"/>
<path d="M956.318 597.523L958.625 603.869L960.16 604.085L959.933 598.431L956.318 597.523Z" fill="white"/>
<path d="M911.252 485.095C911.252 485.095 944.728 498.453 951.931 506.172C959.133 513.887 964.153 590.42 964.153 590.42C964.153 590.42 963.294 591.092 961.532 591.04C959.895 590.991 956.461 589.167 956.461 589.167C956.461 589.167 941.748 552.817 941.329 544.214C940.908 535.611 941.98 528.182 939.098 527.489C936.215 526.796 899.421 526.545 895.215 513.19C891.005 499.835 896.784 488.298 896.784 488.298L911.252 485.095Z" fill="#1B2251"/>
<path d="M964.809 605.923C962.512 605.92 957.779 606.689 955.701 603.431C953.621 600.168 949.125 598.567 948.553 597.523C948.245 596.959 948.655 594.459 949.098 592.269C950.22 590.284 948.412 587.572 948.412 587.572L954.429 588.095C954.429 588.095 957.295 592.997 959.408 596.945C960.21 598.442 962.626 600.687 964.082 601.359C965.962 602.226 967.834 602.759 968.521 603.626C969.742 605.154 967.105 605.927 964.809 605.923Z" fill="#FF9792"/>
<path d="M964.81 605.923C962.513 605.92 957.78 606.689 955.702 603.431C953.622 600.169 949.126 598.567 948.554 597.523C948.246 596.959 948.229 594.689 949.099 592.269V592.266C949.099 592.266 952.89 594.264 955.03 598.094C957.169 601.923 962.867 603.591 964.067 601.38C964.072 601.373 964.077 601.363 964.083 601.356C965.963 602.223 967.835 602.755 968.522 603.622C969.743 605.154 967.106 605.927 964.81 605.923Z" fill="#6615B2"/>
<path d="M948.554 597.523L950.861 603.869L952.395 604.085L952.168 598.431L948.554 597.523Z" fill="#6615B2"/>
<path d="M902.49 489.137C902.49 489.137 936.963 498.456 944.166 506.171C951.369 513.886 956.388 590.42 956.388 590.42C956.388 590.42 955.529 591.092 953.768 591.04C952.131 590.991 948.699 589.167 948.699 589.167C948.699 589.167 933.986 552.817 933.567 544.214C933.146 535.611 934.219 528.181 931.336 527.489C928.453 526.796 891.659 526.545 887.453 513.19C883.243 499.835 889.022 488.297 889.022 488.297L902.49 489.137Z" fill="#242E6C"/>
<path d="M915.442 417.47C915.483 417.494 911.427 420.206 908.377 419.134C905.508 418.125 903.633 413.331 903.674 413.32C904.889 413.01 905.238 410.859 905.213 401.612L905.762 401.751L914.999 404.108C914.999 404.108 914.788 407.854 914.783 411.381C914.777 414.344 914.918 417.153 915.442 417.47Z" fill="#FF9792"/>
<path d="M914.999 404.105C914.999 404.105 914.788 407.851 914.783 411.377C909.614 411.189 906.883 405.114 905.762 401.748L914.999 404.105Z" fill="#FF938F"/>
<path d="M916.725 407.447C916.725 407.447 904.497 407.708 904.487 397.89C904.479 388.072 902.895 381.496 910.701 380.914C918.508 380.333 920.029 384.076 920.648 387.352C921.275 390.628 919.908 407.127 916.725 407.447Z" fill="#FF9792"/>
<path d="M888.212 459.864C887.007 453.347 891.108 440.699 895.393 430.23C899.278 420.739 903.314 413.042 903.676 413.32C913.926 421.16 914.85 414.643 914.85 414.643C914.853 414.643 924.16 416.234 926.797 422.083C930.066 429.338 933.6 449.611 937.109 453.451C936.572 455.575 936.801 456.71 937.371 459.342C937.493 459.906 937.628 460.442 937.777 460.95C938.306 462.803 938.968 464.307 939.538 465.612C937.755 467.008 934.31 469.665 931.774 467.753C927.905 464.836 924.887 455.951 923.188 452.414C923.182 452.4 923.174 452.386 923.169 452.375C919.476 479.312 924.498 485.446 921.956 488.284C919.273 491.281 915.437 486.856 907.002 491.567C901.469 494.658 893.791 499.132 888.622 499.908C885.913 500.319 883.889 499.71 883.23 497.353C881.309 490.498 890.514 472.29 888.212 459.864Z" fill="#7F22BA"/>
<path d="M914.007 401.497C914.007 401.497 914.234 402.743 916.642 402.552C916.642 402.552 918.662 402.392 918.6 401.02C918.603 401.02 916.642 400.045 914.007 401.497Z" fill="white"/>
<path d="M881.479 469.435C884.219 464.477 887.074 461.852 888.955 460.533C888.523 459.098 900.483 440.201 900.483 437.273C900.483 434.31 903.674 413.313 903.674 413.313C903.674 413.313 893.707 414.107 890.257 420.307C885.942 428.064 876.981 457.911 881.479 469.435Z" fill="#7F22BA"/>
<path d="M888.955 460.536L908.871 467.235L907.002 471.559C907.002 471.559 882.765 471.339 881.482 469.438C880.196 467.534 888.955 460.536 888.955 460.536Z" fill="#FF9792"/>
<path d="M923.188 452.414C924.887 455.951 927.905 464.832 931.774 467.753C934.31 469.665 937.755 467.008 939.538 465.612C938.968 464.307 938.306 462.803 937.777 460.951C936.353 461.372 934.616 461.908 933.494 462.343C931.317 463.189 923.188 452.414 923.188 452.414Z" fill="#994EC8"/>
<path d="M921.156 448.89L910.495 479.364L935.766 482.438L945.709 451.494L921.156 448.89Z" fill="#1B2251"/>
<path d="M945.709 451.494L957.499 441.858L945.709 475.085L935.767 482.442C936.296 480.788 945.709 451.494 945.709 451.494Z" fill="#242E6C"/>
<path d="M908.871 467.231C908.871 467.231 912.554 465.142 913.486 464.073C914.088 463.384 914.042 464.369 913.986 464.637C913.872 465.18 913.721 466.267 912.646 467.175C911.1 468.488 908.871 467.231 908.871 467.231Z" fill="#FF9792"/>
<path d="M915.482 377.387C915.482 377.387 911.581 391.488 905.975 393.771C900.372 396.055 898.559 393.166 898.559 393.166C898.559 393.166 902.731 388.396 903.303 380.542C903.309 380.542 912.432 371.521 915.482 377.387Z" fill="#1B2251"/>
<path d="M914.61 378.488C914.61 378.488 917.495 381.137 918.287 383.856C919.078 386.575 919.624 392.243 920.902 391.961C920.902 391.961 923.325 383.108 919.981 378.429C916.436 373.467 914.61 378.488 914.61 378.488Z" fill="#1B2251"/>
<path d="M915.142 378.881C915.142 378.881 913.07 392.407 906.078 397.184C906.078 397.184 912.902 388.483 913.137 379.633C913.372 370.787 915.142 378.881 915.142 378.881Z" fill="#1B2251"/>
<path d="M894.085 405.905C896.266 407.799 901.328 407.207 901.328 407.207C901.034 406.873 900.699 406.103 900.699 406.103C903.687 408.011 909.558 404.3 909.558 404.3C904.36 404.324 904.36 394.653 905.975 393.772C905.746 386.544 906.186 377.336 906.421 373.189C906.194 373.207 906.067 373.228 906.067 373.228C891.835 370.477 891.908 404.018 894.085 405.905Z" fill="#1B2251"/>
<path d="M908.872 467.231C908.872 467.231 915.337 465.64 916.766 466.044C918.192 466.448 921.386 468.213 921.623 468.592C921.861 468.972 920.697 469.187 919.859 468.745C918.787 468.181 917.004 468.415 917.004 468.415C917.004 468.415 920.44 469.866 921.28 470.483C921.364 470.545 921.367 470.702 921.286 470.768C921.059 470.956 920.505 471.019 919.74 470.775C918.641 470.427 916.677 470.201 916.677 470.201L920.583 471.854C920.632 471.875 920.664 471.938 920.659 472C920.632 472.244 920.291 472.464 919.354 472.394C918.63 472.338 916.231 471.551 916.231 471.551L918.284 473.317C918.284 473.317 917.719 473.731 916.65 473.111C915.915 472.686 913.705 471.652 913.17 471.722C912.635 471.795 909.898 472.766 908.709 472.265C907.521 471.767 907.005 471.548 907.005 471.548L908.872 467.231Z" fill="#FF9792"/>
<path d="M901.496 603.866C902.066 603.866 902.555 603.35 902.652 602.644L908.318 561.259L916.469 501.739L918.749 485.094L912.943 484.882L911.935 494.543L904.865 562.439L900.672 602.685C900.604 603.312 900.991 603.866 901.496 603.866Z" fill="#F9795A"/>
<path d="M911.932 494.543C915.693 496.681 916.466 501.739 916.466 501.739L918.746 485.094L912.94 484.882L911.932 494.543Z" fill="#F24B46"/>
<path d="M1045.87 603.866C1045.3 603.866 1044.81 603.35 1044.72 602.644L1039.05 561.259L1030.9 501.739L1028.62 485.094L1034.43 484.882L1035.43 494.543L1042.5 562.439L1046.7 602.685C1046.76 603.312 1046.38 603.866 1045.87 603.866Z" fill="#F9795A"/>
<path d="M1035.44 494.543C1031.68 496.681 1030.9 501.739 1030.9 501.739L1028.62 485.094L1034.43 484.882L1035.44 494.543Z" fill="#7B36BD"/>
<path d="M896.86 491.629H1047.03C1048.56 491.629 1049.81 490.017 1049.81 488.047V486.922C1049.81 484.952 1048.56 483.34 1047.03 483.34H896.86C895.331 483.34 894.08 484.952 894.08 486.922V488.047C894.082 490.017 895.331 491.629 896.86 491.629Z" fill="#F24B46"/>
<path d="M1208.45 500.089H1180.07C1179.28 500.089 1178.64 499.261 1178.64 498.251C1178.64 497.238 1179.28 496.413 1180.07 496.413H1208.45C1209.24 496.413 1209.88 497.241 1209.88 498.251C1209.88 499.261 1209.24 500.089 1208.45 500.089Z" fill="#FF7D78"/>
<path d="M1208.45 507.292H1180.07C1179.28 507.292 1178.64 506.464 1178.64 505.454C1178.64 504.441 1179.28 503.616 1180.07 503.616H1208.45C1209.24 503.616 1209.88 504.445 1209.88 505.454C1209.88 506.464 1209.24 507.292 1208.45 507.292Z" fill="#FF7D78"/>
<path d="M1214.43 196.29V592.349C1214.43 598.462 1210.61 603.483 1205.89 603.636C1205.82 603.639 1205.74 603.639 1205.67 603.639H1051.98C1047.16 603.639 1043.21 598.56 1043.21 592.349V196.29C1043.21 190.079 1047.16 185 1051.98 185H1205.67C1210.49 185 1214.43 190.079 1214.43 196.29Z" fill="#F24B46"/>
<path d="M1223.48 196.29V592.352C1223.48 598.556 1219.54 603.639 1214.72 603.639H1061.03C1056.21 603.639 1052.27 598.56 1052.27 592.352V196.29C1052.27 190.079 1056.21 185 1061.03 185H1214.72C1219.54 185 1223.48 190.079 1223.48 196.29Z" fill="#F9795A"/>
<path d="M1162.96 200.848H1118.46C1117.5 200.848 1116.72 199.845 1116.72 198.616C1116.72 197.387 1117.5 196.385 1118.46 196.385H1162.96C1163.92 196.385 1164.7 197.387 1164.7 198.616C1164.7 199.842 1163.91 200.848 1162.96 200.848Z" fill="#F24B46"/>
<path d="M1110.55 200.848C1109.6 200.848 1108.82 199.845 1108.82 198.616C1108.82 197.387 1109.6 196.385 1110.55 196.385C1111.5 196.385 1112.28 197.387 1112.28 198.616C1112.28 199.842 1111.5 200.848 1110.55 200.848Z" fill="#F24B46"/>
<path d="M1151.16 580.505C1151.16 584.456 1149.93 588.035 1147.92 590.636C1145.9 593.268 1143.09 594.897 1139.99 594.897C1133.82 594.897 1128.82 588.453 1128.82 580.505C1128.82 575.394 1130.89 570.91 1134 568.358C1135.73 566.938 1137.79 566.116 1139.99 566.116C1146.16 566.116 1151.16 572.557 1151.16 580.505Z" fill="url(#paint4_linear_136_2)"/>
<path d="M1214.34 210.787H1062.52V559.038H1214.34V210.787Z" fill="#242E6C"/>
<path d="M1147.92 590.639C1145.9 593.271 1143.09 594.901 1139.99 594.901C1133.82 594.901 1128.82 588.457 1128.82 580.508C1128.82 575.397 1130.89 570.913 1134 568.361C1135.1 574.485 1138.35 584.735 1147.92 590.639Z" fill="#F24B46"/>
<path d="M1214.43 238.991V375.991H1069.82C1068.21 375.991 1066.88 374.178 1066.88 371.96V243.03C1066.88 240.808 1068.21 238.991 1069.82 238.991H1214.43Z" fill="#B1C9F6"/>
<path d="M1173.19 403.541V532.471C1173.19 534.688 1171.99 536.502 1170.53 536.502H1062.52V399.502H1170.53C1171.99 399.502 1173.19 401.316 1173.19 403.541Z" fill="#B1C9F6"/>
<path d="M1280.87 231.638V360.568C1280.87 362.783 1279.46 364.6 1277.74 364.6H1075.12C1073.4 364.6 1071.99 362.786 1071.99 360.568V231.638C1071.99 229.413 1073.4 227.6 1075.12 227.6H1277.74C1279.46 227.6 1280.87 229.413 1280.87 231.638Z" fill="#EFECEA"/>
<path d="M1143.65 313.015C1156.03 313.015 1166.06 307.147 1166.06 299.908C1166.06 292.669 1156.03 286.8 1143.65 286.8C1131.28 286.8 1121.24 292.669 1121.24 299.908C1121.24 307.147 1131.28 313.015 1143.65 313.015Z" fill="#D8DEE8"/>
<path opacity="0.3" d="M1143.65 307.815C1153.54 307.815 1161.55 304.105 1161.55 299.529C1161.55 294.952 1153.54 291.242 1143.65 291.242C1133.77 291.242 1125.76 294.952 1125.76 299.529C1125.76 304.105 1133.77 307.815 1143.65 307.815Z" fill="#D8DEE8"/>
<path d="M1143.65 307.816C1153.85 307.816 1162.13 301.171 1162.13 292.975C1162.13 284.778 1153.85 278.133 1143.65 278.133C1133.45 278.133 1125.18 284.778 1125.18 292.975C1125.18 301.171 1133.45 307.816 1143.65 307.816Z" fill="#AABBCC"/>
<path d="M1143.65 304.35C1153.85 304.35 1162.13 298.482 1162.13 291.243C1162.13 284.003 1153.85 278.135 1143.65 278.135C1133.45 278.135 1125.18 284.003 1125.18 291.243C1125.18 298.482 1133.45 304.35 1143.65 304.35Z" fill="url(#paint5_linear_136_2)"/>
<path d="M1137.78 290.932C1138.03 290.584 1137.85 288.661 1137.36 287.25C1136.67 285.25 1135.33 284.192 1135.01 283.958C1134.66 283.703 1134.35 283.559 1134.09 282.937C1133.71 282.039 1133.7 280.815 1133.54 280.829C1133.43 280.841 1133.47 281.519 1133.25 281.788C1132.94 282.158 1132.52 281.264 1132.21 281.68C1132.07 281.86 1132.03 282.186 1132.03 282.219C1131.95 282.792 1132.22 283.197 1132.14 283.474C1132.06 283.778 1131.72 283.367 1131.43 283.685C1131.11 284.039 1130.93 285.215 1131.11 285.978C1131.32 286.902 1131.96 286.831 1132 287.505C1132.03 288.005 1131.69 288.202 1131.66 288.739C1131.62 289.552 1132.32 290.686 1133.09 291.063C1134.66 291.829 1135.6 289.052 1136.94 290.195C1137.37 290.57 1137.61 291.16 1137.78 290.932Z" fill="url(#paint6_linear_136_2)"/>
<path d="M1136.27 289.1C1135.57 288.911 1135.3 290.146 1134.21 290.37C1133.31 290.557 1132.36 289.936 1132.29 289.13C1132.24 288.606 1132.6 288.368 1132.58 287.681C1132.54 286.664 1131.73 286.338 1131.76 285.639C1131.79 285.018 1132.45 285.054 1132.61 284.105C1132.73 283.387 1132.45 282.823 1132.6 282.485C1132.78 282.073 1133.25 282.817 1133.62 282.442C1133.7 282.358 1133.77 282.228 1133.83 282.066C1133.89 282.356 1133.97 282.661 1134.09 282.936C1134.35 283.558 1134.66 283.702 1135.01 283.957C1135.33 284.192 1136.67 285.25 1137.36 287.249C1137.85 288.66 1138.03 290.583 1137.78 290.931C1137.68 291.064 1137.56 290.917 1137.39 290.697C1136.97 289.543 1136.57 289.184 1136.27 289.1Z" fill="url(#paint7_linear_136_2)"/>
<path d="M1137.83 292.102C1138.21 291.687 1139.18 290.479 1139.58 288.116C1140.21 284.262 1138.89 279.753 1137.97 279.637C1137.65 279.598 1137.39 280.061 1136.83 279.829C1136.45 279.67 1136.4 279.378 1136.02 279.306C1135.67 279.24 1135.15 279.373 1135.02 279.96C1134.93 280.368 1135.09 280.753 1134.98 280.954C1134.86 281.195 1134.6 280.71 1134.39 280.862C1134.08 281.083 1133.88 282.661 1134.1 283.836C1134.48 285.897 1135.88 285.312 1136.92 287.509C1137.57 288.88 1137.77 290.689 1137.83 292.102Z" fill="url(#paint8_linear_136_2)"/>
<path d="M1138.03 291.419C1138.03 291.419 1138.93 288.346 1138.49 285.187C1138.06 282.029 1137.62 282.457 1137.42 282.263C1137.21 282.068 1137.66 283.425 1137.88 284.468C1138.1 285.511 1138.6 286.441 1138.03 291.419Z" fill="url(#paint9_linear_136_2)"/>
<path opacity="0.3" d="M1134.39 280.862C1134.6 280.711 1134.86 281.195 1134.98 280.954C1135.09 280.753 1134.93 280.368 1135.02 279.96C1135.15 279.373 1135.67 279.24 1136.02 279.306C1136.4 279.378 1136.45 279.67 1136.83 279.829C1137.39 280.06 1137.65 279.598 1137.97 279.637C1138.88 279.751 1140.17 284.097 1139.61 287.903C1139.71 286.45 1139.68 284.707 1139.28 283.071C1139.2 282.745 1138.63 280.379 1137.95 280.466C1137.61 280.51 1137.51 281.17 1137.12 281.17C1136.56 281.17 1136.33 279.799 1135.97 279.991C1135.63 280.173 1135.71 281.48 1135.28 281.808C1134.98 282.042 1134.77 281.507 1134.52 281.665C1134.34 281.781 1134.16 282.256 1134.06 283.57C1133.91 282.436 1134.11 281.067 1134.39 280.862Z" fill="url(#paint10_linear_136_2)"/>
<path d="M1148.42 288.85C1148.42 288.85 1138.08 283.43 1135.39 286.799C1132.7 290.168 1132.63 297.581 1137.99 297.756C1143.34 297.931 1149.87 295.903 1149.87 295.903V292.974L1148.42 288.85Z" fill="url(#paint11_linear_136_2)"/>
<path d="M1148.42 285.921C1148.42 285.921 1138.08 283.431 1135.39 286.799C1132.7 290.168 1132.63 294.652 1137.99 294.827C1143.34 295.002 1149.87 292.974 1149.87 292.974L1148.42 285.921Z" fill="url(#paint12_linear_136_2)"/>
<g opacity="0.5">
<path opacity="0.5" d="M1139.25 286.903C1139.12 286.711 1138.94 286.766 1138.85 287.026L1137.16 291.736C1137.07 291.996 1137.1 292.363 1137.22 292.555C1137.35 292.748 1137.53 292.693 1137.62 292.433L1139.31 287.723C1139.4 287.463 1139.37 287.096 1139.25 286.903Z" fill="url(#paint13_linear_136_2)"/>
<path opacity="0.5" d="M1141.66 286.61C1141.53 286.417 1141.36 286.473 1141.26 286.733L1139.58 291.443C1139.48 291.703 1139.51 292.07 1139.64 292.262C1139.76 292.455 1139.94 292.399 1140.03 292.139L1141.72 287.429C1141.81 287.169 1141.79 286.803 1141.66 286.61Z" fill="url(#paint14_linear_136_2)"/>
<path opacity="0.5" d="M1144.07 286.318C1143.95 286.125 1143.77 286.18 1143.68 286.44L1141.99 291.15C1141.9 291.41 1141.92 291.778 1142.05 291.969C1142.17 292.162 1142.35 292.107 1142.44 291.847L1144.13 287.137C1144.23 286.877 1144.2 286.51 1144.07 286.318Z" fill="url(#paint15_linear_136_2)"/>
<path opacity="0.5" d="M1146.48 286.024C1146.36 285.832 1146.18 285.887 1146.09 286.147L1144.4 290.857C1144.31 291.117 1144.33 291.485 1144.46 291.676C1144.59 291.869 1144.76 291.814 1144.86 291.554L1146.54 286.844C1146.64 286.584 1146.61 286.217 1146.48 286.024Z" fill="url(#paint16_linear_136_2)"/>
</g>
<path d="M1280.87 231.638V360.568C1280.87 362.786 1279.23 364.6 1277.23 364.6H1176.43V227.6H1277.23C1279.23 227.6 1280.87 229.413 1280.87 231.638Z" fill="#FFD4D2"/>
<path d="M1236.18 245.432H1198.25C1197.63 245.432 1197.12 244.774 1197.12 243.97C1197.12 243.165 1197.63 242.507 1198.25 242.507H1236.18C1236.81 242.507 1237.32 243.165 1237.32 243.97C1237.32 244.77 1236.81 245.432 1236.18 245.432Z" fill="#FD8857"/>
<path d="M1236.18 251.068H1198.25C1197.63 251.068 1197.12 250.41 1197.12 249.606C1197.12 248.802 1197.63 248.144 1198.25 248.144H1236.18C1236.81 248.144 1237.32 248.802 1237.32 249.606C1237.32 250.41 1236.81 251.068 1236.18 251.068Z" fill="#FD8857"/>
<path d="M1191.53 245.745H1190.26C1189.61 245.745 1189.07 245.052 1189.07 244.206V243.722C1189.07 242.876 1189.61 242.184 1190.26 242.184H1191.53C1192.19 242.184 1192.72 242.876 1192.72 243.722V244.206C1192.72 245.052 1192.19 245.745 1191.53 245.745Z" fill="#FD8857"/>
<path d="M1236.18 266.188H1198.25C1197.63 266.188 1197.12 265.53 1197.12 264.726C1197.12 263.922 1197.63 263.264 1198.25 263.264H1236.18C1236.81 263.264 1237.32 263.922 1237.32 264.726C1237.32 265.53 1236.81 266.188 1236.18 266.188Z" fill="#FD8857"/>
<path d="M1236.18 271.828H1198.25C1197.63 271.828 1197.12 271.17 1197.12 270.366C1197.12 269.562 1197.63 268.904 1198.25 268.904H1236.18C1236.81 268.904 1237.32 269.562 1237.32 270.366C1237.32 271.17 1236.81 271.828 1236.18 271.828Z" fill="#FD8857"/>
<path d="M1191.53 266.505H1190.26C1189.61 266.505 1189.07 265.812 1189.07 264.966V264.482C1189.07 263.636 1189.61 262.944 1190.26 262.944H1191.53C1192.19 262.944 1192.72 263.636 1192.72 264.482V264.966C1192.72 265.812 1192.19 266.505 1191.53 266.505Z" fill="#FD8857"/>
<path d="M1236.18 286.719H1198.25C1197.63 286.719 1197.12 286.061 1197.12 285.257C1197.12 284.453 1197.63 283.795 1198.25 283.795H1236.18C1236.81 283.795 1237.32 284.453 1237.32 285.257C1237.32 286.061 1236.81 286.719 1236.18 286.719Z" fill="#FD8857"/>
<path d="M1236.18 292.356H1198.25C1197.63 292.356 1197.12 291.698 1197.12 290.893C1197.12 290.089 1197.63 289.431 1198.25 289.431H1236.18C1236.81 289.431 1237.32 290.089 1237.32 290.893C1237.32 291.698 1236.81 292.356 1236.18 292.356Z" fill="#FD8857"/>
<path d="M1191.53 287.032H1190.26C1189.61 287.032 1189.07 286.339 1189.07 285.493V285.009C1189.07 284.163 1189.61 283.471 1190.26 283.471H1191.53C1192.19 283.471 1192.72 284.163 1192.72 285.009V285.493C1192.72 286.343 1192.19 287.032 1191.53 287.032Z" fill="#FD8857"/>
<path d="M1180.82 389.983V518.914C1180.82 521.135 1179.41 522.949 1177.69 522.949H975.079C973.352 522.949 971.945 521.135 971.945 518.914V389.983C971.945 387.766 973.352 385.952 975.079 385.952H1177.69C1179.41 385.952 1180.82 387.769 1180.82 389.983Z" fill="#FD8857"/>
<path d="M1180.82 389.983V518.914C1180.82 521.135 1179.41 522.952 1177.69 522.952H1087.58V385.952H1177.69C1179.41 385.952 1180.82 387.766 1180.82 389.983Z" fill="#EFECEA"/>
<path d="M999.132 408.317C992.926 408.317 987.895 414.8 987.895 422.797C987.895 430.794 992.926 437.276 999.132 437.276C1005.34 437.276 1010.37 430.794 1010.37 422.797C1010.37 414.796 1005.34 408.317 999.132 408.317ZM1006.91 423.256H999.132C998.934 423.256 998.772 423.051 998.772 422.793V412.011C998.772 411.757 998.932 411.548 999.132 411.548C999.329 411.548 999.491 411.753 999.491 412.011V422.33H1006.92C1007.11 422.33 1007.27 422.535 1007.27 422.793C1007.27 423.047 1007.11 423.256 1006.91 423.256Z" fill="#EFECEA"/>
<path d="M998.01 464.352C992.426 464.352 987.898 470.187 987.898 477.383C987.898 484.579 998.01 500.584 998.01 500.584C998.01 500.584 1008.12 484.583 1008.12 477.383C1008.12 470.187 1003.59 464.352 998.01 464.352ZM998.01 483.343C995.401 483.343 993.282 480.617 993.282 477.251C993.282 473.887 995.398 471.158 998.01 471.158C1000.62 471.158 1002.74 473.884 1002.74 477.251C1002.74 480.617 1000.62 483.343 998.01 483.343Z" fill="#EFECEA"/>
<path d="M1054.8 472.373H1017.99C1017.06 472.373 1016.3 471.388 1016.3 470.187C1016.3 468.982 1017.06 468 1017.99 468H1054.8C1055.73 468 1056.5 468.986 1056.5 470.187C1056.5 471.391 1055.73 472.373 1054.8 472.373Z" fill="#242E6C"/>
<path d="M1045.24 480.749H1017.76C1016.96 480.749 1016.3 479.9 1016.3 478.859V478.267C1016.3 477.226 1016.96 476.377 1017.76 476.377H1045.24C1046.05 476.377 1046.71 477.226 1046.71 478.267V478.859C1046.71 479.896 1046.05 480.749 1045.24 480.749Z" fill="#242E6C"/>
<path d="M1054.8 420.795H1017.99C1017.06 420.795 1016.3 419.81 1016.3 418.608C1016.3 417.404 1017.06 416.422 1017.99 416.422H1054.8C1055.73 416.422 1056.5 417.407 1056.5 418.608C1056.5 419.81 1055.73 420.795 1054.8 420.795Z" fill="#242E6C"/>
<path d="M1045.24 429.168H1017.76C1016.96 429.168 1016.3 428.318 1016.3 427.277V426.686C1016.3 425.645 1016.96 424.795 1017.76 424.795H1045.24C1046.05 424.795 1046.71 425.645 1046.71 426.686V427.277C1046.71 428.318 1046.05 429.168 1045.24 429.168Z" fill="#242E6C"/>
<path d="M1180.82 447.693V425.491L1144.1 405.991L1087.58 420.976V450.969L1119.65 467.826L1119.69 467.847L1180.82 447.703V447.693Z" fill="#C643DB"/>
<path d="M1119.59 467.847V481.077L1087.58 463.165V450.997L1119.59 467.847Z" fill="#6615B2"/>
<path d="M1180.82 447.693L1119.65 467.826L1119.59 467.847V481.077L1180.82 459.533V447.703V447.693Z" fill="#7F22BA"/>
<path d="M1258.81 277.765C1258.6 277.601 1258.31 277.389 1257.96 277.145L1252.47 271.376C1252.47 271.376 1251.78 271.888 1252.47 272.866C1252.56 272.991 1252.68 273.155 1252.83 273.343L1250.73 271.237C1250.73 271.237 1250.36 271.714 1250.6 272.469C1250.77 273.012 1252.74 275.171 1253.84 276.355C1253.18 275.944 1252.24 275.035 1250.84 273.225C1249.97 272.097 1250.25 273.796 1250.39 274.541C1250.62 275.857 1253.35 280.303 1254.3 282.301C1255.26 284.303 1255.74 286.277 1255.07 285.413C1254.4 284.55 1250.76 281.66 1250.38 282.301C1249.99 282.945 1252.2 285.413 1253.25 287.387C1254.3 289.361 1255.45 292.693 1259.19 293.435C1262.93 294.176 1263.57 291.743 1263.57 291.743C1263.57 291.743 1260.53 279.122 1258.81 277.765Z" fill="#FF9792"/>
<path d="M1374.24 398.026C1374.24 398.026 1373.33 409.428 1372.33 411.586C1371.33 413.741 1366.69 420.008 1365.27 421.989C1365.18 422.125 1364.25 421.073 1364.95 419.555C1367.77 413.431 1366.98 414.901 1366.01 410.876C1365.53 408.884 1365.23 414.615 1364.43 414.747C1363.63 414.883 1363.91 408.707 1363.89 406.83C1363.86 404.95 1367.89 404.07 1368.36 397.295C1368.67 392.936 1374.24 398.026 1374.24 398.026Z" fill="#FF9792"/>
<path d="M1346.5 281.037C1346.5 281.037 1339.14 327.571 1298.65 342.774C1286.01 347.52 1257.3 293.901 1257.3 293.901C1257.3 293.901 1258.31 288.957 1264.63 290.092C1264.63 290.092 1292.59 313.944 1296.11 316.534C1299.23 318.832 1319.77 286.98 1329.13 281.845C1338.5 276.706 1346.5 281.037 1346.5 281.037Z" fill="#1B2251"/>
<path d="M1394.83 573.563C1394.83 573.563 1399.85 579.471 1398.87 583.666C1397.89 587.865 1393.36 590.661 1392.75 595.792C1392.14 600.921 1389.68 603.72 1387.48 603.72C1385.28 603.72 1376.97 603.72 1376.97 603.72C1376.97 603.72 1375.34 600.109 1379.26 599.023C1383.18 597.933 1384.66 591.907 1384.42 586.312C1384.17 580.718 1384.78 573.257 1384.78 573.257L1393.11 570.771L1394.83 573.563Z" fill="#1B2251"/>
<path d="M1333.21 588.843C1333.21 588.843 1334.11 602.285 1331.91 603.685L1303.69 603.612C1303.69 603.612 1303.69 599.413 1308.22 598.483C1312.76 597.55 1320.72 594.131 1322.07 586.514C1323.41 578.893 1333.21 588.843 1333.21 588.843Z" fill="#1B2251"/>
<path d="M1309.39 398.952C1309.39 398.952 1310.88 422.514 1312.63 450.84C1315 489.317 1317.86 536.579 1318.14 545.533C1318.63 561.081 1320.59 585.95 1320.59 585.95C1320.59 585.95 1325.25 591.858 1334.56 589.369C1334.56 589.369 1342.86 553.868 1345.23 516.306C1345.27 515.69 1345.3 515.07 1345.34 514.45C1347.54 476.213 1350.97 395.69 1350.97 395.69L1309.39 398.952Z" fill="#F9795A"/>
<path d="M1309.39 398.952C1309.39 398.952 1310.88 422.514 1312.63 450.84L1345.23 516.302C1345.27 515.686 1345.3 515.066 1345.34 514.447C1347.55 476.209 1350.98 395.686 1350.98 395.686L1309.39 398.952Z" fill="#F24B46"/>
<path d="M1316.19 401.751C1316.19 401.751 1343.01 487.089 1360.66 527.193C1378.29 567.296 1383.81 578.489 1383.81 578.489C1383.81 578.489 1393.92 573.361 1394.83 569.862C1394.83 569.862 1388.09 492.44 1376.27 473.567C1369.6 462.903 1361.76 430.898 1361.39 419.705C1361.02 408.512 1359 386.363 1359 386.363L1316.19 401.751Z" fill="#F9795A"/>
<path d="M1351.48 270.237C1351.48 270.237 1333.33 281.524 1322.86 277.336C1322.86 277.336 1325.44 273.148 1329.95 270.032C1329.59 267.323 1329.31 264.977 1329.14 262.985C1328.7 258.39 1328.7 255.786 1328.7 255.786L1335.7 248.687L1342.34 241.895C1341.82 260.994 1351.48 270.237 1351.48 270.237Z" fill="#FF9792"/>
<path d="M1361.05 390.732C1361.09 392.166 1358.72 393.799 1357.67 394.408C1349.9 398.802 1342.66 401.866 1334.44 402.886C1324.74 404.164 1313.27 401.354 1309.33 401.458C1308.92 401.458 1308.56 401.253 1308.24 400.894C1307.96 400.64 1307.76 385.572 1307.96 366.626C1307.96 365.864 1307.96 365.098 1308 364.332V364.078C1308.08 356.673 1308.28 348.909 1308.56 341.145C1309.12 324.089 1310.17 307.643 1311.94 298.553C1314.08 287.826 1318.91 280.731 1323.3 275.568L1326.92 271.484C1330.54 272.403 1334.36 272.145 1338.19 269.747C1342.37 267.142 1346.88 264.333 1347.61 265.047C1353.08 270.203 1356.78 281.796 1358.76 296.61C1358.76 296.683 1358.78 296.756 1358.79 296.829C1359.89 305.3 1360.45 314.776 1360.41 324.699C1360.41 328.378 1360.33 332.156 1360.17 335.885C1359.36 352.773 1359.9 367.81 1360.43 378.23C1360.53 380.288 1360.64 382.164 1360.73 383.842C1360.89 386.801 1361.01 389.099 1361.05 390.732Z" fill="#242E6C"/>
<path d="M1360.43 378.226C1330.34 333.458 1349 300.92 1349 300.92L1358.79 296.829C1359.89 305.3 1360.45 314.776 1360.41 324.699C1360.41 328.378 1360.33 332.156 1360.17 335.885C1359.36 352.77 1359.9 367.806 1360.43 378.226Z" fill="#1B2251"/>
<path d="M1342.47 249.199C1342.47 249.199 1337.88 259.974 1329.15 262.989C1328.7 258.394 1328.7 255.789 1328.7 255.789L1335.71 248.691L1342.47 249.199Z" fill="#FF9490"/>
<path d="M1325.51 255.472C1325.51 255.472 1342.83 259.121 1344.45 245.404C1346.08 231.687 1349.41 222.917 1338.42 220.006C1327.43 217.096 1324.66 221.921 1323.24 226.332C1321.82 230.743 1321.05 254.17 1325.51 255.472Z" fill="#FF9792"/>
<path d="M1350.75 218.367C1350.9 218.133 1351.26 217.945 1352.07 217.89C1352.07 217.89 1351.43 217.371 1350.56 217.343C1350.4 215.898 1349.8 213.339 1347.87 212.716C1347.87 212.716 1348.91 213.43 1349.04 214.965C1346.8 212.006 1342.01 209.851 1328.74 211.202C1311.25 212.981 1317.02 227.411 1319.28 229.131C1321.54 230.851 1327.24 226.134 1331.46 226.565C1335.68 226.997 1336.48 234.851 1337.91 235.931C1339.34 237.01 1338.78 235.102 1340.72 233.974C1342.65 232.846 1342.84 236.982 1342.28 239.67C1341.72 242.358 1344.38 245.905 1344.38 245.905C1344.38 245.905 1344.38 245.905 1347.07 242.173C1349.76 238.441 1352.29 222.635 1351.07 219.268C1350.96 218.969 1350.85 218.669 1350.75 218.367Z" fill="#1B2251"/>
<path d="M1347.6 264.931C1347.6 264.931 1358.56 271.616 1363.81 281.897C1371.96 297.842 1381.4 355.948 1381.58 361.327C1381.75 366.709 1374.68 404.696 1374.68 404.696C1374.68 404.696 1367.51 404.087 1365.66 399.425C1365.66 399.425 1367.1 360.394 1366.19 357.884C1365.28 355.374 1336.3 305.529 1339.56 294.89C1342.82 284.254 1347.6 264.931 1347.6 264.931Z" fill="#242E6C"/>
<path d="M1372.33 411.586L1367.15 422.765C1367.15 422.765 1366.53 422.428 1366.63 421.63C1366.72 420.833 1368.23 414.779 1368.23 414.779L1372.33 411.586Z" fill="#FF9792"/>
<path d="M1367.14 411.91C1367.14 411.91 1363.4 417.404 1364.23 418.647L1366.93 415.955L1367.14 411.91Z" fill="#FF9792"/>
<path d="M1099.86 315.945C1094.49 317.185 1089.61 318.202 1086.19 321.812C1083.04 325.137 1081.11 329.613 1081.11 334.532C1081.11 339.998 1083.21 345.852 1087.29 348.32C1090.72 350.392 1096.12 354.648 1099.86 353.115C1104.55 351.193 1108.71 351.456 1111.99 348.704L1110.47 346.929L1099.88 334.532L1116.94 336.039L1118.54 336.182C1118.59 335.639 1118.61 335.087 1118.61 334.532C1118.61 329.268 1116.4 324.512 1112.85 321.131C1109.48 317.922 1104.89 314.786 1099.86 315.945Z" fill="#EFECEA"/>
<path d="M1116.94 336.044L1099.88 334.536L1110.47 346.933C1109.42 347.696 1108.27 348.346 1107.04 348.867C1104.86 349.789 1102.34 349.16 1099.88 350.306C1095.8 352.21 1092.04 347.842 1089.02 346.739C1085.77 345.551 1082.37 339.309 1082.74 334.536C1083.13 329.578 1085.33 323.832 1089.27 322.143C1092.24 320.877 1096.15 317.943 1100.15 317.943C1103.4 317.943 1106.13 320.532 1108.76 321.041C1113.71 322.006 1117.01 328.816 1117.01 334.532C1117.01 335.04 1116.99 335.544 1116.94 336.044Z" fill="#F98B5D"/>
<path d="M1090.88 332.822C1090.88 333.364 1090.52 333.804 1090.08 333.804C1089.63 333.804 1089.28 333.364 1089.28 332.822C1089.28 332.279 1089.64 331.839 1090.08 331.839C1090.52 331.839 1090.88 332.279 1090.88 332.822Z" fill="white"/>
<path d="M1095.75 328.101C1095.75 328.644 1095.39 329.083 1094.95 329.083C1094.51 329.083 1094.15 328.644 1094.15 328.101C1094.15 327.558 1094.51 327.119 1094.95 327.119C1095.39 327.119 1095.75 327.558 1095.75 328.101Z" fill="white"/>
<path d="M1092.74 325.499C1092.74 325.947 1092.45 326.309 1092.08 326.309C1091.72 326.309 1091.42 325.947 1091.42 325.499C1091.42 325.051 1091.72 324.689 1092.08 324.689C1092.45 324.689 1092.74 325.051 1092.74 325.499Z" fill="white"/>
<path d="M1098.72 323.492C1098.72 323.991 1098.39 324.392 1097.98 324.392C1097.57 324.392 1097.24 323.987 1097.24 323.492C1097.24 322.992 1097.57 322.591 1097.98 322.591C1098.39 322.591 1098.72 322.992 1098.72 323.492Z" fill="white"/>
<path d="M1098.72 332.822C1098.72 333.606 1098.2 334.243 1097.56 334.243C1096.91 334.243 1096.39 333.606 1096.39 332.822C1096.39 332.038 1096.91 331.4 1097.56 331.4C1098.2 331.396 1098.72 332.033 1098.72 332.822Z" fill="white"/>
<path d="M1101.24 327.623C1101.24 328.165 1100.88 328.605 1100.44 328.605C1100 328.605 1099.64 328.165 1099.64 327.623C1099.64 327.08 1100 326.64 1100.44 326.64C1100.88 326.64 1101.24 327.084 1101.24 327.623Z" fill="white"/>
<path d="M1104.95 328.114C1104.95 328.385 1104.77 328.605 1104.55 328.605C1104.33 328.605 1104.15 328.385 1104.15 328.114C1104.15 327.842 1104.33 327.623 1104.55 327.623C1104.77 327.623 1104.95 327.842 1104.95 328.114Z" fill="white"/>
<path d="M1103.27 323.901C1103.27 324.172 1103.09 324.392 1102.87 324.392C1102.65 324.392 1102.47 324.172 1102.47 323.901C1102.47 323.629 1102.65 323.41 1102.87 323.41C1103.09 323.41 1103.27 323.629 1103.27 323.901Z" fill="white"/>
<path d="M1098.72 339.727C1098.72 339.998 1098.54 340.218 1098.32 340.218C1098.1 340.218 1097.92 339.998 1097.92 339.727C1097.92 339.455 1098.1 339.236 1098.32 339.236C1098.54 339.236 1098.72 339.455 1098.72 339.727Z" fill="white"/>
<path d="M1101.46 341.962C1101.46 342.234 1101.28 342.453 1101.06 342.453C1100.84 342.453 1100.66 342.234 1100.66 341.962C1100.66 341.691 1100.84 341.471 1101.06 341.471C1101.28 341.471 1101.46 341.691 1101.46 341.962Z" fill="white"/>
<path d="M1095.39 338.111C1095.39 338.723 1094.99 339.223 1094.49 339.223C1093.99 339.223 1093.58 338.727 1093.58 338.111C1093.58 337.5 1093.99 337 1094.49 337C1094.99 337 1095.39 337.495 1095.39 338.111Z" fill="white"/>
<path d="M1090.2 338.387C1090.2 338.387 1089.6 337.904 1089.02 338.874C1089.02 338.874 1089.78 339.839 1090.2 338.387Z" fill="#6615B2"/>
<path d="M1094.77 331.374C1094.77 331.374 1093.96 330.724 1093.18 332.033C1093.18 332.033 1094.2 333.347 1094.77 331.374Z" fill="#6615B2"/>
<path d="M1103.44 327.64C1103.44 327.64 1102.61 327.648 1101.95 329.535C1101.95 329.535 1103.04 330 1103.44 327.64Z" fill="#6615B2"/>
<path d="M1107.29 329.057C1107.29 329.057 1106.59 327.644 1105.72 328.126C1105.72 328.126 1106.56 330.375 1107.29 329.057Z" fill="#6615B2"/>
<path d="M1101.12 333.085C1101.12 333.085 1100.72 331.224 1100 330.638C1100 330.638 1100.41 333.296 1101.12 333.085Z" fill="#6615B2"/>
<path d="M1099.75 335.729C1099.75 335.729 1099.06 335.57 1098.47 337.03C1098.47 337.03 1099.37 337.637 1099.75 335.729Z" fill="#6615B2"/>
<path d="M1100.41 344.06C1100.41 344.06 1099.84 342.772 1099.1 343.061C1099.1 343.057 1099.78 345.068 1100.41 344.06Z" fill="#6615B2"/>
<path d="M1101.43 338.473C1101.43 338.473 1100.73 338.387 1100.15 339.903C1100.15 339.903 1101.07 340.42 1101.43 338.473Z" fill="#6615B2"/>
<path d="M1098.22 328.178C1098.22 328.178 1097.54 327.674 1096.89 328.824C1096.89 328.824 1097.75 329.875 1098.22 328.178Z" fill="#6615B2"/>
<path d="M1096.47 325.736C1096.47 325.736 1095.95 324.241 1095.2 324.241C1095.2 324.245 1095.81 326.498 1096.47 325.736Z" fill="#6615B2"/>
<path d="M1091.28 339.615C1090.49 340.257 1090.1 341.549 1090.4 342.492C1090.63 343.203 1091.14 343.052 1091.71 342.66L1092 343.56C1092.04 343.685 1092.16 343.715 1092.26 343.634L1092.82 343.181C1092.92 343.095 1092.98 342.927 1092.94 342.802L1092.65 341.906C1093.17 341.411 1093.5 340.898 1093.26 340.166C1092.96 339.223 1092.07 338.977 1091.28 339.615Z" fill="#DFDCF7"/>
<path d="M1106.24 323.138C1106.88 323.659 1107.2 324.715 1106.95 325.481C1106.77 326.059 1106.36 325.938 1105.89 325.619L1105.65 326.352C1105.62 326.455 1105.52 326.481 1105.44 326.412L1104.98 326.041C1104.9 325.973 1104.86 325.835 1104.89 325.731L1105.13 325.003C1104.7 324.603 1104.43 324.181 1104.62 323.586C1104.87 322.819 1105.6 322.617 1106.24 323.138Z" fill="#DFDCF7"/>
<path d="M1097.07 335.609C1097.72 336.13 1098.04 337.185 1097.79 337.952C1097.6 338.529 1097.19 338.408 1096.72 338.09L1096.49 338.822C1096.45 338.925 1096.36 338.951 1096.27 338.882L1095.82 338.512C1095.74 338.443 1095.69 338.305 1095.73 338.202L1095.96 337.474C1095.53 337.073 1095.27 336.651 1095.46 336.057C1095.7 335.29 1096.43 335.087 1097.07 335.609Z" fill="#DFDCF7"/>
<path d="M1091.64 327.635C1091 328.156 1090.68 329.212 1090.93 329.978C1091.12 330.556 1091.53 330.435 1091.99 330.116L1092.23 330.849C1092.26 330.952 1092.36 330.978 1092.44 330.909L1092.9 330.538C1092.98 330.469 1093.02 330.332 1092.99 330.228L1092.76 329.5C1093.19 329.1 1093.45 328.678 1093.26 328.083C1093.01 327.312 1092.28 327.114 1091.64 327.635Z" fill="#DFDCF7"/>
<path d="M1119.6 334.48L1104.88 333.179L1102.87 331.387V333.003L1114.36 346.455C1117.83 343.535 1120.15 339.322 1120.57 334.566V332.951L1119.6 334.48Z" fill="#EFECEA"/>
<path d="M1120.58 332.951C1120.15 337.702 1117.83 341.919 1114.36 344.84L1109.15 338.74L1108.07 337.469L1102.87 331.383L1120.58 332.951Z" fill="#F9795A"/>
<path d="M1108.76 334.286C1108.76 334.829 1108.4 335.268 1107.96 335.268C1107.51 335.268 1107.16 334.829 1107.16 334.286C1107.16 333.744 1107.51 333.304 1107.96 333.304C1108.4 333.304 1108.76 333.744 1108.76 334.286Z" fill="white"/>
<path d="M1109.6 337.853C1109.6 338.245 1109.42 338.581 1109.15 338.74L1108.07 337.469C1108.19 337.116 1108.47 336.871 1108.81 336.871C1109.25 336.875 1109.6 337.314 1109.6 337.853Z" fill="white"/>
<path d="M1112.47 338.077C1112.47 338.348 1112.29 338.568 1112.07 338.568C1111.85 338.568 1111.67 338.348 1111.67 338.077C1111.67 337.805 1111.85 337.586 1112.07 337.586C1112.29 337.586 1112.47 337.805 1112.47 338.077Z" fill="white"/>
<path d="M1114.62 335.268C1114.62 335.54 1114.44 335.759 1114.22 335.759C1114 335.759 1113.82 335.54 1113.82 335.268C1113.82 334.997 1114 334.777 1114.22 334.777C1114.44 334.777 1114.62 334.997 1114.62 335.268Z" fill="white"/>
<path d="M1110.55 334.532C1110.55 334.803 1110.37 335.023 1110.15 335.023C1109.93 335.023 1109.75 334.803 1109.75 334.532C1109.75 334.26 1109.93 334.041 1110.15 334.041C1110.37 334.041 1110.55 334.26 1110.55 334.532Z" fill="white"/>
<path d="M1112.6 333.666C1112.6 334.114 1112.31 334.476 1111.94 334.476C1111.57 334.476 1111.28 334.114 1111.28 333.666C1111.28 333.218 1111.57 332.856 1111.94 332.856C1112.31 332.856 1112.6 333.218 1112.6 333.666Z" fill="white"/>
<path d="M1111.94 336.293C1111.94 336.595 1111.74 336.84 1111.5 336.84C1111.25 336.84 1111.05 336.595 1111.05 336.293C1111.05 335.992 1111.25 335.746 1111.5 335.746C1111.74 335.746 1111.94 335.992 1111.94 336.293Z" fill="white"/>
<path d="M1106.08 333.304C1106.08 333.502 1105.95 333.666 1105.79 333.666C1105.63 333.666 1105.49 333.507 1105.49 333.304C1105.49 333.106 1105.62 332.942 1105.79 332.942C1105.95 332.942 1106.08 333.106 1106.08 333.304Z" fill="white"/>
<path d="M1109.48 334.596C1109.48 334.596 1108.9 334.6 1108.45 335.914C1108.45 335.914 1109.2 336.233 1109.48 334.596Z" fill="#6615B2"/>
<path d="M1116.12 335.837C1116.12 335.837 1115.68 334.639 1115.07 334.691C1115.07 334.691 1115.58 336.505 1116.12 335.837Z" fill="#6615B2"/>
<path d="M1110.88 337.848C1110.88 337.848 1110.43 336.698 1109.82 336.815C1109.82 336.81 1110.35 338.572 1110.88 337.848Z" fill="#6615B2"/>
<path d="M1114.36 339.012C1114.36 339.012 1113.78 338.783 1113.28 339.903C1113.28 339.903 1114.02 340.524 1114.36 339.012Z" fill="#6615B2"/>
<path d="M1105.53 332.201C1105.53 332.201 1105.03 331.848 1104.56 332.701C1104.56 332.701 1105.19 333.446 1105.53 332.201Z" fill="#6615B2"/>
<path d="M1124.34 509.827H1098.83C1098.26 509.827 1097.79 509.225 1097.79 508.486C1097.79 507.748 1098.26 507.146 1098.83 507.146H1124.34C1124.91 507.146 1125.38 507.748 1125.38 508.486C1125.38 509.225 1124.91 509.827 1124.34 509.827Z" fill="#FF7D78"/>
<path d="M1124.34 503.543H1098.83C1098.26 503.543 1097.79 502.941 1097.79 502.203C1097.79 501.464 1098.26 500.862 1098.83 500.862H1124.34C1124.91 500.862 1125.38 501.464 1125.38 502.203C1125.38 502.941 1124.91 503.543 1124.34 503.543Z" fill="#FF7D78"/>
<path d="M1110.23 290.81H1080.62C1080 290.81 1079.48 290.152 1079.48 289.344C1079.48 288.536 1080 287.878 1080.62 287.878H1110.23C1110.86 287.878 1111.37 288.536 1111.37 289.344C1111.37 290.148 1110.86 290.81 1110.23 290.81Z" fill="#242E6C"/>
<path d="M1110.23 296.798H1080.62C1080 296.798 1079.48 296.14 1079.48 295.332C1079.48 294.524 1080 293.866 1080.62 293.866H1110.23C1110.86 293.866 1111.37 294.524 1111.37 295.332C1111.37 296.14 1110.86 296.798 1110.23 296.798Z" fill="#242E6C"/>
<path d="M1110.23 302.786H1080.62C1080 302.786 1079.48 302.128 1079.48 301.32C1079.48 300.513 1080 299.855 1080.62 299.855H1110.23C1110.86 299.855 1111.37 300.513 1111.37 301.32C1111.37 302.128 1110.86 302.786 1110.23 302.786Z" fill="#242E6C"/>
<path d="M1160.87 248.067H1131.25C1130.63 248.067 1130.12 247.409 1130.12 246.602C1130.12 245.794 1130.63 245.136 1131.25 245.136H1160.87C1161.49 245.136 1162 245.794 1162 246.602C1162 247.406 1161.49 248.067 1160.87 248.067Z" fill="#242E6C"/>
<path d="M1160.87 254.056H1131.25C1130.63 254.056 1130.12 253.398 1130.12 252.59C1130.12 251.782 1130.63 251.124 1131.25 251.124H1160.87C1161.49 251.124 1162 251.782 1162 252.59C1162 253.394 1161.49 254.056 1160.87 254.056Z" fill="#242E6C"/>
<path d="M1160.87 260.044H1131.25C1130.63 260.044 1130.12 259.386 1130.12 258.578C1130.12 257.77 1130.63 257.112 1131.25 257.112H1160.87C1161.49 257.112 1162 257.77 1162 258.578C1162 259.382 1161.49 260.044 1160.87 260.044Z" fill="#242E6C"/>
<path d="M1160.87 333.047H1131.25C1130.63 333.047 1130.12 332.389 1130.12 331.581C1130.12 330.774 1130.63 330.116 1131.25 330.116H1160.87C1161.49 330.116 1162 330.774 1162 331.581C1162 332.386 1161.49 333.047 1160.87 333.047Z" fill="#242E6C"/>
<path d="M1160.87 339.035H1131.25C1130.63 339.035 1130.12 338.377 1130.12 337.57C1130.12 336.762 1130.63 336.104 1131.25 336.104H1160.87C1161.49 336.104 1162 336.762 1162 337.57C1162 338.374 1161.49 339.035 1160.87 339.035Z" fill="#242E6C"/>
<path d="M1160.87 345.023H1131.25C1130.63 345.023 1130.12 344.365 1130.12 343.558C1130.12 342.75 1130.63 342.092 1131.25 342.092H1160.87C1161.49 342.092 1162 342.75 1162 343.558C1162 344.362 1161.49 345.023 1160.87 345.023Z" fill="#242E6C"/>
<path d="M1241.86 337.57H1213.5C1208.83 337.57 1205.02 332.65 1205.02 326.641C1205.02 320.629 1208.83 315.709 1213.5 315.709H1241.86C1246.52 315.709 1250.34 320.629 1250.34 326.641C1250.34 332.65 1246.52 337.57 1241.86 337.57Z" fill="#FD8857"/>
<path d="M1222.26 323.494C1222.26 323.494 1227.64 333.204 1227.63 332.842C1227.61 332.48 1233.1 319.048 1233.1 319.048L1226.76 326.965L1222.26 323.494Z" fill="#EFECEA"/>
<path d="M1138.16 457.155L1119.96 462.827L1114.29 459.7L1131.94 454.45L1138.16 457.155Z" fill="#FFD4D2"/>
<path d="M1109.16 268.422C1106.9 269.325 1104.26 269.872 1100.71 269.888V270.084H1099.87V269.888C1079.6 269.812 1081.25 250.487 1081.25 250.487C1081.46 252.243 1083.18 253.392 1085.52 254.138C1090.19 255.625 1097.33 255.52 1099.87 255.424V255.38C1099.87 255.38 1099.98 255.391 1100.29 255.406C1100.6 255.391 1100.71 255.38 1100.71 255.38V255.424C1104.6 255.567 1118.72 255.734 1119.34 250.487C1119.34 250.487 1120.51 263.906 1109.16 268.422Z" fill="url(#paint17_linear_136_2)"/>
<path opacity="0.6" d="M1109.16 268.422C1106.9 269.325 1104.26 269.872 1100.71 269.888V270.084H1099.87V269.888C1079.6 269.812 1081.25 250.487 1081.25 250.487C1081.46 252.243 1083.18 253.392 1085.52 254.138C1086.59 255.514 1087.57 257.226 1088.29 259.348C1091.34 268.328 1103.62 257.005 1108.08 266.254C1108.46 267.056 1108.81 267.776 1109.16 268.422Z" fill="url(#paint18_radial_136_2)"/>
<path opacity="0.9" d="M1100.63 255.634C1111.01 255.634 1119.42 253.313 1119.42 250.451C1119.42 247.588 1111.01 245.268 1100.63 245.268C1090.24 245.268 1081.83 247.588 1081.83 250.451C1081.83 253.313 1090.24 255.634 1100.63 255.634Z" fill="url(#paint19_linear_136_2)"/>
<path d="M1104.72 256.464C1104.16 255.929 1104.55 252.971 1105.65 250.801C1107.2 247.724 1110.24 246.097 1110.96 245.736C1111.74 245.344 1112.44 245.122 1113.03 244.165C1113.89 242.784 1113.92 240.901 1114.26 240.923C1114.52 240.94 1114.43 241.984 1114.93 242.396C1115.63 242.966 1116.56 241.592 1117.27 242.231C1117.58 242.507 1117.67 243.008 1117.68 243.061C1117.84 243.942 1117.25 244.565 1117.42 244.991C1117.61 245.46 1118.38 244.827 1119.03 245.316C1119.75 245.86 1120.15 247.67 1119.75 248.844C1119.27 250.264 1117.82 250.155 1117.74 251.193C1117.68 251.961 1118.45 252.265 1118.51 253.091C1118.6 254.341 1117.01 256.085 1115.27 256.667C1111.75 257.844 1109.63 253.573 1106.61 255.332C1105.63 255.906 1105.08 256.813 1104.72 256.464Z" fill="url(#paint20_linear_136_2)"/>
<path opacity="0.3" d="M1108.12 253.645C1109.69 253.355 1110.31 255.255 1112.75 255.6C1114.78 255.886 1116.93 254.933 1117.09 253.692C1117.19 252.886 1116.38 252.519 1116.44 251.463C1116.52 249.898 1118.35 249.398 1118.28 248.323C1118.21 247.367 1116.73 247.424 1116.37 245.964C1116.09 244.858 1116.73 243.99 1116.39 243.471C1115.97 242.838 1114.93 243.982 1114.09 243.406C1113.9 243.275 1113.75 243.075 1113.62 242.826C1113.48 243.273 1113.3 243.743 1113.03 244.164C1112.44 245.121 1111.74 245.344 1110.96 245.736C1110.24 246.096 1107.21 247.723 1105.65 250.8C1104.55 252.97 1104.16 255.929 1104.72 256.463C1104.93 256.668 1105.21 256.442 1105.6 256.103C1106.55 254.327 1107.43 253.774 1108.12 253.645Z" fill="url(#paint21_linear_136_2)"/>
<path d="M1104.6 258.262C1103.74 257.624 1101.54 255.765 1100.66 252.13C1099.22 246.202 1102.2 239.267 1104.29 239.088C1105 239.028 1105.59 239.74 1106.84 239.384C1107.7 239.139 1107.82 238.691 1108.68 238.579C1109.46 238.478 1110.65 238.683 1110.93 239.586C1111.13 240.213 1110.78 240.806 1111.02 241.115C1111.3 241.485 1111.88 240.74 1112.35 240.973C1113.04 241.313 1113.5 243.74 1113.01 245.549C1112.15 248.718 1108.99 247.819 1106.65 251.198C1105.19 253.306 1104.74 256.089 1104.6 258.262Z" fill="url(#paint22_linear_136_2)"/>
<path opacity="0.3" d="M1104.16 257.212C1104.16 257.212 1102.11 252.486 1103.1 247.627C1104.08 242.769 1105.07 243.427 1105.53 243.128C1105.99 242.829 1104.98 244.916 1104.49 246.521C1104 248.124 1102.86 249.555 1104.16 257.212Z" fill="url(#paint23_linear_136_2)"/>
<path opacity="0.3" d="M1112.35 240.973C1111.88 240.74 1111.3 241.485 1111.02 241.115C1110.78 240.805 1111.13 240.213 1110.93 239.586C1110.65 238.683 1109.46 238.478 1108.68 238.579C1107.82 238.691 1107.7 239.139 1106.84 239.384C1105.59 239.74 1105 239.028 1104.29 239.088C1102.24 239.263 1099.33 245.949 1100.59 251.802C1100.37 249.567 1100.43 246.886 1101.33 244.369C1101.5 243.868 1102.8 240.229 1104.32 240.362C1105.1 240.431 1105.32 241.446 1106.2 241.446C1107.47 241.447 1107.99 239.337 1108.79 239.633C1109.55 239.914 1109.38 241.924 1110.34 242.429C1111.02 242.788 1111.49 241.965 1112.05 242.208C1112.47 242.386 1112.88 243.116 1113.1 245.139C1113.43 243.394 1112.99 241.288 1112.35 240.973Z" fill="url(#paint24_linear_136_2)"/>
<path d="M1097.03 258.21C1097.59 257.675 1097.2 254.717 1096.1 252.547C1094.54 249.471 1091.5 247.843 1090.79 247.483C1090 247.091 1089.31 246.868 1088.71 245.911C1087.85 244.531 1087.83 242.647 1087.49 242.669C1087.23 242.686 1087.32 243.731 1086.81 244.143C1086.12 244.713 1085.18 243.338 1084.48 243.977C1084.17 244.254 1084.07 244.754 1084.06 244.807C1083.9 245.688 1084.5 246.312 1084.33 246.738C1084.14 247.206 1083.37 246.573 1082.72 247.062C1082 247.607 1081.6 249.417 1082 250.59C1082.48 252.011 1083.92 251.902 1084.01 252.939C1084.07 253.707 1083.3 254.011 1083.24 254.838C1083.15 256.087 1084.73 257.831 1086.47 258.413C1090 259.591 1092.12 255.319 1095.13 257.079C1096.12 257.653 1096.66 258.56 1097.03 258.21Z" fill="url(#paint25_linear_136_2)"/>
<path d="M1093.63 255.392C1092.06 255.101 1091.44 257.001 1089 257.346C1086.97 257.633 1084.82 256.679 1084.66 255.438C1084.56 254.632 1085.36 254.265 1085.31 253.209C1085.23 251.644 1083.4 251.144 1083.47 250.069C1083.54 249.113 1085.01 249.17 1085.38 247.711C1085.66 246.605 1085.02 245.736 1085.36 245.218C1085.77 244.584 1086.82 245.728 1087.66 245.152C1087.85 245.022 1088 244.822 1088.13 244.572C1088.27 245.02 1088.45 245.489 1088.71 245.911C1089.31 246.868 1090 247.09 1090.79 247.482C1091.5 247.842 1094.54 249.469 1096.1 252.547C1097.2 254.717 1097.59 257.675 1097.03 258.21C1096.82 258.414 1096.54 258.188 1096.15 257.849C1095.2 256.073 1094.32 255.52 1093.63 255.392Z" fill="url(#paint26_linear_136_2)"/>
<path d="M1097.14 260.009C1098 259.372 1100.2 257.512 1101.09 253.878C1102.52 247.95 1099.55 241.014 1097.46 240.835C1096.75 240.775 1096.16 241.487 1094.91 241.131C1094.05 240.887 1093.93 240.438 1093.07 240.326C1092.28 240.225 1091.1 240.43 1090.81 241.333C1090.61 241.96 1090.96 242.553 1090.73 242.862C1090.45 243.232 1089.87 242.487 1089.4 242.72C1088.71 243.06 1088.25 245.487 1088.74 247.296C1089.59 250.465 1092.76 249.566 1095.1 252.946C1096.56 255.053 1097.01 257.836 1097.14 260.009Z" fill="url(#paint27_linear_136_2)"/>
<path d="M1097.59 258.959C1097.59 258.959 1099.63 254.232 1098.65 249.374C1097.66 244.516 1096.68 245.173 1096.22 244.874C1095.76 244.575 1096.77 246.663 1097.26 248.267C1097.75 249.871 1098.89 251.302 1097.59 258.959Z" fill="url(#paint28_linear_136_2)"/>
<path opacity="0.3" d="M1089.4 242.72C1089.87 242.488 1090.45 243.232 1090.73 242.862C1090.96 242.553 1090.61 241.96 1090.81 241.333C1091.1 240.43 1092.28 240.225 1093.07 240.326C1093.93 240.438 1094.05 240.887 1094.91 241.131C1096.16 241.487 1096.75 240.775 1097.46 240.835C1099.51 241.011 1102.41 247.696 1101.16 253.549C1101.38 251.314 1101.32 248.633 1100.42 246.117C1100.24 245.615 1098.95 241.976 1097.43 242.109C1096.65 242.178 1096.43 243.193 1095.55 243.193C1094.28 243.194 1093.76 241.085 1092.96 241.38C1092.19 241.661 1092.37 243.671 1091.41 244.176C1090.72 244.535 1090.26 243.712 1089.69 243.955C1089.28 244.133 1088.87 244.863 1088.65 246.886C1088.32 245.14 1088.76 243.035 1089.4 242.72Z" fill="url(#paint29_linear_136_2)"/>
<path d="M1111.74 240.112C1114 242.959 1114.1 247.997 1111.96 251.364C1109.82 254.731 1106.26 255.152 1104 252.306L1111.74 240.112Z" fill="url(#paint30_linear_136_2)"/>
<path opacity="0.5" d="M1111.74 240.112C1113.74 242.627 1113.62 247.395 1111.48 250.762C1109.35 254.13 1105.99 254.82 1104 252.305L1111.74 240.112Z" fill="url(#paint31_linear_136_2)"/>
<path d="M1111.28 240.839C1112.98 242.987 1112.93 247.229 1111.05 250.183C1109.18 253.137 1106.19 253.685 1104.49 251.537L1111.28 240.839Z" fill="url(#paint32_linear_136_2)"/>
<path d="M1108.74 245.346L1108.17 246.242L1110.78 249.536C1111.4 248.503 1111.75 247.406 1111.92 246.314L1108.74 245.346Z" fill="url(#paint33_linear_136_2)"/>
<path d="M1108.38 251.789C1109.13 251.452 1109.87 250.873 1110.54 249.909L1107.93 246.619L1107.36 247.513L1108.38 251.789Z" fill="url(#paint34_linear_136_2)"/>
<path d="M1107.02 248.058L1105.09 251.089C1105.81 251.989 1106.86 252.275 1107.92 251.96L1107.02 248.058Z" fill="url(#paint35_linear_136_2)"/>
<path d="M1109.08 244.801L1112 245.647C1112.13 244.075 1111.88 242.668 1111.08 241.656L1109.08 244.801Z" fill="url(#paint36_linear_136_2)"/>
<g opacity="0.2">
<path opacity="0.2" d="M1108.74 245.346L1108.17 246.242L1110.78 249.536C1111.4 248.503 1111.75 247.406 1111.92 246.314L1108.74 245.346Z" fill="url(#paint37_linear_136_2)"/>
<path opacity="0.2" d="M1108.38 251.789C1109.13 251.452 1109.87 250.873 1110.54 249.909L1107.93 246.619L1107.36 247.513L1108.38 251.789Z" fill="url(#paint38_linear_136_2)"/>
<path opacity="0.2" d="M1107.02 248.058L1105.09 251.089C1105.81 251.989 1106.86 252.275 1107.92 251.96L1107.02 248.058Z" fill="url(#paint39_linear_136_2)"/>
<path opacity="0.2" d="M1109.08 244.801L1112 245.647C1112.13 244.075 1111.88 242.668 1111.08 241.656L1109.08 244.801Z" fill="url(#paint40_linear_136_2)"/>
</g>
<path d="M1099.02 250.936C1097.34 254.493 1093.82 255.35 1091.15 252.85C1088.48 250.349 1087.67 245.439 1089.35 241.882L1099.02 250.936Z" fill="url(#paint41_linear_136_2)"/>
<path opacity="0.5" d="M1099.02 250.936C1097.54 254.078 1094.17 254.598 1091.5 252.099C1088.83 249.599 1087.87 245.025 1089.35 241.882L1099.02 250.936Z" fill="url(#paint42_linear_136_2)"/>
<path d="M1098.45 250.396C1097.18 253.08 1094.19 253.609 1091.85 251.416C1089.5 249.222 1088.69 245.136 1089.96 242.453L1098.45 250.396Z" fill="url(#paint43_linear_136_2)"/>
<path d="M1094.91 247.497L1094.2 246.832L1092.26 250.948C1093.08 251.662 1093.9 251.99 1094.69 252.072L1094.91 247.497Z" fill="url(#paint44_linear_136_2)"/>
<path d="M1090.34 247.92C1090.68 248.92 1091.19 249.863 1091.97 250.662L1093.91 246.552L1093.2 245.889L1090.34 247.92Z" fill="url(#paint45_linear_136_2)"/>
<path d="M1092.76 245.483L1090.36 243.233C1089.83 244.357 1089.78 245.861 1090.15 247.296L1092.76 245.483Z" fill="url(#paint46_linear_136_2)"/>
<path d="M1095.35 247.901L1095.17 252.087C1096.29 252.047 1097.25 251.502 1097.84 250.236L1095.35 247.901Z" fill="url(#paint47_linear_136_2)"/>
<g opacity="0.2">
<path opacity="0.2" d="M1094.91 247.497L1094.2 246.832L1092.26 250.948C1093.08 251.662 1093.9 251.99 1094.69 252.072L1094.91 247.497Z" fill="url(#paint48_linear_136_2)"/>
<path opacity="0.2" d="M1090.34 247.92C1090.68 248.92 1091.19 249.863 1091.97 250.662L1093.91 246.552L1093.2 245.889L1090.34 247.92Z" fill="url(#paint49_linear_136_2)"/>
<path opacity="0.2" d="M1092.76 245.483L1090.36 243.233C1089.83 244.357 1089.78 245.861 1090.15 247.296L1092.76 245.483Z" fill="url(#paint50_linear_136_2)"/>
<path opacity="0.2" d="M1095.35 247.901L1095.17 252.087C1096.29 252.047 1097.25 251.502 1097.84 250.236L1095.35 247.901Z" fill="url(#paint51_linear_136_2)"/>
</g>
<path d="M1108.12 260.72C1108.68 260.185 1108.28 257.227 1107.19 255.057C1105.63 251.98 1102.59 250.353 1101.87 249.992C1101.09 249.6 1100.4 249.378 1099.8 248.421C1098.94 247.04 1098.92 245.157 1098.57 245.179C1098.32 245.196 1098.41 246.24 1097.9 246.652C1097.2 247.222 1096.27 245.848 1095.56 246.487C1095.26 246.763 1095.16 247.264 1095.15 247.317C1094.99 248.198 1095.59 248.821 1095.42 249.247C1095.23 249.716 1094.45 249.083 1093.81 249.572C1093.09 250.116 1092.69 251.926 1093.08 253.1C1093.57 254.52 1095.01 254.411 1095.09 255.449C1095.16 256.217 1094.38 256.521 1094.32 257.347C1094.23 258.597 1095.82 260.341 1097.56 260.923C1101.08 262.1 1103.21 257.829 1106.22 259.588C1107.21 260.162 1107.75 261.07 1108.12 260.72Z" fill="url(#paint52_linear_136_2)"/>
<path d="M1104.71 257.901C1103.14 257.611 1102.53 259.511 1100.09 259.856C1098.06 260.142 1095.91 259.189 1095.75 257.948C1095.65 257.142 1096.45 256.775 1096.4 255.719C1096.32 254.154 1094.48 253.654 1094.56 252.579C1094.63 251.623 1096.1 251.68 1096.47 250.22C1096.74 249.114 1096.11 248.246 1096.45 247.727C1096.86 247.094 1097.91 248.238 1098.75 247.661C1098.94 247.532 1099.09 247.331 1099.21 247.082C1099.35 247.529 1099.54 247.999 1099.8 248.42C1100.4 249.377 1101.09 249.6 1101.87 249.992C1102.59 250.352 1105.63 251.979 1107.19 255.056C1108.28 257.226 1108.68 260.185 1108.12 260.719C1107.9 260.924 1107.63 260.698 1107.24 260.359C1106.29 258.583 1105.41 258.03 1104.71 257.901Z" fill="url(#paint53_linear_136_2)"/>
<path d="M1103.34 256.752C1103.1 257.362 1102.77 257.922 1102.36 258.405C1100.26 260.842 1097.23 259.823 1095.6 256.127C1094.56 253.77 1094.13 251.135 1094.34 249.095C1094.45 247.938 1094.77 246.971 1095.3 246.355C1096.77 244.654 1099.79 245.675 1102.06 248.633C1103.87 251.006 1104.32 254.287 1103.34 256.752Z" fill="url(#paint54_linear_136_2)"/>
<path d="M1101.09 250.702C1101.97 252.212 1101.81 254.458 1100.73 255.717C1099.64 256.976 1098.05 256.772 1097.16 255.262C1096.28 253.752 1096.44 251.506 1097.52 250.247C1098.61 248.988 1100.21 249.192 1101.09 250.702Z" fill="url(#paint55_linear_136_2)"/>
<path opacity="0.1" d="M1103.34 256.753C1103.1 257.363 1102.77 257.922 1102.36 258.405C1100.26 260.842 1097.23 259.823 1095.6 256.127C1094.56 253.77 1094.13 251.135 1094.34 249.095C1094.58 251.156 1095.25 254.26 1097.07 255.098C1097.33 255.215 1097.61 255.288 1097.91 255.307C1098.94 255.37 1099.93 255.464 1100.8 255.633C1101.91 255.85 1102.82 256.192 1103.34 256.753Z" fill="url(#paint56_linear_136_2)"/>
<path d="M1144.89 445.48C1141.42 446.767 1137.37 447.546 1131.93 447.57V447.848H1130.63V447.57C1099.53 447.461 1102.06 419.912 1102.06 419.912C1102.38 422.415 1105.02 424.054 1108.62 425.117C1115.77 427.236 1126.74 427.087 1130.63 426.95V426.888C1130.63 426.888 1130.81 426.902 1131.28 426.924C1131.75 426.902 1131.93 426.888 1131.93 426.888V426.95C1137.89 427.154 1159.56 427.392 1160.51 419.913C1160.51 419.913 1162.31 439.041 1144.89 445.48Z" fill="url(#paint57_linear_136_2)"/>
<path opacity="0.6" d="M1144.89 445.48C1141.42 446.767 1137.37 447.546 1131.93 447.57V447.848H1130.63V447.57C1099.53 447.461 1102.06 419.912 1102.06 419.912C1102.38 422.415 1105.02 424.054 1108.62 425.117C1110.26 427.079 1111.76 429.518 1112.87 432.544C1117.55 445.345 1136.39 429.203 1143.22 442.388C1143.82 443.531 1144.35 444.559 1144.89 445.48Z" fill="url(#paint58_linear_136_2)"/>
<path d="M1131.27 428.692C1147.52 428.692 1160.69 425.085 1160.69 420.634C1160.69 416.184 1147.52 412.577 1131.27 412.577C1115.02 412.577 1101.85 416.184 1101.85 420.634C1101.85 425.085 1115.02 428.692 1131.27 428.692Z" fill="url(#paint59_linear_136_2)"/>
<path opacity="0.9" d="M1131.79 427.249C1147.73 427.249 1160.64 423.941 1160.64 419.86C1160.64 415.78 1147.73 412.472 1131.79 412.472C1115.86 412.472 1102.95 415.78 1102.95 419.86C1102.95 423.941 1115.86 427.249 1131.79 427.249Z" fill="url(#paint60_linear_136_2)"/>
<path d="M1138.07 428.432C1137.21 427.67 1137.82 423.453 1139.5 420.36C1141.89 415.974 1146.55 413.654 1147.65 413.14C1148.85 412.581 1149.92 412.264 1150.83 410.9C1152.15 408.932 1152.19 406.247 1152.72 406.279C1153.11 406.302 1152.97 407.792 1153.75 408.379C1154.82 409.192 1156.25 407.232 1157.33 408.143C1157.8 408.537 1157.95 409.251 1157.97 409.326C1158.22 410.582 1157.3 411.471 1157.56 412.078C1157.85 412.746 1159.04 411.844 1160.03 412.541C1161.13 413.317 1161.75 415.897 1161.14 417.57C1160.4 419.595 1158.19 419.44 1158.06 420.918C1157.96 422.013 1159.14 422.446 1159.24 423.625C1159.37 425.406 1156.94 427.892 1154.27 428.722C1148.87 430.401 1145.6 424.311 1140.98 426.819C1139.47 427.638 1138.63 428.931 1138.07 428.432Z" fill="url(#paint61_linear_136_2)"/>
<path opacity="0.3" d="M1143.29 424.415C1145.7 424 1146.65 426.709 1150.39 427.2C1153.51 427.609 1156.8 426.25 1157.05 424.481C1157.21 423.332 1155.97 422.809 1156.06 421.303C1156.18 419.073 1158.99 418.36 1158.88 416.827C1158.77 415.465 1156.51 415.546 1155.95 413.465C1155.52 411.888 1156.5 410.651 1155.98 409.911C1155.35 409.008 1153.74 410.639 1152.45 409.817C1152.16 409.632 1151.93 409.347 1151.73 408.991C1151.52 409.629 1151.24 410.298 1150.83 410.899C1149.92 412.263 1148.85 412.58 1147.65 413.139C1146.55 413.652 1141.89 415.972 1139.5 420.359C1137.82 423.452 1137.21 427.669 1138.07 428.431C1138.4 428.724 1138.83 428.401 1139.42 427.918C1140.88 425.386 1142.23 424.597 1143.29 424.415Z" fill="url(#paint62_linear_136_2)"/>
<path d="M1137.9 430.996C1136.58 430.087 1133.2 427.436 1131.85 422.255C1129.64 413.804 1134.21 403.917 1137.42 403.663C1138.5 403.577 1139.41 404.591 1141.33 404.084C1142.65 403.736 1142.83 403.096 1144.15 402.937C1145.36 402.793 1147.17 403.085 1147.61 404.372C1147.92 405.266 1147.38 406.112 1147.74 406.552C1148.17 407.079 1149.06 406.018 1149.79 406.35C1150.84 406.834 1151.54 410.294 1150.79 412.872C1149.48 417.39 1144.62 416.108 1141.04 420.926C1138.8 423.931 1138.11 427.898 1137.9 430.996Z" fill="url(#paint63_linear_136_2)"/>
<path opacity="0.3" d="M1137.21 429.5C1137.21 429.5 1134.08 422.761 1135.59 415.836C1137.1 408.91 1138.61 409.848 1139.32 409.422C1140.02 408.995 1138.47 411.971 1137.72 414.258C1136.97 416.545 1135.23 418.584 1137.21 429.5Z" fill="url(#paint64_linear_136_2)"/>
<path opacity="0.3" d="M1149.79 406.35C1149.06 406.018 1148.18 407.079 1147.74 406.552C1147.38 406.111 1147.92 405.266 1147.61 404.372C1147.17 403.085 1145.36 402.793 1144.16 402.937C1142.83 403.096 1142.65 403.736 1141.33 404.084C1139.41 404.591 1138.5 403.577 1137.42 403.663C1134.27 403.912 1129.81 413.443 1131.74 421.786C1131.4 418.601 1131.49 414.778 1132.87 411.191C1133.14 410.477 1135.13 405.288 1137.46 405.479C1138.66 405.577 1138.99 407.024 1140.35 407.024C1142.3 407.025 1143.09 404.018 1144.32 404.439C1145.49 404.84 1145.22 407.705 1146.7 408.424C1147.75 408.937 1148.46 407.763 1149.33 408.11C1149.97 408.364 1150.6 409.405 1150.94 412.288C1151.44 409.8 1150.77 406.799 1149.79 406.35Z" fill="url(#paint65_linear_136_2)"/>
<path d="M1126.28 430.922C1127.14 430.16 1126.53 425.943 1124.85 422.849C1122.46 418.464 1117.8 416.144 1116.69 415.63C1115.49 415.071 1114.43 414.754 1113.52 413.39C1112.2 411.422 1112.16 408.737 1111.63 408.768C1111.24 408.792 1111.38 410.281 1110.6 410.869C1109.53 411.681 1108.1 409.722 1107.01 410.633C1106.54 411.027 1106.39 411.74 1106.38 411.815C1106.13 413.072 1107.05 413.96 1106.79 414.567C1106.5 415.236 1105.31 414.334 1104.32 415.03C1103.21 415.806 1102.6 418.387 1103.21 420.06C1103.95 422.084 1106.16 421.929 1106.29 423.408C1106.39 424.503 1105.2 424.936 1105.11 426.115C1104.97 427.895 1107.41 430.382 1110.08 431.211C1115.48 432.89 1118.74 426.801 1123.37 429.309C1124.88 430.127 1125.72 431.42 1126.28 430.922Z" fill="url(#paint66_linear_136_2)"/>
<path d="M1121.05 426.904C1118.64 426.49 1117.7 429.198 1113.95 429.69C1110.84 430.099 1107.54 428.739 1107.3 426.971C1107.14 425.822 1108.37 425.298 1108.29 423.793C1108.17 421.562 1105.35 420.849 1105.47 419.316C1105.58 417.954 1107.84 418.035 1108.4 415.954C1108.82 414.378 1107.85 413.14 1108.37 412.401C1109 411.498 1110.61 413.128 1111.9 412.307C1112.19 412.121 1112.42 411.836 1112.61 411.481C1112.83 412.118 1113.11 412.788 1113.52 413.389C1114.43 414.753 1115.49 415.07 1116.69 415.629C1117.8 416.142 1122.46 418.462 1124.85 422.848C1126.53 425.942 1127.14 430.159 1126.28 430.921C1125.95 431.213 1125.52 430.89 1124.92 430.408C1123.47 427.876 1122.11 427.087 1121.05 426.904Z" fill="url(#paint67_linear_136_2)"/>
<path d="M1126.45 433.486C1127.77 432.577 1131.15 429.927 1132.5 424.746C1134.71 416.295 1130.14 406.408 1126.93 406.153C1125.85 406.067 1124.94 407.082 1123.02 406.575C1121.7 406.226 1121.52 405.587 1120.19 405.428C1118.99 405.284 1117.18 405.576 1116.74 406.863C1116.43 407.756 1116.97 408.602 1116.61 409.042C1116.17 409.57 1115.29 408.508 1114.56 408.84C1113.5 409.325 1112.81 412.785 1113.55 415.363C1114.87 419.881 1119.72 418.599 1123.31 423.417C1125.55 426.421 1126.24 430.388 1126.45 433.486Z" fill="url(#paint68_linear_136_2)"/>
<path d="M1127.14 431.989C1127.14 431.989 1130.27 425.251 1128.76 418.325C1127.25 411.4 1125.73 412.338 1125.03 411.911C1124.32 411.485 1125.88 414.461 1126.63 416.748C1127.38 419.034 1129.12 421.074 1127.14 431.989Z" fill="url(#paint69_linear_136_2)"/>
<path opacity="0.3" d="M1114.56 408.84C1115.28 408.508 1116.17 409.57 1116.61 409.042C1116.97 408.601 1116.43 407.756 1116.74 406.863C1117.18 405.576 1118.99 405.284 1120.19 405.428C1121.52 405.587 1121.7 406.226 1123.02 406.575C1124.94 407.082 1125.85 406.067 1126.93 406.153C1130.08 406.403 1134.54 415.934 1132.61 424.277C1132.95 421.091 1132.86 417.269 1131.48 413.682C1131.21 412.967 1129.21 407.779 1126.89 407.97C1125.69 408.067 1125.36 409.514 1124 409.514C1122.05 409.515 1121.26 406.509 1120.03 406.93C1118.86 407.331 1119.12 410.195 1117.65 410.915C1116.6 411.427 1115.89 410.254 1115.02 410.6C1114.38 410.855 1113.75 411.895 1113.41 414.779C1112.91 412.29 1113.58 409.288 1114.56 408.84Z" fill="url(#paint70_linear_136_2)"/>
<path d="M1148.85 405.122C1152.32 409.181 1152.47 416.362 1149.19 421.163C1145.91 425.963 1140.44 426.563 1136.97 422.505L1148.85 405.122Z" fill="url(#paint71_linear_136_2)"/>
<path opacity="0.5" d="M1148.85 405.122C1151.91 408.707 1151.74 415.504 1148.46 420.305C1145.17 425.105 1140.03 426.089 1136.97 422.504L1148.85 405.122Z" fill="url(#paint72_linear_136_2)"/>
<path d="M1148.14 406.158C1150.76 409.22 1150.67 415.267 1147.8 419.479C1144.92 423.69 1140.33 424.471 1137.72 421.409L1148.14 406.158Z" fill="url(#paint73_linear_136_2)"/>
<path d="M1144.24 412.584L1143.37 413.861L1147.38 418.556C1148.33 417.085 1148.86 415.521 1149.13 413.963L1144.24 412.584Z" fill="url(#paint74_linear_136_2)"/>
<path d="M1143.7 421.769C1144.85 421.288 1145.98 420.463 1147.01 419.089L1143 414.399L1142.13 415.672L1143.7 421.769Z" fill="url(#paint75_linear_136_2)"/>
<path d="M1141.6 416.45L1138.65 420.771C1139.74 422.053 1141.35 422.461 1142.98 422.011L1141.6 416.45Z" fill="url(#paint76_linear_136_2)"/>
<path d="M1144.77 411.806L1149.25 413.013C1149.45 410.772 1149.07 408.766 1147.84 407.324L1144.77 411.806Z" fill="url(#paint77_linear_136_2)"/>
<g opacity="0.2">
<path opacity="0.2" d="M1144.24 412.584L1143.37 413.861L1147.38 418.556C1148.33 417.085 1148.86 415.521 1149.13 413.963L1144.24 412.584Z" fill="url(#paint78_linear_136_2)"/>
<path opacity="0.2" d="M1143.7 421.769C1144.85 421.288 1145.98 420.463 1147.01 419.089L1143 414.399L1142.13 415.672L1143.7 421.769Z" fill="url(#paint79_linear_136_2)"/>
<path opacity="0.2" d="M1141.6 416.45L1138.65 420.771C1139.74 422.053 1141.35 422.461 1142.98 422.011L1141.6 416.45Z" fill="url(#paint80_linear_136_2)"/>
<path opacity="0.2" d="M1144.77 411.806L1149.25 413.013C1149.45 410.772 1149.07 408.766 1147.84 407.324L1144.77 411.806Z" fill="url(#paint81_linear_136_2)"/>
</g>
<path d="M1129.33 420.552C1126.76 425.623 1121.35 426.845 1117.25 423.281C1113.15 419.716 1111.91 412.717 1114.49 407.646L1129.33 420.552Z" fill="url(#paint82_linear_136_2)"/>
<path opacity="0.5" d="M1129.33 420.552C1127.06 425.032 1121.89 425.773 1117.79 422.21C1113.69 418.646 1112.21 412.125 1114.49 407.646L1129.33 420.552Z" fill="url(#paint83_linear_136_2)"/>
<path d="M1128.45 419.783C1126.51 423.609 1121.92 424.364 1118.32 421.237C1114.73 418.109 1113.48 412.284 1115.42 408.459L1128.45 419.783Z" fill="url(#paint84_linear_136_2)"/>
<path d="M1123.03 415.649L1121.94 414.702L1118.96 420.569C1120.21 421.588 1121.47 422.054 1122.68 422.171L1123.03 415.649Z" fill="url(#paint85_linear_136_2)"/>
<path d="M1116.01 416.252C1116.53 417.679 1117.32 419.022 1118.51 420.162L1121.48 414.303L1120.39 413.357L1116.01 416.252Z" fill="url(#paint86_linear_136_2)"/>
<path d="M1119.73 412.78L1116.04 409.572C1115.23 411.175 1115.15 413.318 1115.72 415.364L1119.73 412.78Z" fill="url(#paint87_linear_136_2)"/>
<path d="M1123.69 416.227L1123.42 422.193C1125.14 422.137 1126.61 421.359 1127.52 419.555L1123.69 416.227Z" fill="url(#paint88_linear_136_2)"/>
<g opacity="0.2">
<path opacity="0.2" d="M1123.03 415.649L1121.94 414.702L1118.96 420.569C1120.21 421.588 1121.47 422.054 1122.68 422.171L1123.03 415.649Z" fill="url(#paint89_linear_136_2)"/>
<path opacity="0.2" d="M1116.01 416.252C1116.53 417.679 1117.32 419.022 1118.51 420.162L1121.48 414.303L1120.39 413.357L1116.01 416.252Z" fill="url(#paint90_linear_136_2)"/>
<path opacity="0.2" d="M1119.73 412.78L1116.04 409.572C1115.23 411.175 1115.15 413.318 1115.72 415.364L1119.73 412.78Z" fill="url(#paint91_linear_136_2)"/>
<path opacity="0.2" d="M1123.69 416.227L1123.42 422.193C1125.14 422.137 1126.61 421.359 1127.52 419.555L1123.69 416.227Z" fill="url(#paint92_linear_136_2)"/>
</g>
<path d="M1143.29 434.499C1144.15 433.737 1143.55 429.52 1141.86 426.427C1139.47 422.041 1134.81 419.721 1133.71 419.207C1132.51 418.648 1131.45 418.331 1130.53 416.967C1129.21 414.999 1129.17 412.314 1128.65 412.345C1128.25 412.369 1128.39 413.859 1127.61 414.446C1126.54 415.258 1125.11 413.299 1124.03 414.21C1123.56 414.604 1123.41 415.318 1123.39 415.393C1123.15 416.649 1124.06 417.538 1123.8 418.145C1123.51 418.813 1122.32 417.911 1121.33 418.608C1120.23 419.384 1119.61 421.964 1120.22 423.637C1120.96 425.662 1123.18 425.507 1123.31 426.985C1123.4 428.08 1122.22 428.513 1122.12 429.692C1121.99 431.473 1124.42 433.959 1127.09 434.788C1132.5 436.468 1135.76 430.378 1140.38 432.886C1141.89 433.705 1142.73 434.999 1143.29 434.499Z" fill="url(#paint93_linear_136_2)"/>
<path d="M1138.07 430.482C1135.66 430.067 1134.71 432.776 1130.97 433.267C1127.85 433.676 1124.56 432.317 1124.31 430.548C1124.15 429.399 1125.39 428.876 1125.31 427.37C1125.18 425.139 1122.37 424.427 1122.48 422.894C1122.59 421.531 1124.85 421.612 1125.41 419.532C1125.84 417.955 1124.86 416.717 1125.38 415.978C1126.01 415.075 1127.62 416.705 1128.91 415.884C1129.2 415.7 1129.44 415.413 1129.63 415.058C1129.84 415.696 1130.12 416.365 1130.53 416.966C1131.44 418.33 1132.51 418.647 1133.71 419.206C1134.81 419.719 1139.47 422.039 1141.86 426.426C1143.54 429.519 1144.15 433.736 1143.29 434.498C1142.96 434.79 1142.54 434.468 1141.94 433.985C1140.48 431.453 1139.13 430.664 1138.07 430.482Z" fill="url(#paint94_linear_136_2)"/>
<path d="M1135.96 428.844C1135.59 429.714 1135.09 430.512 1134.45 431.2C1131.23 434.674 1126.59 433.221 1124.09 427.953C1122.49 424.593 1121.83 420.837 1122.14 417.929C1122.32 416.278 1122.81 414.9 1123.63 414.023C1125.87 411.598 1130.51 413.053 1133.99 417.269C1136.77 420.652 1137.46 425.33 1135.96 428.844Z" fill="url(#paint95_linear_136_2)"/>
<path d="M1132.5 420.219C1133.86 422.372 1133.61 425.573 1131.95 427.367C1130.28 429.162 1127.84 428.872 1126.48 426.719C1125.12 424.566 1125.37 421.365 1127.04 419.57C1128.7 417.776 1131.15 418.066 1132.5 420.219Z" fill="url(#paint96_linear_136_2)"/>
<path opacity="0.1" d="M1135.96 428.844C1135.59 429.714 1135.09 430.511 1134.45 431.199C1131.23 434.674 1126.59 433.221 1124.09 427.952C1122.49 424.592 1121.83 420.836 1122.14 417.928C1122.52 420.866 1123.54 425.29 1126.34 426.485C1126.73 426.652 1127.16 426.756 1127.63 426.784C1129.21 426.873 1130.72 427.007 1132.05 427.248C1133.77 427.558 1135.17 428.044 1135.96 428.844Z" fill="url(#paint97_linear_136_2)"/>
</g>
</g>
<defs>
<linearGradient id="paint0_linear_136_2" x1="210.08" y1="706.149" x2="210.08" y2="533.001" gradientUnits="userSpaceOnUse">
<stop stop-color="#C5CFFF"/>
<stop offset="0.248" stop-color="#D3DCFF"/>
<stop offset="0.5471" stop-color="#DCE4FF"/>
<stop offset="1" stop-color="#DFE6FF"/>
</linearGradient>
<linearGradient id="paint1_linear_136_2" x1="881" y1="-187" x2="881" y2="217.998" gradientUnits="userSpaceOnUse">
<stop stop-color="#6615B2"/>
<stop offset="0.2956" stop-color="#8D28C3"/>
<stop offset="0.5849" stop-color="#AC37D0"/>
<stop offset="0.8295" stop-color="#BF40D8"/>
<stop offset="1" stop-color="#C643DB"/>
</linearGradient>
<linearGradient id="paint2_linear_136_2" x1="358" y1="181" x2="358" y2="-68" gradientUnits="userSpaceOnUse">
<stop stop-color="#F9795A"/>
<stop offset="1" stop-color="#EB3668"/>
</linearGradient>
<linearGradient id="paint3_linear_136_2" x1="1353.51" y1="698.386" x2="1353.51" y2="471.999" gradientUnits="userSpaceOnUse">
<stop stop-color="#C5CFFF"/>
<stop offset="0.248" stop-color="#D3DCFF"/>
<stop offset="0.5471" stop-color="#DCE4FF"/>
<stop offset="1" stop-color="#DFE6FF"/>
</linearGradient>
<linearGradient id="paint4_linear_136_2" x1="1128.82" y1="580.509" x2="1151.16" y2="580.509" gradientUnits="userSpaceOnUse">
<stop stop-color="#F9795A"/>
<stop offset="1" stop-color="#FFEFE9"/>
</linearGradient>
<linearGradient id="paint5_linear_136_2" x1="1125.18" y1="291.242" x2="1162.13" y2="291.242" gradientUnits="userSpaceOnUse">
<stop offset="0.00359712" stop-color="#EBEFF2"/>
<stop offset="1" stop-color="white"/>
</linearGradient>
<linearGradient id="paint6_linear_136_2" x1="1131.53" y1="277.898" x2="1146.9" y2="290.282" gradientUnits="userSpaceOnUse">
<stop offset="0.00359712" stop-color="#E38DDD"/>
<stop offset="1" stop-color="#9571F6"/>
</linearGradient>
<linearGradient id="paint7_linear_136_2" x1="1138.09" y1="289.205" x2="1131.37" y2="288.162" gradientUnits="userSpaceOnUse">
<stop offset="0.00359712" stop-color="#E38DDD"/>
<stop offset="1" stop-color="#9571F6"/>
</linearGradient>
<linearGradient id="paint8_linear_136_2" x1="1139.74" y1="287.065" x2="1133.41" y2="286.082" gradientUnits="userSpaceOnUse">
<stop offset="0.00359712" stop-color="#E38DDD"/>
<stop offset="1" stop-color="#9571F6"/>
</linearGradient>
<linearGradient id="paint9_linear_136_2" x1="1138.22" y1="287.98" x2="1135.97" y2="283.53" gradientUnits="userSpaceOnUse">
<stop offset="0.00359712" stop-color="#E38DDD"/>
<stop offset="1" stop-color="#9571F6"/>
</linearGradient>
<linearGradient id="paint10_linear_136_2" x1="1136.11" y1="277.902" x2="1139.22" y2="283.754" gradientUnits="userSpaceOnUse">
<stop offset="0.00359712" stop-color="#E38DDD"/>
<stop offset="1" stop-color="#9571F6"/>
</linearGradient>
<linearGradient id="paint11_linear_136_2" x1="1145.49" y1="276.08" x2="1133.57" y2="289.139" gradientUnits="userSpaceOnUse">
<stop stop-color="#AB316D"/>
<stop offset="1" stop-color="#792D3D"/>
</linearGradient>
<linearGradient id="paint12_linear_136_2" x1="1142.62" y1="287.688" x2="1130.43" y2="301.055" gradientUnits="userSpaceOnUse">
<stop stop-color="#AB316D"/>
<stop offset="1" stop-color="#792D3D"/>
</linearGradient>
<linearGradient id="paint13_linear_136_2" x1="1138.44" y1="288.76" x2="1133.94" y2="293.699" gradientUnits="userSpaceOnUse">
<stop stop-color="#AB316D"/>
<stop offset="1" stop-color="#792D3D"/>
</linearGradient>
<linearGradient id="paint14_linear_136_2" x1="1140.86" y1="288.467" x2="1136.35" y2="293.407" gradientUnits="userSpaceOnUse">
<stop stop-color="#AB316D"/>
<stop offset="1" stop-color="#792D3D"/>
</linearGradient>
<linearGradient id="paint15_linear_136_2" x1="1143.27" y1="288.174" x2="1138.76" y2="293.113" gradientUnits="userSpaceOnUse">
<stop stop-color="#AB316D"/>
<stop offset="1" stop-color="#792D3D"/>
</linearGradient>
<linearGradient id="paint16_linear_136_2" x1="1145.68" y1="287.881" x2="1141.17" y2="292.821" gradientUnits="userSpaceOnUse">
<stop stop-color="#AB316D"/>
<stop offset="1" stop-color="#792D3D"/>
</linearGradient>
<linearGradient id="paint17_linear_136_2" x1="1081.22" y1="260.286" x2="1119.38" y2="260.286" gradientUnits="userSpaceOnUse">
<stop offset="0.00359712" stop-color="#EBEFF2"/>
<stop offset="1" stop-color="white"/>
</linearGradient>
<radialGradient id="paint18_radial_136_2" cx="0" cy="0" r="1" gradientUnits="userSpaceOnUse" gradientTransform="translate(1093.66 239.402) rotate(57.9809) scale(29.6795 20.894)">
<stop offset="0.145833" stop-color="#252527"/>
<stop offset="1" stop-color="#EBEFF2"/>
</radialGradient>
<linearGradient id="paint19_linear_136_2" x1="1098.98" y1="227.84" x2="1102.42" y2="251.669" gradientUnits="userSpaceOnUse">
<stop stop-color="white"/>
<stop offset="0.9964" stop-color="#EBEFF2"/>
</linearGradient>
<linearGradient id="paint20_linear_136_2" x1="1118.8" y1="236.414" x2="1094.94" y2="264.593" gradientUnits="userSpaceOnUse">
<stop offset="0.00359712" stop-color="#E38DDD"/>
<stop offset="1" stop-color="#9571F6"/>
</linearGradient>
<linearGradient id="paint21_linear_136_2" x1="1104.01" y1="253.807" x2="1118.77" y2="250.452" gradientUnits="userSpaceOnUse">
<stop offset="0.00359712" stop-color="#E38DDD"/>
<stop offset="1" stop-color="#9571F6"/>
</linearGradient>
<linearGradient id="paint22_linear_136_2" x1="1100.29" y1="250.514" x2="1114.19" y2="247.354" gradientUnits="userSpaceOnUse">
<stop offset="0.00359712" stop-color="#E38DDD"/>
<stop offset="1" stop-color="#9571F6"/>
</linearGradient>
<linearGradient id="paint23_linear_136_2" x1="1103.71" y1="251.922" x2="1106.37" y2="244.237" gradientUnits="userSpaceOnUse">
<stop offset="0.00359712" stop-color="#E38DDD"/>
<stop offset="1" stop-color="#9571F6"/>
</linearGradient>
<linearGradient id="paint24_linear_136_2" x1="1108.48" y1="236.42" x2="1104.79" y2="246.622" gradientUnits="userSpaceOnUse">
<stop offset="0.00359712" stop-color="#E38DDD"/>
<stop offset="1" stop-color="#9571F6"/>
</linearGradient>
<linearGradient id="paint25_linear_136_2" x1="1082.95" y1="238.16" x2="1106.8" y2="266.339" gradientUnits="userSpaceOnUse">
<stop offset="0.00359712" stop-color="#E38DDD"/>
<stop offset="1" stop-color="#9571F6"/>
</linearGradient>
<linearGradient id="paint26_linear_136_2" x1="1097.73" y1="255.554" x2="1082.98" y2="252.198" gradientUnits="userSpaceOnUse">
<stop offset="0.00359712" stop-color="#E38DDD"/>
<stop offset="1" stop-color="#9571F6"/>
</linearGradient>
<linearGradient id="paint27_linear_136_2" x1="1101.45" y1="252.261" x2="1087.56" y2="249.1" gradientUnits="userSpaceOnUse">
<stop offset="0.00359712" stop-color="#E38DDD"/>
<stop offset="1" stop-color="#9571F6"/>
</linearGradient>
<linearGradient id="paint28_linear_136_2" x1="1098.04" y1="253.669" x2="1095.38" y2="245.984" gradientUnits="userSpaceOnUse">
<stop offset="0.00359712" stop-color="#E38DDD"/>
<stop offset="1" stop-color="#9571F6"/>
</linearGradient>
<linearGradient id="paint29_linear_136_2" x1="1093.26" y1="238.166" x2="1096.96" y2="248.368" gradientUnits="userSpaceOnUse">
<stop offset="0.00359712" stop-color="#E38DDD"/>
<stop offset="1" stop-color="#9571F6"/>
</linearGradient>
<linearGradient id="paint30_linear_136_2" x1="1113.8" y1="244.362" x2="1102.63" y2="249.022" gradientUnits="userSpaceOnUse">
<stop stop-color="#FF9085"/>
<stop offset="1" stop-color="#FB6FBB"/>
</linearGradient>
<linearGradient id="paint31_linear_136_2" x1="1113.61" y1="244.052" x2="1102.49" y2="248.69" gradientUnits="userSpaceOnUse">
<stop stop-color="#FF9085"/>
<stop offset="1" stop-color="#FB6FBB"/>
</linearGradient>
<linearGradient id="paint32_linear_136_2" x1="1112.91" y1="244.296" x2="1103.16" y2="248.363" gradientUnits="userSpaceOnUse">
<stop offset="0.00359712" stop-color="#EBEFF2"/>
<stop offset="1" stop-color="white"/>
</linearGradient>
<linearGradient id="paint33_linear_136_2" x1="1111.72" y1="245.824" x2="1108.55" y2="247.146" gradientUnits="userSpaceOnUse">
<stop stop-color="#FF9085"/>
<stop offset="1" stop-color="#FB6FBB"/>
</linearGradient>
<linearGradient id="paint34_linear_136_2" x1="1109.74" y1="247.997" x2="1107.24" y2="249.043" gradientUnits="userSpaceOnUse">
<stop stop-color="#FF9085"/>
<stop offset="1" stop-color="#FB6FBB"/>
</linearGradient>
<linearGradient id="paint35_linear_136_2" x1="1107.74" y1="249.786" x2="1105.02" y2="250.919" gradientUnits="userSpaceOnUse">
<stop stop-color="#FF9085"/>
<stop offset="1" stop-color="#FB6FBB"/>
</linearGradient>
<linearGradient id="paint36_linear_136_2" x1="1111.93" y1="243.326" x2="1108.98" y2="244.557" gradientUnits="userSpaceOnUse">
<stop stop-color="#FF9085"/>
<stop offset="1" stop-color="#FB6FBB"/>
</linearGradient>
<linearGradient id="paint37_linear_136_2" x1="1111.72" y1="245.824" x2="1108.55" y2="247.146" gradientUnits="userSpaceOnUse">
<stop stop-color="#FF9085"/>
<stop offset="1" stop-color="#FB6FBB"/>
</linearGradient>
<linearGradient id="paint38_linear_136_2" x1="1109.74" y1="247.997" x2="1107.24" y2="249.043" gradientUnits="userSpaceOnUse">
<stop stop-color="#FF9085"/>
<stop offset="1" stop-color="#FB6FBB"/>
</linearGradient>
<linearGradient id="paint39_linear_136_2" x1="1107.74" y1="249.786" x2="1105.02" y2="250.919" gradientUnits="userSpaceOnUse">
<stop stop-color="#FF9085"/>
<stop offset="1" stop-color="#FB6FBB"/>
</linearGradient>
<linearGradient id="paint40_linear_136_2" x1="1111.93" y1="243.326" x2="1108.98" y2="244.557" gradientUnits="userSpaceOnUse">
<stop stop-color="#FF9085"/>
<stop offset="1" stop-color="#FB6FBB"/>
</linearGradient>
<linearGradient id="paint41_linear_136_2" x1="1096.33" y1="254.417" x2="1086.2" y2="245.424" gradientUnits="userSpaceOnUse">
<stop stop-color="#FF9085"/>
<stop offset="1" stop-color="#FB6FBB"/>
</linearGradient>
<linearGradient id="paint42_linear_136_2" x1="1096.52" y1="254.106" x2="1086.44" y2="245.155" gradientUnits="userSpaceOnUse">
<stop stop-color="#FF9085"/>
<stop offset="1" stop-color="#FB6FBB"/>
</linearGradient>
<linearGradient id="paint43_linear_136_2" x1="1096.25" y1="253.167" x2="1087.41" y2="245.319" gradientUnits="userSpaceOnUse">
<stop offset="0.00359712" stop-color="#EBEFF2"/>
<stop offset="1" stop-color="white"/>
</linearGradient>
<linearGradient id="paint44_linear_136_2" x1="1095" y1="251.717" x2="1092.13" y2="249.166" gradientUnits="userSpaceOnUse">
<stop stop-color="#FF9085"/>
<stop offset="1" stop-color="#FB6FBB"/>
</linearGradient>
<linearGradient id="paint45_linear_136_2" x1="1093.2" y1="249.278" x2="1090.92" y2="247.259" gradientUnits="userSpaceOnUse">
<stop stop-color="#FF9085"/>
<stop offset="1" stop-color="#FB6FBB"/>
</linearGradient>
<linearGradient id="paint46_linear_136_2" x1="1091.65" y1="246.734" x2="1089.19" y2="244.548" gradientUnits="userSpaceOnUse">
<stop stop-color="#FF9085"/>
<stop offset="1" stop-color="#FB6FBB"/>
</linearGradient>
<linearGradient id="paint47_linear_136_2" x1="1096.79" y1="251.665" x2="1094.12" y2="249.289" gradientUnits="userSpaceOnUse">
<stop stop-color="#FF9085"/>
<stop offset="1" stop-color="#FB6FBB"/>
</linearGradient>
<linearGradient id="paint48_linear_136_2" x1="1095" y1="251.717" x2="1092.13" y2="249.166" gradientUnits="userSpaceOnUse">
<stop stop-color="#FF9085"/>
<stop offset="1" stop-color="#FB6FBB"/>
</linearGradient>
<linearGradient id="paint49_linear_136_2" x1="1093.2" y1="249.278" x2="1090.92" y2="247.259" gradientUnits="userSpaceOnUse">
<stop stop-color="#FF9085"/>
<stop offset="1" stop-color="#FB6FBB"/>
</linearGradient>
<linearGradient id="paint50_linear_136_2" x1="1091.65" y1="246.734" x2="1089.19" y2="244.548" gradientUnits="userSpaceOnUse">
<stop stop-color="#FF9085"/>
<stop offset="1" stop-color="#FB6FBB"/>
</linearGradient>
<linearGradient id="paint51_linear_136_2" x1="1096.79" y1="251.665" x2="1094.12" y2="249.289" gradientUnits="userSpaceOnUse">
<stop stop-color="#FF9085"/>
<stop offset="1" stop-color="#FB6FBB"/>
</linearGradient>
<linearGradient id="paint52_linear_136_2" x1="1094.03" y1="240.67" x2="1117.89" y2="268.849" gradientUnits="userSpaceOnUse">
<stop offset="0.00359712" stop-color="#E38DDD"/>
<stop offset="1" stop-color="#9571F6"/>
</linearGradient>
<linearGradient id="paint53_linear_136_2" x1="1108.82" y1="258.063" x2="1094.06" y2="254.708" gradientUnits="userSpaceOnUse">
<stop offset="0.00359712" stop-color="#E38DDD"/>
<stop offset="1" stop-color="#9571F6"/>
</linearGradient>
<linearGradient id="paint54_linear_136_2" x1="1103.9" y1="254.225" x2="1093.79" y2="252.718" gradientUnits="userSpaceOnUse">
<stop offset="0.00359712" stop-color="#EBEFF2"/>
<stop offset="1" stop-color="white"/>
</linearGradient>
<linearGradient id="paint55_linear_136_2" x1="1101.6" y1="253.714" x2="1096.55" y2="252.961" gradientUnits="userSpaceOnUse">
<stop stop-color="#FFC444"/>
<stop offset="0.9964" stop-color="#F36F56"/>
</linearGradient>
<linearGradient id="paint56_linear_136_2" x1="1103.4" y1="256.351" x2="1093.48" y2="254.872" gradientUnits="userSpaceOnUse">
<stop stop-color="#FFC444"/>
<stop offset="0.9964" stop-color="#F36F56"/>
</linearGradient>
<linearGradient id="paint57_linear_136_2" x1="1102.01" y1="433.88" x2="1160.57" y2="433.88" gradientUnits="userSpaceOnUse">
<stop offset="0.00359712" stop-color="#EBEFF2"/>
<stop offset="1" stop-color="white"/>
</linearGradient>
<linearGradient id="paint58_linear_136_2" x1="1118.52" y1="371.117" x2="1127.31" y2="436.618" gradientUnits="userSpaceOnUse">
<stop stop-color="white"/>
<stop offset="0.9964" stop-color="#EBEFF2"/>
</linearGradient>
<linearGradient id="paint59_linear_136_2" x1="1128.55" y1="385.96" x2="1133.47" y2="422.606" gradientUnits="userSpaceOnUse">
<stop offset="0.00359712" stop-color="#EBEFF2"/>
<stop offset="1" stop-color="white"/>
</linearGradient>
<linearGradient id="paint60_linear_136_2" x1="1129.27" y1="387.628" x2="1133.84" y2="421.693" gradientUnits="userSpaceOnUse">
<stop stop-color="white"/>
<stop offset="0.9964" stop-color="#EBEFF2"/>
</linearGradient>
<linearGradient id="paint61_linear_136_2" x1="1159.68" y1="399.851" x2="1126.17" y2="442.457" gradientUnits="userSpaceOnUse">
<stop offset="0.00359712" stop-color="#E38DDD"/>
<stop offset="1" stop-color="#9571F6"/>
</linearGradient>
<linearGradient id="paint62_linear_136_2" x1="1136.99" y1="424.645" x2="1159.46" y2="419.146" gradientUnits="userSpaceOnUse">
<stop offset="0.00359712" stop-color="#E38DDD"/>
<stop offset="1" stop-color="#9571F6"/>
</linearGradient>
<linearGradient id="paint63_linear_136_2" x1="1131.28" y1="419.951" x2="1152.44" y2="414.771" gradientUnits="userSpaceOnUse">
<stop offset="0.00359712" stop-color="#E38DDD"/>
<stop offset="1" stop-color="#9571F6"/>
</linearGradient>
<linearGradient id="paint64_linear_136_2" x1="1136.53" y1="421.958" x2="1140.1" y2="410.84" gradientUnits="userSpaceOnUse">
<stop offset="0.00359712" stop-color="#E38DDD"/>
<stop offset="1" stop-color="#9571F6"/>
</linearGradient>
<linearGradient id="paint65_linear_136_2" x1="1143.85" y1="399.859" x2="1138.87" y2="414.637" gradientUnits="userSpaceOnUse">
<stop offset="0.00359712" stop-color="#E38DDD"/>
<stop offset="1" stop-color="#9571F6"/>
</linearGradient>
<linearGradient id="paint66_linear_136_2" x1="1104.67" y1="402.341" x2="1138.18" y2="444.947" gradientUnits="userSpaceOnUse">
<stop offset="0.00359712" stop-color="#E38DDD"/>
<stop offset="1" stop-color="#9571F6"/>
</linearGradient>
<linearGradient id="paint67_linear_136_2" x1="1127.36" y1="427.135" x2="1104.89" y2="421.635" gradientUnits="userSpaceOnUse">
<stop offset="0.00359712" stop-color="#E38DDD"/>
<stop offset="1" stop-color="#9571F6"/>
</linearGradient>
<linearGradient id="paint68_linear_136_2" x1="1133.07" y1="422.441" x2="1111.9" y2="417.261" gradientUnits="userSpaceOnUse">
<stop offset="0.00359712" stop-color="#E38DDD"/>
<stop offset="1" stop-color="#9571F6"/>
</linearGradient>
<linearGradient id="paint69_linear_136_2" x1="1127.82" y1="424.448" x2="1124.24" y2="413.33" gradientUnits="userSpaceOnUse">
<stop offset="0.00359712" stop-color="#E38DDD"/>
<stop offset="1" stop-color="#9571F6"/>
</linearGradient>
<linearGradient id="paint70_linear_136_2" x1="1120.5" y1="402.348" x2="1125.47" y2="417.127" gradientUnits="userSpaceOnUse">
<stop offset="0.00359712" stop-color="#E38DDD"/>
<stop offset="1" stop-color="#9571F6"/>
</linearGradient>
<linearGradient id="paint71_linear_136_2" x1="1152.01" y1="411.181" x2="1135.26" y2="418.702" gradientUnits="userSpaceOnUse">
<stop stop-color="#FF9085"/>
<stop offset="1" stop-color="#FB6FBB"/>
</linearGradient>
<linearGradient id="paint72_linear_136_2" x1="1151.72" y1="410.739" x2="1135.05" y2="418.225" gradientUnits="userSpaceOnUse">
<stop stop-color="#FF9085"/>
<stop offset="1" stop-color="#FB6FBB"/>
</linearGradient>
<linearGradient id="paint73_linear_136_2" x1="1150.65" y1="411.086" x2="1136.03" y2="417.65" gradientUnits="userSpaceOnUse">
<stop offset="0.00359712" stop-color="#EBEFF2"/>
<stop offset="1" stop-color="white"/>
</linearGradient>
<linearGradient id="paint74_linear_136_2" x1="1148.81" y1="413.265" x2="1144.06" y2="415.398" gradientUnits="userSpaceOnUse">
<stop stop-color="#FF9085"/>
<stop offset="1" stop-color="#FB6FBB"/>
</linearGradient>
<linearGradient id="paint75_linear_136_2" x1="1145.79" y1="416.363" x2="1142.03" y2="418.051" gradientUnits="userSpaceOnUse">
<stop stop-color="#FF9085"/>
<stop offset="1" stop-color="#FB6FBB"/>
</linearGradient>
<linearGradient id="paint76_linear_136_2" x1="1142.71" y1="418.912" x2="1138.63" y2="420.741" gradientUnits="userSpaceOnUse">
<stop stop-color="#FF9085"/>
<stop offset="1" stop-color="#FB6FBB"/>
</linearGradient>
<linearGradient id="paint77_linear_136_2" x1="1149.15" y1="409.704" x2="1144.72" y2="411.69" gradientUnits="userSpaceOnUse">
<stop stop-color="#FF9085"/>
<stop offset="1" stop-color="#FB6FBB"/>
</linearGradient>
<linearGradient id="paint78_linear_136_2" x1="1148.81" y1="413.265" x2="1144.06" y2="415.398" gradientUnits="userSpaceOnUse">
<stop stop-color="#FF9085"/>
<stop offset="1" stop-color="#FB6FBB"/>
</linearGradient>
<linearGradient id="paint79_linear_136_2" x1="1145.79" y1="416.363" x2="1142.03" y2="418.051" gradientUnits="userSpaceOnUse">
<stop stop-color="#FF9085"/>
<stop offset="1" stop-color="#FB6FBB"/>
</linearGradient>
<linearGradient id="paint80_linear_136_2" x1="1142.71" y1="418.912" x2="1138.63" y2="420.741" gradientUnits="userSpaceOnUse">
<stop stop-color="#FF9085"/>
<stop offset="1" stop-color="#FB6FBB"/>
</linearGradient>
<linearGradient id="paint81_linear_136_2" x1="1149.15" y1="409.704" x2="1144.72" y2="411.69" gradientUnits="userSpaceOnUse">
<stop stop-color="#FF9085"/>
<stop offset="1" stop-color="#FB6FBB"/>
</linearGradient>
<linearGradient id="paint82_linear_136_2" x1="1125.2" y1="425.515" x2="1110.68" y2="411.632" gradientUnits="userSpaceOnUse">
<stop stop-color="#FF9085"/>
<stop offset="1" stop-color="#FB6FBB"/>
</linearGradient>
<linearGradient id="paint83_linear_136_2" x1="1125.49" y1="425.071" x2="1111.04" y2="411.254" gradientUnits="userSpaceOnUse">
<stop stop-color="#FF9085"/>
<stop offset="1" stop-color="#FB6FBB"/>
</linearGradient>
<linearGradient id="paint84_linear_136_2" x1="1125.08" y1="423.733" x2="1112.41" y2="411.618" gradientUnits="userSpaceOnUse">
<stop offset="0.00359712" stop-color="#EBEFF2"/>
<stop offset="1" stop-color="white"/>
</linearGradient>
<linearGradient id="paint85_linear_136_2" x1="1123.17" y1="421.665" x2="1119.05" y2="417.727" gradientUnits="userSpaceOnUse">
<stop stop-color="#FF9085"/>
<stop offset="1" stop-color="#FB6FBB"/>
</linearGradient>
<linearGradient id="paint86_linear_136_2" x1="1120.39" y1="418.189" x2="1117.13" y2="415.073" gradientUnits="userSpaceOnUse">
<stop stop-color="#FF9085"/>
<stop offset="1" stop-color="#FB6FBB"/>
</linearGradient>
<linearGradient id="paint87_linear_136_2" x1="1118.02" y1="414.563" x2="1114.49" y2="411.188" gradientUnits="userSpaceOnUse">
<stop stop-color="#FF9085"/>
<stop offset="1" stop-color="#FB6FBB"/>
</linearGradient>
<linearGradient id="paint88_linear_136_2" x1="1125.91" y1="421.591" x2="1122.07" y2="417.923" gradientUnits="userSpaceOnUse">
<stop stop-color="#FF9085"/>
<stop offset="1" stop-color="#FB6FBB"/>
</linearGradient>
<linearGradient id="paint89_linear_136_2" x1="1123.17" y1="421.665" x2="1119.05" y2="417.727" gradientUnits="userSpaceOnUse">
<stop stop-color="#FF9085"/>
<stop offset="1" stop-color="#FB6FBB"/>
</linearGradient>
<linearGradient id="paint90_linear_136_2" x1="1120.39" y1="418.189" x2="1117.13" y2="415.073" gradientUnits="userSpaceOnUse">
<stop stop-color="#FF9085"/>
<stop offset="1" stop-color="#FB6FBB"/>
</linearGradient>
<linearGradient id="paint91_linear_136_2" x1="1118.02" y1="414.563" x2="1114.49" y2="411.188" gradientUnits="userSpaceOnUse">
<stop stop-color="#FF9085"/>
<stop offset="1" stop-color="#FB6FBB"/>
</linearGradient>
<linearGradient id="paint92_linear_136_2" x1="1125.91" y1="421.591" x2="1122.07" y2="417.923" gradientUnits="userSpaceOnUse">
<stop stop-color="#FF9085"/>
<stop offset="1" stop-color="#FB6FBB"/>
</linearGradient>
<linearGradient id="paint93_linear_136_2" x1="1121.68" y1="405.918" x2="1155.19" y2="448.524" gradientUnits="userSpaceOnUse">
<stop offset="0.00359712" stop-color="#E38DDD"/>
<stop offset="1" stop-color="#9571F6"/>
</linearGradient>
<linearGradient id="paint94_linear_136_2" x1="1144.37" y1="430.712" x2="1121.9" y2="425.213" gradientUnits="userSpaceOnUse">
<stop offset="0.00359712" stop-color="#E38DDD"/>
<stop offset="1" stop-color="#9571F6"/>
</linearGradient>
<linearGradient id="paint95_linear_136_2" x1="1136.82" y1="425.242" x2="1121.35" y2="422.761" gradientUnits="userSpaceOnUse">
<stop offset="0.00359712" stop-color="#EBEFF2"/>
<stop offset="1" stop-color="white"/>
</linearGradient>
<linearGradient id="paint96_linear_136_2" x1="1133.29" y1="424.512" x2="1125.56" y2="423.272" gradientUnits="userSpaceOnUse">
<stop stop-color="#FFC444"/>
<stop offset="0.9964" stop-color="#F36F56"/>
</linearGradient>
<linearGradient id="paint97_linear_136_2" x1="1136.05" y1="428.272" x2="1120.88" y2="425.837" gradientUnits="userSpaceOnUse">
<stop stop-color="#FFC444"/>
<stop offset="0.9964" stop-color="#F36F56"/>
</linearGradient>
<clipPath id="clip0_136_2">
<rect width="1440" height="698" fill="white"/>
</clipPath>
<clipPath id="clip1_136_2">
<rect width="1440" height="848" fill="white" transform="translate(0 -14)"/>
</clipPath>
</defs>
</svg>
