<svg width="1440" height="698" viewBox="0 0 1440 698" fill="none" xmlns="http://www.w3.org/2000/svg">
<g clip-path="url(#clip0_136_2)">
<rect width="1440" height="698" fill="white"/>
<g clip-path="url(#clip1_136_2)">
<path d="M0 533V706.149H420.16C420.16 706.149 367.128 533 0 533Z" fill="url(#paint0_linear_136_2)"/>
<path d="M1479 -187V161.139C1479 161.139 551.492 425.842 283 -187H1479Z" fill="url(#paint1_linear_136_2)"/>
<path d="M-15 129.313C-15 129.313 219.017 266.658 413.626 93.5737C608.235 -79.511 731 -67.8334 731 -67.8334L-15 -68V129.313Z" fill="url(#paint2_linear_136_2)"/>
<path d="M1440.01 472C1440.01 472 1267 504.309 1267 698.386H1439.82L1440.01 472Z" fill="url(#paint3_linear_136_2)"/>
<ellipse cx="1123" cy="639.5" rx="306" ry="33.5" fill="#DCC0C0" fill-opacity="0.66"/>
<path d="M1195.42 568.512C1195.42 568.512 1180.35 542.081 1194.49 525.296C1194.49 525.296 1204.82 515.894 1213.24 516.66C1213.24 516.66 1201.31 546.741 1205.17 549.734C1209.03 552.727 1216.86 514.774 1216.86 514.774C1216.86 514.774 1240.36 511.35 1247.92 516.814C1247.92 516.814 1227.83 541.534 1232.06 543.005C1236.29 544.475 1258 520.213 1258 520.213C1258 520.213 1279.87 525.809 1278.71 545.869C1277.54 565.929 1270 572.124 1266.69 571.59C1263.38 571.055 1244 559.935 1243.57 564.014C1243.15 568.093 1254.82 581.432 1262.99 582.056C1262.99 582.056 1247.56 607.627 1237.31 600.248C1227.06 592.868 1226.19 581.171 1219.8 576.784C1213.41 572.398 1207.95 572.406 1210.59 576.883C1213.23 581.359 1224.8 585.707 1228.45 595.421C1232.1 605.139 1235.38 611.693 1224.78 609.29C1214.17 606.892 1196.93 595.224 1196.18 581.868C1195.42 568.512 1195.42 568.512 1195.42 568.512Z" fill="#1B2251"/>
<path d="M1267.96 546.408C1267.96 546.408 1208.54 542.967 1195.42 568.512C1195.42 568.512 1192.52 581.577 1183.59 593.476L1182.2 599.179C1182.2 599.179 1192.49 582.86 1196.18 581.872C1196.18 581.868 1190.42 550.222 1267.96 546.408Z" fill="#1B2251"/>
<path d="M1183.59 593.476C1183.59 593.476 1170.83 607.653 1169.95 632.989L1172.26 633.301C1172.26 633.301 1176.34 607.106 1183.7 596.862C1191.06 586.614 1183.59 593.476 1183.59 593.476Z" fill="#6615B2"/>
<path d="M1040.15 352.622C1040.15 352.622 1063.2 333.216 1052.45 306.88C1052.45 306.88 1043.84 290.711 1034.62 286.551C1034.62 286.551 1039.54 325.824 1034.62 326.748C1029.7 327.671 1031.24 282.391 1031.24 282.391C1031.24 282.391 1006.96 264.832 997.428 266.221C997.428 266.221 1012.49 304.571 1007.57 303.648C1002.65 302.724 985.747 263.913 985.747 263.913C985.747 263.913 960.85 256.982 956.857 279.159C952.861 301.335 959.317 312.425 963.003 313.81C966.692 315.196 990.358 314.734 989.743 319.356C989.129 323.977 973.145 331.369 964.232 327.21C964.232 327.21 974.067 363.708 986.976 361.861C999.886 360.014 1003.88 348.001 1011.87 347.077C1019.87 346.154 1025.7 349.386 1021.71 352.622C1017.71 355.855 1004.19 353.683 997.735 361.93C991.282 370.177 986.055 375.26 998.043 378.959C1010.03 382.653 1031.55 380.344 1035.85 366.483C1040.15 352.622 1040.15 352.622 1040.15 352.622Z" fill="#242E6C"/>
<path d="M968.231 286.089C968.231 286.089 1032.78 317.509 1040.15 352.622C1040.15 352.622 1039.85 368.33 1046.3 386.351V393.281C1046.3 393.281 1039.54 369.715 1035.85 366.483C1035.85 366.483 1050.3 335.987 968.231 286.089Z" fill="#1B2251"/>
<path d="M1046.3 386.351C1046.3 386.351 1056.25 409.074 1050.58 436.732L1048.02 435.697C1048.02 435.697 1050.51 405.231 1045.3 389.908C1040.09 374.589 1046.3 386.351 1046.3 386.351Z" fill="#6615B2"/>
<path d="M1180.87 507.442C1180.87 507.442 1149.27 480.841 1164.01 444.74C1164.01 444.74 1175.81 422.572 1188.45 416.873C1188.45 416.873 1181.71 470.708 1188.45 471.978C1195.19 473.248 1193.09 411.174 1193.09 411.174C1193.09 411.174 1226.37 387.107 1239.44 389.006C1239.44 389.006 1218.79 441.576 1225.53 440.31C1232.27 439.045 1255.44 385.842 1255.44 385.842C1255.44 385.842 1289.57 376.342 1295.05 406.744C1300.53 437.146 1291.68 452.345 1286.62 454.248C1281.57 456.146 1249.12 455.513 1249.96 461.85C1250.81 468.181 1272.72 478.318 1284.94 472.615C1284.94 472.615 1271.45 522.65 1253.76 520.119C1236.06 517.583 1230.58 501.119 1219.63 499.849C1208.67 498.584 1200.67 503.017 1206.14 507.451C1211.62 511.884 1230.16 508.904 1239.01 520.213C1247.85 531.521 1255.02 538.486 1238.59 543.556C1222.15 548.623 1192.66 545.455 1186.76 526.455C1180.87 507.442 1180.87 507.442 1180.87 507.442Z" fill="#242E6C"/>
<path d="M1279.46 416.236C1279.46 416.236 1190.98 459.306 1180.87 507.442C1180.87 507.442 1181.29 528.977 1172.44 553.676V563.176C1172.44 563.176 1181.71 530.875 1186.77 526.442C1186.77 526.442 1166.96 484.642 1279.46 416.236Z" fill="#1B2251"/>
<path d="M1172.44 553.681C1172.44 553.681 1158.8 584.831 1166.57 622.745L1170.08 621.326C1170.08 621.326 1166.68 579.564 1173.82 558.559C1180.96 537.554 1172.44 553.681 1172.44 553.681Z" fill="#6615B2"/>
<path d="M883.757 377.027C883.757 377.027 878.251 383.906 884.317 392.645C884.317 392.645 879.113 395.377 877.423 393.521C877.423 393.521 877.776 394.466 878.086 394.876C878.086 394.876 872.756 395.603 870.461 393.282C868.166 390.96 868.089 349.775 883.077 353.149C883.077 353.149 895.589 350.69 895.21 372.636C894.835 394.581 899.576 394.192 899.576 394.192C899.576 394.192 898.293 395.278 897.656 395.33C897.656 395.33 896.706 394.872 896.493 394.115C896.493 394.115 896.721 395.317 896.974 395.68C896.974 395.68 891.88 396.83 889.218 394.132C886.556 391.435 883.191 381.593 883.757 377.027Z" fill="#9B53C9"/>
<path d="M882.952 388.245C882.952 388.245 878.675 382.118 876.903 376.171C875.637 371.926 869.534 354.734 880.939 352.964C880.939 352.964 889.081 352.387 892.594 354.307C895.39 355.833 899.71 359.775 898.248 375.598L898.055 380.831L882.952 388.245Z" fill="#1B2251"/>
<path d="M869.932 510.362C869.443 492.312 868.39 476.608 867.13 465.655C865.122 448.199 863.313 438.156 863.294 438.049C863.029 436.514 859.206 430.302 850.711 430.494C842.213 430.687 843.021 438.831 843.021 438.831C843.021 439.105 843.043 439.361 843.08 439.554C843.163 439.973 850.961 482.487 850.623 537.379C850.617 538.148 850.56 539.482 850.597 540.367C850.597 540.371 870.287 541.132 870.293 540.367C870.978 535.57 870.646 522.278 869.932 510.362Z" fill="#F24B46"/>
<path d="M872.406 537.109C872.4 537.875 872.13 538.486 871.803 538.486H871.795C871.468 538.473 871.206 537.862 871.203 537.109H854.329C854.323 537.875 854.053 538.486 853.726 538.486H853.717C853.385 538.473 853.12 537.84 853.123 537.067C853.22 521.355 852.625 506.681 851.724 493.731C849.48 461.435 845.333 439.853 845.273 439.554C845.236 439.361 845.213 439.105 845.213 438.827C845.213 438.827 844.409 430.682 852.904 430.49C861.402 430.298 865.225 436.51 865.489 438.045C865.506 438.126 866.527 443.812 867.89 454.034C868.342 457.421 868.828 461.307 869.326 465.646C870.586 476.6 871.638 492.303 872.127 510.354C872.841 522.278 873.092 532.312 872.406 537.109Z" fill="#F9795A"/>
<path d="M851.877 538.486H918.037C918.037 538.486 916.496 529.114 878.183 530.508C851.067 531.495 851.877 538.486 851.877 538.486Z" fill="#FD8857"/>
<path d="M846.493 636.379C854.164 578.003 852.193 542.184 852.182 541.731C852.162 540.833 853.265 540.016 853.857 539.987C854.457 539.969 857.105 539.721 857.412 540.491C857.813 541.5 859.357 585.635 847.927 636.379H846.493V636.379Z" fill="#F9795A"/>
<path d="M908.265 636.379C900.594 578.003 902.565 542.184 902.577 541.731C902.597 540.833 901.493 540.016 900.902 539.987C900.301 539.969 897.654 539.721 897.346 540.491C896.945 541.5 895.401 585.635 906.832 636.379H908.265V636.379Z" fill="#F9795A"/>
<path d="M920.506 636.379C912.835 578.003 914.806 542.184 914.818 541.731C914.838 540.833 913.734 540.016 913.143 539.987C912.543 539.969 909.895 539.721 909.587 540.491C909.186 541.5 907.642 585.635 919.073 636.379H920.506V636.379Z" fill="#F9795A"/>
<path d="M858.817 636.379C866.488 578.003 864.517 542.184 864.505 541.731C864.485 540.833 865.589 540.016 866.18 539.987C866.78 539.969 869.428 539.721 869.736 540.491C870.137 541.5 871.681 585.635 860.25 636.379H858.817V636.379Z" fill="#F9795A"/>
<path d="M917.992 541.474H852.005C851.212 541.474 850.563 540.5 850.563 539.307V538.225C850.563 537.032 851.212 536.057 852.005 536.057H917.992C918.785 536.057 919.434 537.032 919.434 538.225V539.307C919.431 540.5 918.782 541.474 917.992 541.474Z" fill="#F24B46"/>
<path d="M953.087 638.906C950.67 638.902 945.687 639.846 943.5 635.845C941.31 631.839 936.577 629.872 935.974 628.589C935.65 627.897 936.082 624.827 936.549 622.138C937.729 619.701 935.826 616.37 935.826 616.37L942.16 617.012C942.16 617.012 945.178 623.031 947.402 627.88C948.247 629.718 950.789 632.476 952.322 633.301C954.302 634.365 956.273 635.019 956.995 636.084C958.281 637.961 955.505 638.91 953.087 638.906Z" fill="#FF9792"/>
<path d="M953.088 638.906C950.671 638.902 945.688 639.846 943.501 635.845C941.311 631.839 936.578 629.872 935.975 628.589C935.651 627.897 935.634 625.109 936.55 622.138V622.134C936.55 622.134 940.54 624.588 942.793 629.291C945.045 633.993 951.043 636.041 952.306 633.327C952.312 633.318 952.318 633.305 952.323 633.297C954.303 634.361 956.274 635.015 956.996 636.08C958.282 637.961 955.506 638.91 953.088 638.906Z" fill="#6615B2"/>
<path d="M935.975 628.589L938.404 636.383L940.02 636.649L939.781 629.705L935.975 628.589Z" fill="white"/>
<path d="M888.532 490.525C888.532 490.525 923.774 506.929 931.356 516.408C938.939 525.882 944.223 619.868 944.223 619.868C944.223 619.868 943.319 620.693 941.464 620.629C939.741 620.569 936.126 618.329 936.126 618.329C936.126 618.329 920.637 573.689 920.196 563.125C919.752 552.561 920.881 543.437 917.847 542.586C914.812 541.735 876.078 541.428 871.65 525.027C867.218 508.627 873.302 494.458 873.302 494.458L888.532 490.525Z" fill="#1B2251"/>
<path d="M944.913 638.906C942.496 638.902 937.513 639.846 935.326 635.845C933.136 631.839 928.403 629.872 927.8 628.589C927.476 627.897 927.908 624.827 928.375 622.138C929.555 619.701 927.652 616.37 927.652 616.37L933.986 617.012C933.986 617.012 937.004 623.031 939.228 627.88C940.073 629.718 942.615 632.476 944.148 633.301C946.128 634.365 948.099 635.019 948.821 636.084C950.107 637.961 947.331 638.91 944.913 638.906Z" fill="#FF9792"/>
<path d="M944.914 638.906C942.497 638.902 937.514 639.846 935.327 635.845C933.137 631.839 928.404 629.872 927.801 628.589C927.477 627.897 927.46 625.109 928.376 622.138V622.134C928.376 622.134 932.366 624.588 934.619 629.291C936.871 633.993 942.869 636.041 944.132 633.327C944.138 633.318 944.144 633.305 944.149 633.297C946.129 634.361 948.1 635.015 948.822 636.08C950.108 637.961 947.332 638.91 944.914 638.906Z" fill="#6615B2"/>
<path d="M927.801 628.589L930.23 636.383L931.846 636.649L931.607 629.705L927.801 628.589Z" fill="#6615B2"/>
<path d="M879.309 495.488C879.309 495.488 915.6 506.934 923.182 516.408C930.765 525.882 936.049 619.868 936.049 619.868C936.049 619.868 935.145 620.693 933.29 620.629C931.567 620.569 927.955 618.328 927.955 618.328C927.955 618.328 912.466 573.689 912.025 563.125C911.581 552.56 912.71 543.437 909.676 542.586C906.641 541.735 867.907 541.427 863.478 525.027C859.047 508.627 865.131 494.458 865.131 494.458L879.309 495.488Z" fill="#242E6C"/>
<path d="M892.944 407.48C892.986 407.51 888.717 410.84 885.506 409.523C882.486 408.284 880.512 402.396 880.555 402.384C881.834 402.003 882.201 399.361 882.176 388.005L882.753 388.177L892.477 391.071C892.477 391.071 892.255 395.671 892.25 400.002C892.244 403.64 892.392 407.091 892.944 407.48Z" fill="#FF9792"/>
<path d="M892.477 391.067C892.477 391.067 892.255 395.667 892.25 399.998C886.809 399.767 883.933 392.306 882.753 388.172L892.477 391.067Z" fill="#FF938F"/>
<path d="M894.295 395.171C894.295 395.171 881.422 395.492 881.411 383.435C881.402 371.379 879.735 363.302 887.952 362.588C896.172 361.874 897.773 366.47 898.424 370.494C899.084 374.517 897.645 394.778 894.295 395.171Z" fill="#FF9792"/>
<path d="M864.278 459.541C863.009 451.537 867.327 436.005 871.837 423.149C875.927 411.494 880.176 402.041 880.557 402.383C891.348 412.012 892.321 404.008 892.321 404.008C892.324 404.008 902.122 405.962 904.897 413.145C908.339 422.054 912.059 446.95 915.753 451.666C915.188 454.274 915.429 455.667 916.029 458.9C916.157 459.592 916.3 460.251 916.456 460.875C917.013 463.149 917.71 464.996 918.31 466.6C916.433 468.314 912.807 471.576 910.136 469.229C906.064 465.646 902.887 454.735 901.098 450.392C901.092 450.375 901.083 450.357 901.078 450.345C897.19 483.423 902.477 490.956 899.801 494.441C896.977 498.122 892.938 492.688 884.059 498.472C878.234 502.269 870.151 507.763 864.71 508.716C861.857 509.221 859.727 508.473 859.033 505.578C857.011 497.16 866.701 474.8 864.278 459.541Z" fill="#7F22BA"/>
<path d="M891.433 387.864C891.433 387.864 891.672 389.395 894.206 389.16C894.206 389.16 896.334 388.963 896.268 387.279C896.271 387.279 894.206 386.082 891.433 387.864Z" fill="white"/>
<path d="M857.19 471.294C860.074 465.206 863.08 461.982 865.06 460.362C864.605 458.6 877.196 435.394 877.196 431.798C877.196 428.16 880.555 402.375 880.555 402.375C880.555 402.375 870.063 403.35 866.431 410.964C861.889 420.49 852.455 457.143 857.19 471.294Z" fill="#7F22BA"/>
<path d="M865.06 460.366L886.027 468.592L884.058 473.902C884.058 473.902 858.544 473.633 857.193 471.298C855.839 468.96 865.06 460.366 865.06 460.366Z" fill="#FF9792"/>
<path d="M901.098 450.392C902.887 454.736 906.064 465.642 910.136 469.229C912.807 471.576 916.433 468.314 918.31 466.6C917.71 464.997 917.013 463.15 916.456 460.875C914.957 461.392 913.128 462.051 911.948 462.585C909.656 463.624 901.098 450.392 901.098 450.392Z" fill="#994EC8"/>
<path d="M898.959 446.065L887.736 483.487L914.34 487.262L924.806 449.263L898.959 446.065Z" fill="#1B2251"/>
<path d="M924.806 449.263L937.218 437.429L924.806 478.233L914.34 487.267C914.897 485.236 924.806 449.263 924.806 449.263Z" fill="#242E6C"/>
<path d="M886.027 468.588C886.027 468.588 889.903 466.022 890.884 464.71C891.519 463.863 891.47 465.073 891.411 465.402C891.291 466.069 891.132 467.403 890 468.519C888.373 470.131 886.027 468.588 886.027 468.588Z" fill="#FF9792"/>
<path d="M892.986 358.257C892.986 358.257 888.879 375.573 882.978 378.377C877.079 381.182 875.171 377.633 875.171 377.633C875.171 377.633 879.562 371.776 880.165 362.131C880.171 362.131 889.775 351.053 892.986 358.257Z" fill="#1B2251"/>
<path d="M892.068 359.608C892.068 359.608 895.105 362.862 895.938 366.201C896.772 369.54 897.346 376.501 898.692 376.154C898.692 376.154 901.243 365.282 897.722 359.536C893.99 353.443 892.068 359.608 892.068 359.608Z" fill="#1B2251"/>
<path d="M892.628 360.092C892.628 360.092 890.446 376.702 883.086 382.567C883.086 382.567 890.27 371.883 890.518 361.015C890.765 350.151 892.628 360.092 892.628 360.092Z" fill="#1B2251"/>
<path d="M870.461 393.277C872.756 395.603 878.086 394.876 878.086 394.876C877.776 394.466 877.423 393.521 877.423 393.521C880.569 395.864 886.749 391.307 886.749 391.307C881.277 391.336 881.277 379.459 882.978 378.378C882.736 369.502 883.2 358.194 883.447 353.102C883.208 353.123 883.074 353.149 883.074 353.149C868.092 349.771 868.168 390.96 870.461 393.277Z" fill="#1B2251"/>
<path d="M886.027 468.588C886.027 468.588 892.833 466.634 894.337 467.13C895.839 467.626 899.201 469.793 899.451 470.259C899.701 470.725 898.475 470.99 897.594 470.448C896.465 469.755 894.587 470.041 894.587 470.041C894.587 470.041 898.205 471.824 899.09 472.581C899.178 472.658 899.181 472.85 899.095 472.932C898.857 473.162 898.273 473.239 897.469 472.94C896.311 472.513 894.243 472.235 894.243 472.235L898.356 474.265C898.407 474.291 898.441 474.368 898.436 474.445C898.407 474.744 898.049 475.014 897.062 474.928C896.3 474.86 893.774 473.893 893.774 473.893L895.936 476.061C895.936 476.061 895.341 476.57 894.215 475.809C893.441 475.287 891.115 474.017 890.552 474.103C889.989 474.193 887.107 475.386 885.856 474.77C884.605 474.159 884.061 473.889 884.061 473.889L886.027 468.588Z" fill="#FF9792"/>
<path d="M878.262 636.379C878.862 636.379 879.377 635.746 879.479 634.878L885.444 584.057L894.024 510.965L896.425 490.524L890.313 490.264L889.252 502.128L881.809 585.506L877.395 634.93C877.324 635.699 877.73 636.379 878.262 636.379Z" fill="#F9795A"/>
<path d="M889.249 502.128C893.208 504.753 894.021 510.965 894.021 510.965L896.422 490.524L890.31 490.264L889.249 502.128Z" fill="#F24B46"/>
<path d="M1030.25 636.379C1029.65 636.379 1029.14 635.746 1029.04 634.878L1023.07 584.057L1014.49 510.965L1012.09 490.524L1018.2 490.264L1019.26 502.128L1026.71 585.506L1031.12 634.93C1031.19 635.699 1030.78 636.379 1030.25 636.379Z" fill="#F9795A"/>
<path d="M1019.27 502.128C1015.31 504.753 1014.49 510.965 1014.49 510.965L1012.09 490.524L1018.2 490.264L1019.27 502.128Z" fill="#7B36BD"/>
<path d="M873.382 498.549H1031.47C1033.08 498.549 1034.4 496.57 1034.4 494.15V492.769C1034.4 490.349 1033.08 488.37 1031.47 488.37H873.382C871.772 488.37 870.455 490.349 870.455 492.769V494.15C870.458 496.57 871.772 498.549 873.382 498.549Z" fill="#F24B46"/>
<path d="M1201.41 508.938H1171.52C1170.7 508.938 1170.02 507.921 1170.02 506.681C1170.02 505.437 1170.7 504.424 1171.52 504.424H1201.41C1202.23 504.424 1202.91 505.441 1202.91 506.681C1202.91 507.921 1202.23 508.938 1201.41 508.938Z" fill="#FF7D78"/>
<path d="M1201.41 517.784H1171.52C1170.7 517.784 1170.02 516.767 1170.02 515.527C1170.02 514.283 1170.7 513.269 1171.52 513.269H1201.41C1202.23 513.269 1202.91 514.287 1202.91 515.527C1202.91 516.767 1202.23 517.784 1201.41 517.784Z" fill="#FF7D78"/>
<path d="M1207.7 135.865V622.236C1207.7 629.744 1203.68 635.909 1198.71 636.097C1198.63 636.101 1198.55 636.101 1198.47 636.101H1036.68C1031.61 636.101 1027.45 629.863 1027.45 622.236V135.865C1027.45 128.238 1031.61 122 1036.68 122H1198.47C1203.55 122 1207.7 128.238 1207.7 135.865Z" fill="#F24B46"/>
<path d="M1217.23 135.865V622.24C1217.23 629.859 1213.07 636.101 1208 636.101H1046.21C1041.13 636.101 1036.98 629.863 1036.98 622.24V135.865C1036.98 128.238 1041.13 122 1046.21 122H1208C1213.07 122 1217.23 128.238 1217.23 135.865Z" fill="#F9795A"/>
<path d="M1153.52 141.461H1106.66C1105.66 141.461 1104.84 140.23 1104.84 138.721C1104.84 137.212 1105.66 135.98 1106.66 135.98H1153.52C1154.52 135.98 1155.34 137.212 1155.34 138.721C1155.34 140.226 1154.52 141.461 1153.52 141.461Z" fill="#F24B46"/>
<path d="M1098.34 141.461C1097.34 141.461 1096.52 140.23 1096.52 138.721C1096.52 137.212 1097.34 135.98 1098.34 135.98C1099.35 135.98 1100.16 137.212 1100.16 138.721C1100.16 140.226 1099.35 141.461 1098.34 141.461Z" fill="#F24B46"/>
<path d="M1141.09 607.691C1141.09 612.544 1139.79 616.939 1137.68 620.133C1135.55 623.365 1132.6 625.366 1129.33 625.366C1122.84 625.366 1117.58 617.452 1117.58 607.691C1117.58 601.415 1119.75 595.908 1123.03 592.775C1124.85 591.03 1127.02 590.021 1129.33 590.021C1135.83 590.021 1141.09 597.931 1141.09 607.691Z" fill="url(#paint4_linear_136_2)"/>
<path d="M1207.61 153.667H1047.78V581.329H1207.61V153.667Z" fill="#242E6C"/>
<path d="M1137.68 620.137C1135.55 623.369 1132.6 625.37 1129.33 625.37C1122.84 625.37 1117.58 617.456 1117.58 607.696C1117.58 601.419 1119.75 595.913 1123.03 592.779C1124.19 600.299 1127.6 612.886 1137.68 620.137Z" fill="#F24B46"/>
<path d="M1207.7 188.303V356.543H1055.47C1053.76 356.543 1052.37 354.316 1052.37 351.592V193.262C1052.37 190.534 1053.76 188.303 1055.47 188.303H1207.7Z" fill="#B1C9F6"/>
<path d="M1164.28 390.374V548.704C1164.28 551.427 1163.02 553.655 1161.48 553.655H1047.78V385.415H1161.48C1163.02 385.415 1164.28 387.642 1164.28 390.374Z" fill="#B1C9F6"/>
<path d="M1277.64 179.273V337.603C1277.64 340.322 1276.16 342.554 1274.34 342.554H1061.04C1059.23 342.554 1057.75 340.326 1057.75 337.603V179.273C1057.75 176.541 1059.23 174.313 1061.04 174.313H1274.34C1276.16 174.313 1277.64 176.541 1277.64 179.273Z" fill="#EFECEA"/>
<path d="M1133.19 279.206C1146.22 279.206 1156.78 272 1156.78 263.11C1156.78 254.22 1146.22 247.014 1133.19 247.014C1120.16 247.014 1109.6 254.22 1109.6 263.11C1109.6 272 1120.16 279.206 1133.19 279.206Z" fill="#D8DEE8"/>
<path opacity="0.3" d="M1133.19 272.821C1143.59 272.821 1152.03 268.265 1152.03 262.644C1152.03 257.024 1143.59 252.468 1133.19 252.468C1122.78 252.468 1114.35 257.024 1114.35 262.644C1114.35 268.265 1122.78 272.821 1133.19 272.821Z" fill="#D8DEE8"/>
<path d="M1133.19 272.822C1143.93 272.822 1152.63 264.662 1152.63 254.596C1152.63 244.53 1143.93 236.37 1133.19 236.37C1122.45 236.37 1113.74 244.53 1113.74 254.596C1113.74 264.662 1122.45 272.822 1133.19 272.822Z" fill="#AABBCC"/>
<path d="M1133.19 268.565C1143.93 268.565 1152.63 261.358 1152.63 252.469C1152.63 243.579 1143.93 236.372 1133.19 236.372C1122.45 236.372 1113.74 243.579 1113.74 252.469C1113.74 261.358 1122.45 268.565 1133.19 268.565Z" fill="url(#paint5_linear_136_2)"/>
<path d="M1127 252.088C1127.26 251.661 1127.08 249.299 1126.57 247.566C1125.84 245.11 1124.42 243.811 1124.09 243.523C1123.72 243.21 1123.4 243.033 1123.12 242.269C1122.72 241.167 1122.71 239.664 1122.55 239.681C1122.43 239.695 1122.47 240.528 1122.23 240.858C1121.91 241.313 1121.47 240.215 1121.14 240.726C1121 240.947 1120.95 241.347 1120.95 241.388C1120.87 242.091 1121.15 242.589 1121.07 242.929C1120.98 243.302 1120.62 242.798 1120.32 243.188C1119.98 243.623 1119.8 245.067 1119.98 246.004C1120.21 247.138 1120.88 247.051 1120.92 247.879C1120.95 248.493 1120.59 248.735 1120.56 249.395C1120.52 250.393 1121.26 251.785 1122.07 252.249C1123.72 253.189 1124.71 249.779 1126.12 251.183C1126.58 251.643 1126.83 252.367 1127 252.088Z" fill="url(#paint6_linear_136_2)"/>
<path d="M1125.41 249.838C1124.68 249.606 1124.39 251.122 1123.25 251.398C1122.3 251.627 1121.3 250.865 1121.23 249.875C1121.18 249.232 1121.55 248.939 1121.53 248.095C1121.49 246.846 1120.64 246.446 1120.67 245.588C1120.7 244.825 1121.39 244.87 1121.56 243.704C1121.69 242.822 1121.39 242.129 1121.55 241.714C1121.75 241.209 1122.24 242.122 1122.63 241.662C1122.72 241.558 1122.79 241.398 1122.85 241.199C1122.91 241.556 1123 241.931 1123.12 242.268C1123.4 243.032 1123.72 243.209 1124.09 243.522C1124.42 243.81 1125.84 245.109 1126.57 247.565C1127.08 249.298 1127.26 251.659 1127 252.087C1126.9 252.25 1126.77 252.069 1126.59 251.799C1126.15 250.382 1125.74 249.941 1125.41 249.838Z" fill="url(#paint7_linear_136_2)"/>
<path d="M1127.06 253.524C1127.46 253.014 1128.48 251.531 1128.9 248.629C1129.57 243.896 1128.18 238.359 1127.2 238.217C1126.87 238.169 1126.59 238.737 1126.01 238.453C1125.61 238.258 1125.55 237.899 1125.15 237.81C1124.78 237.729 1124.23 237.892 1124.1 238.614C1124.01 239.114 1124.17 239.587 1124.06 239.834C1123.93 240.13 1123.66 239.535 1123.44 239.721C1123.11 239.992 1122.9 241.93 1123.13 243.374C1123.53 245.904 1125.01 245.186 1126.1 247.884C1126.78 249.567 1126.99 251.789 1127.06 253.524Z" fill="url(#paint8_linear_136_2)"/>
<path d="M1127.26 252.686C1127.26 252.686 1128.22 248.912 1127.76 245.033C1127.3 241.155 1126.84 241.68 1126.62 241.441C1126.41 241.203 1126.88 242.869 1127.11 244.15C1127.34 245.43 1127.87 246.573 1127.26 252.686Z" fill="url(#paint9_linear_136_2)"/>
<path opacity="0.3" d="M1123.44 239.721C1123.66 239.536 1123.93 240.13 1124.06 239.834C1124.17 239.587 1124.01 239.114 1124.1 238.614C1124.23 237.892 1124.79 237.729 1125.15 237.81C1125.55 237.899 1125.61 238.257 1126.01 238.453C1126.6 238.736 1126.87 238.169 1127.2 238.217C1128.16 238.356 1129.52 243.694 1128.93 248.367C1129.03 246.583 1129.01 244.443 1128.59 242.434C1128.5 242.034 1127.9 239.128 1127.19 239.235C1126.82 239.289 1126.72 240.099 1126.31 240.099C1125.72 240.099 1125.48 238.416 1125.1 238.651C1124.74 238.875 1124.83 240.48 1124.38 240.883C1124.06 241.17 1123.84 240.513 1123.58 240.707C1123.38 240.85 1123.19 241.433 1123.09 243.047C1122.93 241.654 1123.14 239.973 1123.44 239.721Z" fill="url(#paint10_linear_136_2)"/>
<path d="M1138.21 249.531C1138.21 249.531 1127.32 242.875 1124.49 247.012C1121.66 251.15 1121.59 260.253 1127.23 260.468C1132.86 260.682 1139.73 258.192 1139.73 258.192V254.595L1138.21 249.531Z" fill="url(#paint11_linear_136_2)"/>
<path d="M1138.21 245.934C1138.21 245.934 1127.32 242.875 1124.49 247.012C1121.66 251.15 1121.59 256.656 1127.22 256.871C1132.86 257.085 1139.73 254.595 1139.73 254.595L1138.21 245.934Z" fill="url(#paint12_linear_136_2)"/>
<g opacity="0.5">
<path opacity="0.5" d="M1128.55 247.14C1128.42 246.904 1128.23 246.972 1128.13 247.291L1126.36 253.075C1126.26 253.394 1126.29 253.844 1126.42 254.081C1126.55 254.318 1126.74 254.25 1126.84 253.93L1128.61 248.146C1128.71 247.827 1128.68 247.377 1128.55 247.14Z" fill="url(#paint13_linear_136_2)"/>
<path opacity="0.5" d="M1131.09 246.78C1130.96 246.544 1130.77 246.612 1130.67 246.931L1128.9 252.715C1128.8 253.034 1128.83 253.485 1128.96 253.721C1129.09 253.957 1129.28 253.889 1129.38 253.57L1131.15 247.786C1131.25 247.467 1131.22 247.017 1131.09 246.78Z" fill="url(#paint14_linear_136_2)"/>
<path opacity="0.5" d="M1133.63 246.421C1133.5 246.184 1133.31 246.252 1133.21 246.572L1131.44 252.355C1131.34 252.675 1131.37 253.126 1131.5 253.361C1131.63 253.598 1131.82 253.53 1131.92 253.211L1133.69 247.427C1133.79 247.108 1133.76 246.657 1133.63 246.421Z" fill="url(#paint15_linear_136_2)"/>
<path opacity="0.5" d="M1136.17 246.061C1136.04 245.824 1135.85 245.892 1135.75 246.212L1133.98 251.996C1133.88 252.315 1133.91 252.766 1134.04 253.002C1134.17 253.238 1134.36 253.17 1134.46 252.851L1136.23 247.067C1136.33 246.748 1136.3 246.297 1136.17 246.061Z" fill="url(#paint16_linear_136_2)"/>
</g>
<path d="M1277.64 179.273V337.603C1277.64 340.326 1275.92 342.554 1273.81 342.554H1167.69V174.313H1273.81C1275.92 174.313 1277.64 176.541 1277.64 179.273Z" fill="#FFD4D2"/>
<path d="M1230.6 196.212H1190.67C1190.01 196.212 1189.47 195.404 1189.47 194.416C1189.47 193.429 1190.01 192.621 1190.67 192.621H1230.6C1231.26 192.621 1231.79 193.429 1231.79 194.416C1231.8 195.4 1231.26 196.212 1230.6 196.212Z" fill="#FD8857"/>
<path d="M1230.6 203.134H1190.67C1190.01 203.134 1189.47 202.326 1189.47 201.338C1189.47 200.35 1190.01 199.542 1190.67 199.542H1230.6C1231.26 199.542 1231.79 200.35 1231.79 201.338C1231.8 202.326 1231.26 203.134 1230.6 203.134Z" fill="#FD8857"/>
<path d="M1183.59 196.597H1182.26C1181.57 196.597 1181 195.746 1181 194.707V194.113C1181 193.074 1181.57 192.223 1182.26 192.223H1183.59C1184.28 192.223 1184.85 193.074 1184.85 194.113V194.707C1184.85 195.746 1184.28 196.597 1183.59 196.597Z" fill="#FD8857"/>
<path d="M1230.6 221.702H1190.67C1190.01 221.702 1189.47 220.893 1189.47 219.906C1189.47 218.918 1190.01 218.11 1190.67 218.11H1230.6C1231.26 218.11 1231.79 218.918 1231.79 219.906C1231.8 220.893 1231.26 221.702 1230.6 221.702Z" fill="#FD8857"/>
<path d="M1230.6 228.628H1190.67C1190.01 228.628 1189.47 227.82 1189.47 226.832C1189.47 225.845 1190.01 225.036 1190.67 225.036H1230.6C1231.26 225.036 1231.79 225.845 1231.79 226.832C1231.8 227.82 1231.26 228.628 1230.6 228.628Z" fill="#FD8857"/>
<path d="M1183.59 222.091H1182.26C1181.57 222.091 1181 221.24 1181 220.201V219.607C1181 218.568 1181.57 217.717 1182.26 217.717H1183.59C1184.28 217.717 1184.85 218.568 1184.85 219.607V220.201C1184.85 221.24 1184.28 222.091 1183.59 222.091Z" fill="#FD8857"/>
<path d="M1230.6 246.914H1190.67C1190.01 246.914 1189.47 246.106 1189.47 245.118C1189.47 244.13 1190.01 243.322 1190.67 243.322H1230.6C1231.26 243.322 1231.79 244.13 1231.79 245.118C1231.8 246.106 1231.26 246.914 1230.6 246.914Z" fill="#FD8857"/>
<path d="M1230.6 253.836H1190.67C1190.01 253.836 1189.47 253.028 1189.47 252.04C1189.47 251.052 1190.01 250.244 1190.67 250.244H1230.6C1231.26 250.244 1231.79 251.052 1231.79 252.04C1231.8 253.028 1231.26 253.836 1230.6 253.836Z" fill="#FD8857"/>
<path d="M1183.59 247.298H1182.26C1181.57 247.298 1181 246.448 1181 245.409V244.814C1181 243.775 1181.57 242.925 1182.26 242.925H1183.59C1184.28 242.925 1184.85 243.775 1184.85 244.814V245.409C1184.85 246.452 1184.28 247.298 1183.59 247.298Z" fill="#FD8857"/>
<path d="M1172.32 373.726V532.055C1172.32 534.783 1170.83 537.011 1169.02 537.011H955.725C953.908 537.011 952.426 534.783 952.426 532.055V373.726C952.426 371.002 953.908 368.775 955.725 368.775H1169.02C1170.83 368.775 1172.32 371.006 1172.32 373.726Z" fill="#FD8857"/>
<path d="M1172.32 373.726V532.055C1172.32 534.783 1170.83 537.015 1169.02 537.015H1074.15V368.775H1169.02C1170.83 368.775 1172.32 371.002 1172.32 373.726Z" fill="#EFECEA"/>
<path d="M981.046 396.24C974.513 396.24 969.218 404.2 969.218 414.021C969.218 423.842 974.513 431.802 981.046 431.802C987.579 431.802 992.875 423.842 992.875 414.021C992.875 404.196 987.579 396.24 981.046 396.24ZM989.237 414.585H981.046C980.839 414.585 980.668 414.333 980.668 414.017V400.776C980.668 400.464 980.836 400.207 981.046 400.207C981.254 400.207 981.425 400.46 981.425 400.776V413.448H989.24C989.448 413.448 989.618 413.7 989.618 414.017C989.616 414.329 989.448 414.585 989.237 414.585Z" fill="#EFECEA"/>
<path d="M979.866 465.052C973.987 465.052 969.22 472.217 969.22 481.054C969.22 489.892 979.866 509.546 979.866 509.546C979.866 509.546 990.512 489.896 990.512 481.054C990.512 472.217 985.745 465.052 979.866 465.052ZM979.866 488.374C977.118 488.374 974.889 485.026 974.889 480.892C974.889 476.762 977.116 473.41 979.866 473.41C982.613 473.41 984.843 476.758 984.843 480.892C984.84 485.026 982.613 488.374 979.866 488.374Z" fill="#EFECEA"/>
<path d="M1039.65 474.902H1000.9C999.92 474.902 999.115 473.692 999.115 472.217C999.115 470.738 999.92 469.532 1000.9 469.532H1039.65C1040.63 469.532 1041.44 470.742 1041.44 472.217C1041.44 473.696 1040.63 474.902 1039.65 474.902Z" fill="#242E6C"/>
<path d="M1029.59 485.189H1000.66C999.812 485.189 999.118 484.145 999.118 482.867V482.14C999.118 480.862 999.812 479.819 1000.66 479.819H1029.59C1030.44 479.819 1031.13 480.862 1031.13 482.14V482.867C1031.13 484.141 1030.43 485.189 1029.59 485.189Z" fill="#242E6C"/>
<path d="M1039.65 411.563H1000.9C999.92 411.563 999.115 410.353 999.115 408.878C999.115 407.398 999.92 406.193 1000.9 406.193H1039.65C1040.63 406.193 1041.44 407.403 1041.44 408.878C1041.44 410.353 1040.63 411.563 1039.65 411.563Z" fill="#242E6C"/>
<path d="M1029.59 421.845H1000.66C999.812 421.845 999.118 420.802 999.118 419.523V418.797C999.118 417.518 999.812 416.475 1000.66 416.475H1029.59C1030.44 416.475 1031.13 417.518 1031.13 418.797V419.523C1031.13 420.802 1030.43 421.845 1029.59 421.845Z" fill="#242E6C"/>
<path d="M1172.32 444.594V417.33L1133.66 393.384L1074.15 411.785V448.617L1107.92 469.319L1107.96 469.344L1172.32 444.607V444.594Z" fill="#C643DB"/>
<path d="M1107.86 469.344V485.591L1074.15 463.594V448.652L1107.86 469.344Z" fill="#6615B2"/>
<path d="M1172.32 444.594L1107.92 469.318L1107.86 469.344V485.591L1172.32 459.134V444.607V444.594Z" fill="#7F22BA"/>
<path d="M1254.41 235.917C1254.19 235.717 1253.89 235.456 1253.52 235.156L1247.75 228.072C1247.75 228.072 1247.01 228.701 1247.75 229.902C1247.84 230.056 1247.97 230.257 1248.12 230.488L1245.91 227.901C1245.91 227.901 1245.52 228.487 1245.78 229.415C1245.96 230.082 1248.02 232.732 1249.19 234.186C1248.49 233.681 1247.5 232.566 1246.03 230.342C1245.11 228.957 1245.41 231.044 1245.55 231.958C1245.8 233.575 1248.67 239.034 1249.67 241.488C1250.68 243.947 1251.19 246.371 1250.48 245.31C1249.78 244.25 1245.95 240.702 1245.54 241.488C1245.14 242.279 1247.46 245.31 1248.56 247.735C1249.67 250.159 1250.88 254.25 1254.82 255.161C1258.75 256.072 1259.42 253.083 1259.42 253.083C1259.42 253.083 1256.23 237.585 1254.41 235.917Z" fill="#FF9792"/>
<path d="M1375.94 383.602C1375.94 383.602 1374.98 397.603 1373.93 400.254C1372.88 402.901 1367.99 410.596 1366.49 413.029C1366.39 413.196 1365.42 411.905 1366.16 410.041C1369.12 402.52 1368.29 404.324 1367.27 399.382C1366.76 396.936 1366.45 403.974 1365.61 404.136C1364.77 404.303 1365.06 396.718 1365.04 394.414C1365 392.105 1369.25 391.024 1369.75 382.704C1370.07 377.351 1375.94 383.602 1375.94 383.602Z" fill="#FF9792"/>
<path d="M1346.73 239.936C1346.73 239.936 1338.98 297.081 1296.36 315.752C1283.06 321.579 1252.83 255.734 1252.83 255.734C1252.83 255.734 1253.89 249.663 1260.55 251.057C1260.55 251.057 1289.98 280.347 1293.68 283.528C1296.97 286.35 1318.59 247.234 1328.45 240.928C1338.31 234.618 1346.73 239.936 1346.73 239.936Z" fill="#1B2251"/>
<path d="M1397.61 599.166C1397.61 599.166 1402.9 606.422 1401.87 611.574C1400.83 616.73 1396.06 620.163 1395.42 626.465C1394.77 632.762 1392.19 636.2 1389.87 636.2C1387.55 636.2 1378.81 636.2 1378.81 636.2C1378.81 636.2 1377.1 631.766 1381.22 630.432C1385.35 629.094 1386.91 621.693 1386.65 614.823C1386.39 607.952 1387.03 598.79 1387.03 598.79L1395.8 595.738L1397.61 599.166Z" fill="#1B2251"/>
<path d="M1332.74 617.931C1332.74 617.931 1333.69 634.438 1331.37 636.157L1301.66 636.067C1301.66 636.067 1301.66 630.911 1306.44 629.769C1311.21 628.624 1319.59 624.425 1321.01 615.071C1322.43 605.712 1332.74 617.931 1332.74 617.931Z" fill="#1B2251"/>
<path d="M1307.66 384.739C1307.66 384.739 1309.23 413.675 1311.07 448.459C1313.57 495.711 1316.59 553.749 1316.88 564.745C1317.4 583.839 1319.46 614.378 1319.46 614.378C1319.46 614.378 1324.36 621.633 1334.16 618.576C1334.16 618.576 1342.9 574.98 1345.39 528.853C1345.43 528.096 1345.47 527.335 1345.51 526.574C1347.83 479.618 1351.44 380.733 1351.44 380.733L1307.66 384.739Z" fill="#F9795A"/>
<path d="M1307.66 384.739C1307.66 384.739 1309.23 413.674 1311.07 448.459L1345.4 528.849C1345.44 528.092 1345.47 527.331 1345.51 526.57C1347.83 479.614 1351.44 380.728 1351.44 380.728L1307.66 384.739Z" fill="#F24B46"/>
<path d="M1314.82 388.176C1314.82 388.176 1343.06 492.974 1361.63 542.222C1380.2 591.47 1386.01 605.216 1386.01 605.216C1386.01 605.216 1396.65 598.918 1397.61 594.621C1397.61 594.621 1390.51 499.545 1378.08 476.369C1371.05 463.273 1362.79 423.97 1362.41 410.224C1362.02 396.479 1359.89 369.279 1359.89 369.279L1314.82 388.176Z" fill="#F9795A"/>
<path d="M1351.98 226.674C1351.98 226.674 1332.87 240.535 1321.85 235.391C1321.85 235.391 1324.56 230.248 1329.31 226.422C1328.93 223.095 1328.63 220.214 1328.46 217.768C1327.99 212.125 1327.99 208.927 1327.99 208.927L1335.36 200.209L1342.36 191.868C1341.81 215.323 1351.98 226.674 1351.98 226.674Z" fill="#FF9792"/>
<path d="M1362.05 374.645C1362.09 376.406 1359.59 378.411 1358.49 379.159C1350.31 384.555 1342.69 388.317 1334.04 389.57C1323.83 391.139 1311.75 387.689 1307.6 387.817C1307.17 387.817 1306.79 387.565 1306.45 387.124C1306.16 386.812 1305.95 368.309 1306.16 345.042C1306.16 344.106 1306.16 343.165 1306.2 342.224V341.912C1306.29 332.819 1306.5 323.285 1306.79 313.75C1307.38 292.805 1308.49 272.609 1310.35 261.446C1312.6 248.273 1317.69 239.56 1322.3 233.22L1326.12 228.205C1329.93 229.333 1333.95 229.017 1337.98 226.071C1342.39 222.873 1347.13 219.423 1347.9 220.299C1353.66 226.631 1357.56 240.868 1359.63 259.06C1359.64 259.15 1359.66 259.239 1359.67 259.329C1360.83 269.731 1361.41 281.369 1361.37 293.554C1361.37 298.073 1361.29 302.711 1361.12 307.29C1360.27 328.03 1360.84 346.496 1361.39 359.292C1361.5 361.818 1361.62 364.123 1361.71 366.184C1361.88 369.818 1362.01 372.639 1362.05 374.645Z" fill="#242E6C"/>
<path d="M1361.39 359.288C1329.72 304.311 1349.37 264.353 1349.37 264.353L1359.67 259.329C1360.83 269.731 1361.41 281.369 1361.37 293.554C1361.37 298.073 1361.29 302.712 1361.12 307.291C1360.27 328.026 1360.83 346.491 1361.39 359.288Z" fill="#1B2251"/>
<path d="M1342.49 200.838C1342.49 200.838 1337.66 214.07 1328.46 217.773C1328 212.129 1328 208.931 1328 208.931L1335.37 200.214L1342.49 200.838Z" fill="#FF9490"/>
<path d="M1324.63 208.542C1324.63 208.542 1342.86 213.023 1344.57 196.178C1346.29 179.333 1349.79 168.563 1338.22 164.989C1326.66 161.415 1323.74 167.34 1322.24 172.757C1320.75 178.174 1319.94 206.943 1324.63 208.542Z" fill="#FF9792"/>
<path d="M1351.2 162.975C1351.37 162.689 1351.75 162.458 1352.6 162.389C1352.6 162.389 1351.92 161.752 1351.01 161.718C1350.83 159.944 1350.21 156.801 1348.17 156.036C1348.17 156.036 1349.26 156.913 1349.41 158.798C1347.05 155.164 1342.01 152.518 1328.04 154.176C1309.62 156.361 1315.69 174.083 1318.08 176.195C1320.46 178.307 1326.46 172.513 1330.9 173.044C1335.34 173.574 1336.18 183.219 1337.69 184.544C1339.2 185.87 1338.6 183.527 1340.64 182.142C1342.68 180.756 1342.88 185.836 1342.29 189.136C1341.7 192.437 1344.5 196.793 1344.5 196.793C1344.5 196.793 1344.5 196.793 1347.33 192.21C1350.16 187.627 1352.83 168.217 1351.54 164.082C1351.43 163.715 1351.31 163.347 1351.2 162.975Z" fill="#1B2251"/>
<path d="M1347.89 220.158C1347.89 220.158 1359.42 228.367 1364.95 240.992C1373.53 260.573 1383.47 331.929 1383.66 338.535C1383.84 345.144 1376.4 391.793 1376.4 391.793C1376.4 391.793 1368.85 391.045 1366.91 385.32C1366.91 385.32 1368.41 337.389 1367.46 334.306C1366.5 331.224 1335.99 270.013 1339.43 256.948C1342.86 243.886 1347.89 220.158 1347.89 220.158Z" fill="#242E6C"/>
<path d="M1373.93 400.254L1368.47 413.983C1368.47 413.983 1367.82 413.568 1367.92 412.589C1368.02 411.61 1369.6 404.175 1369.6 404.175L1373.93 400.254Z" fill="#FF9792"/>
<path d="M1368.46 400.652C1368.46 400.652 1364.52 407.398 1365.4 408.925L1368.24 405.62L1368.46 400.652Z" fill="#FF9792"/>
<path d="M1087.08 282.804C1081.43 284.327 1076.29 285.576 1072.69 290.008C1069.38 294.092 1067.35 299.588 1067.35 305.629C1067.35 312.342 1069.55 319.531 1073.85 322.562C1077.46 325.106 1083.15 330.333 1087.08 328.449C1092.02 326.09 1096.41 326.413 1099.85 323.033L1098.26 320.853L1087.11 305.629L1105.07 307.481L1106.75 307.655C1106.8 306.989 1106.83 306.312 1106.83 305.629C1106.83 299.165 1104.5 293.325 1100.77 289.173C1097.21 285.232 1092.38 281.381 1087.08 282.804Z" fill="#EFECEA"/>
<path d="M1105.06 307.486L1087.1 305.635L1098.25 320.859C1097.15 321.795 1095.94 322.594 1094.64 323.234C1092.35 324.366 1089.69 323.593 1087.1 325.001C1082.81 327.339 1078.85 321.975 1075.68 320.621C1072.26 319.161 1068.67 311.496 1069.06 305.635C1069.47 299.546 1071.79 292.489 1075.94 290.416C1079.06 288.861 1083.18 285.258 1087.39 285.258C1090.81 285.258 1093.69 288.437 1096.45 289.062C1101.66 290.247 1105.14 298.61 1105.14 305.629C1105.15 306.254 1105.12 306.872 1105.06 307.486Z" fill="#F98B5D"/>
<path d="M1077.63 303.529C1077.63 304.196 1077.25 304.735 1076.79 304.735C1076.32 304.735 1075.95 304.196 1075.95 303.529C1075.95 302.863 1076.32 302.323 1076.79 302.323C1077.25 302.323 1077.63 302.863 1077.63 303.529Z" fill="white"/>
<path d="M1082.76 297.732C1082.76 298.398 1082.38 298.938 1081.92 298.938C1081.45 298.938 1081.08 298.398 1081.08 297.732C1081.08 297.065 1081.45 296.526 1081.92 296.526C1082.39 296.526 1082.76 297.065 1082.76 297.732Z" fill="white"/>
<path d="M1079.6 294.537C1079.6 295.087 1079.28 295.531 1078.9 295.531C1078.51 295.531 1078.2 295.087 1078.2 294.537C1078.2 293.986 1078.51 293.542 1078.9 293.542C1079.28 293.542 1079.6 293.986 1079.6 294.537Z" fill="white"/>
<path d="M1085.88 292.072C1085.88 292.685 1085.53 293.177 1085.11 293.177C1084.68 293.177 1084.33 292.68 1084.33 292.072C1084.33 291.458 1084.68 290.966 1085.11 290.966C1085.54 290.966 1085.88 291.458 1085.88 292.072Z" fill="white"/>
<path d="M1085.88 303.529C1085.88 304.492 1085.34 305.275 1084.66 305.275C1083.98 305.275 1083.44 304.492 1083.44 303.529C1083.44 302.567 1083.98 301.784 1084.66 301.784C1085.34 301.778 1085.88 302.561 1085.88 303.529Z" fill="white"/>
<path d="M1088.54 297.144C1088.54 297.811 1088.16 298.351 1087.7 298.351C1087.23 298.351 1086.85 297.811 1086.85 297.144C1086.85 296.478 1087.23 295.938 1087.7 295.938C1088.16 295.938 1088.54 296.483 1088.54 297.144Z" fill="white"/>
<path d="M1092.44 297.748C1092.44 298.081 1092.25 298.351 1092.02 298.351C1091.79 298.351 1091.6 298.081 1091.6 297.748C1091.6 297.414 1091.79 297.145 1092.02 297.145C1092.25 297.145 1092.44 297.414 1092.44 297.748Z" fill="white"/>
<path d="M1090.67 292.574C1090.67 292.907 1090.48 293.177 1090.25 293.177C1090.02 293.177 1089.83 292.907 1089.83 292.574C1089.83 292.241 1090.02 291.971 1090.25 291.971C1090.48 291.971 1090.67 292.241 1090.67 292.574Z" fill="white"/>
<path d="M1085.88 312.009C1085.88 312.342 1085.69 312.612 1085.46 312.612C1085.23 312.612 1085.04 312.342 1085.04 312.009C1085.04 311.676 1085.23 311.406 1085.46 311.406C1085.7 311.406 1085.88 311.676 1085.88 312.009Z" fill="white"/>
<path d="M1088.77 314.754C1088.77 315.087 1088.58 315.357 1088.35 315.357C1088.12 315.357 1087.93 315.087 1087.93 314.754C1087.93 314.421 1088.12 314.151 1088.35 314.151C1088.58 314.151 1088.77 314.421 1088.77 314.754Z" fill="white"/>
<path d="M1082.38 310.025C1082.38 310.776 1081.96 311.39 1081.43 311.39C1080.9 311.39 1080.48 310.781 1080.48 310.025C1080.48 309.274 1080.9 308.66 1081.43 308.66C1081.96 308.66 1082.38 309.269 1082.38 310.025Z" fill="white"/>
<path d="M1076.91 310.364C1076.91 310.364 1076.29 309.771 1075.68 310.961C1075.68 310.961 1076.47 312.146 1076.91 310.364Z" fill="#6615B2"/>
<path d="M1081.72 301.752C1081.72 301.752 1080.88 300.953 1080.05 302.561C1080.05 302.561 1081.12 304.174 1081.72 301.752Z" fill="#6615B2"/>
<path d="M1090.85 297.166C1090.85 297.166 1089.98 297.176 1089.29 299.493C1089.29 299.493 1090.43 300.064 1090.85 297.166Z" fill="#6615B2"/>
<path d="M1094.91 298.906C1094.91 298.906 1094.17 297.171 1093.25 297.763C1093.25 297.763 1094.14 300.524 1094.91 298.906Z" fill="#6615B2"/>
<path d="M1088.41 303.852C1088.41 303.852 1088 301.567 1087.24 300.848C1087.24 300.848 1087.67 304.111 1088.41 303.852Z" fill="#6615B2"/>
<path d="M1086.97 307.1C1086.97 307.1 1086.24 306.904 1085.62 308.697C1085.62 308.697 1086.57 309.443 1086.97 307.1Z" fill="#6615B2"/>
<path d="M1087.67 317.33C1087.67 317.33 1087.06 315.749 1086.28 316.103C1086.28 316.098 1087 318.568 1087.67 317.33Z" fill="#6615B2"/>
<path d="M1088.74 310.469C1088.74 310.469 1088 310.363 1087.4 312.226C1087.4 312.226 1088.36 312.86 1088.74 310.469Z" fill="#6615B2"/>
<path d="M1085.36 297.827C1085.36 297.827 1084.65 297.208 1083.96 298.62C1083.96 298.62 1084.87 299.911 1085.36 297.827Z" fill="#6615B2"/>
<path d="M1083.52 294.828C1083.52 294.828 1082.97 292.992 1082.18 292.992C1082.18 292.997 1082.82 295.764 1083.52 294.828Z" fill="#6615B2"/>
<path d="M1078.05 311.871C1077.22 312.659 1076.81 314.246 1077.13 315.405C1077.37 316.278 1077.9 316.092 1078.51 315.611L1078.81 316.717C1078.85 316.87 1078.98 316.907 1079.09 316.807L1079.67 316.251C1079.79 316.145 1079.84 315.939 1079.8 315.786L1079.49 314.685C1080.05 314.077 1080.39 313.448 1080.14 312.548C1079.82 311.39 1078.88 311.088 1078.05 311.871Z" fill="#DFDCF7"/>
<path d="M1093.8 291.638C1094.48 292.278 1094.82 293.574 1094.55 294.515C1094.36 295.224 1093.92 295.076 1093.43 294.685L1093.18 295.584C1093.15 295.711 1093.05 295.743 1092.96 295.658L1092.48 295.203C1092.39 295.118 1092.35 294.949 1092.38 294.822L1092.63 293.928C1092.18 293.436 1091.9 292.918 1092.1 292.188C1092.36 291.246 1093.13 290.998 1093.8 291.638Z" fill="#DFDCF7"/>
<path d="M1084.15 306.952C1084.83 307.592 1085.17 308.888 1084.91 309.829C1084.71 310.538 1084.28 310.39 1083.78 309.999L1083.53 310.898C1083.5 311.025 1083.4 311.057 1083.31 310.972L1082.83 310.517C1082.74 310.432 1082.7 310.263 1082.73 310.136L1082.98 309.242C1082.53 308.75 1082.25 308.232 1082.45 307.502C1082.71 306.56 1083.48 306.312 1084.15 306.952Z" fill="#DFDCF7"/>
<path d="M1078.44 297.16C1077.76 297.8 1077.42 299.096 1077.68 300.038C1077.88 300.746 1078.31 300.598 1078.81 300.207L1079.05 301.106C1079.09 301.233 1079.19 301.265 1079.28 301.18L1079.76 300.725C1079.84 300.641 1079.89 300.471 1079.86 300.344L1079.61 299.451C1080.06 298.959 1080.34 298.44 1080.14 297.71C1079.88 296.763 1079.11 296.52 1078.44 297.16Z" fill="#DFDCF7"/>
<path d="M1107.87 305.566L1092.37 303.968L1090.25 301.767V303.751L1102.35 320.271C1106 316.685 1108.45 311.511 1108.89 305.671V303.688L1107.87 305.566Z" fill="#EFECEA"/>
<path d="M1108.89 303.688C1108.45 309.522 1106 314.701 1102.35 318.288L1096.87 310.797L1095.73 309.237L1090.25 301.762L1108.89 303.688Z" fill="#F9795A"/>
<path d="M1096.45 305.328C1096.45 305.994 1096.07 306.534 1095.61 306.534C1095.14 306.534 1094.77 305.994 1094.77 305.328C1094.77 304.661 1095.14 304.122 1095.61 304.122C1096.08 304.122 1096.45 304.661 1096.45 305.328Z" fill="white"/>
<path d="M1097.34 309.708C1097.34 310.189 1097.15 310.601 1096.87 310.797L1095.73 309.237C1095.85 308.803 1096.15 308.501 1096.5 308.501C1096.97 308.507 1097.34 309.046 1097.34 309.708Z" fill="white"/>
<path d="M1100.36 309.983C1100.36 310.316 1100.17 310.586 1099.94 310.586C1099.71 310.586 1099.52 310.316 1099.52 309.983C1099.52 309.649 1099.71 309.38 1099.94 309.38C1100.17 309.38 1100.36 309.649 1100.36 309.983Z" fill="white"/>
<path d="M1102.62 306.534C1102.62 306.867 1102.43 307.137 1102.2 307.137C1101.97 307.137 1101.78 306.867 1101.78 306.534C1101.78 306.201 1101.97 305.931 1102.2 305.931C1102.44 305.931 1102.62 306.201 1102.62 306.534Z" fill="white"/>
<path d="M1098.34 305.629C1098.34 305.962 1098.15 306.232 1097.92 306.232C1097.69 306.232 1097.5 305.962 1097.5 305.629C1097.5 305.296 1097.69 305.026 1097.92 305.026C1098.15 305.026 1098.34 305.296 1098.34 305.629Z" fill="white"/>
<path d="M1100.5 304.566C1100.5 305.116 1100.19 305.561 1099.8 305.561C1099.42 305.561 1099.11 305.116 1099.11 304.566C1099.11 304.016 1099.42 303.572 1099.8 303.572C1100.19 303.572 1100.5 304.016 1100.5 304.566Z" fill="white"/>
<path d="M1099.81 307.793C1099.81 308.163 1099.6 308.464 1099.34 308.464C1099.08 308.464 1098.87 308.163 1098.87 307.793C1098.87 307.422 1099.08 307.121 1099.34 307.121C1099.59 307.121 1099.81 307.422 1099.81 307.793Z" fill="white"/>
<path d="M1093.64 304.122C1093.64 304.365 1093.5 304.566 1093.33 304.566C1093.16 304.566 1093.02 304.37 1093.02 304.122C1093.02 303.878 1093.15 303.677 1093.33 303.677C1093.49 303.677 1093.64 303.878 1093.64 304.122Z" fill="white"/>
<path d="M1097.21 305.708C1097.21 305.708 1096.61 305.714 1096.13 307.327C1096.13 307.327 1096.92 307.719 1097.21 305.708Z" fill="#6615B2"/>
<path d="M1104.2 307.232C1104.2 307.232 1103.74 305.761 1103.1 305.825C1103.1 305.825 1103.63 308.052 1104.2 307.232Z" fill="#6615B2"/>
<path d="M1098.69 309.702C1098.69 309.702 1098.21 308.29 1097.57 308.433C1097.57 308.427 1098.13 310.591 1098.69 309.702Z" fill="#6615B2"/>
<path d="M1102.35 311.131C1102.35 311.131 1101.74 310.85 1101.22 312.226C1101.22 312.226 1101.99 312.987 1102.35 311.131Z" fill="#6615B2"/>
<path d="M1093.05 302.767C1093.05 302.767 1092.53 302.334 1092.03 303.381C1092.03 303.381 1092.7 304.296 1093.05 302.767Z" fill="#6615B2"/>
<path d="M1112.85 520.897H1086C1085.4 520.897 1084.91 520.157 1084.91 519.251C1084.91 518.344 1085.4 517.605 1086 517.605H1112.85C1113.46 517.605 1113.95 518.344 1113.95 519.251C1113.95 520.157 1113.46 520.897 1112.85 520.897Z" fill="#FF7D78"/>
<path d="M1112.85 513.18H1086C1085.4 513.18 1084.91 512.44 1084.91 511.534C1084.91 510.627 1085.4 509.888 1086 509.888H1112.85C1113.46 509.888 1113.95 510.627 1113.95 511.534C1113.95 512.44 1113.46 513.18 1112.85 513.18Z" fill="#FF7D78"/>
<path d="M1098.01 251.937H1066.83C1066.17 251.937 1065.64 251.129 1065.64 250.137C1065.64 249.145 1066.17 248.337 1066.83 248.337H1098.01C1098.67 248.337 1099.21 249.145 1099.21 250.137C1099.2 251.125 1098.67 251.937 1098.01 251.937Z" fill="#242E6C"/>
<path d="M1098.01 259.291H1066.83C1066.17 259.291 1065.64 258.483 1065.64 257.491C1065.64 256.499 1066.17 255.691 1066.83 255.691H1098.01C1098.67 255.691 1099.21 256.499 1099.21 257.491C1099.2 258.483 1098.67 259.291 1098.01 259.291Z" fill="#242E6C"/>
<path d="M1098.01 266.645H1066.83C1066.17 266.645 1065.64 265.836 1065.64 264.845C1065.64 263.853 1066.17 263.045 1066.83 263.045H1098.01C1098.67 263.045 1099.21 263.853 1099.21 264.845C1099.2 265.836 1098.67 266.645 1098.01 266.645Z" fill="#242E6C"/>
<path d="M1151.31 199.449H1120.14C1119.48 199.449 1118.94 198.64 1118.94 197.649C1118.94 196.657 1119.48 195.849 1120.14 195.849H1151.31C1151.97 195.849 1152.51 196.657 1152.51 197.649C1152.51 198.636 1151.97 199.449 1151.31 199.449Z" fill="#242E6C"/>
<path d="M1151.31 206.802H1120.14C1119.48 206.802 1118.94 205.994 1118.94 205.002C1118.94 204.01 1119.48 203.202 1120.14 203.202H1151.31C1151.97 203.202 1152.51 204.01 1152.51 205.002C1152.51 205.99 1151.97 206.802 1151.31 206.802Z" fill="#242E6C"/>
<path d="M1151.31 214.156H1120.14C1119.48 214.156 1118.94 213.348 1118.94 212.356C1118.94 211.364 1119.48 210.556 1120.14 210.556H1151.31C1151.97 210.556 1152.51 211.364 1152.51 212.356C1152.51 213.344 1151.97 214.156 1151.31 214.156Z" fill="#242E6C"/>
<path d="M1151.31 303.806H1120.14C1119.48 303.806 1118.94 302.998 1118.94 302.006C1118.94 301.014 1119.48 300.206 1120.14 300.206H1151.31C1151.97 300.206 1152.51 301.014 1152.51 302.006C1152.51 302.994 1151.97 303.806 1151.31 303.806Z" fill="#242E6C"/>
<path d="M1151.31 311.16H1120.14C1119.48 311.16 1118.94 310.352 1118.94 309.36C1118.94 308.368 1119.48 307.56 1120.14 307.56H1151.31C1151.97 307.56 1152.51 308.368 1152.51 309.36C1152.51 310.347 1151.97 311.16 1151.31 311.16Z" fill="#242E6C"/>
<path d="M1151.31 318.513H1120.14C1119.48 318.513 1118.94 317.705 1118.94 316.713C1118.94 315.722 1119.48 314.913 1120.14 314.913H1151.31C1151.97 314.913 1152.51 315.722 1152.51 316.713C1152.51 317.701 1151.97 318.513 1151.31 318.513Z" fill="#242E6C"/>
<path d="M1236.57 309.36H1206.72C1201.81 309.36 1197.79 303.319 1197.79 295.939C1197.79 288.556 1201.81 282.515 1206.72 282.515H1236.57C1241.48 282.515 1245.5 288.556 1245.5 295.939C1245.5 303.319 1241.48 309.36 1236.57 309.36Z" fill="#FD8857"/>
<path d="M1215.94 292.074C1215.94 292.074 1221.61 303.999 1221.59 303.554C1221.57 303.109 1227.35 286.615 1227.35 286.615L1220.68 296.337L1215.94 292.074Z" fill="#EFECEA"/>
<path d="M1127.41 456.215L1108.25 463.179L1102.28 459.34L1120.86 452.893L1127.41 456.215Z" fill="#FFD4D2"/>
<path d="M1096.88 224.445C1094.49 225.554 1091.72 226.225 1087.98 226.245V226.485H1087.09V226.245C1065.75 226.152 1067.49 202.419 1067.49 202.419C1067.71 204.576 1069.53 205.988 1071.99 206.903C1076.9 208.729 1084.43 208.601 1087.09 208.482V208.429C1087.09 208.429 1087.21 208.442 1087.54 208.46C1087.86 208.442 1087.98 208.429 1087.98 208.429V208.482C1092.07 208.658 1106.94 208.863 1107.6 202.42C1107.6 202.42 1108.83 218.898 1096.88 224.445Z" fill="url(#paint17_linear_136_2)"/>
<path opacity="0.6" d="M1096.88 224.445C1094.49 225.554 1091.72 226.225 1087.98 226.245V226.485H1087.09V226.245C1065.75 226.152 1067.49 202.419 1067.49 202.419C1067.71 204.576 1069.53 205.988 1071.99 206.903C1073.12 208.594 1074.15 210.695 1074.91 213.301C1078.12 224.329 1091.04 210.424 1095.73 221.782C1096.14 222.767 1096.5 223.652 1096.88 224.445Z" fill="url(#paint18_radial_136_2)"/>
<path opacity="0.9" d="M1087.89 208.74C1098.82 208.74 1107.68 205.89 1107.68 202.375C1107.68 198.86 1098.82 196.01 1087.89 196.01C1076.96 196.01 1068.1 198.86 1068.1 202.375C1068.1 205.89 1076.96 208.74 1087.89 208.74Z" fill="url(#paint19_linear_136_2)"/>
<path d="M1092.2 209.759C1091.61 209.103 1092.02 205.47 1093.18 202.805C1094.82 199.027 1098.02 197.029 1098.77 196.586C1099.6 196.104 1100.32 195.831 1100.95 194.656C1101.86 192.961 1101.88 190.648 1102.25 190.675C1102.52 190.695 1102.42 191.979 1102.95 192.484C1103.69 193.184 1104.67 191.496 1105.41 192.281C1105.74 192.621 1105.84 193.235 1105.85 193.3C1106.02 194.382 1105.39 195.148 1105.57 195.671C1105.77 196.246 1106.58 195.469 1107.26 196.07C1108.02 196.738 1108.44 198.961 1108.02 200.402C1107.52 202.146 1106 202.013 1105.91 203.286C1105.84 204.23 1106.66 204.603 1106.72 205.618C1106.81 207.152 1105.14 209.294 1103.31 210.009C1099.6 211.455 1097.37 206.209 1094.19 208.37C1093.16 209.075 1092.58 210.189 1092.2 209.759Z" fill="url(#paint20_linear_136_2)"/>
<path opacity="0.3" d="M1095.78 206.299C1097.44 205.942 1098.08 208.275 1100.65 208.698C1102.79 209.05 1105.05 207.88 1105.22 206.356C1105.33 205.366 1104.48 204.915 1104.54 203.618C1104.62 201.697 1106.55 201.083 1106.47 199.762C1106.4 198.589 1104.85 198.658 1104.46 196.866C1104.17 195.508 1104.84 194.441 1104.49 193.804C1104.05 193.026 1102.95 194.431 1102.06 193.724C1101.87 193.564 1101.7 193.318 1101.57 193.012C1101.43 193.561 1101.23 194.138 1100.95 194.656C1100.33 195.831 1099.6 196.104 1098.77 196.585C1098.02 197.027 1094.82 199.026 1093.18 202.805C1092.02 205.47 1091.61 209.102 1092.2 209.759C1092.43 210.011 1092.72 209.732 1093.13 209.317C1094.13 207.135 1095.05 206.456 1095.78 206.299Z" fill="url(#paint21_linear_136_2)"/>
<path d="M1092.08 211.968C1091.17 211.185 1088.86 208.902 1087.93 204.438C1086.42 197.158 1089.55 188.641 1091.75 188.422C1092.49 188.348 1093.12 189.222 1094.44 188.785C1095.34 188.485 1095.46 187.934 1096.37 187.797C1097.2 187.673 1098.44 187.924 1098.74 189.033C1098.95 189.803 1098.58 190.531 1098.83 190.911C1099.13 191.365 1099.74 190.451 1100.24 190.736C1100.96 191.154 1101.44 194.134 1100.93 196.355C1100.03 200.248 1096.69 199.143 1094.23 203.293C1092.7 205.882 1092.22 209.3 1092.08 211.968Z" fill="url(#paint22_linear_136_2)"/>
<path opacity="0.3" d="M1091.61 210.679C1091.61 210.679 1089.46 204.874 1090.49 198.908C1091.53 192.942 1092.57 193.75 1093.06 193.382C1093.54 193.015 1092.47 195.579 1091.96 197.549C1091.44 199.519 1090.25 201.275 1091.61 210.679Z" fill="url(#paint23_linear_136_2)"/>
<path opacity="0.3" d="M1100.24 190.736C1099.74 190.451 1099.13 191.365 1098.83 190.911C1098.59 190.531 1098.95 189.803 1098.74 189.033C1098.44 187.924 1097.2 187.673 1096.37 187.797C1095.47 187.934 1095.34 188.485 1094.44 188.785C1093.12 189.222 1092.5 188.348 1091.75 188.422C1089.59 188.637 1086.53 196.847 1087.85 204.034C1087.62 201.29 1087.68 197.998 1088.63 194.907C1088.82 194.292 1090.18 189.822 1091.78 189.986C1092.6 190.071 1092.83 191.317 1093.76 191.317C1095.1 191.318 1095.64 188.728 1096.49 189.091C1097.29 189.436 1097.11 191.904 1098.12 192.524C1098.84 192.965 1099.32 191.954 1099.92 192.253C1100.36 192.472 1100.79 193.368 1101.03 195.852C1101.37 193.709 1100.91 191.123 1100.24 190.736Z" fill="url(#paint24_linear_136_2)"/>
<path d="M1084.11 211.904C1084.7 211.248 1084.28 207.615 1083.13 204.95C1081.49 201.172 1078.29 199.174 1077.53 198.73C1076.71 198.249 1075.98 197.976 1075.35 196.801C1074.45 195.105 1074.42 192.792 1074.06 192.82C1073.79 192.84 1073.88 194.123 1073.35 194.629C1072.62 195.329 1071.64 193.641 1070.89 194.426C1070.57 194.765 1070.47 195.38 1070.46 195.445C1070.29 196.527 1070.92 197.293 1070.74 197.815C1070.54 198.391 1069.72 197.614 1069.04 198.214C1068.28 198.883 1067.86 201.106 1068.28 202.547C1068.79 204.291 1070.31 204.157 1070.4 205.431C1070.46 206.374 1069.65 206.748 1069.59 207.763C1069.49 209.297 1071.16 211.439 1072.99 212.153C1076.7 213.6 1078.94 208.354 1082.11 210.515C1083.15 211.22 1083.72 212.334 1084.11 211.904Z" fill="url(#paint25_linear_136_2)"/>
<path d="M1080.53 208.443C1078.87 208.086 1078.22 210.42 1075.65 210.843C1073.51 211.195 1071.26 210.024 1071.09 208.5C1070.98 207.511 1071.83 207.06 1071.77 205.763C1071.69 203.841 1069.75 203.227 1069.83 201.907C1069.91 200.733 1071.46 200.803 1071.84 199.01C1072.13 197.652 1071.46 196.586 1071.82 195.949C1072.26 195.171 1073.36 196.576 1074.24 195.868C1074.44 195.709 1074.6 195.463 1074.73 195.157C1074.88 195.706 1075.08 196.282 1075.35 196.8C1075.98 197.976 1076.71 198.248 1077.53 198.73C1078.29 199.172 1081.49 201.17 1083.13 204.949C1084.28 207.614 1084.7 211.247 1084.11 211.903C1083.88 212.155 1083.59 211.877 1083.18 211.461C1082.18 209.28 1081.25 208.601 1080.53 208.443Z" fill="url(#paint26_linear_136_2)"/>
<path d="M1084.23 214.114C1085.13 213.33 1087.45 211.047 1088.38 206.584C1089.89 199.304 1086.76 190.787 1084.56 190.567C1083.81 190.493 1083.19 191.368 1081.87 190.93C1080.97 190.63 1080.84 190.079 1079.93 189.942C1079.11 189.818 1077.86 190.07 1077.56 191.179C1077.35 191.948 1077.72 192.677 1077.47 193.056C1077.18 193.51 1076.57 192.596 1076.07 192.882C1075.35 193.299 1074.87 196.28 1075.38 198.501C1076.28 202.393 1079.61 201.289 1082.07 205.439C1083.61 208.027 1084.08 211.444 1084.23 214.114Z" fill="url(#paint27_linear_136_2)"/>
<path d="M1084.7 212.823C1084.7 212.823 1086.85 207.019 1085.81 201.053C1084.77 195.087 1083.73 195.895 1083.25 195.527C1082.77 195.16 1083.83 197.724 1084.35 199.694C1084.87 201.663 1086.06 203.42 1084.7 212.823Z" fill="url(#paint28_linear_136_2)"/>
<path opacity="0.3" d="M1076.07 192.882C1076.57 192.596 1077.18 193.51 1077.47 193.056C1077.72 192.676 1077.35 191.948 1077.56 191.179C1077.86 190.07 1079.11 189.818 1079.93 189.942C1080.84 190.079 1080.97 190.63 1081.87 190.93C1083.19 191.368 1083.81 190.493 1084.56 190.567C1086.72 190.782 1089.77 198.993 1088.46 206.18C1088.68 203.436 1088.62 200.143 1087.68 197.053C1087.49 196.437 1086.12 191.968 1084.53 192.132C1083.7 192.216 1083.48 193.463 1082.55 193.463C1081.21 193.464 1080.67 190.873 1079.82 191.237C1079.02 191.582 1079.2 194.05 1078.19 194.669C1077.47 195.111 1076.98 194.1 1076.38 194.398C1075.94 194.618 1075.51 195.514 1075.28 197.998C1074.94 195.854 1075.4 193.268 1076.07 192.882Z" fill="url(#paint29_linear_136_2)"/>
<path d="M1099.59 189.678C1101.97 193.175 1102.08 199.361 1099.83 203.497C1097.58 207.632 1093.82 208.149 1091.44 204.653L1099.59 189.678Z" fill="url(#paint30_linear_136_2)"/>
<path opacity="0.5" d="M1099.59 189.678C1101.7 192.767 1101.57 198.622 1099.32 202.758C1097.07 206.893 1093.54 207.741 1091.44 204.652L1099.59 189.678Z" fill="url(#paint31_linear_136_2)"/>
<path d="M1099.11 190.572C1100.9 193.209 1100.85 198.419 1098.87 202.047C1096.9 205.675 1093.75 206.347 1091.96 203.709L1099.11 190.572Z" fill="url(#paint32_linear_136_2)"/>
<path d="M1096.43 196.107L1095.83 197.207L1098.59 201.252C1099.24 199.984 1099.6 198.637 1099.78 197.295L1096.43 196.107Z" fill="url(#paint33_linear_136_2)"/>
<path d="M1096.06 204.019C1096.85 203.605 1097.62 202.894 1098.33 201.71L1095.58 197.67L1094.98 198.767L1096.06 204.019Z" fill="url(#paint34_linear_136_2)"/>
<path d="M1094.62 199.437L1092.59 203.159C1093.35 204.264 1094.45 204.616 1095.57 204.228L1094.62 199.437Z" fill="url(#paint35_linear_136_2)"/>
<path d="M1096.8 195.437L1099.87 196.476C1100.01 194.546 1099.74 192.818 1098.9 191.576L1096.8 195.437Z" fill="url(#paint36_linear_136_2)"/>
<g opacity="0.2">
<path opacity="0.2" d="M1096.43 196.107L1095.83 197.207L1098.59 201.252C1099.24 199.984 1099.6 198.637 1099.78 197.295L1096.43 196.107Z" fill="url(#paint37_linear_136_2)"/>
<path opacity="0.2" d="M1096.06 204.019C1096.85 203.605 1097.62 202.894 1098.33 201.71L1095.58 197.67L1094.98 198.767L1096.06 204.019Z" fill="url(#paint38_linear_136_2)"/>
<path opacity="0.2" d="M1094.62 199.437L1092.59 203.159C1093.35 204.264 1094.45 204.616 1095.57 204.228L1094.62 199.437Z" fill="url(#paint39_linear_136_2)"/>
<path opacity="0.2" d="M1096.8 195.437L1099.87 196.476C1100.01 194.546 1099.74 192.818 1098.9 191.576L1096.8 195.437Z" fill="url(#paint40_linear_136_2)"/>
</g>
<path d="M1086.2 202.971C1084.44 207.34 1080.73 208.392 1077.91 205.322C1075.1 202.251 1074.25 196.221 1076.02 191.853L1086.2 202.971Z" fill="url(#paint41_linear_136_2)"/>
<path opacity="0.5" d="M1086.2 202.971C1084.64 206.83 1081.1 207.469 1078.29 204.399C1075.47 201.329 1074.46 195.712 1076.02 191.853L1086.2 202.971Z" fill="url(#paint42_linear_136_2)"/>
<path d="M1085.6 202.308C1084.26 205.604 1081.12 206.254 1078.65 203.56C1076.18 200.867 1075.33 195.849 1076.66 192.553L1085.6 202.308Z" fill="url(#paint43_linear_136_2)"/>
<path d="M1081.88 198.748L1081.13 197.931L1079.09 202.986C1079.94 203.863 1080.81 204.266 1081.64 204.366L1081.88 198.748Z" fill="url(#paint44_linear_136_2)"/>
<path d="M1077.06 199.267C1077.42 200.496 1077.96 201.653 1078.78 202.635L1080.82 197.588L1080.07 196.773L1077.06 199.267Z" fill="url(#paint45_linear_136_2)"/>
<path d="M1079.62 196.275L1077.08 193.512C1076.53 194.893 1076.47 196.739 1076.87 198.502L1079.62 196.275Z" fill="url(#paint46_linear_136_2)"/>
<path d="M1082.34 199.245L1082.15 204.385C1083.33 204.336 1084.33 203.666 1084.96 202.112L1082.34 199.245Z" fill="url(#paint47_linear_136_2)"/>
<g opacity="0.2">
<path opacity="0.2" d="M1081.88 198.748L1081.13 197.931L1079.09 202.986C1079.94 203.863 1080.81 204.266 1081.64 204.366L1081.88 198.748Z" fill="url(#paint48_linear_136_2)"/>
<path opacity="0.2" d="M1077.06 199.267C1077.42 200.496 1077.96 201.653 1078.78 202.635L1080.82 197.588L1080.07 196.773L1077.06 199.267Z" fill="url(#paint49_linear_136_2)"/>
<path opacity="0.2" d="M1079.62 196.275L1077.08 193.512C1076.53 194.893 1076.47 196.739 1076.87 198.502L1079.62 196.275Z" fill="url(#paint50_linear_136_2)"/>
<path opacity="0.2" d="M1082.34 199.245L1082.15 204.385C1083.33 204.336 1084.33 203.666 1084.96 202.112L1082.34 199.245Z" fill="url(#paint51_linear_136_2)"/>
</g>
<path d="M1095.78 214.986C1096.37 214.329 1095.95 210.697 1094.8 208.032C1093.16 204.254 1089.96 202.255 1089.21 201.812C1088.38 201.331 1087.65 201.058 1087.03 199.883C1086.12 198.187 1086.1 195.874 1085.73 195.901C1085.46 195.922 1085.56 197.205 1085.02 197.711C1084.29 198.411 1083.31 196.723 1082.56 197.508C1082.24 197.847 1082.14 198.462 1082.13 198.526C1081.96 199.609 1082.59 200.374 1082.41 200.897C1082.21 201.473 1081.4 200.696 1080.71 201.296C1079.96 201.964 1079.54 204.187 1079.95 205.629C1080.46 207.373 1081.98 207.239 1082.07 208.513C1082.13 209.456 1081.32 209.829 1081.26 210.845C1081.16 212.379 1082.83 214.521 1084.67 215.235C1088.37 216.681 1090.61 211.436 1093.78 213.596C1094.82 214.301 1095.39 215.416 1095.78 214.986Z" fill="url(#paint52_linear_136_2)"/>
<path d="M1092.2 211.525C1090.54 211.168 1089.9 213.501 1087.33 213.925C1085.19 214.277 1082.93 213.106 1082.76 211.582C1082.65 210.592 1083.5 210.142 1083.44 208.845C1083.36 206.923 1081.43 206.309 1081.51 204.989C1081.58 203.815 1083.13 203.885 1083.51 202.092C1083.81 200.734 1083.14 199.668 1083.49 199.031C1083.93 198.253 1085.03 199.658 1085.91 198.95C1086.11 198.791 1086.27 198.545 1086.41 198.238C1086.55 198.788 1086.75 199.364 1087.02 199.882C1087.65 201.057 1088.38 201.33 1089.2 201.812C1089.96 202.254 1093.16 204.252 1094.8 208.031C1095.95 210.696 1096.37 214.329 1095.78 214.985C1095.55 215.237 1095.26 214.959 1094.85 214.543C1093.85 212.362 1092.92 211.682 1092.2 211.525Z" fill="url(#paint53_linear_136_2)"/>
<path d="M1090.75 210.114C1090.5 210.863 1090.15 211.55 1089.72 212.143C1087.51 215.136 1084.32 213.885 1082.61 209.346C1081.51 206.452 1081.06 203.216 1081.27 200.711C1081.39 199.289 1081.73 198.102 1082.29 197.346C1083.83 195.257 1087.01 196.51 1089.4 200.143C1091.31 203.057 1091.78 207.087 1090.75 210.114Z" fill="url(#paint54_linear_136_2)"/>
<path d="M1088.38 202.684C1089.31 204.539 1089.14 207.296 1088 208.842C1086.86 210.388 1085.18 210.138 1084.25 208.284C1083.32 206.429 1083.49 203.671 1084.63 202.125C1085.77 200.579 1087.45 200.829 1088.38 202.684Z" fill="url(#paint55_linear_136_2)"/>
<path opacity="0.1" d="M1090.75 210.114C1090.5 210.863 1090.15 211.551 1089.72 212.143C1087.51 215.136 1084.32 213.885 1082.61 209.346C1081.51 206.452 1081.06 203.216 1081.27 200.711C1081.53 203.242 1082.23 207.053 1084.15 208.082C1084.42 208.226 1084.72 208.316 1085.04 208.34C1086.12 208.416 1087.16 208.532 1088.07 208.739C1089.25 209.006 1090.21 209.425 1090.75 210.114Z" fill="url(#paint56_linear_136_2)"/>
<path d="M1134.49 441.877C1130.83 443.458 1126.57 444.414 1120.84 444.443V444.785H1119.48V444.443C1086.73 444.31 1089.4 410.478 1089.4 410.478C1089.74 413.553 1092.52 415.565 1096.31 416.87C1103.84 419.473 1115.38 419.29 1119.48 419.121V419.045C1119.48 419.045 1119.66 419.063 1120.16 419.09C1120.66 419.063 1120.84 419.045 1120.84 419.045V419.121C1127.12 419.372 1149.94 419.664 1150.94 410.48C1150.94 410.48 1152.83 433.97 1134.49 441.877Z" fill="url(#paint57_linear_136_2)"/>
<path opacity="0.6" d="M1134.49 441.877C1130.83 443.458 1126.57 444.414 1120.84 444.443V444.785H1119.48V444.443C1086.73 444.31 1089.4 410.478 1089.4 410.478C1089.74 413.553 1092.52 415.565 1096.31 416.87C1098.03 419.28 1099.61 422.276 1100.78 425.991C1105.71 441.711 1125.54 421.889 1132.74 438.08C1133.36 439.484 1133.92 440.746 1134.49 441.877Z" fill="url(#paint58_linear_136_2)"/>
<path d="M1120.15 421.261C1137.26 421.261 1151.12 416.831 1151.12 411.366C1151.12 405.901 1137.26 401.47 1120.15 401.47C1103.04 401.47 1089.18 405.901 1089.18 411.366C1089.18 416.831 1103.04 421.261 1120.15 421.261Z" fill="url(#paint59_linear_136_2)"/>
<path opacity="0.9" d="M1120.7 419.488C1137.48 419.488 1151.07 415.426 1151.07 410.415C1151.07 405.404 1137.48 401.342 1120.7 401.342C1103.93 401.342 1090.34 405.404 1090.34 410.415C1090.34 415.426 1103.93 419.488 1120.7 419.488Z" fill="url(#paint60_linear_136_2)"/>
<path d="M1127.31 420.942C1126.41 420.006 1127.04 414.828 1128.82 411.028C1131.33 405.643 1136.24 402.794 1137.4 402.162C1138.66 401.476 1139.78 401.087 1140.74 399.412C1142.14 396.995 1142.17 393.698 1142.73 393.736C1143.14 393.766 1143 395.595 1143.81 396.316C1144.94 397.314 1146.45 394.907 1147.59 396.026C1148.09 396.51 1148.24 397.386 1148.26 397.478C1148.52 399.022 1147.55 400.113 1147.83 400.858C1148.14 401.679 1149.38 400.571 1150.43 401.427C1151.59 402.379 1152.24 405.548 1151.6 407.603C1150.82 410.089 1148.49 409.899 1148.35 411.715C1148.25 413.059 1149.5 413.591 1149.59 415.038C1149.74 417.225 1147.18 420.279 1144.37 421.297C1138.68 423.359 1135.24 415.881 1130.37 418.961C1128.79 419.966 1127.9 421.554 1127.31 420.942Z" fill="url(#paint61_linear_136_2)"/>
<path opacity="0.3" d="M1132.81 416.008C1135.35 415.499 1136.34 418.825 1140.28 419.429C1143.57 419.931 1147.03 418.262 1147.29 416.089C1147.46 414.678 1146.16 414.036 1146.25 412.187C1146.37 409.448 1149.34 408.572 1149.21 406.69C1149.1 405.017 1146.72 405.117 1146.13 402.561C1145.69 400.625 1146.71 399.105 1146.17 398.197C1145.5 397.088 1143.8 399.091 1142.45 398.082C1142.15 397.854 1141.9 397.504 1141.7 397.068C1141.47 397.851 1141.17 398.672 1140.75 399.411C1139.78 401.086 1138.66 401.475 1137.4 402.161C1136.24 402.792 1131.33 405.64 1128.82 411.027C1127.04 414.826 1126.41 420.005 1127.31 420.941C1127.66 421.299 1128.11 420.903 1128.74 420.31C1130.27 417.201 1131.69 416.232 1132.81 416.008Z" fill="url(#paint62_linear_136_2)"/>
<path d="M1127.13 424.09C1125.74 422.973 1122.18 419.719 1120.76 413.356C1118.44 402.978 1123.24 390.837 1126.62 390.524C1127.77 390.418 1128.72 391.665 1130.74 391.042C1132.13 390.614 1132.32 389.828 1133.71 389.633C1134.98 389.456 1136.89 389.815 1137.35 391.395C1137.68 392.493 1137.11 393.531 1137.49 394.072C1137.95 394.719 1138.88 393.416 1139.64 393.824C1140.76 394.419 1141.49 398.667 1140.71 401.834C1139.32 407.382 1134.21 405.807 1130.43 411.724C1128.08 415.414 1127.35 420.286 1127.13 424.09Z" fill="url(#paint63_linear_136_2)"/>
<path opacity="0.3" d="M1126.41 422.252C1126.41 422.252 1123.11 413.978 1124.7 405.473C1126.29 396.968 1127.88 398.12 1128.63 397.596C1129.37 397.072 1127.73 400.727 1126.94 403.536C1126.15 406.343 1124.32 408.848 1126.41 422.252Z" fill="url(#paint64_linear_136_2)"/>
<path opacity="0.3" d="M1139.65 393.824C1138.88 393.416 1137.95 394.719 1137.49 394.072C1137.11 393.53 1137.68 392.493 1137.36 391.395C1136.89 389.815 1134.98 389.456 1133.72 389.633C1132.32 389.828 1132.14 390.614 1130.75 391.042C1128.72 391.665 1127.77 390.418 1126.63 390.524C1123.31 390.831 1118.62 402.534 1120.64 412.78C1120.29 408.868 1120.38 404.175 1121.83 399.769C1122.12 398.892 1124.22 392.52 1126.67 392.754C1127.93 392.874 1128.28 394.651 1129.71 394.651C1131.76 394.653 1132.59 390.96 1133.89 391.478C1135.13 391.97 1134.84 395.488 1136.4 396.372C1137.5 397.001 1138.25 395.559 1139.16 395.985C1139.84 396.298 1140.5 397.575 1140.86 401.116C1141.38 398.061 1140.68 394.375 1139.65 393.824Z" fill="url(#paint65_linear_136_2)"/>
<path d="M1114.9 423.999C1115.8 423.063 1115.16 417.885 1113.39 414.086C1110.88 408.7 1105.97 405.851 1104.81 405.22C1103.54 404.534 1102.43 404.144 1101.46 402.469C1100.07 400.052 1100.04 396.755 1099.48 396.794C1099.06 396.823 1099.21 398.652 1098.39 399.373C1097.26 400.371 1095.76 397.965 1094.62 399.084C1094.12 399.567 1093.97 400.444 1093.95 400.536C1093.69 402.079 1094.65 403.17 1094.38 403.915C1094.07 404.736 1092.82 403.628 1091.78 404.484C1090.62 405.437 1089.97 408.605 1090.61 410.66C1091.39 413.146 1093.72 412.956 1093.86 414.772C1093.96 416.116 1092.71 416.648 1092.61 418.096C1092.47 420.282 1095.03 423.336 1097.84 424.354C1103.53 426.416 1106.96 418.938 1111.83 422.018C1113.42 423.023 1114.3 424.611 1114.9 423.999Z" fill="url(#paint66_linear_136_2)"/>
<path d="M1109.4 419.065C1106.86 418.556 1105.87 421.883 1101.92 422.486C1098.64 422.988 1095.17 421.319 1094.92 419.147C1094.75 417.736 1096.05 417.093 1095.96 415.245C1095.84 412.505 1092.87 411.63 1092.99 409.747C1093.1 408.074 1095.48 408.174 1096.08 405.618C1096.52 403.683 1095.5 402.162 1096.04 401.255C1096.71 400.145 1098.4 402.148 1099.76 401.139C1100.06 400.911 1100.31 400.561 1100.51 400.125C1100.74 400.908 1101.04 401.73 1101.46 402.468C1102.43 404.143 1103.54 404.532 1104.81 405.218C1105.97 405.849 1110.88 408.698 1113.39 414.085C1115.16 417.884 1115.8 423.062 1114.9 423.998C1114.55 424.357 1114.1 423.96 1113.47 423.368C1111.94 420.258 1110.51 419.29 1109.4 419.065Z" fill="url(#paint67_linear_136_2)"/>
<path d="M1115.08 427.148C1116.47 426.032 1120.02 422.777 1121.45 416.414C1123.77 406.037 1118.96 393.895 1115.58 393.582C1114.44 393.477 1113.49 394.723 1111.46 394.1C1110.08 393.672 1109.89 392.887 1108.49 392.691C1107.23 392.514 1105.32 392.873 1104.85 394.454C1104.53 395.551 1105.1 396.59 1104.72 397.131C1104.26 397.778 1103.32 396.475 1102.56 396.882C1101.45 397.477 1100.71 401.726 1101.5 404.892C1102.88 410.441 1108 408.866 1111.77 414.783C1114.13 418.471 1114.86 423.343 1115.08 427.148Z" fill="url(#paint68_linear_136_2)"/>
<path d="M1115.8 425.31C1115.8 425.31 1119.1 417.035 1117.51 408.53C1115.92 400.026 1114.32 401.177 1113.58 400.653C1112.84 400.13 1114.47 403.785 1115.27 406.593C1116.06 409.401 1117.89 411.905 1115.8 425.31Z" fill="url(#paint69_linear_136_2)"/>
<path opacity="0.3" d="M1102.56 396.882C1103.32 396.475 1104.26 397.778 1104.71 397.131C1105.1 396.589 1104.53 395.551 1104.85 394.454C1105.32 392.873 1107.23 392.514 1108.49 392.691C1109.88 392.887 1110.07 393.672 1111.46 394.1C1113.49 394.723 1114.44 393.477 1115.58 393.582C1118.9 393.889 1123.59 405.593 1121.57 415.838C1121.92 411.927 1121.82 407.233 1120.37 402.828C1120.09 401.95 1117.99 395.579 1115.54 395.813C1114.27 395.933 1113.93 397.71 1112.5 397.71C1110.45 397.711 1109.61 394.019 1108.32 394.536C1107.08 395.029 1107.37 398.546 1105.81 399.43C1104.71 400.059 1103.96 398.618 1103.05 399.043C1102.37 399.356 1101.71 400.634 1101.35 404.175C1100.83 401.119 1101.53 397.432 1102.56 396.882Z" fill="url(#paint70_linear_136_2)"/>
<path d="M1138.66 392.316C1142.31 397.301 1142.47 406.119 1139.02 412.014C1135.56 417.909 1129.8 418.646 1126.15 413.663L1138.66 392.316Z" fill="url(#paint71_linear_136_2)"/>
<path opacity="0.5" d="M1138.66 392.316C1141.88 396.719 1141.7 405.066 1138.24 410.961C1134.79 416.856 1129.38 418.064 1126.15 413.662L1138.66 392.316Z" fill="url(#paint72_linear_136_2)"/>
<path d="M1137.91 393.589C1140.67 397.349 1140.58 404.775 1137.55 409.947C1134.52 415.119 1129.69 416.078 1126.94 412.317L1137.91 393.589Z" fill="url(#paint73_linear_136_2)"/>
<path d="M1133.81 401.48L1132.89 403.047L1137.11 408.814C1138.11 407.007 1138.67 405.086 1138.95 403.174L1133.81 401.48Z" fill="url(#paint74_linear_136_2)"/>
<path d="M1133.23 412.758C1134.45 412.168 1135.64 411.155 1136.72 409.467L1132.5 403.708L1131.59 405.272L1133.23 412.758Z" fill="url(#paint75_linear_136_2)"/>
<path d="M1131.03 406.227L1127.92 411.533C1129.07 413.108 1130.77 413.609 1132.48 413.057L1131.03 406.227Z" fill="url(#paint76_linear_136_2)"/>
<path d="M1134.37 400.525L1139.08 402.006C1139.29 399.254 1138.89 396.791 1137.59 395.02L1134.37 400.525Z" fill="url(#paint77_linear_136_2)"/>
<g opacity="0.2">
<path opacity="0.2" d="M1133.81 401.48L1132.89 403.047L1137.11 408.814C1138.11 407.007 1138.67 405.086 1138.95 403.174L1133.81 401.48Z" fill="url(#paint78_linear_136_2)"/>
<path opacity="0.2" d="M1133.23 412.758C1134.45 412.168 1135.64 411.155 1136.72 409.467L1132.5 403.708L1131.59 405.272L1133.23 412.758Z" fill="url(#paint79_linear_136_2)"/>
<path opacity="0.2" d="M1131.03 406.227L1127.92 411.533C1129.07 413.108 1130.77 413.609 1132.48 413.057L1131.03 406.227Z" fill="url(#paint80_linear_136_2)"/>
<path opacity="0.2" d="M1134.37 400.525L1139.08 402.006C1139.29 399.254 1138.89 396.791 1137.59 395.02L1134.37 400.525Z" fill="url(#paint81_linear_136_2)"/>
</g>
<path d="M1118.11 411.265C1115.4 417.492 1109.71 418.993 1105.39 414.615C1101.08 410.238 1099.78 401.642 1102.49 395.415L1118.11 411.265Z" fill="url(#paint82_linear_136_2)"/>
<path opacity="0.5" d="M1118.11 411.265C1115.72 416.766 1110.28 417.676 1105.96 413.3C1101.65 408.924 1100.09 400.916 1102.49 395.415L1118.11 411.265Z" fill="url(#paint83_linear_136_2)"/>
<path d="M1117.18 410.319C1115.14 415.018 1110.31 415.945 1106.52 412.105C1102.74 408.265 1101.43 401.112 1103.47 396.414L1117.18 410.319Z" fill="url(#paint84_linear_136_2)"/>
<path d="M1111.48 405.244L1110.33 404.08L1107.19 411.285C1108.51 412.536 1109.83 413.11 1111.11 413.253L1111.48 405.244Z" fill="url(#paint85_linear_136_2)"/>
<path d="M1104.08 405.984C1104.64 407.736 1105.47 409.386 1106.71 410.786L1109.85 403.59L1108.7 402.429L1104.08 405.984Z" fill="url(#paint86_linear_136_2)"/>
<path d="M1108 401.72L1104.12 397.78C1103.26 399.749 1103.18 402.381 1103.78 404.894L1108 401.72Z" fill="url(#paint87_linear_136_2)"/>
<path d="M1112.18 405.953L1111.89 413.28C1113.7 413.21 1115.24 412.255 1116.21 410.041L1112.18 405.953Z" fill="url(#paint88_linear_136_2)"/>
<g opacity="0.2">
<path opacity="0.2" d="M1111.48 405.244L1110.33 404.08L1107.19 411.285C1108.51 412.536 1109.83 413.11 1111.11 413.253L1111.48 405.244Z" fill="url(#paint89_linear_136_2)"/>
<path opacity="0.2" d="M1104.08 405.984C1104.64 407.736 1105.47 409.386 1106.71 410.786L1109.85 403.59L1108.7 402.429L1104.08 405.984Z" fill="url(#paint90_linear_136_2)"/>
<path opacity="0.2" d="M1108 401.72L1104.12 397.78C1103.26 399.749 1103.18 402.381 1103.78 404.894L1108 401.72Z" fill="url(#paint91_linear_136_2)"/>
<path opacity="0.2" d="M1112.18 405.953L1111.89 413.28C1113.7 413.21 1115.24 412.255 1116.21 410.041L1112.18 405.953Z" fill="url(#paint92_linear_136_2)"/>
</g>
<path d="M1132.81 428.392C1133.71 427.456 1133.07 422.278 1131.3 418.479C1128.79 413.093 1123.88 410.244 1122.72 409.613C1121.46 408.927 1120.34 408.538 1119.37 406.862C1117.98 404.445 1117.95 401.148 1117.39 401.187C1116.97 401.216 1117.12 403.045 1116.3 403.766C1115.17 404.764 1113.67 402.358 1112.53 403.477C1112.03 403.96 1111.88 404.837 1111.86 404.929C1111.6 406.472 1112.56 407.563 1112.29 408.308C1111.98 409.129 1110.73 408.021 1109.69 408.877C1108.53 409.83 1107.88 412.998 1108.52 415.053C1109.3 417.539 1111.63 417.349 1111.77 419.165C1111.87 420.509 1110.62 421.041 1110.52 422.489C1110.38 424.676 1112.94 427.729 1115.75 428.747C1121.44 430.809 1124.88 423.331 1129.74 426.411C1131.33 427.416 1132.21 429.006 1132.81 428.392Z" fill="url(#paint93_linear_136_2)"/>
<path d="M1127.31 423.458C1124.77 422.949 1123.78 426.276 1119.83 426.879C1116.55 427.381 1113.08 425.712 1112.83 423.54C1112.66 422.129 1113.96 421.486 1113.87 419.638C1113.75 416.898 1110.78 416.023 1110.9 414.14C1111.01 412.467 1113.39 412.567 1113.98 410.012C1114.43 408.076 1113.41 406.556 1113.95 405.648C1114.62 404.538 1116.31 406.541 1117.67 405.532C1117.97 405.306 1118.22 404.954 1118.42 404.518C1118.65 405.301 1118.95 406.123 1119.37 406.861C1120.34 408.536 1121.45 408.925 1122.72 409.612C1123.88 410.242 1128.79 413.091 1131.3 418.478C1133.07 422.277 1133.71 427.455 1132.81 428.391C1132.46 428.75 1132.01 428.353 1131.38 427.761C1129.85 424.651 1128.43 423.683 1127.31 423.458Z" fill="url(#paint94_linear_136_2)"/>
<path d="M1125.09 421.448C1124.7 422.516 1124.17 423.495 1123.5 424.34C1120.11 428.607 1115.23 426.823 1112.59 420.353C1110.91 416.227 1110.22 411.614 1110.55 408.043C1110.73 406.016 1111.25 404.324 1112.11 403.247C1114.47 400.268 1119.36 402.055 1123.02 407.233C1125.95 411.388 1126.67 417.132 1125.09 421.448Z" fill="url(#paint95_linear_136_2)"/>
<path d="M1121.45 410.855C1122.88 413.499 1122.62 417.43 1120.87 419.634C1119.12 421.838 1116.54 421.481 1115.11 418.838C1113.68 416.194 1113.94 412.263 1115.69 410.059C1117.45 407.855 1120.02 408.211 1121.45 410.855Z" fill="url(#paint96_linear_136_2)"/>
<path opacity="0.1" d="M1125.09 421.447C1124.7 422.515 1124.17 423.495 1123.5 424.34C1120.11 428.607 1115.23 426.822 1112.59 420.353C1110.91 416.226 1110.22 411.614 1110.55 408.043C1110.94 411.65 1112.02 417.083 1114.96 418.55C1115.38 418.756 1115.83 418.883 1116.32 418.917C1117.98 419.027 1119.58 419.191 1120.98 419.487C1122.78 419.868 1124.25 420.465 1125.09 421.447Z" fill="url(#paint97_linear_136_2)"/>
</g>
</g>
<defs>
<linearGradient id="paint0_linear_136_2" x1="210.08" y1="706.149" x2="210.08" y2="533.001" gradientUnits="userSpaceOnUse">
<stop stop-color="#C5CFFF"/>
<stop offset="0.248" stop-color="#D3DCFF"/>
<stop offset="0.5471" stop-color="#DCE4FF"/>
<stop offset="1" stop-color="#DFE6FF"/>
</linearGradient>
<linearGradient id="paint1_linear_136_2" x1="881" y1="-187" x2="881" y2="217.998" gradientUnits="userSpaceOnUse">
<stop stop-color="#6615B2"/>
<stop offset="0.2956" stop-color="#8D28C3"/>
<stop offset="0.5849" stop-color="#AC37D0"/>
<stop offset="0.8295" stop-color="#BF40D8"/>
<stop offset="1" stop-color="#C643DB"/>
</linearGradient>
<linearGradient id="paint2_linear_136_2" x1="358" y1="181" x2="358" y2="-68" gradientUnits="userSpaceOnUse">
<stop stop-color="#F9795A"/>
<stop offset="1" stop-color="#EB3668"/>
</linearGradient>
<linearGradient id="paint3_linear_136_2" x1="1353.51" y1="698.386" x2="1353.51" y2="471.999" gradientUnits="userSpaceOnUse">
<stop stop-color="#C5CFFF"/>
<stop offset="0.248" stop-color="#D3DCFF"/>
<stop offset="0.5471" stop-color="#DCE4FF"/>
<stop offset="1" stop-color="#DFE6FF"/>
</linearGradient>
<linearGradient id="paint4_linear_136_2" x1="1117.58" y1="607.696" x2="1141.09" y2="607.696" gradientUnits="userSpaceOnUse">
<stop stop-color="#F9795A"/>
<stop offset="1" stop-color="#FFEFE9"/>
</linearGradient>
<linearGradient id="paint5_linear_136_2" x1="1113.74" y1="252.468" x2="1152.63" y2="252.468" gradientUnits="userSpaceOnUse">
<stop offset="0.00359712" stop-color="#EBEFF2"/>
<stop offset="1" stop-color="white"/>
</linearGradient>
<linearGradient id="paint6_linear_136_2" x1="1120.43" y1="236.081" x2="1138.49" y2="248.561" gradientUnits="userSpaceOnUse">
<stop offset="0.00359712" stop-color="#E38DDD"/>
<stop offset="1" stop-color="#9571F6"/>
</linearGradient>
<linearGradient id="paint7_linear_136_2" x1="1127.33" y1="249.967" x2="1120.21" y2="249.02" gradientUnits="userSpaceOnUse">
<stop offset="0.00359712" stop-color="#E38DDD"/>
<stop offset="1" stop-color="#9571F6"/>
</linearGradient>
<linearGradient id="paint8_linear_136_2" x1="1129.07" y1="247.338" x2="1122.36" y2="246.446" gradientUnits="userSpaceOnUse">
<stop offset="0.00359712" stop-color="#E38DDD"/>
<stop offset="1" stop-color="#9571F6"/>
</linearGradient>
<linearGradient id="paint9_linear_136_2" x1="1127.47" y1="248.462" x2="1124.46" y2="243.373" gradientUnits="userSpaceOnUse">
<stop offset="0.00359712" stop-color="#E38DDD"/>
<stop offset="1" stop-color="#9571F6"/>
</linearGradient>
<linearGradient id="paint10_linear_136_2" x1="1125.24" y1="236.086" x2="1129.37" y2="242.743" gradientUnits="userSpaceOnUse">
<stop offset="0.00359712" stop-color="#E38DDD"/>
<stop offset="1" stop-color="#9571F6"/>
</linearGradient>
<linearGradient id="paint11_linear_136_2" x1="1135.12" y1="233.849" x2="1120.46" y2="247.628" gradientUnits="userSpaceOnUse">
<stop stop-color="#AB316D"/>
<stop offset="1" stop-color="#792D3D"/>
</linearGradient>
<linearGradient id="paint12_linear_136_2" x1="1132.1" y1="248.104" x2="1117.09" y2="262.208" gradientUnits="userSpaceOnUse">
<stop stop-color="#AB316D"/>
<stop offset="1" stop-color="#792D3D"/>
</linearGradient>
<linearGradient id="paint13_linear_136_2" x1="1127.7" y1="249.42" x2="1122.16" y2="254.632" gradientUnits="userSpaceOnUse">
<stop stop-color="#AB316D"/>
<stop offset="1" stop-color="#792D3D"/>
</linearGradient>
<linearGradient id="paint14_linear_136_2" x1="1130.24" y1="249.061" x2="1124.7" y2="254.273" gradientUnits="userSpaceOnUse">
<stop stop-color="#AB316D"/>
<stop offset="1" stop-color="#792D3D"/>
</linearGradient>
<linearGradient id="paint15_linear_136_2" x1="1132.78" y1="248.701" x2="1127.24" y2="253.912" gradientUnits="userSpaceOnUse">
<stop stop-color="#AB316D"/>
<stop offset="1" stop-color="#792D3D"/>
</linearGradient>
<linearGradient id="paint16_linear_136_2" x1="1135.32" y1="248.341" x2="1129.78" y2="253.553" gradientUnits="userSpaceOnUse">
<stop stop-color="#AB316D"/>
<stop offset="1" stop-color="#792D3D"/>
</linearGradient>
<linearGradient id="paint17_linear_136_2" x1="1067.46" y1="214.453" x2="1107.63" y2="214.453" gradientUnits="userSpaceOnUse">
<stop offset="0.00359712" stop-color="#EBEFF2"/>
<stop offset="1" stop-color="white"/>
</linearGradient>
<radialGradient id="paint18_radial_136_2" cx="0" cy="0" r="1" gradientUnits="userSpaceOnUse" gradientTransform="translate(1080.56 188.807) rotate(61.8056) scale(35.0628 22.8643)">
<stop offset="0.145833" stop-color="#252527"/>
<stop offset="1" stop-color="#EBEFF2"/>
</radialGradient>
<linearGradient id="paint19_linear_136_2" x1="1086.16" y1="174.609" x2="1091.05" y2="203.658" gradientUnits="userSpaceOnUse">
<stop stop-color="white"/>
<stop offset="0.9964" stop-color="#EBEFF2"/>
</linearGradient>
<linearGradient id="paint20_linear_136_2" x1="1107.03" y1="185.138" x2="1077.32" y2="215.212" gradientUnits="userSpaceOnUse">
<stop offset="0.00359712" stop-color="#E38DDD"/>
<stop offset="1" stop-color="#9571F6"/>
</linearGradient>
<linearGradient id="paint21_linear_136_2" x1="1091.46" y1="206.497" x2="1107.2" y2="203.429" gradientUnits="userSpaceOnUse">
<stop offset="0.00359712" stop-color="#E38DDD"/>
<stop offset="1" stop-color="#9571F6"/>
</linearGradient>
<linearGradient id="paint22_linear_136_2" x1="1087.54" y1="202.453" x2="1102.37" y2="199.564" gradientUnits="userSpaceOnUse">
<stop offset="0.00359712" stop-color="#E38DDD"/>
<stop offset="1" stop-color="#9571F6"/>
</linearGradient>
<linearGradient id="paint23_linear_136_2" x1="1091.14" y1="204.182" x2="1094.81" y2="195.095" gradientUnits="userSpaceOnUse">
<stop offset="0.00359712" stop-color="#E38DDD"/>
<stop offset="1" stop-color="#9571F6"/>
</linearGradient>
<linearGradient id="paint24_linear_136_2" x1="1096.17" y1="185.145" x2="1091.08" y2="197.169" gradientUnits="userSpaceOnUse">
<stop offset="0.00359712" stop-color="#E38DDD"/>
<stop offset="1" stop-color="#9571F6"/>
</linearGradient>
<linearGradient id="paint25_linear_136_2" x1="1069.28" y1="187.283" x2="1098.98" y2="217.357" gradientUnits="userSpaceOnUse">
<stop offset="0.00359712" stop-color="#E38DDD"/>
<stop offset="1" stop-color="#9571F6"/>
</linearGradient>
<linearGradient id="paint26_linear_136_2" x1="1084.85" y1="208.642" x2="1069.11" y2="205.574" gradientUnits="userSpaceOnUse">
<stop offset="0.00359712" stop-color="#E38DDD"/>
<stop offset="1" stop-color="#9571F6"/>
</linearGradient>
<linearGradient id="paint27_linear_136_2" x1="1088.76" y1="204.598" x2="1073.94" y2="201.708" gradientUnits="userSpaceOnUse">
<stop offset="0.00359712" stop-color="#E38DDD"/>
<stop offset="1" stop-color="#9571F6"/>
</linearGradient>
<linearGradient id="paint28_linear_136_2" x1="1085.17" y1="206.327" x2="1081.5" y2="197.24" gradientUnits="userSpaceOnUse">
<stop offset="0.00359712" stop-color="#E38DDD"/>
<stop offset="1" stop-color="#9571F6"/>
</linearGradient>
<linearGradient id="paint29_linear_136_2" x1="1080.14" y1="187.29" x2="1085.23" y2="199.314" gradientUnits="userSpaceOnUse">
<stop offset="0.00359712" stop-color="#E38DDD"/>
<stop offset="1" stop-color="#9571F6"/>
</linearGradient>
<linearGradient id="paint30_linear_136_2" x1="1101.76" y1="194.898" x2="1089.52" y2="199.276" gradientUnits="userSpaceOnUse">
<stop stop-color="#FF9085"/>
<stop offset="1" stop-color="#FB6FBB"/>
</linearGradient>
<linearGradient id="paint31_linear_136_2" x1="1101.56" y1="194.517" x2="1089.38" y2="198.874" gradientUnits="userSpaceOnUse">
<stop stop-color="#FF9085"/>
<stop offset="1" stop-color="#FB6FBB"/>
</linearGradient>
<linearGradient id="paint32_linear_136_2" x1="1100.83" y1="194.817" x2="1090.14" y2="198.637" gradientUnits="userSpaceOnUse">
<stop offset="0.00359712" stop-color="#EBEFF2"/>
<stop offset="1" stop-color="white"/>
</linearGradient>
<linearGradient id="paint33_linear_136_2" x1="1099.57" y1="196.693" x2="1096.09" y2="197.935" gradientUnits="userSpaceOnUse">
<stop stop-color="#FF9085"/>
<stop offset="1" stop-color="#FB6FBB"/>
</linearGradient>
<linearGradient id="paint34_linear_136_2" x1="1097.49" y1="199.362" x2="1094.74" y2="200.345" gradientUnits="userSpaceOnUse">
<stop stop-color="#FF9085"/>
<stop offset="1" stop-color="#FB6FBB"/>
</linearGradient>
<linearGradient id="paint35_linear_136_2" x1="1095.38" y1="201.559" x2="1092.4" y2="202.623" gradientUnits="userSpaceOnUse">
<stop stop-color="#FF9085"/>
<stop offset="1" stop-color="#FB6FBB"/>
</linearGradient>
<linearGradient id="paint36_linear_136_2" x1="1099.8" y1="193.626" x2="1096.56" y2="194.782" gradientUnits="userSpaceOnUse">
<stop stop-color="#FF9085"/>
<stop offset="1" stop-color="#FB6FBB"/>
</linearGradient>
<linearGradient id="paint37_linear_136_2" x1="1099.57" y1="196.693" x2="1096.09" y2="197.935" gradientUnits="userSpaceOnUse">
<stop stop-color="#FF9085"/>
<stop offset="1" stop-color="#FB6FBB"/>
</linearGradient>
<linearGradient id="paint38_linear_136_2" x1="1097.49" y1="199.362" x2="1094.74" y2="200.345" gradientUnits="userSpaceOnUse">
<stop stop-color="#FF9085"/>
<stop offset="1" stop-color="#FB6FBB"/>
</linearGradient>
<linearGradient id="paint39_linear_136_2" x1="1095.38" y1="201.559" x2="1092.4" y2="202.623" gradientUnits="userSpaceOnUse">
<stop stop-color="#FF9085"/>
<stop offset="1" stop-color="#FB6FBB"/>
</linearGradient>
<linearGradient id="paint40_linear_136_2" x1="1099.8" y1="193.626" x2="1096.56" y2="194.782" gradientUnits="userSpaceOnUse">
<stop stop-color="#FF9085"/>
<stop offset="1" stop-color="#FB6FBB"/>
</linearGradient>
<linearGradient id="paint41_linear_136_2" x1="1083.37" y1="207.247" x2="1071.3" y2="198.056" gradientUnits="userSpaceOnUse">
<stop stop-color="#FF9085"/>
<stop offset="1" stop-color="#FB6FBB"/>
</linearGradient>
<linearGradient id="paint42_linear_136_2" x1="1083.57" y1="206.864" x2="1071.56" y2="197.717" gradientUnits="userSpaceOnUse">
<stop stop-color="#FF9085"/>
<stop offset="1" stop-color="#FB6FBB"/>
</linearGradient>
<linearGradient id="paint43_linear_136_2" x1="1083.28" y1="205.711" x2="1072.75" y2="197.691" gradientUnits="userSpaceOnUse">
<stop offset="0.00359712" stop-color="#EBEFF2"/>
<stop offset="1" stop-color="white"/>
</linearGradient>
<linearGradient id="paint44_linear_136_2" x1="1081.97" y1="203.93" x2="1078.55" y2="201.323" gradientUnits="userSpaceOnUse">
<stop stop-color="#FF9085"/>
<stop offset="1" stop-color="#FB6FBB"/>
</linearGradient>
<linearGradient id="paint45_linear_136_2" x1="1080.07" y1="200.935" x2="1077.36" y2="198.872" gradientUnits="userSpaceOnUse">
<stop stop-color="#FF9085"/>
<stop offset="1" stop-color="#FB6FBB"/>
</linearGradient>
<linearGradient id="paint46_linear_136_2" x1="1078.45" y1="197.812" x2="1075.51" y2="195.577" gradientUnits="userSpaceOnUse">
<stop stop-color="#FF9085"/>
<stop offset="1" stop-color="#FB6FBB"/>
</linearGradient>
<linearGradient id="paint47_linear_136_2" x1="1083.86" y1="203.866" x2="1080.67" y2="201.438" gradientUnits="userSpaceOnUse">
<stop stop-color="#FF9085"/>
<stop offset="1" stop-color="#FB6FBB"/>
</linearGradient>
<linearGradient id="paint48_linear_136_2" x1="1081.97" y1="203.93" x2="1078.55" y2="201.323" gradientUnits="userSpaceOnUse">
<stop stop-color="#FF9085"/>
<stop offset="1" stop-color="#FB6FBB"/>
</linearGradient>
<linearGradient id="paint49_linear_136_2" x1="1080.07" y1="200.935" x2="1077.36" y2="198.872" gradientUnits="userSpaceOnUse">
<stop stop-color="#FF9085"/>
<stop offset="1" stop-color="#FB6FBB"/>
</linearGradient>
<linearGradient id="paint50_linear_136_2" x1="1078.45" y1="197.812" x2="1075.51" y2="195.577" gradientUnits="userSpaceOnUse">
<stop stop-color="#FF9085"/>
<stop offset="1" stop-color="#FB6FBB"/>
</linearGradient>
<linearGradient id="paint51_linear_136_2" x1="1083.86" y1="203.866" x2="1080.67" y2="201.438" gradientUnits="userSpaceOnUse">
<stop stop-color="#FF9085"/>
<stop offset="1" stop-color="#FB6FBB"/>
</linearGradient>
<linearGradient id="paint52_linear_136_2" x1="1080.95" y1="190.364" x2="1110.66" y2="220.439" gradientUnits="userSpaceOnUse">
<stop offset="0.00359712" stop-color="#E38DDD"/>
<stop offset="1" stop-color="#9571F6"/>
</linearGradient>
<linearGradient id="paint53_linear_136_2" x1="1096.52" y1="211.724" x2="1080.78" y2="208.656" gradientUnits="userSpaceOnUse">
<stop offset="0.00359712" stop-color="#E38DDD"/>
<stop offset="1" stop-color="#9571F6"/>
</linearGradient>
<linearGradient id="paint54_linear_136_2" x1="1091.34" y1="207.011" x2="1080.63" y2="205.643" gradientUnits="userSpaceOnUse">
<stop offset="0.00359712" stop-color="#EBEFF2"/>
<stop offset="1" stop-color="white"/>
</linearGradient>
<linearGradient id="paint55_linear_136_2" x1="1088.92" y1="206.382" x2="1083.57" y2="205.699" gradientUnits="userSpaceOnUse">
<stop stop-color="#FFC444"/>
<stop offset="0.9964" stop-color="#F36F56"/>
</linearGradient>
<linearGradient id="paint56_linear_136_2" x1="1090.82" y1="209.622" x2="1080.31" y2="208.279" gradientUnits="userSpaceOnUse">
<stop stop-color="#FFC444"/>
<stop offset="0.9964" stop-color="#F36F56"/>
</linearGradient>
<linearGradient id="paint57_linear_136_2" x1="1089.35" y1="427.632" x2="1150.99" y2="427.632" gradientUnits="userSpaceOnUse">
<stop offset="0.00359712" stop-color="#EBEFF2"/>
<stop offset="1" stop-color="white"/>
</linearGradient>
<linearGradient id="paint58_linear_136_2" x1="1106.73" y1="350.557" x2="1119.25" y2="430.484" gradientUnits="userSpaceOnUse">
<stop stop-color="white"/>
<stop offset="0.9964" stop-color="#EBEFF2"/>
</linearGradient>
<linearGradient id="paint59_linear_136_2" x1="1117.29" y1="368.785" x2="1124.29" y2="413.502" gradientUnits="userSpaceOnUse">
<stop offset="0.00359712" stop-color="#EBEFF2"/>
<stop offset="1" stop-color="white"/>
</linearGradient>
<linearGradient id="paint60_linear_136_2" x1="1118.04" y1="370.834" x2="1124.55" y2="412.401" gradientUnits="userSpaceOnUse">
<stop stop-color="white"/>
<stop offset="0.9964" stop-color="#EBEFF2"/>
</linearGradient>
<linearGradient id="paint61_linear_136_2" x1="1150.06" y1="385.843" x2="1107.87" y2="431.825" gradientUnits="userSpaceOnUse">
<stop offset="0.00359712" stop-color="#E38DDD"/>
<stop offset="1" stop-color="#9571F6"/>
</linearGradient>
<linearGradient id="paint62_linear_136_2" x1="1126.17" y1="416.291" x2="1150.19" y2="411.253" gradientUnits="userSpaceOnUse">
<stop offset="0.00359712" stop-color="#E38DDD"/>
<stop offset="1" stop-color="#9571F6"/>
</linearGradient>
<linearGradient id="paint63_linear_136_2" x1="1120.17" y1="410.526" x2="1142.78" y2="405.781" gradientUnits="userSpaceOnUse">
<stop offset="0.00359712" stop-color="#E38DDD"/>
<stop offset="1" stop-color="#9571F6"/>
</linearGradient>
<linearGradient id="paint64_linear_136_2" x1="1125.69" y1="412.991" x2="1130.64" y2="399.784" gradientUnits="userSpaceOnUse">
<stop offset="0.00359712" stop-color="#E38DDD"/>
<stop offset="1" stop-color="#9571F6"/>
</linearGradient>
<linearGradient id="paint65_linear_136_2" x1="1133.4" y1="385.852" x2="1126.52" y2="403.357" gradientUnits="userSpaceOnUse">
<stop offset="0.00359712" stop-color="#E38DDD"/>
<stop offset="1" stop-color="#9571F6"/>
</linearGradient>
<linearGradient id="paint66_linear_136_2" x1="1092.14" y1="388.9" x2="1134.33" y2="434.882" gradientUnits="userSpaceOnUse">
<stop offset="0.00359712" stop-color="#E38DDD"/>
<stop offset="1" stop-color="#9571F6"/>
</linearGradient>
<linearGradient id="paint67_linear_136_2" x1="1116.03" y1="419.349" x2="1092.02" y2="414.31" gradientUnits="userSpaceOnUse">
<stop offset="0.00359712" stop-color="#E38DDD"/>
<stop offset="1" stop-color="#9571F6"/>
</linearGradient>
<linearGradient id="paint68_linear_136_2" x1="1122.04" y1="413.584" x2="1099.43" y2="408.838" gradientUnits="userSpaceOnUse">
<stop offset="0.00359712" stop-color="#E38DDD"/>
<stop offset="1" stop-color="#9571F6"/>
</linearGradient>
<linearGradient id="paint69_linear_136_2" x1="1116.52" y1="416.049" x2="1111.57" y2="402.842" gradientUnits="userSpaceOnUse">
<stop offset="0.00359712" stop-color="#E38DDD"/>
<stop offset="1" stop-color="#9571F6"/>
</linearGradient>
<linearGradient id="paint70_linear_136_2" x1="1108.81" y1="388.91" x2="1115.69" y2="406.415" gradientUnits="userSpaceOnUse">
<stop offset="0.00359712" stop-color="#E38DDD"/>
<stop offset="1" stop-color="#9571F6"/>
</linearGradient>
<linearGradient id="paint71_linear_136_2" x1="1141.99" y1="399.757" x2="1123.53" y2="406.86" gradientUnits="userSpaceOnUse">
<stop stop-color="#FF9085"/>
<stop offset="1" stop-color="#FB6FBB"/>
</linearGradient>
<linearGradient id="paint72_linear_136_2" x1="1141.68" y1="399.214" x2="1123.31" y2="406.284" gradientUnits="userSpaceOnUse">
<stop stop-color="#FF9085"/>
<stop offset="1" stop-color="#FB6FBB"/>
</linearGradient>
<linearGradient id="paint73_linear_136_2" x1="1140.55" y1="399.641" x2="1124.45" y2="405.839" gradientUnits="userSpaceOnUse">
<stop offset="0.00359712" stop-color="#EBEFF2"/>
<stop offset="1" stop-color="white"/>
</linearGradient>
<linearGradient id="paint74_linear_136_2" x1="1138.62" y1="402.316" x2="1133.38" y2="404.331" gradientUnits="userSpaceOnUse">
<stop stop-color="#FF9085"/>
<stop offset="1" stop-color="#FB6FBB"/>
</linearGradient>
<linearGradient id="paint75_linear_136_2" x1="1135.43" y1="406.12" x2="1131.29" y2="407.714" gradientUnits="userSpaceOnUse">
<stop stop-color="#FF9085"/>
<stop offset="1" stop-color="#FB6FBB"/>
</linearGradient>
<linearGradient id="paint76_linear_136_2" x1="1132.19" y1="409.251" x2="1127.7" y2="410.978" gradientUnits="userSpaceOnUse">
<stop stop-color="#FF9085"/>
<stop offset="1" stop-color="#FB6FBB"/>
</linearGradient>
<linearGradient id="paint77_linear_136_2" x1="1138.97" y1="397.942" x2="1134.1" y2="399.819" gradientUnits="userSpaceOnUse">
<stop stop-color="#FF9085"/>
<stop offset="1" stop-color="#FB6FBB"/>
</linearGradient>
<linearGradient id="paint78_linear_136_2" x1="1138.62" y1="402.316" x2="1133.38" y2="404.331" gradientUnits="userSpaceOnUse">
<stop stop-color="#FF9085"/>
<stop offset="1" stop-color="#FB6FBB"/>
</linearGradient>
<linearGradient id="paint79_linear_136_2" x1="1135.43" y1="406.12" x2="1131.29" y2="407.714" gradientUnits="userSpaceOnUse">
<stop stop-color="#FF9085"/>
<stop offset="1" stop-color="#FB6FBB"/>
</linearGradient>
<linearGradient id="paint80_linear_136_2" x1="1132.19" y1="409.251" x2="1127.7" y2="410.978" gradientUnits="userSpaceOnUse">
<stop stop-color="#FF9085"/>
<stop offset="1" stop-color="#FB6FBB"/>
</linearGradient>
<linearGradient id="paint81_linear_136_2" x1="1138.97" y1="397.942" x2="1134.1" y2="399.819" gradientUnits="userSpaceOnUse">
<stop stop-color="#FF9085"/>
<stop offset="1" stop-color="#FB6FBB"/>
</linearGradient>
<linearGradient id="paint82_linear_136_2" x1="1113.76" y1="417.36" x2="1096.26" y2="403.014" gradientUnits="userSpaceOnUse">
<stop stop-color="#FF9085"/>
<stop offset="1" stop-color="#FB6FBB"/>
</linearGradient>
<linearGradient id="paint83_linear_136_2" x1="1114.07" y1="416.815" x2="1096.65" y2="402.537" gradientUnits="userSpaceOnUse">
<stop stop-color="#FF9085"/>
<stop offset="1" stop-color="#FB6FBB"/>
</linearGradient>
<linearGradient id="paint84_linear_136_2" x1="1113.63" y1="415.171" x2="1098.36" y2="402.653" gradientUnits="userSpaceOnUse">
<stop offset="0.00359712" stop-color="#EBEFF2"/>
<stop offset="1" stop-color="white"/>
</linearGradient>
<linearGradient id="paint85_linear_136_2" x1="1111.62" y1="412.631" x2="1106.66" y2="408.562" gradientUnits="userSpaceOnUse">
<stop stop-color="#FF9085"/>
<stop offset="1" stop-color="#FB6FBB"/>
</linearGradient>
<linearGradient id="paint86_linear_136_2" x1="1108.7" y1="408.362" x2="1104.77" y2="405.143" gradientUnits="userSpaceOnUse">
<stop stop-color="#FF9085"/>
<stop offset="1" stop-color="#FB6FBB"/>
</linearGradient>
<linearGradient id="paint87_linear_136_2" x1="1106.21" y1="403.91" x2="1101.95" y2="400.423" gradientUnits="userSpaceOnUse">
<stop stop-color="#FF9085"/>
<stop offset="1" stop-color="#FB6FBB"/>
</linearGradient>
<linearGradient id="paint88_linear_136_2" x1="1114.51" y1="412.54" x2="1109.88" y2="408.751" gradientUnits="userSpaceOnUse">
<stop stop-color="#FF9085"/>
<stop offset="1" stop-color="#FB6FBB"/>
</linearGradient>
<linearGradient id="paint89_linear_136_2" x1="1111.62" y1="412.631" x2="1106.66" y2="408.562" gradientUnits="userSpaceOnUse">
<stop stop-color="#FF9085"/>
<stop offset="1" stop-color="#FB6FBB"/>
</linearGradient>
<linearGradient id="paint90_linear_136_2" x1="1108.7" y1="408.362" x2="1104.77" y2="405.143" gradientUnits="userSpaceOnUse">
<stop stop-color="#FF9085"/>
<stop offset="1" stop-color="#FB6FBB"/>
</linearGradient>
<linearGradient id="paint91_linear_136_2" x1="1106.21" y1="403.91" x2="1101.95" y2="400.423" gradientUnits="userSpaceOnUse">
<stop stop-color="#FF9085"/>
<stop offset="1" stop-color="#FB6FBB"/>
</linearGradient>
<linearGradient id="paint92_linear_136_2" x1="1114.51" y1="412.54" x2="1109.88" y2="408.751" gradientUnits="userSpaceOnUse">
<stop stop-color="#FF9085"/>
<stop offset="1" stop-color="#FB6FBB"/>
</linearGradient>
<linearGradient id="paint93_linear_136_2" x1="1110.05" y1="393.294" x2="1152.24" y2="439.275" gradientUnits="userSpaceOnUse">
<stop offset="0.00359712" stop-color="#E38DDD"/>
<stop offset="1" stop-color="#9571F6"/>
</linearGradient>
<linearGradient id="paint94_linear_136_2" x1="1133.94" y1="423.742" x2="1109.93" y2="418.703" gradientUnits="userSpaceOnUse">
<stop offset="0.00359712" stop-color="#E38DDD"/>
<stop offset="1" stop-color="#9571F6"/>
</linearGradient>
<linearGradient id="paint95_linear_136_2" x1="1126" y1="417.024" x2="1109.6" y2="414.77" gradientUnits="userSpaceOnUse">
<stop offset="0.00359712" stop-color="#EBEFF2"/>
<stop offset="1" stop-color="white"/>
</linearGradient>
<linearGradient id="paint96_linear_136_2" x1="1122.28" y1="416.127" x2="1114.09" y2="415.001" gradientUnits="userSpaceOnUse">
<stop stop-color="#FFC444"/>
<stop offset="0.9964" stop-color="#F36F56"/>
</linearGradient>
<linearGradient id="paint97_linear_136_2" x1="1125.19" y1="420.745" x2="1109.1" y2="418.533" gradientUnits="userSpaceOnUse">
<stop stop-color="#FFC444"/>
<stop offset="0.9964" stop-color="#F36F56"/>
</linearGradient>
<clipPath id="clip0_136_2">
<rect width="1440" height="698" fill="white"/>
</clipPath>
<clipPath id="clip1_136_2">
<rect width="1440" height="848" fill="white" transform="translate(0 -14)"/>
</clipPath>
</defs>
</svg>
