<svg width="1454" height="1038" viewBox="0 0 1454 1038" fill="none" xmlns="http://www.w3.org/2000/svg">
<path d="M1454 0H0V1038H1454V0Z" fill="white"/>
<path d="M1454 760.89C1454 760.89 1279.31 800.438 1279.31 1038H1453.81L1454 760.89Z" fill="url(#paint0_linear_26_1001)"/>
<path d="M0 826.056V1038H424.245C424.245 1038 370.697 826.056 0 826.056Z" fill="url(#paint1_linear_26_1001)"/>
<path d="M1454 0V399.781C1454 399.781 650.035 703.748 417.306 0H1454Z" fill="url(#paint2_linear_26_1001)"/>
<path d="M0 178.282C0 178.282 296.588 302.38 543.231 145.99C789.873 -10.4007 945.463 0.15051 945.463 0.15051L0 0V178.282Z" fill="url(#paint3_linear_26_1001)"/>
<path d="M1109.05 711.012C1109.05 711.012 1090.23 684.019 1107.89 666.877C1107.89 666.877 1120.79 657.275 1131.3 658.057C1131.3 658.057 1116.4 688.779 1121.22 691.835C1126.04 694.891 1135.82 656.131 1135.82 656.131C1135.82 656.131 1165.17 652.634 1174.61 658.214C1174.61 658.214 1149.52 683.46 1154.8 684.962C1160.09 686.464 1187.19 661.685 1187.19 661.685C1187.19 661.685 1214.51 667.401 1213.05 687.888C1211.59 708.375 1202.18 714.702 1198.04 714.156C1193.91 713.61 1169.71 702.253 1169.18 706.419C1168.65 710.584 1183.22 724.207 1193.42 724.845C1193.42 724.845 1174.16 750.96 1161.36 743.423C1148.56 735.887 1147.47 723.941 1139.49 719.461C1131.51 714.981 1124.7 714.99 1128 719.561C1131.29 724.133 1145.73 728.573 1150.29 738.494C1154.86 748.418 1158.95 755.112 1145.71 752.658C1132.47 750.209 1110.94 738.293 1110 724.652C1109.05 711.012 1109.05 711.012 1109.05 711.012Z" fill="#1B2251"/>
<path d="M1199.63 688.438C1199.63 688.438 1125.44 684.923 1109.05 711.012C1109.05 711.012 1105.43 724.355 1094.28 736.507L1092.54 742.332C1092.54 742.332 1105.4 725.665 1110 724.657C1110 724.652 1102.8 692.333 1199.63 688.438Z" fill="#1B2251"/>
<path d="M1094.28 736.507C1094.28 736.507 1078.35 750.986 1077.25 776.861L1080.14 777.18C1080.14 777.18 1085.22 750.427 1094.42 739.965C1103.61 729.499 1094.28 736.507 1094.28 736.507Z" fill="#6615B2"/>
<path d="M915.177 490.529C915.177 490.529 943.96 470.71 930.529 443.814C930.529 443.814 919.783 427.3 908.269 423.052C908.269 423.052 914.41 463.161 908.269 464.104C902.129 465.047 904.047 418.803 904.047 418.803C904.047 418.803 873.729 400.871 861.828 402.29C861.828 402.29 880.633 441.456 874.492 440.513C868.352 439.57 847.243 399.932 847.243 399.932C847.243 399.932 816.154 392.854 811.168 415.502C806.179 438.15 814.24 449.477 818.843 450.891C823.449 452.306 853 451.835 852.233 456.555C851.465 461.275 831.507 468.824 820.377 464.576C820.377 464.576 832.657 501.851 848.777 499.965C864.897 498.079 869.886 485.809 879.866 484.866C889.845 483.923 897.136 487.224 892.146 490.529C887.156 493.83 870.27 491.612 862.212 500.035C854.154 508.457 847.626 513.649 862.595 517.426C877.564 521.198 904.43 518.841 909.8 504.685C915.177 490.529 915.177 490.529 915.177 490.529Z" fill="#242E6C"/>
<path d="M825.37 422.58C825.37 422.58 905.964 454.668 915.177 490.529C915.177 490.529 914.793 506.571 922.851 524.975V532.053C922.851 532.053 914.409 507.986 909.803 504.685C909.803 504.685 927.841 473.54 825.37 422.58Z" fill="#1B2251"/>
<path d="M922.851 524.975C922.851 524.975 935.281 548.182 928.196 576.428L925 575.372C925 575.372 928.104 544.257 921.601 528.608C915.095 512.963 922.851 524.975 922.851 524.975Z" fill="#6615B2"/>
<path d="M1090.88 648.643C1090.88 648.643 1051.42 621.476 1069.84 584.606C1069.84 584.606 1084.57 561.967 1100.35 556.147C1100.35 556.147 1091.93 611.128 1100.35 612.424C1108.77 613.721 1106.14 550.326 1106.14 550.326C1106.14 550.326 1147.7 525.748 1164.01 527.687C1164.01 527.687 1138.23 581.375 1146.65 580.083C1155.07 578.79 1184 524.456 1184 524.456C1184 524.456 1226.62 514.754 1233.46 545.803C1240.3 576.852 1229.25 592.374 1222.93 594.317C1216.62 596.256 1176.11 595.61 1177.16 602.08C1178.21 608.547 1205.57 618.9 1220.83 613.075C1220.83 613.075 1203.99 664.174 1181.89 661.589C1159.8 659 1152.96 642.185 1139.28 640.888C1125.6 639.596 1115.6 644.124 1122.44 648.652C1129.28 653.18 1152.43 650.136 1163.48 661.685C1174.52 673.234 1183.47 680.347 1162.95 685.526C1142.43 690.7 1105.6 687.464 1098.24 668.06C1090.88 648.643 1090.88 648.643 1090.88 648.643Z" fill="#242E6C"/>
<path d="M1213.99 555.496C1213.99 555.496 1103.51 599.482 1090.88 648.643C1090.88 648.643 1091.41 670.636 1080.36 695.861V705.563C1080.36 705.563 1091.93 672.575 1098.25 668.047C1098.25 668.047 1073.52 625.357 1213.99 555.496Z" fill="#1B2251"/>
<path d="M1080.36 695.865C1080.36 695.865 1063.32 727.678 1073.03 766.399L1077.42 764.949C1077.42 764.949 1073.16 722.299 1082.08 700.847C1090.99 679.395 1080.36 695.865 1080.36 695.865Z" fill="#6615B2"/>
<path d="M719.892 515.453C719.892 515.453 713.016 522.478 720.591 531.403C720.591 531.403 714.092 534.193 711.983 532.298C711.983 532.298 712.423 533.263 712.81 533.682C712.81 533.682 706.155 534.425 703.289 532.054C700.423 529.683 700.327 487.622 719.043 491.067C719.043 491.067 734.665 488.556 734.193 510.969C733.724 533.381 739.644 532.984 739.644 532.984C739.644 532.984 738.043 534.093 737.247 534.145C737.247 534.145 736.061 533.678 735.795 532.905C735.795 532.905 736.079 534.132 736.395 534.503C736.395 534.503 730.034 535.678 726.71 532.923C723.386 530.167 719.185 520.116 719.892 515.453Z" fill="#9B53C9"/>
<path d="M718.887 526.91C718.887 526.91 713.545 520.653 711.333 514.579C709.753 510.243 702.131 492.686 716.372 490.879C716.372 490.879 726.54 490.289 730.926 492.25C734.417 493.808 739.811 497.834 737.986 513.994L737.744 519.338L718.887 526.91Z" fill="#1B2251"/>
<path d="M702.629 651.625C702.018 633.191 700.704 617.153 699.13 605.966C696.623 588.139 694.365 577.882 694.34 577.773C694.009 576.206 689.236 569.861 678.629 570.058C668.017 570.254 669.026 578.572 669.026 578.572C669.026 578.852 669.054 579.113 669.1 579.31C669.203 579.738 678.941 623.157 678.518 679.216C678.511 680.002 678.44 681.364 678.487 682.268C678.487 682.273 703.072 683.05 703.08 682.268C703.935 677.369 703.52 663.794 702.629 651.625Z" fill="#F24B46"/>
<path d="M705.718 678.941C705.711 679.723 705.374 680.347 704.965 680.347H704.955C704.546 680.334 704.22 679.71 704.216 678.941H683.146C683.139 679.723 682.801 680.347 682.393 680.347H682.382C681.967 680.334 681.637 679.688 681.64 678.898C681.761 662.851 681.019 647.866 679.893 634.64C677.091 601.657 671.913 579.616 671.838 579.31C671.792 579.113 671.764 578.852 671.764 578.568C671.764 578.568 670.759 570.25 681.367 570.053C691.978 569.857 696.751 576.201 697.081 577.769C697.103 577.852 698.378 583.659 700.079 594.099C700.643 597.557 701.251 601.526 701.872 605.958C703.445 617.144 704.759 633.182 705.37 651.617C706.262 663.794 706.574 674.042 705.718 678.941Z" fill="#F9795A"/>
<path d="M680.085 680.347H762.696C762.696 680.347 760.771 670.776 712.931 672.2C679.073 673.208 680.085 680.347 680.085 680.347Z" fill="#FD8857"/>
<path d="M673.362 780.323C682.94 720.705 680.479 684.124 680.465 683.661C680.44 682.744 681.818 681.91 682.556 681.88C683.306 681.862 686.612 681.609 686.996 682.395C687.496 683.425 689.425 728.499 675.152 780.323H673.362V780.323Z" fill="#F9795A"/>
<path d="M750.494 780.323C740.916 720.705 743.377 684.124 743.391 683.661C743.416 682.744 742.038 681.91 741.299 681.88C740.55 681.862 737.244 681.609 736.86 682.395C736.359 683.425 734.431 728.499 748.704 780.323H750.494V780.323Z" fill="#F9795A"/>
<path d="M765.779 780.323C756.201 720.705 758.662 684.124 758.676 683.661C758.701 682.744 757.323 681.91 756.584 681.88C755.835 681.862 752.528 681.609 752.145 682.395C751.644 683.425 749.716 728.499 763.989 780.323H765.779V780.323Z" fill="#F9795A"/>
<path d="M688.75 780.323C698.328 720.705 695.867 684.124 695.853 683.661C695.828 682.744 697.206 681.91 697.944 681.88C698.694 681.862 702 681.609 702.384 682.395C702.884 683.425 704.813 728.499 690.54 780.323H688.75V780.323Z" fill="#F9795A"/>
<path d="M762.639 683.399H680.244C679.254 683.399 678.444 682.404 678.444 681.186V680.081C678.444 678.863 679.254 677.867 680.244 677.867H762.639C763.63 677.867 764.44 678.863 764.44 680.081V681.186C764.436 682.404 763.626 683.399 762.639 683.399Z" fill="#F24B46"/>
<path d="M806.462 782.904C803.443 782.899 797.221 783.864 794.49 779.777C791.755 775.686 785.846 773.678 785.093 772.368C784.688 771.66 785.228 768.525 785.81 765.779C787.284 763.29 784.908 759.889 784.908 759.889L792.817 760.544C792.817 760.544 796.585 766.691 799.362 771.643C800.417 773.52 803.592 776.337 805.506 777.179C807.978 778.267 810.439 778.935 811.341 780.022C812.946 781.939 809.48 782.908 806.462 782.904Z" fill="#FF9792"/>
<path d="M806.463 782.904C803.444 782.899 797.222 783.864 794.491 779.777C791.757 775.686 785.847 773.678 785.094 772.368C784.69 771.66 784.668 768.814 785.812 765.779V765.775C785.812 765.775 790.794 768.281 793.607 773.084C796.42 777.887 803.909 779.978 805.486 777.206C805.493 777.197 805.5 777.184 805.507 777.175C807.979 778.262 810.44 778.93 811.342 780.018C812.948 781.939 809.481 782.908 806.463 782.904Z" fill="#6615B2"/>
<path d="M785.094 772.368L788.127 780.328L790.144 780.598L789.846 773.507L785.094 772.368Z" fill="white"/>
<path d="M725.854 631.366C725.854 631.366 769.859 648.119 779.327 657.799C788.795 667.475 795.393 763.46 795.393 763.46C795.393 763.46 794.264 764.303 791.948 764.238C789.796 764.176 785.283 761.889 785.283 761.889C785.283 761.889 765.942 716.3 765.391 705.51C764.837 694.721 766.247 685.403 762.458 684.534C758.669 683.666 710.303 683.351 704.774 666.602C699.241 649.853 706.837 635.383 706.837 635.383L725.854 631.366Z" fill="#1B2251"/>
<path d="M796.255 782.904C793.236 782.899 787.014 783.864 784.283 779.777C781.549 775.686 775.639 773.678 774.886 772.368C774.482 771.66 775.021 768.525 775.604 765.779C777.078 763.29 774.702 759.889 774.702 759.889L782.611 760.544C782.611 760.544 786.379 766.691 789.156 771.643C790.211 773.52 793.385 776.337 795.3 777.179C797.771 778.267 800.232 778.935 801.135 780.022C802.74 781.939 799.274 782.908 796.255 782.904Z" fill="#FF9792"/>
<path d="M796.256 782.904C793.238 782.899 787.016 783.864 784.285 779.777C781.55 775.686 775.641 773.678 774.888 772.368C774.483 771.66 774.462 768.814 775.605 765.779V765.775C775.605 765.775 780.588 768.281 783.4 773.084C786.213 777.887 793.703 779.978 795.28 777.206C795.287 777.197 795.294 777.184 795.301 777.175C797.773 778.262 800.234 778.93 801.136 780.018C802.741 781.939 799.275 782.908 796.256 782.904Z" fill="#6615B2"/>
<path d="M774.888 772.368L777.921 780.328L779.938 780.598L779.639 773.507L774.888 772.368Z" fill="#6615B2"/>
<path d="M714.337 636.435C714.337 636.435 759.653 648.124 769.12 657.799C778.588 667.475 785.187 763.46 785.187 763.46C785.187 763.46 784.057 764.303 781.742 764.238C779.59 764.176 775.08 761.889 775.08 761.889C775.08 761.889 755.739 716.3 755.189 705.51C754.635 694.721 756.044 685.403 752.255 684.534C748.466 683.666 700.1 683.351 694.571 666.602C689.038 649.853 696.634 635.383 696.634 635.383L714.337 636.435Z" fill="#242E6C"/>
<path d="M731.363 546.554C731.416 546.584 726.085 549.986 722.076 548.641C718.304 547.375 715.84 541.362 715.893 541.349C717.491 540.96 717.949 538.262 717.917 526.665L718.638 526.84L730.78 529.796C730.78 529.796 730.503 534.494 730.496 538.917C730.489 542.633 730.674 546.156 731.363 546.554Z" fill="#FF9792"/>
<path d="M730.78 529.791C730.78 529.791 730.503 534.49 730.496 538.913C723.702 538.677 720.112 531.058 718.638 526.835L730.78 529.791Z" fill="#FF938F"/>
<path d="M733.049 533.983C733.049 533.983 716.976 534.311 716.962 521.997C716.951 509.684 714.87 501.436 725.13 500.707C735.393 499.978 737.393 504.672 738.206 508.781C739.03 512.889 737.233 533.581 733.049 533.983Z" fill="#FF9792"/>
<path d="M695.569 599.723C693.985 591.549 699.376 575.686 705.008 562.556C710.115 550.654 715.421 541 715.896 541.349C729.37 551.182 730.585 543.008 730.585 543.008C730.588 543.008 742.823 545.004 746.289 552.339C750.586 561.439 755.231 586.864 759.844 591.68C759.138 594.343 759.439 595.767 760.189 599.068C760.349 599.775 760.526 600.447 760.721 601.085C761.418 603.408 762.288 605.294 763.037 606.931C760.693 608.682 756.165 612.014 752.83 609.617C747.745 605.958 743.778 594.815 741.544 590.379C741.537 590.361 741.526 590.344 741.519 590.331C736.665 624.113 743.267 631.807 739.925 635.365C736.398 639.125 731.355 633.575 720.268 639.483C712.995 643.36 702.902 648.971 696.108 649.944C692.546 650.46 689.886 649.695 689.02 646.739C686.495 638.142 698.594 615.306 695.569 599.723Z" fill="#7F22BA"/>
<path d="M729.477 526.521C729.477 526.521 729.775 528.084 732.939 527.844C732.939 527.844 735.596 527.643 735.514 525.923C735.518 525.923 732.939 524.7 729.477 526.521Z" fill="white"/>
<path d="M686.718 611.726C690.32 605.508 694.073 602.216 696.545 600.561C695.977 598.762 711.699 575.062 711.699 571.389C711.699 567.674 715.893 541.34 715.893 541.34C715.893 541.34 702.792 542.336 698.257 550.112C692.585 559.84 680.805 597.273 686.718 611.726Z" fill="#7F22BA"/>
<path d="M696.545 600.565L722.726 608.966L720.268 614.389C720.268 614.389 688.409 614.114 686.722 611.73C685.032 609.342 696.545 600.565 696.545 600.565Z" fill="#FF9792"/>
<path d="M741.544 590.379C743.778 594.815 747.745 605.953 752.83 609.617C756.165 612.014 760.693 608.682 763.037 606.931C762.288 605.294 761.418 603.408 760.721 601.085C758.85 601.613 756.566 602.286 755.093 602.831C752.23 603.892 741.544 590.379 741.544 590.379Z" fill="#994EC8"/>
<path d="M738.874 585.96L724.86 624.178L758.079 628.034L771.148 589.226L738.874 585.96Z" fill="#1B2251"/>
<path d="M771.148 589.226L786.646 577.14L771.148 618.812L758.079 628.038C758.775 625.964 771.148 589.226 771.148 589.226Z" fill="#242E6C"/>
<path d="M722.726 608.962C722.726 608.962 727.566 606.342 728.791 605.002C729.583 604.137 729.523 605.373 729.448 605.709C729.299 606.39 729.1 607.752 727.687 608.892C725.655 610.538 722.726 608.962 722.726 608.962Z" fill="#FF9792"/>
<path d="M731.416 496.284C731.416 496.284 726.288 513.968 718.919 516.832C711.553 519.696 709.17 516.072 709.17 516.072C709.17 516.072 714.653 510.09 715.406 500.24C715.413 500.24 727.406 488.927 731.416 496.284Z" fill="#1B2251"/>
<path d="M730.269 497.664C730.269 497.664 734.062 500.987 735.102 504.397C736.143 507.807 736.86 514.915 738.54 514.562C738.54 514.562 741.725 503.458 737.329 497.59C732.669 491.368 730.269 497.664 730.269 497.664Z" fill="#1B2251"/>
<path d="M730.968 498.157C730.968 498.157 728.244 515.12 719.054 521.111C719.054 521.111 728.024 510.2 728.333 499.1C728.642 488.005 730.968 498.157 730.968 498.157Z" fill="#1B2251"/>
<path d="M703.289 532.049C706.155 534.425 712.81 533.682 712.81 533.682C712.423 533.263 711.983 532.298 711.983 532.298C715.911 534.691 723.628 530.036 723.628 530.036C716.795 530.067 716.795 517.937 718.919 516.833C718.617 507.768 719.196 496.219 719.505 491.019C719.206 491.041 719.039 491.067 719.039 491.067C700.331 487.617 700.427 529.683 703.289 532.049Z" fill="#1B2251"/>
<path d="M722.726 608.962C722.726 608.962 731.224 606.966 733.103 607.473C734.978 607.979 739.175 610.193 739.488 610.669C739.801 611.145 738.27 611.416 737.169 610.861C735.759 610.154 733.415 610.446 733.415 610.446C733.415 610.446 737.932 612.267 739.037 613.04C739.147 613.119 739.151 613.315 739.044 613.398C738.746 613.634 738.018 613.712 737.013 613.407C735.567 612.97 732.985 612.686 732.985 612.686L738.121 614.76C738.185 614.787 738.227 614.865 738.22 614.944C738.185 615.249 737.737 615.524 736.505 615.437C735.553 615.367 732.399 614.38 732.399 614.38L735.098 616.594C735.098 616.594 734.356 617.114 732.95 616.337C731.984 615.804 729.079 614.507 728.376 614.594C727.673 614.686 724.075 615.904 722.513 615.276C720.95 614.651 720.272 614.376 720.272 614.376L722.726 608.962Z" fill="#FF9792"/>
<path d="M713.03 780.323C713.78 780.323 714.423 779.677 714.55 778.791L721.998 726.888L732.712 652.241L735.709 631.365L728.078 631.099L726.753 643.216L717.459 728.368L711.947 778.843C711.858 779.629 712.366 780.323 713.03 780.323Z" fill="#F9795A"/>
<path d="M726.749 643.216C731.693 645.897 732.708 652.241 732.708 652.241L735.706 631.365L728.074 631.099L726.749 643.216Z" fill="#F24B46"/>
<path d="M902.814 780.323C902.065 780.323 901.422 779.677 901.294 778.791L893.847 726.888L883.133 652.241L880.135 631.365L887.767 631.099L889.092 643.216L898.386 728.368L903.898 778.843C903.986 779.629 903.478 780.323 902.814 780.323Z" fill="#F9795A"/>
<path d="M889.095 643.216C884.152 645.897 883.136 652.241 883.136 652.241L880.139 631.365L887.771 631.099L889.095 643.216Z" fill="#7B36BD"/>
<path d="M706.936 639.561H904.338C906.348 639.561 907.992 637.539 907.992 635.068V633.658C907.992 631.186 906.348 629.165 904.338 629.165H706.936C704.926 629.165 703.282 631.186 703.282 633.658V635.068C703.285 637.539 704.926 639.561 706.936 639.561Z" fill="#F24B46"/>
<path d="M1116.53 650.171H1079.21C1078.18 650.171 1077.34 649.132 1077.34 647.866C1077.34 646.595 1078.18 645.56 1079.21 645.56H1116.53C1117.56 645.56 1118.4 646.6 1118.4 647.866C1118.4 649.132 1117.56 650.171 1116.53 650.171Z" fill="#FF7D78"/>
<path d="M1116.53 659.205H1079.21C1078.18 659.205 1077.34 658.166 1077.34 656.9C1077.34 655.629 1078.18 654.594 1079.21 654.594H1116.53C1117.56 654.594 1118.4 655.634 1118.4 656.9C1118.4 658.166 1117.56 659.205 1116.53 659.205Z" fill="#FF7D78"/>
<path d="M1124.38 269.16V765.879C1124.38 773.547 1119.36 779.843 1113.16 780.035C1113.06 780.039 1112.97 780.039 1112.86 780.039H910.837C904.505 780.039 899.32 773.669 899.32 765.879V269.16C899.32 261.37 904.505 255 910.837 255H1112.86C1119.2 255 1124.38 261.37 1124.38 269.16Z" fill="#F24B46"/>
<path d="M1136.28 269.16V765.884C1136.28 773.665 1131.09 780.039 1124.76 780.039H922.734C916.398 780.039 911.22 773.669 911.22 765.884V269.16C911.22 261.37 916.398 255 922.734 255H1124.76C1131.09 255 1136.28 261.37 1136.28 269.16Z" fill="#F9795A"/>
<path d="M1056.73 274.876H998.225C996.971 274.876 995.948 273.618 995.948 272.077C995.948 270.535 996.971 269.278 998.225 269.278H1056.73C1057.98 269.278 1059.01 270.535 1059.01 272.077C1059.01 273.614 1057.98 274.876 1056.73 274.876Z" fill="#F24B46"/>
<path d="M987.834 274.876C986.584 274.876 985.557 273.618 985.557 272.077C985.557 270.535 986.58 269.278 987.834 269.278C989.087 269.278 990.11 270.535 990.11 272.077C990.11 273.614 989.087 274.876 987.834 274.876Z" fill="#F24B46"/>
<path d="M1041.22 751.025C1041.22 755.981 1039.59 760.47 1036.96 763.731C1034.3 767.032 1030.61 769.076 1026.53 769.076C1018.42 769.076 1011.85 760.994 1011.85 751.025C1011.85 744.615 1014.57 738.992 1018.66 735.791C1020.94 734.01 1023.64 732.979 1026.53 732.979C1034.64 732.979 1041.22 741.057 1041.22 751.025Z" fill="url(#paint4_linear_26_1001)"/>
<path d="M1124.27 287.341H924.694V724.102H1124.27V287.341Z" fill="#242E6C"/>
<path d="M1036.96 763.736C1034.3 767.036 1030.61 769.08 1026.53 769.08C1018.42 769.08 1011.85 760.998 1011.85 751.029C1011.85 744.62 1014.57 738.996 1018.66 735.795C1020.1 743.476 1024.37 756.33 1036.96 763.736Z" fill="#F24B46"/>
<path d="M1124.38 322.713V494.533H934.297C932.17 494.533 930.426 492.258 930.426 489.477V327.778C930.426 324.992 932.17 322.713 934.297 322.713H1124.38Z" fill="#B1C9F6"/>
<path d="M1070.17 529.084V690.783C1070.17 693.564 1068.59 695.839 1066.67 695.839H924.694V524.019H1066.67C1068.59 524.019 1070.17 526.294 1070.17 529.084Z" fill="#B1C9F6"/>
<path d="M1211.72 313.491V475.19C1211.72 477.967 1209.87 480.246 1207.6 480.246H941.261C938.999 480.246 937.149 477.972 937.149 475.19V313.491C937.149 310.701 938.999 308.426 941.261 308.426H1207.6C1209.87 308.426 1211.72 310.701 1211.72 313.491Z" fill="#EFECEA"/>
<path d="M1031.35 415.551C1047.61 415.551 1060.8 408.191 1060.8 399.112C1060.8 390.034 1047.61 382.674 1031.35 382.674C1015.08 382.674 1001.89 390.034 1001.89 399.112C1001.89 408.191 1015.08 415.551 1031.35 415.551Z" fill="#D8DEE8"/>
<path opacity="0.3" d="M1031.35 409.03C1044.34 409.03 1054.87 404.377 1054.87 398.637C1054.87 392.897 1044.34 388.244 1031.35 388.244C1018.35 388.244 1007.82 392.897 1007.82 398.637C1007.82 404.377 1018.35 409.03 1031.35 409.03Z" fill="#D8DEE8"/>
<path d="M1031.35 409.031C1044.76 409.031 1055.63 400.697 1055.63 390.417C1055.63 380.137 1044.76 371.804 1031.35 371.804C1017.94 371.804 1007.06 380.137 1007.06 390.417C1007.06 400.697 1017.94 409.031 1031.35 409.031Z" fill="#AABBCC"/>
<path d="M1031.35 404.683C1044.76 404.683 1055.63 397.324 1055.63 388.245C1055.63 379.166 1044.76 371.806 1031.35 371.806C1017.94 371.806 1007.06 379.166 1007.06 388.245C1007.06 397.324 1017.94 404.683 1031.35 404.683Z" fill="url(#paint5_linear_26_1001)"/>
<path d="M1023.62 387.856C1023.95 387.419 1023.72 385.007 1023.08 383.238C1022.17 380.73 1020.4 379.403 1019.98 379.109C1019.53 378.789 1019.12 378.609 1018.77 377.828C1018.27 376.703 1018.26 375.167 1018.06 375.185C1017.91 375.199 1017.96 376.05 1017.67 376.387C1017.26 376.852 1016.71 375.731 1016.3 376.252C1016.12 376.478 1016.07 376.886 1016.06 376.928C1015.97 377.647 1016.32 378.154 1016.22 378.502C1016.11 378.884 1015.66 378.368 1015.28 378.767C1014.86 379.211 1014.63 380.686 1014.86 381.643C1015.14 382.801 1015.98 382.712 1016.03 383.558C1016.07 384.184 1015.62 384.431 1015.58 385.106C1015.53 386.125 1016.45 387.547 1017.47 388.02C1019.52 388.98 1020.76 385.498 1022.52 386.932C1023.09 387.401 1023.41 388.141 1023.62 387.856Z" fill="url(#paint6_linear_26_1001)"/>
<path d="M1021.64 385.558C1020.72 385.321 1020.36 386.87 1018.94 387.151C1017.75 387.385 1016.5 386.607 1016.41 385.595C1016.35 384.939 1016.82 384.64 1016.79 383.778C1016.74 382.502 1015.67 382.094 1015.72 381.217C1015.76 380.438 1016.62 380.484 1016.83 379.294C1016.99 378.393 1016.62 377.685 1016.82 377.262C1017.06 376.745 1017.67 377.678 1018.16 377.208C1018.27 377.102 1018.36 376.939 1018.43 376.736C1018.51 377.1 1018.62 377.483 1018.77 377.827C1019.12 378.608 1019.53 378.788 1019.98 379.108C1020.4 379.402 1022.17 380.729 1023.08 383.237C1023.72 385.006 1023.95 387.418 1023.62 387.854C1023.5 388.021 1023.34 387.836 1023.11 387.56C1022.55 386.114 1022.04 385.663 1021.64 385.558Z" fill="url(#paint7_linear_26_1001)"/>
<path d="M1023.69 389.322C1024.19 388.802 1025.47 387.287 1025.99 384.323C1026.82 379.49 1025.09 373.835 1023.87 373.69C1023.46 373.641 1023.11 374.221 1022.38 373.93C1021.88 373.731 1021.81 373.365 1021.31 373.274C1020.85 373.191 1020.16 373.358 1020 374.095C1019.88 374.606 1020.08 375.089 1019.95 375.342C1019.78 375.643 1019.44 375.036 1019.17 375.226C1018.77 375.503 1018.5 377.482 1018.79 378.956C1019.29 381.54 1021.13 380.807 1022.49 383.562C1023.35 385.281 1023.61 387.551 1023.69 389.322Z" fill="url(#paint8_linear_26_1001)"/>
<path d="M1023.95 388.466C1023.95 388.466 1025.14 384.612 1024.57 380.651C1023.99 376.69 1023.42 377.226 1023.15 376.983C1022.88 376.739 1023.47 378.441 1023.76 379.748C1024.04 381.056 1024.7 382.223 1023.95 388.466Z" fill="url(#paint9_linear_26_1001)"/>
<path opacity="0.3" d="M1019.17 375.226C1019.44 375.037 1019.78 375.643 1019.95 375.342C1020.08 375.089 1019.88 374.606 1020 374.095C1020.16 373.358 1020.85 373.191 1021.31 373.274C1021.81 373.365 1021.88 373.73 1022.38 373.93C1023.11 374.22 1023.46 373.641 1023.87 373.69C1025.07 373.832 1026.76 379.283 1026.03 384.056C1026.16 382.234 1026.12 380.048 1025.6 377.996C1025.5 377.588 1024.74 374.62 1023.85 374.729C1023.4 374.785 1023.27 375.612 1022.76 375.612C1022.02 375.612 1021.72 373.893 1021.25 374.133C1020.8 374.362 1020.9 376.001 1020.34 376.413C1019.94 376.706 1019.68 376.034 1019.34 376.233C1019.1 376.379 1018.86 376.974 1018.73 378.623C1018.54 377.2 1018.8 375.483 1019.17 375.226Z" fill="url(#paint10_linear_26_1001)"/>
<path d="M1037.61 385.245C1037.61 385.245 1024.02 378.447 1020.49 382.673C1016.95 386.898 1016.86 396.195 1023.9 396.414C1030.94 396.633 1039.52 394.09 1039.52 394.09V390.416L1037.61 385.245Z" fill="url(#paint11_linear_26_1001)"/>
<path d="M1037.61 381.571C1037.61 381.571 1024.02 378.447 1020.49 382.672C1016.95 386.898 1016.86 392.521 1023.9 392.74C1030.94 392.96 1039.52 390.416 1039.52 390.416L1037.61 381.571Z" fill="url(#paint12_linear_26_1001)"/>
<g opacity="0.5">
<path opacity="0.5" d="M1025.56 382.803C1025.39 382.561 1025.16 382.631 1025.03 382.957L1022.82 388.864C1022.69 389.19 1022.73 389.65 1022.89 389.891C1023.06 390.133 1023.29 390.063 1023.42 389.737L1025.63 383.83C1025.76 383.504 1025.72 383.045 1025.56 382.803Z" fill="url(#paint13_linear_26_1001)"/>
<path opacity="0.5" d="M1028.73 382.435C1028.56 382.194 1028.33 382.263 1028.21 382.589L1025.99 388.496C1025.86 388.822 1025.9 389.283 1026.07 389.523C1026.23 389.765 1026.46 389.696 1026.59 389.37L1028.81 383.463C1028.93 383.137 1028.89 382.677 1028.73 382.435Z" fill="url(#paint14_linear_26_1001)"/>
<path opacity="0.5" d="M1031.9 382.068C1031.73 381.827 1031.5 381.896 1031.38 382.222L1029.16 388.129C1029.04 388.455 1029.07 388.916 1029.24 389.157C1029.4 389.398 1029.64 389.329 1029.76 389.003L1031.98 383.096C1032.1 382.77 1032.06 382.31 1031.9 382.068Z" fill="url(#paint15_linear_26_1001)"/>
<path opacity="0.5" d="M1035.07 381.701C1034.9 381.459 1034.67 381.529 1034.55 381.855L1032.33 387.762C1032.21 388.088 1032.24 388.548 1032.41 388.789C1032.57 389.031 1032.81 388.961 1032.93 388.635L1035.15 382.728C1035.27 382.402 1035.23 381.942 1035.07 381.701Z" fill="url(#paint16_linear_26_1001)"/>
</g>
<path d="M1211.72 313.491V475.19C1211.72 477.972 1209.57 480.246 1206.93 480.246H1074.43V308.426H1206.93C1209.57 308.426 1211.72 310.701 1211.72 313.491Z" fill="#FFD4D2"/>
<path d="M1152.98 330.791H1103.12C1102.3 330.791 1101.63 329.966 1101.63 328.957C1101.63 327.948 1102.3 327.123 1103.12 327.123H1152.98C1153.8 327.123 1154.47 327.948 1154.47 328.957C1154.47 329.961 1153.8 330.791 1152.98 330.791Z" fill="#FD8857"/>
<path d="M1152.98 337.86H1103.12C1102.3 337.86 1101.63 337.035 1101.63 336.026C1101.63 335.018 1102.3 334.192 1103.12 334.192H1152.98C1153.8 334.192 1154.47 335.018 1154.47 336.026C1154.47 337.035 1153.8 337.86 1152.98 337.86Z" fill="#FD8857"/>
<path d="M1094.28 331.184H1092.62C1091.75 331.184 1091.05 330.315 1091.05 329.254V328.647C1091.05 327.586 1091.75 326.717 1092.62 326.717H1094.28C1095.14 326.717 1095.85 327.586 1095.85 328.647V329.254C1095.85 330.315 1095.14 331.184 1094.28 331.184Z" fill="#FD8857"/>
<path d="M1152.98 356.823H1103.12C1102.3 356.823 1101.63 355.998 1101.63 354.989C1101.63 353.98 1102.3 353.155 1103.12 353.155H1152.98C1153.8 353.155 1154.47 353.98 1154.47 354.989C1154.47 355.998 1153.8 356.823 1152.98 356.823Z" fill="#FD8857"/>
<path d="M1152.98 363.896H1103.12C1102.3 363.896 1101.63 363.071 1101.63 362.063C1101.63 361.054 1102.3 360.229 1103.12 360.229H1152.98C1153.8 360.229 1154.47 361.054 1154.47 362.063C1154.47 363.071 1153.8 363.896 1152.98 363.896Z" fill="#FD8857"/>
<path d="M1094.28 357.22H1092.62C1091.75 357.22 1091.05 356.351 1091.05 355.29V354.683C1091.05 353.622 1091.75 352.754 1092.62 352.754H1094.28C1095.14 352.754 1095.85 353.622 1095.85 354.683V355.29C1095.85 356.351 1095.14 357.22 1094.28 357.22Z" fill="#FD8857"/>
<path d="M1152.98 382.571H1103.12C1102.3 382.571 1101.63 381.746 1101.63 380.738C1101.63 379.729 1102.3 378.904 1103.12 378.904H1152.98C1153.8 378.904 1154.47 379.729 1154.47 380.738C1154.47 381.746 1153.8 382.571 1152.98 382.571Z" fill="#FD8857"/>
<path d="M1152.98 389.641H1103.12C1102.3 389.641 1101.63 388.815 1101.63 387.807C1101.63 386.798 1102.3 385.973 1103.12 385.973H1152.98C1153.8 385.973 1154.47 386.798 1154.47 387.807C1154.47 388.815 1153.8 389.641 1152.98 389.641Z" fill="#FD8857"/>
<path d="M1094.28 382.964H1092.62C1091.75 382.964 1091.05 382.095 1091.05 381.034V380.428C1091.05 379.366 1091.75 378.498 1092.62 378.498H1094.28C1095.14 378.498 1095.85 379.366 1095.85 380.428V381.034C1095.85 382.1 1095.14 382.964 1094.28 382.964Z" fill="#FD8857"/>
<path d="M1080.2 512.081V673.78C1080.2 676.566 1078.35 678.841 1076.09 678.841H809.755C807.486 678.841 805.635 676.566 805.635 673.78V512.081C805.635 509.3 807.486 507.025 809.755 507.025H1076.09C1078.35 507.025 1080.2 509.304 1080.2 512.081Z" fill="#FD8857"/>
<path d="M1080.2 512.081V673.78C1080.2 676.566 1078.35 678.845 1076.09 678.845H957.633V507.025H1076.09C1078.35 507.025 1080.2 509.3 1080.2 512.081Z" fill="#EFECEA"/>
<path d="M841.373 535.075C833.215 535.075 826.603 543.205 826.603 553.234C826.603 563.264 833.215 571.394 841.373 571.394C849.53 571.394 856.143 563.264 856.143 553.234C856.143 543.2 849.53 535.075 841.373 535.075ZM851.6 553.811H841.373C841.113 553.811 840.9 553.553 840.9 553.23V539.707C840.9 539.388 841.11 539.127 841.373 539.127C841.632 539.127 841.845 539.384 841.845 539.707V552.649H851.604C851.863 552.649 852.076 552.907 852.076 553.23C852.073 553.549 851.863 553.811 851.6 553.811Z" fill="#EFECEA"/>
<path d="M839.899 605.351C832.558 605.351 826.606 612.669 826.606 621.694C826.606 630.719 839.899 650.791 839.899 650.791C839.899 650.791 853.192 630.724 853.192 621.694C853.192 612.669 847.239 605.351 839.899 605.351ZM839.899 629.169C836.468 629.169 833.684 625.75 833.684 621.528C833.684 617.31 836.465 613.887 839.899 613.887C843.329 613.887 846.114 617.306 846.114 621.528C846.11 625.75 843.329 629.169 839.899 629.169Z" fill="#EFECEA"/>
<path d="M914.548 615.411H866.164C864.939 615.411 863.934 614.175 863.934 612.669C863.934 611.158 864.939 609.927 866.164 609.927H914.548C915.773 609.927 916.778 611.162 916.778 612.669C916.782 614.18 915.777 615.411 914.548 615.411Z" fill="#242E6C"/>
<path d="M901.983 625.916H865.866C864.804 625.916 863.938 624.851 863.938 623.545V622.803C863.938 621.498 864.804 620.432 865.866 620.432H901.983C903.045 620.432 903.912 621.498 903.912 622.803V623.545C903.908 624.847 903.042 625.916 901.983 625.916Z" fill="#242E6C"/>
<path d="M914.548 550.723H866.164C864.939 550.723 863.934 549.488 863.934 547.981C863.934 546.471 864.939 545.239 866.164 545.239H914.548C915.773 545.239 916.778 546.475 916.778 547.981C916.782 549.488 915.777 550.723 914.548 550.723Z" fill="#242E6C"/>
<path d="M901.983 561.225H865.866C864.804 561.225 863.938 560.159 863.938 558.854V558.111C863.938 556.806 864.804 555.74 865.866 555.74H901.983C903.045 555.74 903.912 556.806 903.912 558.111V558.854C903.908 560.159 903.042 561.225 901.983 561.225Z" fill="#242E6C"/>
<path d="M1080.2 584.458V556.614L1031.94 532.158L957.633 550.951V588.567L999.795 609.708L999.844 609.735L1080.2 584.471V584.458Z" fill="#C643DB"/>
<path d="M999.72 609.735V626.327L957.633 603.862V588.602L999.72 609.735Z" fill="#6615B2"/>
<path d="M1080.2 584.458L999.795 609.708L999.72 609.735V626.327L1080.2 599.308V584.471V584.458Z" fill="#7F22BA"/>
<path d="M1182.71 371.341C1182.44 371.136 1182.06 370.87 1181.6 370.564L1174.39 363.329C1174.39 363.329 1173.47 363.971 1174.39 365.198C1174.51 365.355 1174.67 365.56 1174.85 365.796L1172.1 363.154C1172.1 363.154 1171.62 363.752 1171.93 364.7C1172.16 365.381 1174.74 368.088 1176.19 369.573C1175.32 369.058 1174.09 367.918 1172.25 365.647C1171.1 364.233 1171.47 366.364 1171.65 367.298C1171.96 368.948 1175.54 374.524 1176.8 377.031C1178.05 379.541 1178.69 382.017 1177.81 380.934C1176.92 379.851 1172.14 376.227 1171.64 377.031C1171.13 377.838 1174.03 380.934 1175.41 383.41C1176.8 385.885 1178.31 390.064 1183.22 390.994C1188.13 391.924 1188.97 388.872 1188.97 388.872C1188.97 388.872 1184.98 373.044 1182.71 371.341Z" fill="#FF9792"/>
<path d="M1334.46 522.168C1334.46 522.168 1333.26 536.467 1331.95 539.175C1330.63 541.877 1324.53 549.737 1322.67 552.221C1322.54 552.391 1321.33 551.073 1322.24 549.169C1325.95 541.489 1324.91 543.331 1323.63 538.284C1323 535.786 1322.6 542.973 1321.56 543.139C1320.51 543.309 1320.88 535.564 1320.84 533.21C1320.8 530.852 1326.1 529.748 1326.73 521.251C1327.13 515.784 1334.46 522.168 1334.46 522.168Z" fill="#FF9792"/>
<path d="M1297.98 375.446C1297.98 375.446 1288.31 433.806 1235.09 452.874C1218.48 458.825 1180.74 391.579 1180.74 391.579C1180.74 391.579 1182.06 385.379 1190.37 386.802C1190.37 386.802 1227.12 416.716 1231.75 419.965C1235.86 422.847 1262.85 382.899 1275.16 376.459C1287.47 370.014 1297.98 375.446 1297.98 375.446Z" fill="#1B2251"/>
<path d="M1361.52 742.319C1361.52 742.319 1368.12 749.728 1366.83 754.99C1365.54 760.256 1359.58 763.762 1358.78 770.198C1357.98 776.629 1354.75 780.14 1351.86 780.14C1348.96 780.14 1338.04 780.14 1338.04 780.14C1338.04 780.14 1335.9 775.612 1341.06 774.25C1346.21 772.883 1348.15 765.325 1347.83 758.308C1347.51 751.292 1348.31 741.934 1348.31 741.934L1359.26 738.817L1361.52 742.319Z" fill="#1B2251"/>
<path d="M1280.52 761.482C1280.52 761.482 1281.71 778.341 1278.81 780.096L1241.72 780.004C1241.72 780.004 1241.72 774.739 1247.67 773.573C1253.63 772.403 1264.1 768.115 1265.87 758.561C1267.64 749.003 1280.52 761.482 1280.52 761.482Z" fill="#1B2251"/>
<path d="M1249.21 523.329C1249.21 523.329 1251.16 552.881 1253.46 588.405C1256.59 636.662 1260.35 695.935 1260.72 707.165C1261.36 726.665 1263.94 757.854 1263.94 757.854C1263.94 757.854 1270.05 765.264 1282.29 762.142C1282.29 762.142 1293.2 717.618 1296.32 670.51C1296.37 669.737 1296.41 668.96 1296.46 668.182C1299.36 620.227 1303.87 519.238 1303.87 519.238L1249.21 523.329Z" fill="#F9795A"/>
<path d="M1249.21 523.329C1249.21 523.329 1251.16 552.881 1253.46 588.405L1296.32 670.505C1296.37 669.733 1296.42 668.955 1296.47 668.178C1299.36 620.223 1303.87 519.233 1303.87 519.233L1249.21 523.329Z" fill="#F24B46"/>
<path d="M1258.14 526.84C1258.14 526.84 1293.41 633.867 1316.6 684.163C1339.78 734.459 1347.03 748.497 1347.03 748.497C1347.03 748.497 1360.32 742.065 1361.52 737.677C1361.52 737.677 1352.66 640.578 1337.13 616.909C1328.35 603.534 1318.04 563.395 1317.56 549.357C1317.08 535.319 1314.42 507.54 1314.42 507.54L1258.14 526.84Z" fill="#F9795A"/>
<path d="M1304.54 361.901C1304.54 361.901 1280.68 376.057 1266.92 370.804C1266.92 370.804 1270.3 365.551 1276.23 361.644C1275.76 358.247 1275.39 355.304 1275.17 352.806C1274.59 347.042 1274.59 343.776 1274.59 343.776L1283.8 334.873L1292.52 326.355C1291.84 350.309 1304.54 361.901 1304.54 361.901Z" fill="#FF9792"/>
<path d="M1317.11 513.02C1317.17 514.819 1314.05 516.867 1312.67 517.631C1302.46 523.141 1292.94 526.984 1282.14 528.263C1269.39 529.866 1254.31 526.342 1249.12 526.473C1248.59 526.473 1248.12 526.215 1247.7 525.765C1247.33 525.447 1247.06 506.549 1247.33 482.788C1247.33 481.831 1247.33 480.871 1247.38 479.91V479.591C1247.49 470.304 1247.75 460.567 1248.12 450.83C1248.86 429.44 1250.24 408.813 1252.57 397.413C1255.37 383.96 1261.72 375.061 1267.49 368.586L1272.25 363.464C1277.01 364.617 1282.03 364.294 1287.06 361.285C1292.56 358.019 1298.49 354.496 1299.44 355.391C1306.64 361.857 1311.51 376.397 1314.1 394.976C1314.11 395.068 1314.13 395.16 1314.14 395.251C1315.59 405.875 1316.32 417.76 1316.27 430.204C1316.27 434.819 1316.16 439.556 1315.95 444.233C1314.89 465.414 1315.6 484.272 1316.3 497.341C1316.43 499.921 1316.57 502.275 1316.7 504.379C1316.9 508.091 1317.06 510.972 1317.11 513.02Z" fill="#242E6C"/>
<path d="M1316.29 497.336C1276.74 441.19 1301.28 400.382 1301.28 400.382L1314.14 395.251C1315.59 405.875 1316.32 417.76 1316.27 430.204C1316.27 434.819 1316.16 439.557 1315.95 444.233C1314.89 465.41 1315.6 484.268 1316.29 497.336Z" fill="#1B2251"/>
<path d="M1292.69 335.515C1292.69 335.515 1286.66 349.029 1275.18 352.81C1274.59 347.047 1274.59 343.781 1274.59 343.781L1283.8 334.878L1292.69 335.515Z" fill="#FF9490"/>
<path d="M1270.4 343.384C1270.4 343.384 1293.16 347.959 1295.29 330.756C1297.43 313.553 1301.81 302.554 1287.36 298.904C1272.92 295.253 1269.27 301.305 1267.41 306.837C1265.54 312.369 1264.53 341.751 1270.4 343.384Z" fill="#FF9792"/>
<path d="M1303.57 296.847C1303.78 296.554 1304.25 296.319 1305.31 296.249C1305.31 296.249 1304.46 295.598 1303.33 295.563C1303.11 293.751 1302.33 290.542 1299.79 289.76C1299.79 289.76 1301.15 290.656 1301.33 292.581C1298.39 288.87 1292.09 286.167 1274.64 287.861C1251.65 290.092 1259.23 308.191 1262.21 310.348C1265.18 312.505 1272.68 306.588 1278.22 307.13C1283.77 307.671 1284.82 317.522 1286.7 318.875C1288.58 320.229 1287.84 317.836 1290.39 316.421C1292.93 315.007 1293.17 320.194 1292.44 323.565C1291.7 326.935 1295.2 331.385 1295.2 331.385C1295.2 331.385 1295.2 331.385 1298.74 326.704C1302.27 322.023 1305.6 302.2 1304 297.978C1303.85 297.602 1303.71 297.227 1303.57 296.847Z" fill="#1B2251"/>
<path d="M1299.43 355.247C1299.43 355.247 1313.84 363.63 1320.74 376.524C1331.45 396.522 1343.87 469.396 1344.1 476.142C1344.33 482.892 1335.03 530.534 1335.03 530.534C1335.03 530.534 1325.61 529.769 1323.18 523.923C1323.18 523.923 1325.06 474.972 1323.87 471.824C1322.68 468.676 1284.58 406.163 1288.87 392.819C1293.15 379.48 1299.43 355.247 1299.43 355.247Z" fill="#242E6C"/>
<path d="M1331.95 539.175L1325.13 553.195C1325.13 553.195 1324.32 552.771 1324.44 551.771C1324.57 550.772 1326.55 543.178 1326.55 543.178L1331.95 539.175Z" fill="#FF9792"/>
<path d="M1325.12 539.581C1325.12 539.581 1320.2 546.471 1321.29 548.03L1324.84 544.654L1325.12 539.581Z" fill="#FF9792"/>
<path d="M973.779 419.225C966.716 420.781 960.304 422.056 955.806 426.583C951.666 430.754 949.132 436.367 949.132 442.536C949.132 449.392 951.888 456.734 957.255 459.829C961.766 462.428 968.864 467.765 973.779 465.842C979.944 463.433 985.42 463.762 989.72 460.31L987.727 458.084L973.807 442.536L996.231 444.427L998.333 444.605C998.397 443.925 998.428 443.233 998.428 442.536C998.428 435.935 995.524 429.97 990.861 425.73C986.427 421.705 980.392 417.772 973.779 419.225Z" fill="#EFECEA"/>
<path d="M996.227 444.432L973.803 442.542L987.723 458.09C986.342 459.046 984.83 459.862 983.215 460.515C980.35 461.671 977.036 460.883 973.803 462.32C968.444 464.707 963.501 459.229 959.534 457.846C955.262 456.355 950.789 448.527 951.277 442.542C951.782 436.324 954.676 429.117 959.862 426.999C963.759 425.411 968.9 421.732 974.164 421.732C978.435 421.732 982.025 424.979 985.473 425.616C991.981 426.826 996.326 435.367 996.326 442.536C996.33 443.174 996.295 443.806 996.227 444.432Z" fill="#F98B5D"/>
<path d="M961.975 440.391C961.975 441.072 961.502 441.623 960.922 441.623C960.339 441.623 959.869 441.072 959.869 440.391C959.869 439.711 960.343 439.16 960.922 439.16C961.502 439.16 961.975 439.711 961.975 440.391Z" fill="white"/>
<path d="M968.38 434.471C968.38 435.151 967.907 435.702 967.327 435.702C966.744 435.702 966.275 435.151 966.275 434.471C966.275 433.79 966.748 433.239 967.327 433.239C967.91 433.239 968.38 433.79 968.38 434.471Z" fill="white"/>
<path d="M964.427 431.207C964.427 431.769 964.038 432.223 963.558 432.223C963.077 432.223 962.689 431.769 962.689 431.207C962.689 430.646 963.077 430.192 963.558 430.192C964.038 430.192 964.427 430.646 964.427 431.207Z" fill="white"/>
<path d="M972.277 428.69C972.277 429.317 971.843 429.819 971.309 429.819C970.776 429.819 970.341 429.311 970.341 428.69C970.341 428.063 970.776 427.561 971.309 427.561C971.846 427.561 972.277 428.063 972.277 428.69Z" fill="white"/>
<path d="M972.277 440.391C972.277 441.375 971.595 442.174 970.751 442.174C969.906 442.174 969.225 441.375 969.225 440.391C969.225 439.408 969.906 438.609 970.751 438.609C971.595 438.603 972.277 439.403 972.277 440.391Z" fill="white"/>
<path d="M975.595 433.871C975.595 434.552 975.121 435.103 974.542 435.103C973.959 435.103 973.489 434.552 973.489 433.871C973.489 433.19 973.962 432.639 974.542 432.639C975.121 432.639 975.595 433.196 975.595 433.871Z" fill="white"/>
<path d="M980.47 434.487C980.47 434.827 980.233 435.103 979.944 435.103C979.654 435.103 979.417 434.827 979.417 434.487C979.417 434.146 979.654 433.871 979.944 433.871C980.233 433.871 980.47 434.146 980.47 434.487Z" fill="white"/>
<path d="M978.258 429.203C978.258 429.544 978.022 429.819 977.732 429.819C977.442 429.819 977.206 429.544 977.206 429.203C977.206 428.863 977.442 428.587 977.732 428.587C978.022 428.587 978.258 428.863 978.258 429.203Z" fill="white"/>
<path d="M972.277 449.051C972.277 449.392 972.04 449.667 971.751 449.667C971.461 449.667 971.224 449.392 971.224 449.051C971.224 448.711 971.461 448.436 971.751 448.436C972.044 448.436 972.277 448.711 972.277 449.051Z" fill="white"/>
<path d="M975.884 451.855C975.884 452.196 975.648 452.471 975.358 452.471C975.068 452.471 974.831 452.196 974.831 451.855C974.831 451.515 975.068 451.239 975.358 451.239C975.651 451.239 975.884 451.515 975.884 451.855Z" fill="white"/>
<path d="M967.907 447.026C967.907 447.793 967.373 448.419 966.716 448.419C966.059 448.419 965.526 447.798 965.526 447.026C965.526 446.258 966.059 445.632 966.716 445.632C967.373 445.632 967.907 446.253 967.907 447.026Z" fill="white"/>
<path d="M961.078 447.371C961.078 447.371 960.297 446.766 959.537 447.982C959.537 447.982 960.526 449.192 961.078 447.371Z" fill="#6615B2"/>
<path d="M967.084 438.576C967.084 438.576 966.027 437.761 964.999 439.403C964.999 439.403 966.335 441.051 967.084 438.576Z" fill="#6615B2"/>
<path d="M978.481 433.892C978.481 433.892 977.389 433.903 976.527 436.27C976.527 436.27 977.958 436.853 978.481 433.892Z" fill="#6615B2"/>
<path d="M983.547 435.67C983.547 435.67 982.622 433.898 981.481 434.503C981.477 434.503 982.586 437.323 983.547 435.67Z" fill="#6615B2"/>
<path d="M975.432 440.721C975.432 440.721 974.916 438.387 973.969 437.652C973.969 437.652 974.506 440.986 975.432 440.721Z" fill="#6615B2"/>
<path d="M973.641 444.038C973.641 444.038 972.722 443.838 971.949 445.67C971.949 445.67 973.139 446.431 973.641 444.038Z" fill="#6615B2"/>
<path d="M974.506 454.486C974.506 454.486 973.75 452.871 972.779 453.233C972.779 453.227 973.673 455.75 974.506 454.486Z" fill="#6615B2"/>
<path d="M975.842 447.479C975.842 447.479 974.92 447.371 974.167 449.273C974.167 449.273 975.369 449.921 975.842 447.479Z" fill="#6615B2"/>
<path d="M971.631 434.568C971.631 434.568 970.733 433.936 969.875 435.378C969.875 435.378 971.012 436.696 971.631 434.568Z" fill="#6615B2"/>
<path d="M969.327 431.505C969.327 431.505 968.638 429.63 967.659 429.63C967.659 429.635 968.451 432.461 969.327 431.505Z" fill="#6615B2"/>
<path d="M962.501 448.911C961.466 449.716 960.947 451.337 961.346 452.52C961.646 453.411 962.314 453.222 963.067 452.73L963.448 453.86C963.501 454.016 963.657 454.054 963.791 453.951L964.526 453.384C964.664 453.276 964.731 453.065 964.678 452.909L964.296 451.785C964.989 451.164 965.42 450.521 965.109 449.603C964.713 448.419 963.537 448.111 962.501 448.911Z" fill="#DFDCF7"/>
<path d="M982.166 428.247C983.01 428.901 983.434 430.224 983.106 431.186C982.859 431.91 982.318 431.759 981.703 431.359L981.392 432.277C981.35 432.407 981.223 432.439 981.113 432.353L980.516 431.888C980.403 431.802 980.35 431.629 980.392 431.499L980.703 430.586C980.138 430.084 979.788 429.554 980.043 428.809C980.364 427.847 981.322 427.593 982.166 428.247Z" fill="#DFDCF7"/>
<path d="M970.119 443.887C970.963 444.54 971.387 445.864 971.058 446.826C970.811 447.55 970.27 447.398 969.656 446.999L969.345 447.917C969.302 448.047 969.175 448.079 969.066 447.993L968.469 447.528C968.359 447.442 968.303 447.269 968.345 447.139L968.656 446.226C968.091 445.724 967.741 445.194 967.995 444.449C968.317 443.487 969.274 443.233 970.119 443.887Z" fill="#DFDCF7"/>
<path d="M962.978 433.887C962.134 434.541 961.71 435.864 962.038 436.826C962.286 437.55 962.826 437.399 963.441 436.999L963.752 437.917C963.794 438.047 963.922 438.079 964.031 437.993L964.628 437.528C964.738 437.442 964.794 437.269 964.752 437.139L964.441 436.226C965.006 435.724 965.356 435.194 965.102 434.449C964.78 433.482 963.823 433.233 962.978 433.887Z" fill="#DFDCF7"/>
<path d="M999.729 442.471L980.375 440.84L977.732 438.592V440.618L992.836 457.49C997.397 453.827 1000.45 448.544 1001.01 442.579V440.553L999.729 442.471Z" fill="#EFECEA"/>
<path d="M1001.01 440.554C1000.46 446.512 997.397 451.801 992.839 455.464L985.992 447.814L984.568 446.221L977.736 438.587L1001.01 440.554Z" fill="#F9795A"/>
<path d="M985.476 442.228C985.476 442.909 985.003 443.46 984.424 443.46C983.841 443.46 983.371 442.909 983.371 442.228C983.371 441.548 983.841 440.997 984.424 440.997C985.007 440.997 985.476 441.548 985.476 442.228Z" fill="white"/>
<path d="M986.589 446.701C986.589 447.193 986.346 447.614 985.992 447.814L984.569 446.221C984.728 445.778 985.102 445.47 985.54 445.47C986.12 445.475 986.589 446.026 986.589 446.701Z" fill="white"/>
<path d="M990.355 446.982C990.355 447.323 990.119 447.598 989.829 447.598C989.539 447.598 989.303 447.323 989.303 446.982C989.303 446.642 989.539 446.366 989.829 446.366C990.122 446.366 990.355 446.642 990.355 446.982Z" fill="white"/>
<path d="M993.182 443.46C993.182 443.8 992.945 444.076 992.655 444.076C992.366 444.076 992.129 443.8 992.129 443.46C992.129 443.12 992.366 442.844 992.655 442.844C992.949 442.844 993.182 443.12 993.182 443.46Z" fill="white"/>
<path d="M987.833 442.536C987.833 442.877 987.596 443.152 987.307 443.152C987.017 443.152 986.78 442.877 986.78 442.536C986.78 442.196 987.017 441.92 987.307 441.92C987.596 441.92 987.833 442.196 987.833 442.536Z" fill="white"/>
<path d="M990.529 441.45C990.529 442.012 990.14 442.466 989.66 442.466C989.179 442.466 988.79 442.012 988.79 441.45C988.79 440.889 989.179 440.435 989.66 440.435C990.14 440.435 990.529 440.889 990.529 441.45Z" fill="white"/>
<path d="M989.663 444.746C989.663 445.124 989.402 445.432 989.077 445.432C988.752 445.432 988.49 445.124 988.49 444.746C988.49 444.368 988.752 444.06 989.077 444.06C989.398 444.06 989.663 444.368 989.663 444.746Z" fill="white"/>
<path d="M981.958 440.997C981.958 441.245 981.784 441.45 981.572 441.45C981.36 441.45 981.184 441.251 981.184 440.997C981.184 440.748 981.357 440.543 981.572 440.543C981.781 440.543 981.958 440.748 981.958 440.997Z" fill="white"/>
<path d="M986.423 442.617C986.423 442.617 985.667 442.623 985.067 444.27C985.067 444.27 986.059 444.67 986.423 442.617Z" fill="#6615B2"/>
<path d="M995.153 444.173C995.153 444.173 994.577 442.671 993.772 442.736C993.772 442.736 994.44 445.011 995.153 444.173Z" fill="#6615B2"/>
<path d="M988.268 446.696C988.268 446.696 987.674 445.254 986.872 445.399C986.872 445.394 987.564 447.604 988.268 446.696Z" fill="#6615B2"/>
<path d="M992.836 448.155C992.836 448.155 992.083 447.868 991.423 449.273C991.423 449.273 992.391 450.051 992.836 448.155Z" fill="#6615B2"/>
<path d="M981.23 439.614C981.23 439.614 980.576 439.171 979.954 440.24C979.954 440.24 980.785 441.175 981.23 439.614Z" fill="#6615B2"/>
<path d="M1005.96 662.384H972.428C971.675 662.384 971.06 661.629 971.06 660.703C971.06 659.777 971.675 659.022 972.428 659.022H1005.96C1006.71 659.022 1007.32 659.777 1007.32 660.703C1007.33 661.629 1006.71 662.384 1005.96 662.384Z" fill="#FF7D78"/>
<path d="M1005.96 654.503H972.428C971.675 654.503 971.06 653.747 971.06 652.822C971.06 651.896 971.675 651.141 972.428 651.141H1005.96C1006.71 651.141 1007.32 651.896 1007.32 652.822C1007.33 653.747 1006.71 654.503 1005.96 654.503Z" fill="#FF7D78"/>
<path d="M987.418 387.702H948.492C947.668 387.702 946.997 386.877 946.997 385.864C946.997 384.851 947.668 384.025 948.492 384.025H987.418C988.238 384.025 988.913 384.851 988.913 385.864C988.91 386.872 988.238 387.702 987.418 387.702Z" fill="#242E6C"/>
<path d="M987.418 395.212H948.492C947.668 395.212 946.997 394.387 946.997 393.374C946.997 392.361 947.668 391.535 948.492 391.535H987.418C988.238 391.535 988.913 392.361 988.913 393.374C988.91 394.387 988.238 395.212 987.418 395.212Z" fill="#242E6C"/>
<path d="M987.418 402.722H948.492C947.668 402.722 946.997 401.897 946.997 400.884C946.997 399.871 947.668 399.046 948.492 399.046H987.418C988.238 399.046 988.913 399.871 988.913 400.884C988.91 401.897 988.238 402.722 987.418 402.722Z" fill="#242E6C"/>
<path d="M1053.97 334.096H1015.05C1014.22 334.096 1013.55 333.271 1013.55 332.258C1013.55 331.245 1014.22 330.42 1015.05 330.42H1053.97C1054.8 330.42 1055.47 331.245 1055.47 332.258C1055.47 333.267 1054.8 334.096 1053.97 334.096Z" fill="#242E6C"/>
<path d="M1053.97 341.606H1015.05C1014.22 341.606 1013.55 340.781 1013.55 339.768C1013.55 338.755 1014.22 337.93 1015.05 337.93H1053.97C1054.8 337.93 1055.47 338.755 1055.47 339.768C1055.47 340.777 1054.8 341.606 1053.97 341.606Z" fill="#242E6C"/>
<path d="M1053.97 349.116H1015.05C1014.22 349.116 1013.55 348.291 1013.55 347.278C1013.55 346.265 1014.22 345.44 1015.05 345.44H1053.97C1054.8 345.44 1055.47 346.265 1055.47 347.278C1055.47 348.287 1054.8 349.116 1053.97 349.116Z" fill="#242E6C"/>
<path d="M1053.97 440.674H1015.05C1014.22 440.674 1013.55 439.849 1013.55 438.836C1013.55 437.823 1014.22 436.998 1015.05 436.998H1053.97C1054.8 436.998 1055.47 437.823 1055.47 438.836C1055.47 439.845 1054.8 440.674 1053.97 440.674Z" fill="#242E6C"/>
<path d="M1053.97 448.184H1015.05C1014.22 448.184 1013.55 447.359 1013.55 446.346C1013.55 445.333 1014.22 444.508 1015.05 444.508H1053.97C1054.8 444.508 1055.47 445.333 1055.47 446.346C1055.47 447.355 1054.8 448.184 1053.97 448.184Z" fill="#242E6C"/>
<path d="M1053.97 455.695H1015.05C1014.22 455.695 1013.55 454.869 1013.55 453.856C1013.55 452.843 1014.22 452.018 1015.05 452.018H1053.97C1054.8 452.018 1055.47 452.843 1055.47 453.856C1055.47 454.865 1054.8 455.695 1053.97 455.695Z" fill="#242E6C"/>
<path d="M1160.44 446.346H1123.16C1117.03 446.346 1112.01 440.176 1112.01 432.64C1112.01 425.099 1117.03 418.93 1123.16 418.93H1160.44C1166.57 418.93 1171.59 425.099 1171.59 432.64C1171.58 440.176 1166.57 446.346 1160.44 446.346Z" fill="#FD8857"/>
<path d="M1134.67 428.693C1134.67 428.693 1141.75 440.871 1141.73 440.417C1141.71 439.963 1148.93 423.117 1148.93 423.117L1140.59 433.046L1134.67 428.693Z" fill="#EFECEA"/>
<path d="M1024.13 596.326L1000.2 603.438L992.752 599.517L1015.95 592.933L1024.13 596.326Z" fill="#FFD4D2"/>
<path d="M986.007 359.625C983.031 360.757 979.563 361.442 974.9 361.463V361.708H973.79V361.463C947.145 361.368 949.316 337.13 949.316 337.13C949.587 339.333 951.852 340.774 954.934 341.71C961.063 343.574 970.459 343.443 973.79 343.322V343.268C973.79 343.268 973.94 343.281 974.345 343.3C974.749 343.281 974.9 343.268 974.9 343.268V343.322C980.007 343.502 998.576 343.711 999.389 337.131C999.389 337.131 1000.93 353.96 986.007 359.625Z" fill="url(#paint17_linear_26_1001)"/>
<path opacity="0.6" d="M986.007 359.625C983.031 360.757 979.563 361.442 974.9 361.463V361.708H973.79V361.463C947.145 361.368 949.316 337.13 949.316 337.13C949.587 339.333 951.853 340.774 954.934 341.71C956.34 343.436 957.623 345.582 958.572 348.244C962.586 359.506 978.722 345.305 984.579 356.905C985.086 357.91 985.541 358.815 986.007 359.625Z" fill="url(#paint18_radial_26_1001)"/>
<path opacity="0.9" d="M974.788 343.585C988.435 343.585 999.498 340.675 999.498 337.085C999.498 333.495 988.435 330.585 974.788 330.585C961.14 330.585 950.077 333.495 950.077 337.085C950.077 340.675 961.14 343.585 974.788 343.585Z" fill="url(#paint19_linear_26_1001)"/>
<path d="M980.164 344.627C979.428 343.956 979.946 340.246 981.389 337.525C983.435 333.666 987.428 331.625 988.373 331.173C989.401 330.681 990.311 330.402 991.095 329.202C992.227 327.471 992.256 325.108 992.709 325.136C993.048 325.157 992.929 326.468 993.593 326.984C994.512 327.699 995.736 325.975 996.666 326.777C997.068 327.123 997.196 327.751 997.208 327.817C997.421 328.923 996.636 329.704 996.861 330.238C997.11 330.826 998.125 330.033 998.975 330.646C999.921 331.328 1000.45 333.598 999.925 335.07C999.294 336.852 997.395 336.715 997.284 338.016C997.202 338.979 998.217 339.36 998.295 340.397C998.414 341.964 996.328 344.152 994.043 344.881C989.411 346.358 986.618 341.001 982.657 343.208C981.364 343.928 980.646 345.065 980.164 344.627Z" fill="url(#paint20_linear_26_1001)"/>
<path opacity="0.3" d="M984.638 341.092C986.703 340.727 987.511 343.11 990.72 343.543C993.392 343.902 996.213 342.707 996.423 341.15C996.56 340.14 995.5 339.679 995.571 338.355C995.675 336.392 998.087 335.765 997.987 334.417C997.898 333.218 995.961 333.289 995.48 331.459C995.115 330.072 995.952 328.983 995.507 328.332C994.963 327.538 993.585 328.972 992.483 328.25C992.235 328.086 992.033 327.835 991.869 327.523C991.685 328.084 991.442 328.673 991.096 329.202C990.312 330.402 989.402 330.68 988.374 331.172C987.429 331.624 983.436 333.664 981.39 337.524C979.947 340.246 979.429 343.955 980.165 344.626C980.447 344.883 980.811 344.599 981.324 344.174C982.569 341.947 983.729 341.253 984.638 341.092Z" fill="url(#paint21_linear_26_1001)"/>
<path d="M980.014 346.882C978.885 346.082 975.992 343.75 974.833 339.192C972.944 331.757 976.853 323.059 979.604 322.835C980.533 322.759 981.311 323.652 982.957 323.206C984.087 322.899 984.241 322.336 985.375 322.197C986.405 322.07 987.96 322.327 988.336 323.459C988.597 324.245 988.138 324.989 988.448 325.377C988.82 325.841 989.58 324.907 990.2 325.199C991.106 325.625 991.704 328.669 991.063 330.937C989.939 334.912 985.778 333.784 982.704 338.023C980.787 340.667 980.194 344.157 980.014 346.882Z" fill="url(#paint22_linear_26_1001)"/>
<path opacity="0.3" d="M979.429 345.565C979.429 345.565 976.742 339.638 978.037 333.545C979.331 327.452 980.63 328.277 981.234 327.901C981.838 327.526 980.507 330.145 979.862 332.157C979.218 334.168 977.727 335.962 979.429 345.565Z" fill="url(#paint23_linear_26_1001)"/>
<path opacity="0.3" d="M990.201 325.199C989.581 324.907 988.821 325.841 988.45 325.377C988.139 324.989 988.599 324.245 988.338 323.459C987.961 322.327 986.406 322.07 985.376 322.197C984.243 322.336 984.089 322.899 982.958 323.206C981.313 323.652 980.535 322.759 979.606 322.835C976.905 323.055 973.09 331.439 974.737 338.779C974.451 335.977 974.527 332.614 975.707 329.458C975.942 328.83 977.649 324.265 979.643 324.433C980.671 324.519 980.952 325.792 982.113 325.792C983.786 325.793 984.463 323.148 985.519 323.518C986.523 323.871 986.293 326.391 987.557 327.024C988.456 327.475 989.062 326.442 989.808 326.747C990.358 326.971 990.896 327.887 991.186 330.423C991.616 328.235 991.041 325.594 990.201 325.199Z" fill="url(#paint24_linear_26_1001)"/>
<path d="M970.062 346.817C970.798 346.147 970.28 342.437 968.837 339.715C966.791 335.856 962.798 333.816 961.853 333.363C960.825 332.872 959.915 332.593 959.13 331.393C957.999 329.661 957.969 327.299 957.516 327.327C957.177 327.347 957.296 328.658 956.632 329.175C955.714 329.889 954.49 328.165 953.559 328.967C953.157 329.314 953.029 329.941 953.017 330.007C952.804 331.113 953.589 331.895 953.364 332.429C953.116 333.017 952.1 332.223 951.25 332.836C950.304 333.519 949.779 335.789 950.3 337.261C950.931 339.042 952.83 338.905 952.941 340.206C953.023 341.17 952.009 341.551 951.93 342.588C951.811 344.154 953.897 346.342 956.183 347.071C960.814 348.549 963.607 343.191 967.569 345.398C968.862 346.118 969.58 347.256 970.062 346.817Z" fill="url(#paint25_linear_26_1001)"/>
<path d="M965.588 343.282C963.523 342.918 962.715 345.301 959.506 345.733C956.833 346.093 954.013 344.897 953.803 343.341C953.666 342.33 954.725 341.869 954.655 340.545C954.551 338.582 952.139 337.955 952.239 336.607C952.328 335.408 954.265 335.479 954.746 333.649C955.111 332.262 954.274 331.173 954.719 330.522C955.262 329.728 956.641 331.162 957.743 330.44C957.991 330.277 958.193 330.026 958.357 329.713C958.541 330.274 958.784 330.863 959.13 331.392C959.914 332.592 960.824 332.871 961.852 333.362C962.797 333.814 966.79 335.855 968.836 339.714C970.279 342.436 970.797 346.146 970.061 346.816C969.779 347.073 969.415 346.789 968.902 346.365C967.656 344.137 966.496 343.443 965.588 343.282Z" fill="url(#paint26_linear_26_1001)"/>
<path d="M970.211 349.073C971.34 348.273 974.233 345.942 975.392 341.383C977.281 333.948 973.372 325.25 970.621 325.026C969.692 324.95 968.914 325.843 967.269 325.397C966.138 325.09 965.985 324.527 964.851 324.388C963.82 324.261 962.266 324.518 961.889 325.65C961.628 326.436 962.087 327.181 961.777 327.568C961.406 328.032 960.646 327.098 960.026 327.39C959.12 327.816 958.521 330.86 959.162 333.129C960.286 337.103 964.447 335.975 967.521 340.214C969.438 342.857 970.032 346.347 970.211 349.073Z" fill="url(#paint27_linear_26_1001)"/>
<path d="M970.797 347.756C970.797 347.756 973.483 341.828 972.188 335.735C970.894 329.642 969.596 330.467 968.992 330.092C968.387 329.716 969.719 332.335 970.364 334.347C971.008 336.358 972.499 338.152 970.797 347.756Z" fill="url(#paint28_linear_26_1001)"/>
<path opacity="0.3" d="M960.025 327.39C960.645 327.098 961.405 328.032 961.776 327.568C962.087 327.18 961.627 326.436 961.888 325.65C962.265 324.518 963.82 324.261 964.85 324.388C965.983 324.527 966.137 325.09 967.268 325.397C968.913 325.843 969.691 324.95 970.621 325.026C973.321 325.246 977.137 333.631 975.489 340.971C975.776 338.168 975.699 334.806 974.519 331.65C974.284 331.021 972.577 326.456 970.583 326.624C969.556 326.71 969.274 327.983 968.113 327.983C966.44 327.984 965.764 325.339 964.707 325.709C963.704 326.062 963.934 328.582 962.67 329.215C961.77 329.666 961.164 328.633 960.418 328.938C959.868 329.162 959.33 330.078 959.04 332.614C958.611 330.425 959.186 327.784 960.025 327.39Z" fill="url(#paint29_linear_26_1001)"/>
<path d="M989.398 324.118C992.369 327.69 992.5 334.007 989.689 338.231C986.879 342.454 982.192 342.982 979.221 339.412L989.398 324.118Z" fill="url(#paint30_linear_26_1001)"/>
<path opacity="0.5" d="M989.398 324.118C992.022 327.273 991.871 333.253 989.06 337.476C986.25 341.699 981.844 342.565 979.219 339.411L989.398 324.118Z" fill="url(#paint31_linear_26_1001)"/>
<path d="M988.791 325.03C991.032 327.724 990.961 333.044 988.495 336.75C986.029 340.455 982.102 341.142 979.861 338.448L988.791 325.03Z" fill="url(#paint32_linear_26_1001)"/>
<path d="M985.45 330.684L984.703 331.807L988.141 335.938C988.953 334.643 989.41 333.267 989.634 331.897L985.45 330.684Z" fill="url(#paint33_linear_26_1001)"/>
<path d="M984.983 338.764C985.971 338.341 986.938 337.615 987.821 336.406L984.388 332.28L983.642 333.4L984.983 338.764Z" fill="url(#paint34_linear_26_1001)"/>
<path d="M983.187 334.085L980.657 337.886C981.596 339.014 982.975 339.374 984.372 338.978L983.187 334.085Z" fill="url(#paint35_linear_26_1001)"/>
<path d="M985.906 330L989.738 331.061C989.913 329.089 989.587 327.325 988.531 326.056L985.906 330Z" fill="url(#paint36_linear_26_1001)"/>
<g opacity="0.2">
<path opacity="0.2" d="M985.45 330.684L984.703 331.807L988.141 335.938C988.953 334.643 989.41 333.267 989.634 331.897L985.45 330.684Z" fill="url(#paint37_linear_26_1001)"/>
<path opacity="0.2" d="M984.983 338.764C985.971 338.341 986.938 337.615 987.821 336.406L984.388 332.28L983.642 333.4L984.983 338.764Z" fill="url(#paint38_linear_26_1001)"/>
<path opacity="0.2" d="M983.187 334.085L980.657 337.886C981.596 339.014 982.975 339.374 984.372 338.978L983.187 334.085Z" fill="url(#paint39_linear_26_1001)"/>
<path opacity="0.2" d="M985.906 330L989.738 331.061C989.913 329.089 989.587 327.325 988.531 326.056L985.906 330Z" fill="url(#paint40_linear_26_1001)"/>
</g>
<path d="M972.679 337.694C970.473 342.155 965.838 343.23 962.327 340.094C958.815 336.958 957.758 330.8 959.963 326.339L972.679 337.694Z" fill="url(#paint41_linear_26_1001)"/>
<path opacity="0.5" d="M972.679 337.694C970.731 341.635 966.305 342.287 962.793 339.152C959.281 336.017 958.015 330.28 959.963 326.339L972.679 337.694Z" fill="url(#paint42_linear_26_1001)"/>
<path d="M971.921 337.017C970.257 340.383 966.328 341.047 963.247 338.296C960.167 335.545 959.1 330.42 960.764 327.055L971.921 337.017Z" fill="url(#paint43_linear_26_1001)"/>
<path d="M967.28 333.38L966.346 332.547L963.793 337.709C964.863 338.605 965.941 339.016 966.983 339.118L967.28 333.38Z" fill="url(#paint44_linear_26_1001)"/>
<path d="M961.262 333.911C961.714 335.166 962.387 336.348 963.404 337.351L965.953 332.196L965.021 331.364L961.262 333.911Z" fill="url(#paint45_linear_26_1001)"/>
<path d="M964.453 330.856L961.292 328.033C960.594 329.444 960.527 331.329 961.018 333.129L964.453 330.856Z" fill="url(#paint46_linear_26_1001)"/>
<path d="M967.849 333.888L967.615 339.137C969.091 339.088 970.344 338.404 971.129 336.817L967.849 333.888Z" fill="url(#paint47_linear_26_1001)"/>
<g opacity="0.2">
<path opacity="0.2" d="M967.28 333.38L966.346 332.547L963.793 337.709C964.863 338.605 965.941 339.016 966.983 339.118L967.28 333.38Z" fill="url(#paint48_linear_26_1001)"/>
<path opacity="0.2" d="M961.262 333.911C961.714 335.166 962.387 336.348 963.404 337.351L965.953 332.196L965.021 331.364L961.262 333.911Z" fill="url(#paint49_linear_26_1001)"/>
<path opacity="0.2" d="M964.453 330.856L961.292 328.033C960.594 329.444 960.527 331.329 961.018 333.129L964.453 330.856Z" fill="url(#paint50_linear_26_1001)"/>
<path opacity="0.2" d="M967.849 333.888L967.615 339.137C969.091 339.088 970.344 338.404 971.129 336.817L967.849 333.888Z" fill="url(#paint51_linear_26_1001)"/>
</g>
<path d="M984.636 349.964C985.372 349.294 984.854 345.584 983.411 342.862C981.365 339.004 977.372 336.963 976.427 336.51C975.399 336.019 974.489 335.74 973.705 334.54C972.573 332.808 972.543 330.446 972.09 330.474C971.752 330.495 971.871 331.805 971.206 332.322C970.288 333.037 969.064 331.313 968.133 332.114C967.731 332.461 967.603 333.089 967.591 333.155C967.379 334.26 968.164 335.042 967.938 335.576C967.69 336.164 966.674 335.37 965.824 335.983C964.878 336.666 964.353 338.936 964.874 340.408C965.506 342.189 967.404 342.053 967.516 343.354C967.598 344.317 966.583 344.698 966.504 345.735C966.385 347.302 968.471 349.489 970.757 350.219C975.389 351.696 978.182 346.338 982.143 348.545C983.436 349.265 984.154 350.404 984.636 349.964Z" fill="url(#paint52_linear_26_1001)"/>
<path d="M980.162 346.43C978.096 346.065 977.289 348.448 974.079 348.88C971.408 349.24 968.587 348.044 968.376 346.488C968.24 345.477 969.299 345.017 969.229 343.692C969.125 341.73 966.712 341.103 966.813 339.754C966.902 338.555 968.839 338.627 969.32 336.796C969.684 335.409 968.848 334.32 969.293 333.67C969.836 332.875 971.215 334.31 972.316 333.587C972.565 333.425 972.767 333.173 972.931 332.86C973.115 333.421 973.358 334.01 973.703 334.539C974.488 335.739 975.398 336.018 976.426 336.509C977.371 336.961 981.364 339.002 983.41 342.861C984.853 345.583 985.372 349.293 984.635 349.963C984.352 350.22 983.989 349.936 983.476 349.512C982.23 347.284 981.07 346.59 980.162 346.43Z" fill="url(#paint53_linear_26_1001)"/>
<path d="M978.359 344.989C978.042 345.754 977.61 346.456 977.063 347.061C974.304 350.118 970.329 348.84 968.186 344.205C966.819 341.249 966.252 337.944 966.522 335.386C966.674 333.934 967.095 332.721 967.791 331.949C969.717 329.815 973.69 331.096 976.668 334.806C979.053 337.782 979.641 341.897 978.359 344.989Z" fill="url(#paint54_linear_26_1001)"/>
<path d="M975.396 337.4C976.558 339.294 976.345 342.111 974.919 343.69C973.494 345.268 971.397 345.013 970.234 343.119C969.072 341.225 969.285 338.409 970.711 336.83C972.136 335.251 974.234 335.506 975.396 337.4Z" fill="url(#paint55_linear_26_1001)"/>
<path opacity="0.1" d="M978.359 344.989C978.042 345.754 977.61 346.456 977.063 347.061C974.304 350.118 970.329 348.84 968.186 344.205C966.819 341.248 966.252 337.944 966.522 335.386C966.842 337.97 967.72 341.862 970.116 342.913C970.453 343.061 970.822 343.152 971.222 343.176C972.572 343.255 973.871 343.373 975.01 343.585C976.479 343.857 977.677 344.285 978.359 344.989Z" fill="url(#paint56_linear_26_1001)"/>
<path d="M1032.97 581.682C1028.41 583.297 1023.09 584.274 1015.93 584.303V584.652H1014.23V584.303C973.34 584.167 976.672 549.616 976.672 549.616C977.088 552.755 980.564 554.811 985.292 556.144C994.698 558.802 1009.12 558.615 1014.23 558.443V558.365C1014.23 558.365 1014.46 558.383 1015.08 558.411C1015.7 558.383 1015.93 558.365 1015.93 558.365V558.443C1023.77 558.699 1052.26 558.997 1053.51 549.617C1053.51 549.617 1055.87 573.607 1032.97 581.682Z" fill="url(#paint57_linear_26_1001)"/>
<path opacity="0.6" d="M1032.97 581.682C1028.41 583.297 1023.09 584.274 1015.93 584.303V584.652H1014.23V584.303C973.34 584.167 976.672 549.616 976.672 549.616C977.088 552.755 980.565 554.811 985.293 556.144C987.45 558.605 989.419 561.664 990.876 565.459C997.034 581.513 1021.8 561.269 1030.78 577.805C1031.56 579.239 1032.26 580.527 1032.97 581.682Z" fill="url(#paint58_linear_26_1001)"/>
<path d="M1015.07 560.628C1036.43 560.628 1053.74 556.103 1053.74 550.522C1053.74 544.941 1036.43 540.416 1015.07 540.416C993.706 540.416 976.39 544.941 976.39 550.522C976.39 556.103 993.706 560.628 1015.07 560.628Z" fill="url(#paint59_linear_26_1001)"/>
<path opacity="0.9" d="M1015.76 558.818C1036.7 558.818 1053.68 554.669 1053.68 549.552C1053.68 544.434 1036.7 540.285 1015.76 540.285C994.816 540.285 977.84 544.434 977.84 549.552C977.84 554.669 994.816 558.818 1015.76 558.818Z" fill="url(#paint60_linear_26_1001)"/>
<path d="M1024.01 560.302C1022.88 559.346 1023.67 554.058 1025.89 550.178C1029.03 544.678 1035.15 541.768 1036.6 541.123C1038.18 540.423 1039.58 540.025 1040.78 538.314C1042.52 535.846 1042.56 532.478 1043.26 532.518C1043.78 532.548 1043.6 534.416 1044.62 535.152C1046.02 536.171 1047.9 533.714 1049.33 534.857C1049.95 535.35 1050.14 536.246 1050.16 536.34C1050.49 537.916 1049.28 539.03 1049.63 539.791C1050.01 540.629 1051.57 539.498 1052.87 540.372C1054.33 541.345 1055.13 544.581 1054.33 546.679C1053.36 549.218 1050.45 549.024 1050.28 550.879C1050.15 552.252 1051.71 552.795 1051.83 554.273C1052.01 556.507 1048.81 559.625 1045.3 560.665C1038.2 562.771 1033.91 555.134 1027.83 558.279C1025.85 559.306 1024.75 560.927 1024.01 560.302Z" fill="url(#paint61_linear_26_1001)"/>
<path opacity="0.3" d="M1030.87 555.264C1034.04 554.744 1035.28 558.141 1040.21 558.757C1044.31 559.27 1048.63 557.565 1048.96 555.347C1049.17 553.906 1047.54 553.249 1047.65 551.361C1047.81 548.564 1051.51 547.67 1051.36 545.747C1051.22 544.039 1048.25 544.14 1047.51 541.531C1046.95 539.554 1048.23 538.001 1047.55 537.074C1046.72 535.941 1044.6 537.986 1042.91 536.956C1042.53 536.723 1042.22 536.366 1041.97 535.92C1041.69 536.72 1041.31 537.559 1040.78 538.313C1039.58 540.024 1038.18 540.421 1036.61 541.122C1035.16 541.766 1029.03 544.675 1025.89 550.177C1023.67 554.057 1022.88 559.345 1024.01 560.301C1024.44 560.667 1025 560.263 1025.79 559.657C1027.7 556.482 1029.48 555.493 1030.87 555.264Z" fill="url(#paint62_linear_26_1001)"/>
<path d="M1023.78 563.517C1022.05 562.377 1017.61 559.053 1015.83 552.555C1012.93 541.956 1018.93 529.557 1023.15 529.237C1024.57 529.13 1025.77 530.402 1028.29 529.766C1030.03 529.329 1030.26 528.527 1032 528.327C1033.58 528.147 1035.97 528.513 1036.55 530.127C1036.95 531.248 1036.24 532.309 1036.72 532.861C1037.29 533.522 1038.46 532.191 1039.41 532.607C1040.8 533.215 1041.72 537.554 1040.73 540.788C1039.01 546.454 1032.62 544.846 1027.91 550.889C1024.96 554.657 1024.05 559.632 1023.78 563.517Z" fill="url(#paint63_linear_26_1001)"/>
<path opacity="0.3" d="M1022.88 561.64C1022.88 561.64 1018.76 553.19 1020.74 544.504C1022.73 535.818 1024.72 536.995 1025.65 536.46C1026.58 535.925 1024.53 539.657 1023.55 542.526C1022.56 545.393 1020.27 547.951 1022.88 561.64Z" fill="url(#paint64_linear_26_1001)"/>
<path opacity="0.3" d="M1039.41 532.607C1038.46 532.191 1037.29 533.522 1036.72 532.861C1036.25 532.307 1036.95 531.248 1036.55 530.127C1035.97 528.513 1033.59 528.147 1032.01 528.327C1030.27 528.527 1030.03 529.329 1028.3 529.766C1025.77 530.402 1024.58 529.13 1023.15 529.237C1019.01 529.55 1013.15 541.503 1015.68 551.967C1015.24 547.972 1015.36 543.178 1017.17 538.679C1017.53 537.783 1020.15 531.276 1023.21 531.515C1024.79 531.638 1025.22 533.453 1027 533.453C1029.57 533.454 1030.6 529.683 1032.23 530.212C1033.77 530.714 1033.41 534.307 1035.35 535.209C1036.73 535.852 1037.66 534.38 1038.81 534.814C1039.65 535.134 1040.48 536.439 1040.92 540.055C1041.58 536.935 1040.7 533.17 1039.41 532.607Z" fill="url(#paint65_linear_26_1001)"/>
<path d="M1008.51 563.425C1009.64 562.469 1008.84 557.18 1006.63 553.3C1003.49 547.8 997.359 544.891 995.909 544.246C994.332 543.545 992.936 543.147 991.732 541.437C989.995 538.968 989.95 535.601 989.255 535.64C988.735 535.67 988.917 537.538 987.898 538.275C986.489 539.294 984.611 536.836 983.183 537.979C982.566 538.473 982.37 539.368 982.351 539.462C982.025 541.038 983.229 542.152 982.883 542.913C982.503 543.752 980.944 542.62 979.64 543.494C978.188 544.467 977.382 547.703 978.182 549.802C979.151 552.341 982.064 552.146 982.235 554.001C982.361 555.374 980.804 555.917 980.683 557.395C980.501 559.629 983.702 562.747 987.209 563.787C994.316 565.893 998.602 558.256 1004.68 561.402C1006.66 562.428 1007.77 564.05 1008.51 563.425Z" fill="url(#paint66_linear_26_1001)"/>
<path d="M1001.64 558.386C998.472 557.866 997.233 561.263 992.308 561.879C988.207 562.392 983.88 560.687 983.557 558.469C983.348 557.028 984.973 556.372 984.865 554.484C984.705 551.686 981.003 550.792 981.157 548.869C981.294 547.161 984.267 547.262 985.005 544.653C985.564 542.676 984.281 541.123 984.963 540.196C985.797 539.063 987.912 541.108 989.603 540.078C989.983 539.846 990.294 539.488 990.546 539.042C990.827 539.842 991.2 540.681 991.731 541.435C992.935 543.146 994.331 543.544 995.908 544.244C997.358 544.888 1003.49 547.797 1006.62 553.299C1008.84 557.179 1009.63 562.468 1008.51 563.423C1008.07 563.79 1007.51 563.385 1006.73 562.779C1004.81 559.604 1003.03 558.615 1001.64 558.386Z" fill="url(#paint67_linear_26_1001)"/>
<path d="M1008.74 566.641C1010.47 565.501 1014.91 562.177 1016.68 555.678C1019.58 545.08 1013.59 532.68 1009.36 532.361C1007.94 532.253 1006.74 533.526 1004.22 532.889C1002.49 532.452 1002.25 531.65 1000.51 531.451C998.929 531.27 996.543 531.637 995.965 533.251C995.564 534.371 996.269 535.432 995.793 535.984C995.223 536.645 994.057 535.315 993.106 535.731C991.716 536.338 990.798 540.678 991.781 543.911C993.506 549.578 999.891 547.969 1004.61 554.012C1007.55 557.779 1008.46 562.755 1008.74 566.641Z" fill="url(#paint68_linear_26_1001)"/>
<path d="M1009.63 564.763C1009.63 564.763 1013.76 556.312 1011.77 547.626C1009.78 538.941 1007.79 540.117 1006.86 539.582C1005.94 539.047 1007.98 542.78 1008.97 545.648C1009.96 548.515 1012.25 551.073 1009.63 564.763Z" fill="url(#paint69_linear_26_1001)"/>
<path opacity="0.3" d="M993.105 535.731C994.056 535.315 995.222 536.645 995.792 535.984C996.269 535.431 995.563 534.371 995.964 533.251C996.542 531.637 998.928 531.27 1000.51 531.451C1002.25 531.65 1002.48 532.452 1004.22 532.889C1006.74 533.526 1007.94 532.253 1009.36 532.361C1013.51 532.674 1019.36 544.627 1016.83 555.09C1017.27 551.095 1017.16 546.302 1015.35 541.803C1014.99 540.907 1012.37 534.4 1009.31 534.639C1007.73 534.761 1007.3 536.576 1005.52 536.576C1002.95 536.577 1001.91 532.806 1000.29 533.335C998.749 533.838 999.103 537.43 997.163 538.333C995.783 538.975 994.853 537.503 993.708 537.938C992.864 538.257 992.039 539.562 991.594 543.178C990.935 540.057 991.817 536.293 993.105 535.731Z" fill="url(#paint70_linear_26_1001)"/>
<path d="M1038.18 531.067C1042.74 536.158 1042.94 545.164 1038.62 551.184C1034.31 557.205 1027.12 557.957 1022.56 552.868L1038.18 531.067Z" fill="url(#paint71_linear_26_1001)"/>
<path opacity="0.5" d="M1038.18 531.067C1042.2 535.563 1041.97 544.088 1037.66 550.109C1033.35 556.129 1026.59 557.363 1022.56 552.867L1038.18 531.067Z" fill="url(#paint72_linear_26_1001)"/>
<path d="M1037.25 532.367C1040.68 536.207 1040.58 543.791 1036.79 549.074C1033.01 554.355 1026.98 555.334 1023.54 551.494L1037.25 532.367Z" fill="url(#paint73_linear_26_1001)"/>
<path d="M1032.12 540.426L1030.97 542.027L1036.25 547.916C1037.49 546.07 1038.2 544.109 1038.54 542.156L1032.12 540.426Z" fill="url(#paint74_linear_26_1001)"/>
<path d="M1031.4 551.945C1032.92 551.342 1034.4 550.307 1035.76 548.583L1030.49 542.702L1029.35 544.299L1031.4 551.945Z" fill="url(#paint75_linear_26_1001)"/>
<path d="M1028.65 545.274L1024.76 550.693C1026.21 552.301 1028.32 552.814 1030.46 552.249L1028.65 545.274Z" fill="url(#paint76_linear_26_1001)"/>
<path d="M1032.82 539.451L1038.7 540.964C1038.97 538.153 1038.47 535.638 1036.85 533.829L1032.82 539.451Z" fill="url(#paint77_linear_26_1001)"/>
<g opacity="0.2">
<path opacity="0.2" d="M1032.12 540.426L1030.97 542.027L1036.25 547.916C1037.49 546.07 1038.2 544.109 1038.54 542.156L1032.12 540.426Z" fill="url(#paint78_linear_26_1001)"/>
<path opacity="0.2" d="M1031.4 551.945C1032.92 551.342 1034.4 550.307 1035.76 548.583L1030.49 542.702L1029.35 544.299L1031.4 551.945Z" fill="url(#paint79_linear_26_1001)"/>
<path opacity="0.2" d="M1028.65 545.274L1024.76 550.693C1026.21 552.301 1028.32 552.814 1030.46 552.249L1028.65 545.274Z" fill="url(#paint80_linear_26_1001)"/>
<path opacity="0.2" d="M1032.82 539.451L1038.7 540.964C1038.97 538.153 1038.47 535.638 1036.85 533.829L1032.82 539.451Z" fill="url(#paint81_linear_26_1001)"/>
</g>
<path d="M1012.52 550.419C1009.14 556.779 1002.02 558.312 996.637 553.841C991.249 549.371 989.626 540.592 993.01 534.233L1012.52 550.419Z" fill="url(#paint82_linear_26_1001)"/>
<path opacity="0.5" d="M1012.52 550.419C1009.53 556.037 1002.74 556.967 997.352 552.498C991.964 548.029 990.02 539.851 993.01 534.233L1012.52 550.419Z" fill="url(#paint83_linear_26_1001)"/>
<path d="M1011.36 549.454C1008.81 554.252 1002.78 555.199 998.049 551.277C993.322 547.355 991.686 540.05 994.24 535.253L1011.36 549.454Z" fill="url(#paint84_linear_26_1001)"/>
<path d="M1004.24 544.27L1002.8 543.082L998.887 550.44C1000.53 551.718 1002.18 552.304 1003.78 552.45L1004.24 544.27Z" fill="url(#paint85_linear_26_1001)"/>
<path d="M995.003 545.027C995.697 546.816 996.73 548.5 998.289 549.93L1002.2 542.582L1000.77 541.396L995.003 545.027Z" fill="url(#paint86_linear_26_1001)"/>
<path d="M999.899 540.671L995.049 536.648C993.979 538.658 993.875 541.346 994.628 543.912L999.899 540.671Z" fill="url(#paint87_linear_26_1001)"/>
<path d="M1005.11 544.994L1004.75 552.477C1007.02 552.406 1008.94 551.431 1010.14 549.169L1005.11 544.994Z" fill="url(#paint88_linear_26_1001)"/>
<g opacity="0.2">
<path opacity="0.2" d="M1004.24 544.27L1002.8 543.082L998.887 550.44C1000.53 551.718 1002.18 552.304 1003.78 552.45L1004.24 544.27Z" fill="url(#paint89_linear_26_1001)"/>
<path opacity="0.2" d="M995.003 545.027C995.697 546.816 996.73 548.5 998.289 549.93L1002.2 542.582L1000.77 541.396L995.003 545.027Z" fill="url(#paint90_linear_26_1001)"/>
<path opacity="0.2" d="M999.899 540.671L995.049 536.648C993.979 538.658 993.875 541.346 994.628 543.912L999.899 540.671Z" fill="url(#paint91_linear_26_1001)"/>
<path opacity="0.2" d="M1005.11 544.994L1004.75 552.477C1007.02 552.406 1008.94 551.431 1010.14 549.169L1005.11 544.994Z" fill="url(#paint92_linear_26_1001)"/>
</g>
<path d="M1030.87 567.911C1032 566.955 1031.2 561.667 1028.99 557.787C1025.85 552.286 1019.72 549.377 1018.27 548.732C1016.7 548.031 1015.3 547.634 1014.1 545.923C1012.36 543.454 1012.31 540.087 1011.62 540.127C1011.1 540.156 1011.28 542.025 1010.26 542.761C1008.85 543.78 1006.97 541.323 1005.55 542.465C1004.93 542.959 1004.73 543.854 1004.72 543.948C1004.39 545.524 1005.59 546.639 1005.25 547.4C1004.87 548.238 1003.31 547.107 1002 547.981C1000.55 548.954 999.746 552.19 1000.55 554.288C1001.52 556.827 1004.43 556.633 1004.6 558.487C1004.72 559.86 1003.17 560.404 1003.05 561.882C1002.86 564.115 1006.07 567.234 1009.57 568.274C1016.68 570.38 1020.97 562.742 1027.04 565.888C1029.03 566.914 1030.13 568.537 1030.87 567.911Z" fill="url(#paint93_linear_26_1001)"/>
<path d="M1024 562.872C1020.83 562.352 1019.6 565.749 1014.67 566.366C1010.57 566.879 1006.24 565.174 1005.92 562.955C1005.71 561.514 1007.34 560.858 1007.23 558.97C1007.07 556.172 1003.37 555.278 1003.52 553.356C1003.66 551.647 1006.63 551.749 1007.37 549.139C1007.93 547.162 1006.64 545.61 1007.33 544.682C1008.16 543.55 1010.28 545.595 1011.97 544.565C1012.35 544.333 1012.66 543.974 1012.91 543.529C1013.19 544.328 1013.56 545.168 1014.09 545.922C1015.3 547.633 1016.69 548.03 1018.27 548.731C1019.72 549.374 1025.85 552.284 1028.99 557.785C1031.2 561.665 1032 566.954 1030.87 567.91C1030.43 568.276 1029.88 567.871 1029.09 567.266C1027.18 564.091 1025.4 563.101 1024 562.872Z" fill="url(#paint94_linear_26_1001)"/>
<path d="M1021.24 560.819C1020.75 561.909 1020.09 562.909 1019.25 563.772C1015.02 568.13 1008.92 566.308 1005.63 559.701C1003.53 555.486 1002.66 550.776 1003.07 547.129C1003.31 545.059 1003.95 543.331 1005.02 542.23C1007.98 539.188 1014.07 541.013 1018.64 546.302C1022.3 550.544 1023.21 556.411 1021.24 560.819Z" fill="url(#paint95_linear_26_1001)"/>
<path d="M1016.69 550.001C1018.47 552.701 1018.15 556.716 1015.96 558.966C1013.77 561.217 1010.55 560.853 1008.77 558.153C1006.99 555.453 1007.31 551.438 1009.5 549.188C1011.69 546.937 1014.91 547.301 1016.69 550.001Z" fill="url(#paint96_linear_26_1001)"/>
<path opacity="0.1" d="M1021.24 560.819C1020.75 561.909 1020.09 562.909 1019.25 563.772C1015.02 568.13 1008.92 566.308 1005.63 559.701C1003.53 555.486 1002.66 550.776 1003.07 547.129C1003.57 550.813 1004.91 556.362 1008.59 557.86C1009.11 558.07 1009.67 558.2 1010.29 558.235C1012.36 558.346 1014.35 558.515 1016.1 558.817C1018.35 559.205 1020.19 559.816 1021.24 560.819Z" fill="url(#paint97_linear_26_1001)"/>
<defs>
<linearGradient id="paint0_linear_26_1001" x1="1366.65" y1="1038" x2="1366.65" y2="760.889" gradientUnits="userSpaceOnUse">
<stop stop-color="#C5CFFF"/>
<stop offset="0.248" stop-color="#D3DCFF"/>
<stop offset="0.5471" stop-color="#DCE4FF"/>
<stop offset="1" stop-color="#DFE6FF"/>
</linearGradient>
<linearGradient id="paint1_linear_26_1001" x1="212.122" y1="1038" x2="212.122" y2="826.058" gradientUnits="userSpaceOnUse">
<stop stop-color="#C5CFFF"/>
<stop offset="0.248" stop-color="#D3DCFF"/>
<stop offset="0.5471" stop-color="#DCE4FF"/>
<stop offset="1" stop-color="#DFE6FF"/>
</linearGradient>
<linearGradient id="paint2_linear_26_1001" x1="935.653" y1="0" x2="935.653" y2="465.074" gradientUnits="userSpaceOnUse">
<stop stop-color="#6615B2"/>
<stop offset="0.2956" stop-color="#8D28C3"/>
<stop offset="0.5849" stop-color="#AC37D0"/>
<stop offset="0.8295" stop-color="#BF40D8"/>
<stop offset="1" stop-color="#C643DB"/>
</linearGradient>
<linearGradient id="paint3_linear_26_1001" x1="472.732" y1="224.983" x2="472.732" y2="0" gradientUnits="userSpaceOnUse">
<stop stop-color="#F9795A"/>
<stop offset="1" stop-color="#EB3668"/>
</linearGradient>
<linearGradient id="paint4_linear_26_1001" x1="1011.85" y1="751.03" x2="1041.22" y2="751.03" gradientUnits="userSpaceOnUse">
<stop stop-color="#F9795A"/>
<stop offset="1" stop-color="#FFEFE9"/>
</linearGradient>
<linearGradient id="paint5_linear_26_1001" x1="1007.06" y1="388.244" x2="1055.63" y2="388.244" gradientUnits="userSpaceOnUse">
<stop offset="0.00359712" stop-color="#EBEFF2"/>
<stop offset="1" stop-color="white"/>
</linearGradient>
<linearGradient id="paint6_linear_26_1001" x1="1015.41" y1="371.509" x2="1034.85" y2="387.934" gradientUnits="userSpaceOnUse">
<stop offset="0.00359712" stop-color="#E38DDD"/>
<stop offset="1" stop-color="#9571F6"/>
</linearGradient>
<linearGradient id="paint7_linear_26_1001" x1="1024.03" y1="385.69" x2="1015.22" y2="384.256" gradientUnits="userSpaceOnUse">
<stop offset="0.00359712" stop-color="#E38DDD"/>
<stop offset="1" stop-color="#9571F6"/>
</linearGradient>
<linearGradient id="paint8_linear_26_1001" x1="1026.2" y1="383.005" x2="1017.9" y2="381.655" gradientUnits="userSpaceOnUse">
<stop offset="0.00359712" stop-color="#E38DDD"/>
<stop offset="1" stop-color="#9571F6"/>
</linearGradient>
<linearGradient id="paint9_linear_26_1001" x1="1024.21" y1="384.153" x2="1021.46" y2="378.468" gradientUnits="userSpaceOnUse">
<stop offset="0.00359712" stop-color="#E38DDD"/>
<stop offset="1" stop-color="#9571F6"/>
</linearGradient>
<linearGradient id="paint10_linear_26_1001" x1="1021.43" y1="371.513" x2="1025.22" y2="379" gradientUnits="userSpaceOnUse">
<stop offset="0.00359712" stop-color="#E38DDD"/>
<stop offset="1" stop-color="#9571F6"/>
</linearGradient>
<linearGradient id="paint11_linear_26_1001" x1="1033.76" y1="369.229" x2="1018.9" y2="386.303" gradientUnits="userSpaceOnUse">
<stop stop-color="#AB316D"/>
<stop offset="1" stop-color="#792D3D"/>
</linearGradient>
<linearGradient id="paint12_linear_26_1001" x1="1029.99" y1="383.787" x2="1014.78" y2="401.263" gradientUnits="userSpaceOnUse">
<stop stop-color="#AB316D"/>
<stop offset="1" stop-color="#792D3D"/>
</linearGradient>
<linearGradient id="paint13_linear_26_1001" x1="1024.5" y1="385.132" x2="1018.88" y2="391.59" gradientUnits="userSpaceOnUse">
<stop stop-color="#AB316D"/>
<stop offset="1" stop-color="#792D3D"/>
</linearGradient>
<linearGradient id="paint14_linear_26_1001" x1="1027.67" y1="384.764" x2="1022.05" y2="391.222" gradientUnits="userSpaceOnUse">
<stop stop-color="#AB316D"/>
<stop offset="1" stop-color="#792D3D"/>
</linearGradient>
<linearGradient id="paint15_linear_26_1001" x1="1030.84" y1="384.397" x2="1025.22" y2="390.855" gradientUnits="userSpaceOnUse">
<stop stop-color="#AB316D"/>
<stop offset="1" stop-color="#792D3D"/>
</linearGradient>
<linearGradient id="paint16_linear_26_1001" x1="1034.01" y1="384.029" x2="1028.39" y2="390.487" gradientUnits="userSpaceOnUse">
<stop stop-color="#AB316D"/>
<stop offset="1" stop-color="#792D3D"/>
</linearGradient>
<linearGradient id="paint17_linear_26_1001" x1="949.273" y1="349.42" x2="999.434" y2="349.42" gradientUnits="userSpaceOnUse">
<stop offset="0.00359712" stop-color="#EBEFF2"/>
<stop offset="1" stop-color="white"/>
</linearGradient>
<radialGradient id="paint18_radial_26_1001" cx="0" cy="0" r="1" gradientUnits="userSpaceOnUse" gradientTransform="translate(965.634 323.228) rotate(56.7584) scale(37.7347 27.0925)">
<stop offset="0.145833" stop-color="#252527"/>
<stop offset="1" stop-color="#EBEFF2"/>
</radialGradient>
<linearGradient id="paint19_linear_26_1001" x1="972.623" y1="308.728" x2="976.75" y2="338.669" gradientUnits="userSpaceOnUse">
<stop stop-color="white"/>
<stop offset="0.9964" stop-color="#EBEFF2"/>
</linearGradient>
<linearGradient id="paint20_linear_26_1001" x1="998.678" y1="319.481" x2="969.02" y2="356.197" gradientUnits="userSpaceOnUse">
<stop offset="0.00359712" stop-color="#E38DDD"/>
<stop offset="1" stop-color="#9571F6"/>
</linearGradient>
<linearGradient id="paint21_linear_26_1001" x1="979.239" y1="341.295" x2="998.544" y2="336.694" gradientUnits="userSpaceOnUse">
<stop offset="0.00359712" stop-color="#E38DDD"/>
<stop offset="1" stop-color="#9571F6"/>
</linearGradient>
<linearGradient id="paint22_linear_26_1001" x1="974.349" y1="337.165" x2="992.531" y2="332.832" gradientUnits="userSpaceOnUse">
<stop offset="0.00359712" stop-color="#E38DDD"/>
<stop offset="1" stop-color="#9571F6"/>
</linearGradient>
<linearGradient id="paint23_linear_26_1001" x1="978.844" y1="338.931" x2="982.057" y2="329.199" gradientUnits="userSpaceOnUse">
<stop offset="0.00359712" stop-color="#E38DDD"/>
<stop offset="1" stop-color="#9571F6"/>
</linearGradient>
<linearGradient id="paint24_linear_26_1001" x1="985.117" y1="319.488" x2="980.644" y2="332.418" gradientUnits="userSpaceOnUse">
<stop offset="0.00359712" stop-color="#E38DDD"/>
<stop offset="1" stop-color="#9571F6"/>
</linearGradient>
<linearGradient id="paint25_linear_26_1001" x1="951.548" y1="321.672" x2="981.206" y2="358.387" gradientUnits="userSpaceOnUse">
<stop offset="0.00359712" stop-color="#E38DDD"/>
<stop offset="1" stop-color="#9571F6"/>
</linearGradient>
<linearGradient id="paint26_linear_26_1001" x1="970.986" y1="343.485" x2="951.682" y2="338.885" gradientUnits="userSpaceOnUse">
<stop offset="0.00359712" stop-color="#E38DDD"/>
<stop offset="1" stop-color="#9571F6"/>
</linearGradient>
<linearGradient id="paint27_linear_26_1001" x1="975.876" y1="339.355" x2="957.695" y2="335.022" gradientUnits="userSpaceOnUse">
<stop offset="0.00359712" stop-color="#E38DDD"/>
<stop offset="1" stop-color="#9571F6"/>
</linearGradient>
<linearGradient id="paint28_linear_26_1001" x1="971.382" y1="341.121" x2="968.169" y2="331.39" gradientUnits="userSpaceOnUse">
<stop offset="0.00359712" stop-color="#E38DDD"/>
<stop offset="1" stop-color="#9571F6"/>
</linearGradient>
<linearGradient id="paint29_linear_26_1001" x1="965.109" y1="321.678" x2="969.582" y2="334.608" gradientUnits="userSpaceOnUse">
<stop offset="0.00359712" stop-color="#E38DDD"/>
<stop offset="1" stop-color="#9571F6"/>
</linearGradient>
<linearGradient id="paint30_linear_26_1001" x1="992.109" y1="329.449" x2="977.632" y2="335.778" gradientUnits="userSpaceOnUse">
<stop stop-color="#FF9085"/>
<stop offset="1" stop-color="#FB6FBB"/>
</linearGradient>
<linearGradient id="paint31_linear_26_1001" x1="991.856" y1="329.06" x2="977.448" y2="335.359" gradientUnits="userSpaceOnUse">
<stop stop-color="#FF9085"/>
<stop offset="1" stop-color="#FB6FBB"/>
</linearGradient>
<linearGradient id="paint32_linear_26_1001" x1="990.938" y1="329.366" x2="978.306" y2="334.889" gradientUnits="userSpaceOnUse">
<stop offset="0.00359712" stop-color="#EBEFF2"/>
<stop offset="1" stop-color="white"/>
</linearGradient>
<linearGradient id="paint33_linear_26_1001" x1="989.365" y1="331.282" x2="985.259" y2="333.078" gradientUnits="userSpaceOnUse">
<stop stop-color="#FF9085"/>
<stop offset="1" stop-color="#FB6FBB"/>
</linearGradient>
<linearGradient id="paint34_linear_26_1001" x1="986.773" y1="334.008" x2="983.524" y2="335.428" gradientUnits="userSpaceOnUse">
<stop stop-color="#FF9085"/>
<stop offset="1" stop-color="#FB6FBB"/>
</linearGradient>
<linearGradient id="paint35_linear_26_1001" x1="984.134" y1="336.251" x2="980.615" y2="337.789" gradientUnits="userSpaceOnUse">
<stop stop-color="#FF9085"/>
<stop offset="1" stop-color="#FB6FBB"/>
</linearGradient>
<linearGradient id="paint36_linear_26_1001" x1="989.652" y1="328.15" x2="985.828" y2="329.821" gradientUnits="userSpaceOnUse">
<stop stop-color="#FF9085"/>
<stop offset="1" stop-color="#FB6FBB"/>
</linearGradient>
<linearGradient id="paint37_linear_26_1001" x1="989.365" y1="331.282" x2="985.259" y2="333.078" gradientUnits="userSpaceOnUse">
<stop stop-color="#FF9085"/>
<stop offset="1" stop-color="#FB6FBB"/>
</linearGradient>
<linearGradient id="paint38_linear_26_1001" x1="986.773" y1="334.008" x2="983.524" y2="335.428" gradientUnits="userSpaceOnUse">
<stop stop-color="#FF9085"/>
<stop offset="1" stop-color="#FB6FBB"/>
</linearGradient>
<linearGradient id="paint39_linear_26_1001" x1="984.134" y1="336.251" x2="980.615" y2="337.789" gradientUnits="userSpaceOnUse">
<stop stop-color="#FF9085"/>
<stop offset="1" stop-color="#FB6FBB"/>
</linearGradient>
<linearGradient id="paint40_linear_26_1001" x1="989.652" y1="328.15" x2="985.828" y2="329.821" gradientUnits="userSpaceOnUse">
<stop stop-color="#FF9085"/>
<stop offset="1" stop-color="#FB6FBB"/>
</linearGradient>
<linearGradient id="paint41_linear_26_1001" x1="969.14" y1="342.06" x2="956.383" y2="330.186" gradientUnits="userSpaceOnUse">
<stop stop-color="#FF9085"/>
<stop offset="1" stop-color="#FB6FBB"/>
</linearGradient>
<linearGradient id="paint42_linear_26_1001" x1="969.39" y1="341.67" x2="956.694" y2="329.851" gradientUnits="userSpaceOnUse">
<stop stop-color="#FF9085"/>
<stop offset="1" stop-color="#FB6FBB"/>
</linearGradient>
<linearGradient id="paint43_linear_26_1001" x1="969.034" y1="340.492" x2="957.902" y2="330.13" gradientUnits="userSpaceOnUse">
<stop offset="0.00359712" stop-color="#EBEFF2"/>
<stop offset="1" stop-color="white"/>
</linearGradient>
<linearGradient id="paint44_linear_26_1001" x1="967.398" y1="338.673" x2="963.779" y2="335.305" gradientUnits="userSpaceOnUse">
<stop stop-color="#FF9085"/>
<stop offset="1" stop-color="#FB6FBB"/>
</linearGradient>
<linearGradient id="paint45_linear_26_1001" x1="965.021" y1="335.614" x2="962.158" y2="332.949" gradientUnits="userSpaceOnUse">
<stop stop-color="#FF9085"/>
<stop offset="1" stop-color="#FB6FBB"/>
</linearGradient>
<linearGradient id="paint46_linear_26_1001" x1="962.992" y1="332.425" x2="959.891" y2="329.538" gradientUnits="userSpaceOnUse">
<stop stop-color="#FF9085"/>
<stop offset="1" stop-color="#FB6FBB"/>
</linearGradient>
<linearGradient id="paint47_linear_26_1001" x1="969.746" y1="338.608" x2="966.376" y2="335.471" gradientUnits="userSpaceOnUse">
<stop stop-color="#FF9085"/>
<stop offset="1" stop-color="#FB6FBB"/>
</linearGradient>
<linearGradient id="paint48_linear_26_1001" x1="967.398" y1="338.673" x2="963.779" y2="335.305" gradientUnits="userSpaceOnUse">
<stop stop-color="#FF9085"/>
<stop offset="1" stop-color="#FB6FBB"/>
</linearGradient>
<linearGradient id="paint49_linear_26_1001" x1="965.021" y1="335.614" x2="962.158" y2="332.949" gradientUnits="userSpaceOnUse">
<stop stop-color="#FF9085"/>
<stop offset="1" stop-color="#FB6FBB"/>
</linearGradient>
<linearGradient id="paint50_linear_26_1001" x1="962.992" y1="332.425" x2="959.891" y2="329.538" gradientUnits="userSpaceOnUse">
<stop stop-color="#FF9085"/>
<stop offset="1" stop-color="#FB6FBB"/>
</linearGradient>
<linearGradient id="paint51_linear_26_1001" x1="969.746" y1="338.608" x2="966.376" y2="335.471" gradientUnits="userSpaceOnUse">
<stop stop-color="#FF9085"/>
<stop offset="1" stop-color="#FB6FBB"/>
</linearGradient>
<linearGradient id="paint52_linear_26_1001" x1="966.122" y1="324.819" x2="995.78" y2="361.535" gradientUnits="userSpaceOnUse">
<stop offset="0.00359712" stop-color="#E38DDD"/>
<stop offset="1" stop-color="#9571F6"/>
</linearGradient>
<linearGradient id="paint53_linear_26_1001" x1="985.56" y1="346.633" x2="966.256" y2="342.032" gradientUnits="userSpaceOnUse">
<stop offset="0.00359712" stop-color="#E38DDD"/>
<stop offset="1" stop-color="#9571F6"/>
</linearGradient>
<linearGradient id="paint54_linear_26_1001" x1="979.093" y1="341.82" x2="965.827" y2="339.747" gradientUnits="userSpaceOnUse">
<stop offset="0.00359712" stop-color="#EBEFF2"/>
<stop offset="1" stop-color="white"/>
</linearGradient>
<linearGradient id="paint55_linear_26_1001" x1="976.067" y1="341.177" x2="969.439" y2="340.142" gradientUnits="userSpaceOnUse">
<stop stop-color="#FFC444"/>
<stop offset="0.9964" stop-color="#F36F56"/>
</linearGradient>
<linearGradient id="paint56_linear_26_1001" x1="978.437" y1="344.486" x2="965.418" y2="342.452" gradientUnits="userSpaceOnUse">
<stop stop-color="#FFC444"/>
<stop offset="0.9964" stop-color="#F36F56"/>
</linearGradient>
<linearGradient id="paint57_linear_26_1001" x1="976.607" y1="567.135" x2="1053.58" y2="567.135" gradientUnits="userSpaceOnUse">
<stop offset="0.00359712" stop-color="#EBEFF2"/>
<stop offset="1" stop-color="white"/>
</linearGradient>
<linearGradient id="paint58_linear_26_1001" x1="998.312" y1="488.419" x2="1008.85" y2="570.699" gradientUnits="userSpaceOnUse">
<stop stop-color="white"/>
<stop offset="0.9964" stop-color="#EBEFF2"/>
</linearGradient>
<linearGradient id="paint59_linear_26_1001" x1="1011.49" y1="507.036" x2="1017.39" y2="553.068" gradientUnits="userSpaceOnUse">
<stop offset="0.00359712" stop-color="#EBEFF2"/>
<stop offset="1" stop-color="white"/>
</linearGradient>
<linearGradient id="paint60_linear_26_1001" x1="1012.44" y1="509.128" x2="1017.92" y2="551.918" gradientUnits="userSpaceOnUse">
<stop stop-color="white"/>
<stop offset="0.9964" stop-color="#EBEFF2"/>
</linearGradient>
<linearGradient id="paint61_linear_26_1001" x1="1052.42" y1="524.457" x2="1010.89" y2="579.788" gradientUnits="userSpaceOnUse">
<stop offset="0.00359712" stop-color="#E38DDD"/>
<stop offset="1" stop-color="#9571F6"/>
</linearGradient>
<linearGradient id="paint62_linear_26_1001" x1="1022.59" y1="555.553" x2="1051.96" y2="548.018" gradientUnits="userSpaceOnUse">
<stop offset="0.00359712" stop-color="#E38DDD"/>
<stop offset="1" stop-color="#9571F6"/>
</linearGradient>
<linearGradient id="paint63_linear_26_1001" x1="1015.08" y1="549.665" x2="1042.75" y2="542.568" gradientUnits="userSpaceOnUse">
<stop offset="0.00359712" stop-color="#E38DDD"/>
<stop offset="1" stop-color="#9571F6"/>
</linearGradient>
<linearGradient id="paint64_linear_26_1001" x1="1021.98" y1="552.182" x2="1026.29" y2="538.121" gradientUnits="userSpaceOnUse">
<stop offset="0.00359712" stop-color="#E38DDD"/>
<stop offset="1" stop-color="#9571F6"/>
</linearGradient>
<linearGradient id="paint65_linear_26_1001" x1="1031.61" y1="524.466" x2="1025.6" y2="543.172" gradientUnits="userSpaceOnUse">
<stop offset="0.00359712" stop-color="#E38DDD"/>
<stop offset="1" stop-color="#9571F6"/>
</linearGradient>
<linearGradient id="paint66_linear_26_1001" x1="980.097" y1="527.579" x2="1021.62" y2="582.911" gradientUnits="userSpaceOnUse">
<stop offset="0.00359712" stop-color="#E38DDD"/>
<stop offset="1" stop-color="#9571F6"/>
</linearGradient>
<linearGradient id="paint67_linear_26_1001" x1="1009.92" y1="558.675" x2="980.553" y2="551.14" gradientUnits="userSpaceOnUse">
<stop offset="0.00359712" stop-color="#E38DDD"/>
<stop offset="1" stop-color="#9571F6"/>
</linearGradient>
<linearGradient id="paint68_linear_26_1001" x1="1017.43" y1="552.788" x2="989.765" y2="545.691" gradientUnits="userSpaceOnUse">
<stop offset="0.00359712" stop-color="#E38DDD"/>
<stop offset="1" stop-color="#9571F6"/>
</linearGradient>
<linearGradient id="paint69_linear_26_1001" x1="1010.53" y1="555.305" x2="1006.22" y2="541.243" gradientUnits="userSpaceOnUse">
<stop offset="0.00359712" stop-color="#E38DDD"/>
<stop offset="1" stop-color="#9571F6"/>
</linearGradient>
<linearGradient id="paint70_linear_26_1001" x1="1000.91" y1="527.589" x2="1006.92" y2="546.294" gradientUnits="userSpaceOnUse">
<stop offset="0.00359712" stop-color="#E38DDD"/>
<stop offset="1" stop-color="#9571F6"/>
</linearGradient>
<linearGradient id="paint71_linear_26_1001" x1="1042.34" y1="538.666" x2="1020.67" y2="548.86" gradientUnits="userSpaceOnUse">
<stop stop-color="#FF9085"/>
<stop offset="1" stop-color="#FB6FBB"/>
</linearGradient>
<linearGradient id="paint72_linear_26_1001" x1="1041.95" y1="538.111" x2="1020.39" y2="548.257" gradientUnits="userSpaceOnUse">
<stop stop-color="#FF9085"/>
<stop offset="1" stop-color="#FB6FBB"/>
</linearGradient>
<linearGradient id="paint73_linear_26_1001" x1="1040.54" y1="538.548" x2="1021.64" y2="547.443" gradientUnits="userSpaceOnUse">
<stop offset="0.00359712" stop-color="#EBEFF2"/>
<stop offset="1" stop-color="white"/>
</linearGradient>
<linearGradient id="paint74_linear_26_1001" x1="1038.13" y1="541.28" x2="1031.98" y2="544.171" gradientUnits="userSpaceOnUse">
<stop stop-color="#FF9085"/>
<stop offset="1" stop-color="#FB6FBB"/>
</linearGradient>
<linearGradient id="paint75_linear_26_1001" x1="1034.15" y1="545.165" x2="1029.29" y2="547.453" gradientUnits="userSpaceOnUse">
<stop stop-color="#FF9085"/>
<stop offset="1" stop-color="#FB6FBB"/>
</linearGradient>
<linearGradient id="paint76_linear_26_1001" x1="1030.1" y1="548.362" x2="1024.83" y2="550.84" gradientUnits="userSpaceOnUse">
<stop stop-color="#FF9085"/>
<stop offset="1" stop-color="#FB6FBB"/>
</linearGradient>
<linearGradient id="paint77_linear_26_1001" x1="1038.57" y1="536.813" x2="1032.84" y2="539.506" gradientUnits="userSpaceOnUse">
<stop stop-color="#FF9085"/>
<stop offset="1" stop-color="#FB6FBB"/>
</linearGradient>
<linearGradient id="paint78_linear_26_1001" x1="1038.13" y1="541.28" x2="1031.98" y2="544.171" gradientUnits="userSpaceOnUse">
<stop stop-color="#FF9085"/>
<stop offset="1" stop-color="#FB6FBB"/>
</linearGradient>
<linearGradient id="paint79_linear_26_1001" x1="1034.15" y1="545.165" x2="1029.29" y2="547.453" gradientUnits="userSpaceOnUse">
<stop stop-color="#FF9085"/>
<stop offset="1" stop-color="#FB6FBB"/>
</linearGradient>
<linearGradient id="paint80_linear_26_1001" x1="1030.1" y1="548.362" x2="1024.83" y2="550.84" gradientUnits="userSpaceOnUse">
<stop stop-color="#FF9085"/>
<stop offset="1" stop-color="#FB6FBB"/>
</linearGradient>
<linearGradient id="paint81_linear_26_1001" x1="1038.57" y1="536.813" x2="1032.84" y2="539.506" gradientUnits="userSpaceOnUse">
<stop stop-color="#FF9085"/>
<stop offset="1" stop-color="#FB6FBB"/>
</linearGradient>
<linearGradient id="paint82_linear_26_1001" x1="1007.09" y1="556.644" x2="988.859" y2="538.375" gradientUnits="userSpaceOnUse">
<stop stop-color="#FF9085"/>
<stop offset="1" stop-color="#FB6FBB"/>
</linearGradient>
<linearGradient id="paint83_linear_26_1001" x1="1007.48" y1="556.087" x2="989.33" y2="537.905" gradientUnits="userSpaceOnUse">
<stop stop-color="#FF9085"/>
<stop offset="1" stop-color="#FB6FBB"/>
</linearGradient>
<linearGradient id="paint84_linear_26_1001" x1="1006.93" y1="554.409" x2="991.019" y2="538.467" gradientUnits="userSpaceOnUse">
<stop offset="0.00359712" stop-color="#EBEFF2"/>
<stop offset="1" stop-color="white"/>
</linearGradient>
<linearGradient id="paint85_linear_26_1001" x1="1004.42" y1="551.815" x2="999.247" y2="546.633" gradientUnits="userSpaceOnUse">
<stop stop-color="#FF9085"/>
<stop offset="1" stop-color="#FB6FBB"/>
</linearGradient>
<linearGradient id="paint86_linear_26_1001" x1="1000.77" y1="547.455" x2="996.679" y2="543.355" gradientUnits="userSpaceOnUse">
<stop stop-color="#FF9085"/>
<stop offset="1" stop-color="#FB6FBB"/>
</linearGradient>
<linearGradient id="paint87_linear_26_1001" x1="997.658" y1="542.908" x2="993.226" y2="538.467" gradientUnits="userSpaceOnUse">
<stop stop-color="#FF9085"/>
<stop offset="1" stop-color="#FB6FBB"/>
</linearGradient>
<linearGradient id="paint88_linear_26_1001" x1="1008.02" y1="551.722" x2="1003.21" y2="546.896" gradientUnits="userSpaceOnUse">
<stop stop-color="#FF9085"/>
<stop offset="1" stop-color="#FB6FBB"/>
</linearGradient>
<linearGradient id="paint89_linear_26_1001" x1="1004.42" y1="551.815" x2="999.247" y2="546.633" gradientUnits="userSpaceOnUse">
<stop stop-color="#FF9085"/>
<stop offset="1" stop-color="#FB6FBB"/>
</linearGradient>
<linearGradient id="paint90_linear_26_1001" x1="1000.77" y1="547.455" x2="996.679" y2="543.355" gradientUnits="userSpaceOnUse">
<stop stop-color="#FF9085"/>
<stop offset="1" stop-color="#FB6FBB"/>
</linearGradient>
<linearGradient id="paint91_linear_26_1001" x1="997.658" y1="542.908" x2="993.226" y2="538.467" gradientUnits="userSpaceOnUse">
<stop stop-color="#FF9085"/>
<stop offset="1" stop-color="#FB6FBB"/>
</linearGradient>
<linearGradient id="paint92_linear_26_1001" x1="1008.02" y1="551.722" x2="1003.21" y2="546.896" gradientUnits="userSpaceOnUse">
<stop stop-color="#FF9085"/>
<stop offset="1" stop-color="#FB6FBB"/>
</linearGradient>
<linearGradient id="paint93_linear_26_1001" x1="1002.46" y1="532.066" x2="1043.98" y2="587.398" gradientUnits="userSpaceOnUse">
<stop offset="0.00359712" stop-color="#E38DDD"/>
<stop offset="1" stop-color="#9571F6"/>
</linearGradient>
<linearGradient id="paint94_linear_26_1001" x1="1032.29" y1="563.162" x2="1002.92" y2="555.627" gradientUnits="userSpaceOnUse">
<stop offset="0.00359712" stop-color="#E38DDD"/>
<stop offset="1" stop-color="#9571F6"/>
</linearGradient>
<linearGradient id="paint95_linear_26_1001" x1="1022.37" y1="556.301" x2="1002.08" y2="552.891" gradientUnits="userSpaceOnUse">
<stop offset="0.00359712" stop-color="#EBEFF2"/>
<stop offset="1" stop-color="white"/>
</linearGradient>
<linearGradient id="paint96_linear_26_1001" x1="1017.72" y1="555.385" x2="1007.59" y2="553.682" gradientUnits="userSpaceOnUse">
<stop stop-color="#FFC444"/>
<stop offset="0.9964" stop-color="#F36F56"/>
</linearGradient>
<linearGradient id="paint97_linear_26_1001" x1="1021.36" y1="560.101" x2="1001.46" y2="556.755" gradientUnits="userSpaceOnUse">
<stop stop-color="#FFC444"/>
<stop offset="0.9964" stop-color="#F36F56"/>
</linearGradient>
</defs>
</svg>
