<svg width="1454" height="1038" viewBox="0 0 1454 1038" fill="none" xmlns="http://www.w3.org/2000/svg">
<path d="M1454 0H0V1038H1454V0Z" fill="white"/>
<path d="M1454 760.89C1454 760.89 1279.31 800.438 1279.31 1038H1453.81L1454 760.89Z" fill="url(#paint0_linear_64_3)"/>
<path d="M0 826.056V1038H424.245C424.245 1038 370.697 826.056 0 826.056Z" fill="url(#paint1_linear_64_3)"/>
<path d="M1454 0V399.781C1454 399.781 650.035 703.748 417.306 0H1454Z" fill="url(#paint2_linear_64_3)"/>
<path d="M0 178.282C0 178.282 296.588 302.38 543.231 145.99C789.873 -10.4007 945.463 0.15051 945.463 0.15051L0 0V178.282Z" fill="url(#paint3_linear_64_3)"/>
<defs>
<linearGradient id="paint0_linear_64_3" x1="1366.65" y1="1038" x2="1366.65" y2="760.89" gradientUnits="userSpaceOnUse">
<stop stop-color="#C5CFFF"/>
<stop offset="0.248" stop-color="#D3DCFF"/>
<stop offset="0.5471" stop-color="#DCE4FF"/>
<stop offset="1" stop-color="#DFE6FF"/>
</linearGradient>
<linearGradient id="paint1_linear_64_3" x1="212.122" y1="1038" x2="212.122" y2="826.058" gradientUnits="userSpaceOnUse">
<stop stop-color="#C5CFFF"/>
<stop offset="0.248" stop-color="#D3DCFF"/>
<stop offset="0.5471" stop-color="#DCE4FF"/>
<stop offset="1" stop-color="#DFE6FF"/>
</linearGradient>
<linearGradient id="paint2_linear_64_3" x1="935.653" y1="0" x2="935.653" y2="465.074" gradientUnits="userSpaceOnUse">
<stop stop-color="#6615B2"/>
<stop offset="0.2956" stop-color="#8D28C3"/>
<stop offset="0.5849" stop-color="#AC37D0"/>
<stop offset="0.8295" stop-color="#BF40D8"/>
<stop offset="1" stop-color="#C643DB"/>
</linearGradient>
<linearGradient id="paint3_linear_64_3" x1="472.732" y1="224.983" x2="472.732" y2="0" gradientUnits="userSpaceOnUse">
<stop stop-color="#F9795A"/>
<stop offset="1" stop-color="#EB3668"/>
</linearGradient>
</defs>
</svg>
